<svg width="16" height="16" viewBox="0 0 16 16" fill="none" xmlns="http://www.w3.org/2000/svg">
    <rect width="16" height="16" fill="black" fill-opacity="0"/>
    <path d="M1 12C1 11.4477 1.44772 11 2 11H14C14.5523 11 15 11.4477 15 12V16H1V12Z" fill="#272424"/>
    <path d="M3 8C3 7.44772 3.44772 7 4 7H12C12.5523 7 13 7.44772 13 8V10H3V8Z" fill="#272424"/>
    <rect x="5" y="4" width="2" height="2" fill="#272424"/>
    <path d="M6 3C6.55228 3 7 2.32843 7 1.5C7 0.671573 6 0 6 0C6 0 5 0.671573 5 1.5C5 2.32843 5.44772 3 6 3Z" fill="#272424"/>
    <rect x="9" y="4" width="2" height="2" fill="#272424"/>
    <path d="M10 3C10.5523 3 11 2.32843 11 1.5C11 0.671573 10 0 10 0C10 0 9 0.671573 9 1.5C9 2.32843 9.44772 3 10 3Z" fill="#272424"/>
</svg>
