<svg xmlns="http://www.w3.org/2000/svg" width="16" height="16" viewBox="0 0 16 16">
    <path fill="#272424" fill-rule="nonzero" d="M10.644 3.064l-.724.723c-.464.344-1.136.32-1.532-.084-.464-.456-.488-1.128-.084-1.532L9.75.724c.4-.4 1.072-.376 1.532.084l4.04 4.04c.46.46.485 1.133.085 1.533l-5.066 5.065c-.4.4-1.071.376-1.531-.084l-.808-.808c-.577-.577-.577-1.04-.085-1.532.492-.492.955-.491 1.532.084l3.618-3.618-2.424-2.424zM5.356 13.2l.724-.724c.464-.343 1.136-.319 1.532.085.464.455.488 1.127.084 1.531L6.25 15.54c-.4.4-1.072.375-1.532-.085l-4.04-4.04c-.46-.46-.485-1.132-.085-1.532l5.066-5.066c.4-.4 1.071-.375 1.531.085l.808.808c.577.576.374 1.21.085 1.532-.29.321-.955.49-1.532-.085l-3.618 3.619L5.356 13.2z"/>
</svg>
