<svg width="120" height="40" viewBox="0 0 120 40" fill="none" xmlns="http://www.w3.org/2000/svg">
    <rect width="120" height="40" fill="black" fill-opacity="0"/>
    <path d="M110.135 -0.000114141H9.53468C9.16798 -0.000114141 8.80568 -0.000114141 8.43995 0.00188586C8.1338 0.00388586 7.83009 0.00969586 7.521 0.0145859C6.84951 0.0224877 6.17961 0.0815621 5.5171 0.191296C4.85552 0.303418 4.21467 0.514802 3.61622 0.818296C3.0185 1.12436 2.47235 1.52205 1.99757 1.99696C1.5203 2.47052 1.12246 3.0179 0.81935 3.61805C0.5154 4.21699 0.304641 4.85882 0.19435 5.52137C0.0830109 6.18307 0.0230984 6.85241 0.01515 7.52337C0.00587 7.82997 0.00489 8.13759 0 8.44423V31.5585C0.00489 31.869 0.00587 32.1698 0.01515 32.4804C0.0231008 33.1513 0.0830134 33.8206 0.19435 34.4823C0.304336 35.1452 0.515108 35.7874 0.81935 36.3866C1.12233 36.9848 1.52022 37.53 1.99757 38.0009C2.47054 38.4779 3.01705 38.8759 3.61622 39.1796C4.21467 39.4839 4.85545 39.6965 5.5171 39.8104C6.17972 39.9192 6.84956 39.9783 7.521 39.9872C7.83009 39.994 8.1338 39.9979 8.43995 39.9979C8.80567 39.9999 9.168 39.9999 9.53468 39.9999H110.135C110.494 39.9999 110.859 39.9999 111.219 39.9979C111.523 39.9979 111.836 39.994 112.141 39.9872C112.811 39.9788 113.479 39.9197 114.141 39.8104C114.804 39.6957 115.448 39.4831 116.049 39.1796C116.647 38.8757 117.193 38.4777 117.666 38.0009C118.142 37.5281 118.541 36.9833 118.848 36.3866C119.15 35.787 119.358 35.1448 119.467 34.4823C119.578 33.8205 119.64 33.1514 119.652 32.4804C119.656 32.1698 119.656 31.869 119.656 31.5585C119.664 31.1952 119.664 30.8339 119.664 30.4647V9.53602C119.664 9.16981 119.664 8.80653 119.656 8.44423C119.656 8.13759 119.656 7.82997 119.652 7.52333C119.64 6.85231 119.578 6.18312 119.467 5.52133C119.358 4.85917 119.149 4.21739 118.848 3.61801C118.23 2.41508 117.252 1.43591 116.049 0.818206C115.448 0.515453 114.804 0.304126 114.141 0.191206C113.48 0.0809886 112.811 0.0218936 112.141 0.0144459C111.836 0.00956586 111.523 0.00370586 111.219 0.00175586C110.859 -0.000244141 110.494 -0.000244141 110.135 -0.000244141V-0.000114141Z" fill="#A6A6A6"/>
    <path d="M8.44487 39.125C8.14019 39.125 7.84287 39.1211 7.54058 39.1143C6.91436 39.1061 6.2896 39.0516 5.67144 38.9512C5.09503 38.8519 4.53664 38.6673 4.0147 38.4033C3.49754 38.1415 3.02585 37.7983 2.6177 37.3867C2.20364 36.98 1.85891 36.5082 1.59719 35.9902C1.33258 35.4688 1.14945 34.9099 1.05419 34.333C0.951311 33.7131 0.895651 33.0863 0.887687 32.458C0.881347 32.2471 0.873047 31.5449 0.873047 31.5449V8.44434C0.873047 8.44434 0.881887 7.75293 0.887737 7.5498C0.895363 6.92248 0.950699 6.29665 1.05327 5.67773C1.14871 5.09925 1.33197 4.53875 1.59673 4.01563C1.85749 3.49794 2.2003 3.02586 2.61187 2.61768C3.02297 2.20562 3.49617 1.8606 4.01421 1.59521C4.53495 1.33209 5.09228 1.14873 5.66753 1.05127C6.28772 0.949836 6.91465 0.894996 7.54304 0.88721L8.44536 0.875H111.214L112.127 0.8877C112.75 0.895099 113.371 0.94945 113.985 1.05029C114.566 1.14898 115.13 1.33362 115.656 1.59814C116.694 2.13299 117.539 2.97916 118.071 4.01807C118.332 4.53758 118.512 5.09351 118.607 5.66699C118.71 6.29099 118.768 6.92174 118.78 7.5542C118.783 7.8374 118.783 8.1416 118.783 8.44434C118.791 8.81934 118.791 9.17627 118.791 9.53613V30.4648C118.791 30.8281 118.791 31.1826 118.783 31.54C118.783 31.8652 118.783 32.1631 118.779 32.4697C118.768 33.0909 118.711 33.7104 118.608 34.3232C118.515 34.9043 118.333 35.4675 118.068 35.9932C117.805 36.5056 117.462 36.9733 117.053 37.3789C116.644 37.7927 116.172 38.1379 115.653 38.4014C115.128 38.6674 114.566 38.8527 113.985 38.9512C113.367 39.0522 112.742 39.1067 112.116 39.1143C111.823 39.1211 111.517 39.125 111.219 39.125L110.135 39.127L8.44487 39.125Z" fill="black"/>
    <path fill-rule="evenodd" clip-rule="evenodd" d="M74.6797 29.0762C73.0449 29.0762 71.8496 28.2676 71.7109 27.0361H69.8086C69.9297 29.2822 71.7871 30.7031 74.543 30.7031C77.4863 30.7031 79.3359 29.248 79.3359 26.9248C79.3359 25.1084 78.2773 24.085 75.7305 23.4824L74.3613 23.1465C73.5566 22.9478 72.9922 22.7185 72.6289 22.4282C72.2695 22.1406 72.1074 21.7932 72.1074 21.3564C72.1074 20.2549 73.1309 19.498 74.6289 19.498C76.125 19.498 77.1504 20.2461 77.2617 21.4854H79.1387C79.0781 19.3428 77.2793 17.8711 74.6543 17.8711C72.0039 17.8711 70.1367 19.3428 70.1367 21.4854C70.1367 23.2158 71.1953 24.2822 73.4746 24.833L75.084 25.2207C76.6934 25.6162 77.373 26.1934 77.373 27.1572C77.373 28.2676 76.2461 29.0762 74.6797 29.0762ZM42.3027 27.1396H37.5684L36.4316 30.4961H34.4277L38.9121 18.0781H40.9941L45.4766 30.4961H43.4375L42.3027 27.1396ZM38.0586 25.5908H41.8105L39.9609 20.1436H39.9102L38.0586 25.5908ZM51.3809 30.5908C53.6543 30.5908 55.1602 28.7832 55.1602 25.9697C55.1602 23.1641 53.6445 21.3477 51.3477 21.3477C50.1641 21.3096 49.0566 21.9246 48.4648 22.9482H48.4297V21.4424H46.6309V33.4912H48.4902V29.0068H48.5332C48.6973 29.3037 48.9062 29.5662 49.1465 29.7878L49.2969 29.9167C49.3789 29.9832 49.4648 30.0452 49.5527 30.1025C49.6602 30.1726 49.7734 30.2358 49.8906 30.2917C50.168 30.4255 50.4668 30.5176 50.7773 30.563C50.9746 30.5918 51.1777 30.6016 51.3809 30.5908ZM53.25 25.9697C53.25 24.1367 52.3027 22.9316 50.8574 22.9316C49.4375 22.9316 48.4824 24.1621 48.4824 25.9697C48.4824 27.7939 49.4375 29.0156 50.8574 29.0156C52.3027 29.0156 53.25 27.8193 53.25 25.9697ZM61.3457 30.5908C63.6191 30.5908 65.125 28.7832 65.125 25.9697C65.125 23.1641 63.6094 21.3477 61.3105 21.3477C60.1289 21.3096 59.0215 21.9246 58.4277 22.9482H58.3945V21.4424H56.5957V33.4912H58.4551V29.0068H58.498C59.0645 30.0371 60.1719 30.6523 61.3457 30.5908ZM63.2148 25.9697C63.2148 24.1367 62.2676 22.9316 60.8223 22.9316C59.4023 22.9316 58.4473 24.1621 58.4473 25.9697C58.4473 27.7939 59.4023 29.0156 60.8223 29.0156C62.2676 29.0156 63.2148 27.8193 63.2148 25.9697ZM83.3477 19.2998V21.4424H85.0684V22.9141H83.3477V27.9053C83.3477 28.6807 83.6914 29.042 84.4492 29.042C84.6543 29.0383 84.8574 29.0242 85.0605 28.999V30.4619C84.9551 30.4817 84.8477 30.4983 84.7402 30.5112L84.6289 30.5237L84.4023 30.541L84.2324 30.5474L84.0273 30.5479C82.1953 30.5479 81.4805 29.8594 81.4805 28.1035V22.9141H80.1641V21.4424H81.4805V19.2998H83.3477ZM90.3613 21.3311C87.7441 21.3311 86.0664 23.1211 86.0664 25.9697C86.0664 28.8262 87.7266 30.6084 90.3613 30.6084C92.9941 30.6084 94.6562 28.8262 94.6562 25.9697C94.6562 23.1211 92.9863 21.3311 90.3613 21.3311ZM92.7617 25.9697C92.7617 24.0156 91.8652 22.8623 90.3594 22.8623C88.8535 22.8623 87.959 24.0244 87.959 25.9697C87.959 27.9316 88.8535 29.0762 90.3594 29.0762C91.8652 29.0762 92.7598 27.9316 92.7617 25.9697ZM97.959 21.4426H96.1855V30.4963H98.0449V25.1262C97.9824 24.5828 98.1602 24.0396 98.5332 23.6392C98.7109 23.4485 98.9238 23.2993 99.1562 23.1975C99.2637 23.1509 99.375 23.1143 99.4883 23.0884C99.6465 23.052 99.8125 23.0364 99.9805 23.0432C100.264 23.0349 100.545 23.0728 100.816 23.1555V21.4172C100.607 21.3704 100.393 21.3469 100.18 21.3479C99.6016 21.3259 99.0605 21.5337 98.6543 21.8975C98.3418 22.1782 98.1094 22.5515 98.002 22.9836H97.959V21.4426ZM109.385 27.8369C109.135 29.4805 107.535 30.6084 105.486 30.6084C102.854 30.6084 101.219 28.8438 101.219 26.0127C101.219 23.1729 102.861 21.3311 105.41 21.3311C107.914 21.3311 109.49 23.0518 109.49 25.7969V26.4336H103.096V26.5459C103.068 26.8401 103.098 27.1331 103.178 27.4106C103.283 27.7688 103.471 28.1013 103.734 28.3777C104.199 28.8684 104.854 29.1353 105.531 29.1104C106.432 29.1948 107.283 28.677 107.621 27.8369H109.385ZM107.629 25.1348H103.102C103.1 24.8113 103.168 24.4949 103.297 24.2046C103.41 23.9463 103.57 23.7087 103.775 23.5054C104.209 23.074 104.797 22.8333 105.408 22.8369C106.014 22.824 106.598 23.0645 107.02 23.5007C107.441 23.9368 107.662 24.5291 107.629 25.1348Z" fill="white"/>
    <path fill-rule="evenodd" clip-rule="evenodd" d="M59.0938 8.43701H59.9824V14.6978H59.0938V8.43701ZM39.9336 9.54883C39.3887 8.97437 38.6152 8.67432 37.8262 8.73096H35.6719V14.6978H37.8262C39.6055 14.6978 40.6348 13.6021 40.6348 11.6958C40.6504 11.5793 40.6562 11.4626 40.6562 11.3467V11.2695L40.6484 11.1667L40.625 10.9612C40.6055 10.8398 40.5781 10.7202 40.543 10.6028L40.5195 10.5288L40.4824 10.4246C40.3613 10.103 40.1758 9.80469 39.9336 9.54883ZM37.7227 13.854H36.5977V9.57422H37.7227C37.8926 9.5647 38.0586 9.57812 38.2207 9.61279C38.3594 9.64282 38.4941 9.68848 38.623 9.74878C38.8418 9.85107 39.041 9.99561 39.209 10.177C39.5898 10.5901 39.7676 11.1516 39.6895 11.708C39.7266 11.9495 39.7148 12.1924 39.6582 12.4241C39.6191 12.5818 39.5605 12.7341 39.4824 12.8772C39.4531 12.929 39.4219 12.9795 39.3887 13.0286L39.2949 13.1597L39.2168 13.2493C38.8359 13.6655 38.2871 13.8877 37.7227 13.854ZM41.6816 12.4443C41.6055 11.6372 41.9922 10.856 42.6816 10.4285C43.3691 10.001 44.2422 10.001 44.9297 10.4285C45.6191 10.856 46.0059 11.6372 45.9297 12.4443C46.0078 13.2522 45.6211 14.0349 44.9316 14.4634C44.2422 14.8918 43.3691 14.8918 42.6797 14.4634C41.9902 14.0349 41.6035 13.2522 41.6816 12.4443ZM44.793 11.4463C44.9375 11.7004 45.0137 12.0371 45.0137 12.4443C45.0137 13.4243 44.5762 13.9946 43.8066 13.9946C43.0332 13.9946 42.5996 13.4282 42.5996 12.4443C42.5996 11.4683 43.0332 10.8975 43.8066 10.8975C43.8828 10.8975 43.957 10.9031 44.0273 10.9143C44.1094 10.9272 44.1855 10.9475 44.2559 10.9749C44.4844 11.0623 44.666 11.2222 44.793 11.4463ZM51.5742 14.6978H50.6523L49.7227 11.3813H49.6523L48.7246 14.6978H47.8105L46.5703 10.1948H47.4727L48.2793 13.6309H48.3457L49.2715 10.1948H50.123L51.0488 13.6309H51.1191L51.9219 10.1948H52.8105L51.5742 14.6978ZM54.709 10.1948H53.8535V14.6978H54.7422V12.0635C54.7109 11.7639 54.8105 11.4653 55.0176 11.2458C55.2246 11.0266 55.5156 10.9084 55.8184 10.9224C56.4746 10.9224 56.7891 11.2822 56.7891 12.0059V14.6978H57.6777V11.7827C57.7422 11.3425 57.6035 10.8965 57.3008 10.5706C56.998 10.2449 56.5625 10.0747 56.1191 10.1079C55.5469 10.0613 55.0059 10.3835 54.7754 10.9102H54.709V10.1948ZM62.2188 10.4285C61.5293 10.856 61.1426 11.6372 61.2188 12.4443C61.1738 12.9028 61.2793 13.353 61.5039 13.7351C61.6758 14.0264 61.918 14.2781 62.2168 14.4634C62.9062 14.8918 63.7793 14.8918 64.4688 14.4634C65.1582 14.0349 65.5449 13.2524 65.4668 12.4443C65.543 11.6372 65.1562 10.856 64.4668 10.4285C63.7793 10.001 62.9062 10.001 62.2188 10.4285ZM64.5508 12.4443C64.5508 11.4683 64.1133 10.8975 63.3438 10.8975C62.5703 10.8975 62.1367 11.4683 62.1367 12.4443C62.1367 13.4282 62.5703 13.9946 63.3438 13.9946C64.1133 13.9946 64.5508 13.4243 64.5508 12.4443ZM68.0762 12.0801C67.0059 12.1465 66.4023 12.6138 66.4023 13.4243C66.4043 13.8086 66.5684 14.1743 66.8535 14.4312C67.1406 14.688 67.5215 14.8118 67.9043 14.772C68.4492 14.7971 68.9648 14.5271 69.2559 14.0649H69.3262V14.6978H70.1816V11.6211C70.1816 10.6699 69.5449 10.1079 68.416 10.1079C67.3945 10.1079 66.668 10.604 66.5762 11.3774H67.4375C67.5352 11.0591 67.8789 10.877 68.375 10.877C68.9824 10.877 69.2969 11.1455 69.2969 11.6211V12.0098L68.0762 12.0801ZM69.2969 13.0396V12.6631L68.1973 12.7334C67.5762 12.7749 67.2949 12.9858 67.2949 13.3828C67.2949 13.7881 67.6465 14.0239 68.1309 14.0239C68.416 14.053 68.7012 13.9644 68.9219 13.7788C69.1406 13.5933 69.2773 13.3264 69.2969 13.0396ZM73.2188 10.1201C72.7617 10.1201 72.3711 10.2651 72.0664 10.531C71.6133 10.9275 71.3496 11.5925 71.3496 12.4443C71.3496 13.8706 72.0742 14.772 73.2188 14.772C73.7988 14.7935 74.3438 14.4907 74.6328 13.9863H74.7031V14.6978H75.5547V8.43701H74.666V10.9102H74.5996C74.332 10.4014 73.793 10.0938 73.2188 10.1201ZM72.6309 13.6208C72.8359 13.8499 73.1211 13.9741 73.4707 13.9741C74.2207 13.9741 74.6836 13.3911 74.6836 12.4482C74.6836 11.8723 74.5078 11.4272 74.1992 11.1692C74.0039 11.0068 73.7578 10.9185 73.4707 10.9185C72.7227 10.9185 72.2676 11.4971 72.2676 12.4443C72.2676 12.9553 72.3965 13.3574 72.6309 13.6208ZM80.2305 10.4285C79.541 10.856 79.1543 11.6372 79.2305 12.4443C79.1523 13.2522 79.5391 14.0349 80.2285 14.4634C80.918 14.8918 81.791 14.8918 82.4805 14.4634C83.1699 14.0349 83.5566 13.2522 83.4785 12.4443C83.5547 11.6372 83.168 10.856 82.4785 10.4285C82.3926 10.374 82.3027 10.3267 82.209 10.2861C82.1035 10.24 81.9941 10.2029 81.8848 10.1748L81.75 10.145L81.6562 10.1296L81.5 10.113L81.4238 10.1091C81.1445 10.0999 80.8652 10.1453 80.5996 10.2454C80.4727 10.2937 80.3496 10.3547 80.2305 10.4285ZM82.5625 12.4443C82.5625 11.4683 82.125 10.8975 81.3555 10.8975C80.582 10.8975 80.1484 11.4683 80.1484 12.4443C80.1484 12.9011 80.2422 13.2678 80.4199 13.5298C80.625 13.832 80.9414 13.9946 81.3555 13.9946C82.125 13.9946 82.5625 13.4243 82.5625 12.4443ZM85.5254 10.1948H84.6699V14.6978H85.5586V12.0635C85.5273 11.7639 85.627 11.4653 85.834 11.2458C86.041 11.0266 86.332 10.9084 86.6348 10.9224C87.291 10.9224 87.6055 11.2822 87.6055 12.0059V14.6978H88.4941V11.7827C88.5586 11.3425 88.4199 10.8965 88.1172 10.5706C87.8145 10.2449 87.3789 10.0747 86.9355 10.1079C86.5273 10.0747 86.1348 10.2292 85.8594 10.5117L85.8223 10.553C85.7715 10.6091 85.7266 10.6699 85.6855 10.7349L85.6465 10.8008L85.5918 10.9102H85.5254V10.1948ZM93.5156 9.07373V10.2153H94.4922V10.9639H93.5156V13.2793C93.5156 13.751 93.7109 13.9575 94.1523 13.9575C94.2656 13.9573 94.3789 13.9502 94.4922 13.937V14.6772C94.332 14.7058 94.1719 14.7209 94.0098 14.7227C93.0215 14.7227 92.627 14.375 92.627 13.5068V10.9639H91.9121V10.2153H92.627V9.07373H93.5156ZM96.5859 8.43701H95.7051V14.6978H96.5938V12.0679C96.582 11.9441 96.5938 11.821 96.625 11.7039C96.6719 11.5281 96.7637 11.3655 96.8945 11.2334C97.1133 11.0132 97.418 10.9009 97.7285 10.9263C98.3555 10.9263 98.6914 11.2905 98.6914 12.0098V14.6978H99.5801V11.7905C99.6387 11.3525 99.5 10.9111 99.1992 10.5864C99 10.3696 98.7422 10.2202 98.4609 10.1519L98.3613 10.1313L98.2812 10.1196C98.1992 10.1099 98.1152 10.1072 98.0293 10.1118C97.4473 10.0647 96.8984 10.3872 96.6562 10.9185H96.5859V8.43701ZM104.762 13.4819C104.67 13.7937 104.5 14.0649 104.279 14.2788C103.9 14.6475 103.367 14.845 102.811 14.7847C102.209 14.8005 101.633 14.5518 101.232 14.1042C100.832 13.6565 100.648 13.0554 100.73 12.4604C100.709 12.2952 100.707 12.1294 100.725 11.9663C100.734 11.8645 100.752 11.7637 100.777 11.665C100.818 11.5068 100.877 11.3538 100.955 11.209C101.031 11.0671 101.123 10.9333 101.23 10.8105C101.629 10.3591 102.205 10.1028 102.807 10.1079C104.059 10.1079 104.814 10.9639 104.814 12.3779V12.688H101.635V12.7378C101.625 12.8687 101.635 12.9988 101.666 13.1235C101.715 13.3179 101.811 13.4988 101.949 13.6482C102.074 13.783 102.229 13.8853 102.396 13.9495C102.535 14.0024 102.684 14.0295 102.834 14.0278C103.27 14.0801 103.693 13.8645 103.906 13.4819H104.762ZM103.912 12.0308H101.637C101.635 11.8716 101.666 11.7153 101.727 11.5713C101.783 11.4343 101.867 11.3086 101.975 11.2017C102.193 10.9822 102.492 10.8604 102.803 10.8643C103.109 10.8572 103.404 10.98 103.615 11.2021C103.826 11.4243 103.934 11.7251 103.912 12.0308Z" fill="white"/>
    <path fill-rule="evenodd" clip-rule="evenodd" d="M23.1504 8.72021C23.2461 9.98438 22.8477 11.2366 22.0352 12.2109C21.248 13.1902 20.0547 13.7542 18.7988 13.7412C18.75 13.0076 18.8789 12.2805 19.1641 11.6167C19.3555 11.1699 19.6172 10.7517 19.9434 10.3799C20.7656 9.44312 21.9102 8.85034 23.1504 8.72021ZM27.125 16.1484C25.6797 17.0371 24.7891 18.604 24.7676 20.3005C24.7695 22.22 25.9199 23.9521 27.6875 24.6997C27.3477 25.8042 26.834 26.8479 26.168 27.7922C25.2754 29.1301 24.3359 30.4373 22.8477 30.4614C22.1406 30.4778 21.6621 30.2742 21.1641 30.0623C20.6445 29.8411 20.1035 29.6104 19.2578 29.6104C18.3594 29.6104 17.793 29.8484 17.248 30.0779C16.7773 30.2761 16.3203 30.4683 15.6777 30.4949C14.2598 30.5474 13.1777 29.0669 12.25 27.7415C10.3984 25.0349 8.95508 20.1138 10.8887 16.7654C11.7969 15.1333 13.4961 14.0979 15.3613 14.0376C16.7812 14.0083 18.0977 14.9956 18.9707 14.9956C19.5762 14.9956 20.5703 14.4028 21.6973 14.1196C22.1602 14.0032 22.6445 13.9392 23.1328 13.9907C24.7305 14.0408 26.209 14.8403 27.125 16.1484Z" fill="white"/>
</svg>
