<?xml version="1.0" encoding="UTF-8"?>
<svg width="508px" height="148px" viewBox="0 0 508 148" version="1.1" xmlns="http://www.w3.org/2000/svg" xmlns:xlink="http://www.w3.org/1999/xlink">
    <defs>
        <linearGradient x1="12.1429097%" y1="0%" x2="50%" y2="124.589159%" id="linearGradient-1">
            <stop stop-color="#21424A" offset="0%"></stop>
            <stop stop-color="#162B30" offset="100%"></stop>
        </linearGradient>
        <linearGradient x1="7.88411057%" y1="0%" x2="50%" y2="100%" id="linearGradient-2">
            <stop stop-color="#FF6E55" offset="0%"></stop>
            <stop stop-color="#E6634C" offset="100%"></stop>
        </linearGradient>
    </defs>
    <g  stroke="none" stroke-width="1" fill="none" fill-rule="evenodd">
        <g  transform="translate(-258.000000, -149.000000)">
            <g id="Group" transform="translate(242.000000, 59.000000)">
                <g id="Group-5" transform="translate(16.000000, 88.000000)">
                    <rect id="Rectangle-2" x="0" y="0" width="508" height="150"></rect>
                    <polygon id="Fill-1" fill="#EBEBEB" points="418.722352 25 418.722352 32.7247557 411.345653 32.7247557 411.345653 70.2484073 407.655127 70.2484073 407.655127 132.419671 398.800912 132.419671 398.800912 98.2072491 394.004969 98.2072491 394.004969 66.568299 372.240441 66.568299 372.240441 114.025639 363.014127 114.025639 363.014127 126.53497 358.218184 126.53497 358.218184 131.684084 351.579155 131.684084 351.579155 124.326037 348.258552 124.326037 348.258552 119.176923 341.249599 119.176923 341.249599 115.130106 326.861771 115.130106 326.861771 105.565296 321.328159 105.565296 321.328159 101.518479 309.891011 101.518479 309.891011 106.667592 305.832738 106.667592 305.832738 125.799382 289.599647 125.799382 289.599647 114.763397 281.115355 114.763397 281.115355 119.176923 273.368732 119.176923 273.368732 116.232402 247.543756 116.232402 247.543756 101.518479 237.951871 101.518479 237.951871 98.5761279 228.359985 98.5761279 228.359985 96.0004861 223.564043 96.0004861 223.564043 72.8240492 220.98111 72.8240492 220.98111 61.4191852 216.185167 61.4191852 216.185167 58.1079556 213.234487 58.1079556 213.234487 62.1547729 198.846659 62.1547729 198.846659 104.055063 192.573201 104.055063 192.573201 86.0667974 185.564248 86.0667974 185.564248 76.1352787 174.866946 76.1352787 174.866946 85.3312097 171.178596 85.3312097 171.178596 82.0199802 163.799721 82.0199802 163.799721 75.7663999 159.741448 75.7663999 159.741448 61.788064 156.790768 61.788064 156.790768 76.8708664 154.577758 76.8708664 154.577758 82.7577378 153.100242 82.7577378 153.100242 113.290052 147.936553 113.290052 147.936553 106.300884 142.400764 106.300884 142.400764 94.5293107 137.974744 94.5293107 137.974744 75.0308122 132.441132 75.0308122 132.441132 71.3528738 126.907519 71.3528738 126.907519 66.9393476 123.954663 66.9393476 123.954663 70.983995 120.636237 70.983995 120.636237 58.1079556 115.100448 58.1079556 115.100448 70.6172861 109.201264 70.6172861 109.201264 86.0667974 105.878486 86.0667974 105.878486 104.094121 95.2921603 104.094121 95.2921603 119.801847 92.5982506 122.485983 92.5982506 126.53497 88.9099009 126.53497 88.9099009 122.485983 85.2193751 122.485983 85.2193751 104.094121 81.5310254 104.094121 81.5310254 99.3117156 74.1521499 99.3117156 74.1521499 102.989654 70.0938772 102.989654 70.0938772 107.772059 63.0827486 107.772059 63.0827486 102.989654 51.6477764 102.989654 51.6477764 91.58479 34.6770156 91.58479 34.6770156 120.27922 31.7263358 120.27922 31.7263358 125.061624 13.2824111 125.061624 13.2824111 128.375024 8.48429241 128.375024 8.48429241 112.554464 0 112.554464 0 150 508 150 508 132.78855 491.031415 132.78855 491.031415 122.485983 486.603219 122.485983 486.603219 118.072456 480.699684 118.072456 480.699684 122.119274 476.273664 122.119274 476.273664 105.196417 471.477722 105.196417 471.477722 58.8435433 464.101022 58.8435433 464.101022 66.568299 457.827563 66.568299 457.827563 61.4191852 450.818611 61.4191852 450.818611 66.568299 443.254774 66.568299 443.254774 95.8160467 441.226726 97.8383703 441.226726 132.050792 436.430783 132.050792 436.430783 55.5344837 429.791753 55.5344837 429.791753 29.0468172 425.731305 29.0468172 425.731305 31.6224591 420.567615 31.6224591 420.567615 25"></polygon>
                    <path d="M12.9175739,8.66660548 C15.4780269,5.82793354 19.489967,4 24,4 C28.2540359,4 32.0649193,5.62630973 34.6325639,8.19314091 C35.2363692,8.06644845 35.8608127,8 36.5,8 C41.7467051,8 46,12.4771525 46,18 C46,23.5228475 41.7467051,28 36.5,28 C34.53507,28 32.7094715,27.3720533 31.194436,26.2964036 C29.0918972,27.3780752 26.6306826,28 24,28 C20.8675351,28 17.9753533,27.1181933 15.6428967,25.6283873 C13.9866205,27.1076906 11.842305,28 9.5,28 C4.25329488,28 0,23.5228475 0,18 C0,12.4771525 4.25329488,8 9.5,8 C10.7047216,8 11.8570676,8.23604888 12.9175739,8.66660548 Z" id="Combined-Shape" fill="#EBEBEB"></path>
                    <path d="M244.400327,19.5188549 C244.139296,18.5568112 244,17.5446727 244,16.5 C244,10.1487254 249.148725,5 255.5,5 C259.490981,5 263.007129,7.03299942 265.069333,10.1198854 C265.534455,10.0410511 266.012434,10 266.5,10 C271.19442,10 275,13.8055796 275,18.5 C275,23.1944204 271.19442,27 266.5,27 C264.93555,27 263.469815,26.5773505 262.210748,25.840005 C260.322165,27.1993377 258.004585,28 255.5,28 C253.443061,28 251.512254,27.4599664 249.841625,26.5139466 C249.018059,27.4264715 247.826007,28 246.5,28 C244.014719,28 242,25.9852814 242,23.5 C242,21.7730416 242.972808,20.2732946 244.400327,19.5188549 Z" id="Combined-Shape-Copy-8" fill="#EBEBEB"></path>
                    <path d="M375.601886,38.3776452 C376.575085,36.3780387 378.626614,35 381,35 C382.053954,35 383.044438,35.271749 383.905207,35.7490022 C384.977365,34.6640386 386.417101,34 388,34 C391.313708,34 394,36.9101491 394,40.5 C394,44.0898509 391.313708,47 388,47 C386.72137,47 385.536156,46.5667124 384.562639,45.8282769 C383.566324,46.5646506 382.334003,47 381,47 C379.086243,47 377.381754,46.1040208 376.283127,44.7086573 C375.481913,46.0873403 374.08688,47 372.5,47 C370.014719,47 368,44.7614237 368,42 C368,39.2385763 370.014719,37 372.5,37 C373.702395,37 374.794646,37.5239803 375.601886,38.3776452 Z" id="Combined-Shape-Copy-10" fill="#EBEBEB"></path>
                    <path d="M65.6038559,72.1515362 C66.6949608,69.7051835 69.1483469,68 72,68 C75.6536246,68 78.6534735,70.7991462 78.9720268,74.3699186 C80.169561,75.0052539 81,76.391793 81,78 C81,80.209139 79.4329966,82 77.5,82 C76.6867056,82 75.938201,81.6829737 75.3439395,81.1511536 C74.3503596,81.6924357 73.2110975,82 72,82 C70.3768789,82 68.8827854,81.447567 67.6954845,80.520466 C66.8801005,81.4341387 65.749524,82 64.5,82 C62.0147186,82 60,79.7614237 60,77 C60,74.2385763 62.0147186,72 64.5,72 C64.8808549,72 65.2506592,72.0525702 65.6038559,72.1515362 Z" id="Combined-Shape-Copy-11" fill="#EBEBEB"></path>
                    <path d="M490.756464,5.36249412 C492.038953,3.91349672 493.912797,3 496,3 C497.950879,3 499.715359,3.79806498 500.984779,5.08553223 C501.314782,5.02929221 501.65397,5 502,5 C505.313708,5 508,7.6862915 508,11 C508,14.3137085 505.313708,17 502,17 C500.957506,17 499.977109,16.7341284 499.122917,16.2664925 C498.182796,16.7359123 497.122239,17 496,17 C493.694072,17 491.648562,15.8850143 490.373191,14.1647618 C488.999185,15.8924048 486.878939,17 484.5,17 C480.357864,17 477,13.6421356 477,9.5 C477,5.35786438 480.357864,2 484.5,2 C487.112901,2 489.413724,3.33616643 490.756464,5.36249412 Z" id="Combined-Shape-Copy-9" fill="#EBEBEB"></path>
                    <g id="Group-8" transform="translate(188.000000, 26.000000)">
                        <g id="Group-6" transform="translate(18.000000, 21.000000)">
                            <path d="M24.0627522,5.36009202 L1.62078477,40.4985833 L16.419374,51.1720384 L16.5294997,51.3997086 C16.9773551,52.3255904 17.6460328,53.129908 18.4980523,53.7489364 L50.2525541,76.8199324 C53.0698966,78.8668516 57.0131599,78.2423 59.0600791,75.4249575 C59.8188489,74.3806005 60.2284161,73.1573632 60.2625288,71.895656 L60.304792,70.3324884 L61.7060398,71.026595 C64.7410061,72.5299624 68.4547301,71.6345308 70.4683008,68.8630885 L70.7005192,68.5434674 C71.7412597,67.1110109 72.187179,65.3766905 71.9942906,63.6528204 L71.8369937,62.2470363 L73.2147386,62.5676454 C75.9339029,63.2004103 78.7989456,62.1607588 80.4683008,59.8630885 L80.7005192,59.5434674 C82.0807538,57.6437374 82.4027896,55.2205134 81.6220806,53.0513625 L81.1859903,51.8397127 L82.467892,51.7172467 C84.4548724,51.5274212 86.2721751,50.5094143 87.4683008,48.8630885 L87.7005192,48.5434674 C89.972893,45.4158131 89.2795512,41.0382255 86.151897,38.7658516 L73.7601627,29.7627297 L73.6699884,29.6427554 C61.4866559,13.4331995 51.8785565,5.36009202 45.0946139,5.36009202 C34.4559892,5.36009202 34.2721848,5.36009202 24.0627522,5.36009202 Z" id="Combined-Shape" stroke="#D9AE84" stroke-width="2" fill="#FFCE9C"></path>
                            <rect id="Rectangle-17" stroke="#D9AE84" stroke-width="2" fill="#FFCE9C" transform="translate(13.480876, 49.245148) rotate(47.000000) translate(-13.480876, -49.245148) " x="7.4141159" y="38.402236" width="12.1335206" height="21.6858233" rx="6.06676031"></rect>
                            <path d="M46.8807507,22.4621854 L45.0452613,23.2565269 C45.1012695,23.3856848 45.1102951,23.4064982 45.15165,23.5011339 L32.0479891,31.3746077 C28.2607857,33.6501891 23.3459275,32.4247773 21.0703461,28.6375739 L20.1203046,27.0564392 C17.8447232,23.2692358 19.070135,18.3543776 22.8573384,16.0787962 L40.9755714,5.19226351 C42.4386133,4.31317926 44.0699429,3.95657241 45.6523891,4.06829613 C46.0494981,3.69103408 46.5025746,3.36225675 47.0116186,3.08196412 C51.6415488,0.532606619 58.6700814,0.111180256 68.0972163,1.81768503 L92.6552616,39.5391844 L87.853017,42.4435704 L47.0816299,22.7965046 L46.8807507,22.4621854 Z" id="Combined-Shape-Copy-12" fill="#FFCE9C" fill-rule="nonzero"></path>
                            <path d="M66.8953947,3.63737008 C58.3099923,2.1801727 51.9953121,2.62096111 47.9762973,4.83393301 C47.6150477,5.03284625 47.3009829,5.260749 47.0299044,5.51827943 L46.3908339,6.12541017 L45.5115359,6.06333006 C44.2926726,5.97727599 43.0777108,6.26243756 42.0056476,6.90659811 L23.8874146,17.7931308 C21.047012,19.4998169 20.1279532,23.1859605 21.8346392,26.0263631 L22.7846807,27.6074977 C24.4913668,30.4479003 28.1775104,31.3669591 31.017913,29.6602731 L47.808894,19.5712339 L48.5501507,21.28406 L87.745137,40.171484 L89.85117,38.8977604 L66.8953947,3.63737008 Z M46.8807507,22.4621854 L45.0452613,23.2565269 C45.1012695,23.3856848 45.1102951,23.4064982 45.15165,23.5011339 L32.0479891,31.3746077 C28.2607857,33.6501891 23.3459275,32.4247773 21.0703461,28.6375739 L20.1203046,27.0564392 C17.8447232,23.2692358 19.070135,18.3543776 22.8573384,16.0787962 L40.9755714,5.19226351 C42.4386133,4.31317926 44.0699429,3.95657241 45.6523891,4.06829613 C46.0494981,3.69103408 46.5025746,3.36225675 47.0116186,3.08196412 C51.6415488,0.532606619 58.6700814,0.111180256 68.0972163,1.81768503 L92.6552616,39.5391844 L87.853017,42.4435704 L47.0816299,22.7965046 L46.8807507,22.4621854 Z" id="Combined-Shape" fill="#D9AE84" fill-rule="nonzero"></path>
                            <rect id="Rectangle-17-Copy" stroke="#D9AE84" stroke-width="2" fill="#FFCE9C" transform="translate(23.292735, 55.285623) rotate(47.000000) translate(-23.292735, -55.285623) " x="17.2259745" y="41.450805" width="12.1335206" height="27.6696351" rx="6.06676031"></rect>
                            <rect id="Rectangle-17-Copy-2" stroke="#D9AE84" stroke-width="2" fill="#FFCE9C" transform="translate(33.669018, 61.285623) rotate(47.000000) translate(-33.669018, -61.285623) " x="27.6022573" y="47.450805" width="12.1335206" height="27.6696351" rx="6.06676031"></rect>
                            <rect id="Rectangle-17-Copy-3" stroke="#D9AE84" stroke-width="2" fill="#FFCE9C" transform="translate(42.346980, 68.884826) rotate(47.000000) translate(-42.346980, -68.884826) " x="36.2802198" y="59.5923214" width="12.1335206" height="18.5850086" rx="6.06676031"></rect>
                            <path d="M67,42 L80.6178072,51.6391865" id="Path-48" stroke="#D9AE84" stroke-width="2" stroke-linecap="round"></path>
                            <path d="M60,54 L71.5,62.5" id="Path-48-Copy" stroke="#D9AE84" stroke-width="2" stroke-linecap="round"></path>
                            <path d="M53,65 L60.5,70.5" id="Path-48-Copy-2" stroke="#D9AE84" stroke-width="2" stroke-linecap="round"></path>
                        </g>
                        <g id="Group-7">
                            <path d="M5.77361024,3 L41.0622782,25.0957921 L18.623814,61.3764057 L1.21885859,50.4002412 C6.01886903,44.259375 6.40015669,36.5703649 2.36272157,27.333211 C-1.67471356,18.096057 -0.537750667,9.98498673 5.77361024,3 Z" id="Path-46-Copy-2" fill="#21424A"></path>
                            <path d="M94.5810021,1 L130.062278,23.5757212 L107.839322,59.4858774 L90.0262504,48.4002412 C94.8262609,42.259375 95.2075485,34.5703649 91.1701134,25.333211 C87.1326783,16.096057 88.2696412,7.98498673 94.5810021,1 Z" id="Path-46-Copy-3" fill="#FF6E55" transform="translate(109.434835, 30.242939) scale(-1, 1) translate(-109.434835, -30.242939) "></path>
                            <polyline id="Path-46" stroke="url(#linearGradient-1)" stroke-width="3" stroke-linecap="round" stroke-linejoin="round" points="5.66727384 3.33615395 40.9559418 25.4319461 18.5174776 61.7125596 1.11252219 50.7363952"></polyline>
                            <polyline id="Path-46-Copy" stroke="url(#linearGradient-2)" stroke-width="3" stroke-linecap="round" stroke-linejoin="round" transform="translate(107.921710, 30.500000) scale(-1, 1) translate(-107.921710, -30.500000) " points="91.7833842 0 128.84342 23.0888371 105.278623 61 87 49.5305369"></polyline>
                        </g>
                    </g>
                </g>
            </g>
        </g>
    </g>
</svg>