<svg width="135" height="40" viewBox="0 0 135 40" fill="none" xmlns="http://www.w3.org/2000/svg">
    <rect width="135" height="40" fill="black" fill-opacity="0"/>
    <rect width="135" height="40" rx="5" fill="black"/>
    <path fill-rule="evenodd" clip-rule="evenodd" d="M5 0H130C132.762 0 135 2.23853 135 5V35C135 37.7615 132.762 40 130 40H5C2.23828 40 0 37.7615 0 35V5C0 2.23853 2.23828 0 5 0ZM134.201 5C134.201 2.68042 132.32 0.800049 130 0.800049H5C2.68164 0.800049 0.800781 2.68042 0.800781 5V35C0.800781 37.3196 2.68164 39.2 5 39.2H130C132.32 39.2 134.201 37.3196 134.201 35V5Z" fill="#A6A6A6"/>
    <path fill-rule="evenodd" clip-rule="evenodd" d="M47.7402 23.0598V24.8599H52.0605C51.9922 25.7078 51.6406 26.5076 51.0605 27.1299C50.1855 28.02 48.9766 28.4995 47.7305 28.45C45.0801 28.45 42.9297 26.3008 42.9297 23.6499C42.9297 20.999 45.0801 18.8499 47.7305 18.8499C48.9473 18.8301 50.123 19.2939 51 20.1399L52.2695 18.8699C51.7637 18.3579 51.1797 17.9419 50.5449 17.6333C49.6797 17.2124 48.7227 16.9915 47.7402 17C45.3184 16.9058 43.041 18.1436 41.8027 20.2258C40.5625 22.3083 40.5625 24.9014 41.8027 26.9839C43.041 29.0662 45.3184 30.3042 47.7402 30.21C49.4727 30.2881 51.1523 29.6135 52.3496 28.3599C53.0137 27.6309 53.4805 26.7563 53.7227 25.8181C53.8633 25.2749 53.9277 24.7102 53.9102 24.1399C53.9121 23.9656 53.9062 23.7913 53.8926 23.6177C53.875 23.4141 53.8477 23.2112 53.8105 23.01L47.7402 23.0598ZM58.8301 21.7498C56.4844 21.7554 54.5859 23.6606 54.5898 26.0063C54.5938 28.3523 56.498 30.2517 58.8438 30.2498C61.1895 30.248 63.0898 28.3457 63.0898 25.9998C63.0938 25.7007 63.0664 25.4045 63.0078 25.116C62.9492 24.8176 62.8574 24.5273 62.7344 24.25C62.5254 23.7769 62.2285 23.3416 61.8555 22.9692C61.5273 22.6426 61.1504 22.376 60.7422 22.1763C60.1504 21.886 59.4922 21.7368 58.8301 21.7498ZM63.9102 26.0132C63.9023 23.6685 65.7949 21.7607 68.1406 21.7498C69.2754 21.728 70.3711 22.1682 71.1758 22.9692C71.9805 23.7705 72.4258 24.8643 72.4102 25.9998C72.4102 28.3445 70.5117 30.2461 68.166 30.2498C65.8223 30.2534 63.918 28.3577 63.9102 26.0132ZM65.6328 27.1182C66.0898 28.0742 67.084 28.6538 68.1406 28.5798C68.8047 28.5645 69.4336 28.2817 69.8848 27.7959C70.0898 27.5771 70.25 27.3254 70.3613 27.0542L70.4062 26.9319L70.4492 26.803C70.4707 26.729 70.4883 26.6538 70.502 26.5779C70.5371 26.3892 70.5508 26.1951 70.541 25.9998C70.5391 24.9404 69.8887 23.9905 68.9023 23.604C67.916 23.2175 66.793 23.4731 66.0723 24.2488C65.3496 25.0244 65.1758 26.1624 65.6328 27.1182ZM56.3164 27.126C56.7754 28.0813 57.7734 28.658 58.8301 28.5798C59.2988 28.5688 59.7598 28.4187 60.1484 28.1538C60.2988 28.0513 60.4395 27.9316 60.5645 27.7961C61.0176 27.3103 61.2539 26.6626 61.2207 25.9998C61.2168 24.9397 60.5664 23.9893 59.5781 23.6035C58.5918 23.218 57.4688 23.4758 56.748 24.2537C56.0273 25.0312 55.8555 26.1707 56.3164 27.126ZM91.9316 22.7676C92.4336 23.2166 92.8242 23.7939 93.0508 24.46L93.2598 24.9099L87.5703 27.26C87.9277 28.0723 88.7441 28.5837 89.6309 28.55C90.4863 28.5522 91.2793 28.104 91.7207 27.3701L93.1699 28.3701C92.3809 29.5515 91.0508 30.2576 89.6309 30.25C88.5 30.2666 87.4141 29.8232 86.6172 29.0215C85.8223 28.22 85.3848 27.1294 85.4102 26C85.3418 24.8965 85.7324 23.8137 86.4902 23.0085C87.248 22.2034 88.3047 21.7478 89.4102 21.75C90.3652 21.7852 91.25 22.1577 91.9316 22.7676ZM87.4141 24.8557C87.4648 24.7312 87.5254 24.6111 87.5977 24.4966C87.668 24.3828 87.748 24.2747 87.8379 24.1733C88.2559 23.7068 88.8438 23.428 89.4688 23.3999C89.7207 23.3833 89.9688 23.4248 90.1953 23.5156C90.3047 23.5596 90.4082 23.6147 90.5059 23.6804C90.5625 23.7192 90.6172 23.7617 90.6699 23.8079C90.8242 23.9436 90.9531 24.1094 91.0488 24.2998L87.25 25.8799C87.2266 25.5271 87.2832 25.1775 87.4141 24.8557ZM84.5 30H82.6309V17.5H84.5V30ZM79.5703 22.7H79.5C79.1387 22.2961 78.6797 22.002 78.1738 21.8411C78.0371 21.7979 77.8984 21.7644 77.7578 21.7407C77.5938 21.7136 77.4277 21.6997 77.2598 21.7C74.9902 21.8101 73.207 23.6824 73.207 25.9548C73.207 28.2275 74.9902 30.0999 77.2598 30.21C78.1191 30.2244 78.9395 29.8582 79.5 29.21H79.5605V29.8201C79.5605 31.45 78.6914 32.3201 77.291 32.3201C76.3379 32.2976 75.4922 31.7009 75.1504 30.8101L73.5215 31.49C74.1484 33.0168 75.6406 34.0098 77.291 34C79.4805 34 81.291 32.71 81.291 29.5701V22H79.5703V22.7ZM75.0684 26C75.0684 27.3423 76.0938 28.4622 77.4316 28.5798C78.0703 28.5549 78.6816 28.2651 79.1133 27.7776C79.543 27.2903 79.7559 26.6479 79.7012 26C79.75 25.3547 79.5371 24.717 79.1094 24.2314C78.6816 23.7456 78.0762 23.4531 77.4316 23.4199C76.0938 23.5378 75.0684 24.6577 75.0684 26ZM101.811 17.4998H97.3398V29.9998H99.209V25.2598H101.82C103.273 25.3643 104.662 24.6482 105.42 23.4048C106.178 22.1611 106.178 20.5984 105.42 19.3547C104.662 18.1113 103.273 17.3955 101.811 17.4998ZM99.1992 23.5H101.809L101.85 23.53C102.246 23.53 102.617 23.4219 102.936 23.2334C103.211 23.0706 103.447 22.8474 103.627 22.5823C103.756 22.3936 103.854 22.1836 103.916 21.9587C103.967 21.7761 103.994 21.5837 103.994 21.385C103.994 20.2004 103.033 19.24 101.85 19.24H99.1992V23.5ZM111.109 22.3364C110.654 22.6587 110.273 23.0916 110.01 23.6099L111.67 24.2998C111.809 24.0427 112.006 23.8301 112.24 23.6738C112.566 23.4553 112.963 23.3467 113.371 23.3799C113.85 23.324 114.332 23.4629 114.707 23.7656C114.793 23.8345 114.873 23.9106 114.943 23.9929C114.979 24.0337 115.012 24.0759 115.043 24.1194C115.172 24.2996 115.268 24.5022 115.322 24.718L115.346 24.8198C115.357 24.876 115.365 24.9326 115.371 24.99V25.1199C114.77 24.8018 114.1 24.637 113.42 24.6399C111.631 24.6399 109.82 25.6399 109.82 27.45C109.855 28.2295 110.205 28.9617 110.789 29.4797C111.373 29.9976 112.143 30.2573 112.92 30.2C113.879 30.2688 114.801 29.8086 115.32 28.9998H115.381V29.9998H117.18V25.1899C117.18 22.9998 115.52 21.73 113.391 21.73L113.34 21.7C112.529 21.6514 111.746 21.886 111.109 22.3364ZM111.65 27.49C111.65 28.24 112.5 28.55 113.111 28.55L113.16 28.5798C114.287 28.5525 115.221 27.6995 115.35 26.5798C115.049 26.4116 114.725 26.2922 114.389 26.2246C114.271 26.2009 114.152 26.1836 114.033 26.1726C113.908 26.1611 113.779 26.1567 113.65 26.1599C112.711 26.1599 111.65 26.49 111.65 27.49ZM123.74 22L121.6 27.4199H121.541L119.32 22H117.32L120.65 29.5801L118.75 33.79H120.701L125.82 22H123.74ZM108.799 30H106.93V17.5H108.799V30Z" fill="white"/>
    <path fill-rule="evenodd" clip-rule="evenodd" d="M69.209 12.22C70.4258 13.4302 72.3926 13.4302 73.6094 12.22C74.793 10.9731 74.793 9.01685 73.6094 7.77002C73.0273 7.18384 72.2344 6.854 71.4082 6.854C70.582 6.854 69.791 7.18384 69.209 7.77002C68.0293 9.0188 68.0293 10.9712 69.209 12.22ZM47.0234 11.7795C47.3047 11.321 47.4453 10.7854 47.4199 10.24C47.4199 10.0889 47.4062 9.93848 47.3789 9.78979H44.4688V10.5098H46.6387C46.6309 10.739 46.582 10.9631 46.4961 11.1716C46.4668 11.2412 46.4336 11.3088 46.3965 11.3745C46.3262 11.5017 46.2383 11.6211 46.1387 11.73C45.7832 12.0737 45.3379 12.2891 44.8711 12.3638C44.6641 12.3967 44.4531 12.4021 44.2422 12.3789C44.0117 12.3538 43.7832 12.2944 43.5625 12.1992C42.6875 11.8208 42.125 10.9531 42.1387 9.99976C42.1348 9.84839 42.1445 9.698 42.168 9.55078C42.1797 9.47437 42.1953 9.39893 42.2148 9.32446C42.252 9.19092 42.2988 9.06079 42.3574 8.93579C42.4648 8.70459 42.6113 8.49048 42.793 8.30371C43.2324 7.85107 43.8379 7.59668 44.4688 7.59985C45.0977 7.56567 45.7051 7.82861 46.1094 8.30981L46.6387 7.77979C46.4863 7.60498 46.3105 7.45312 46.1172 7.32788C45.9863 7.24219 45.8457 7.16919 45.6992 7.10986C45.3105 6.9436 44.8926 6.8584 44.4688 6.85986C43.6406 6.84131 42.8398 7.16724 42.2598 7.75977C41.3652 8.65918 41.0977 10.0066 41.5801 11.1787C42.0625 12.3511 43.2012 13.1199 44.4688 13.1299C45.2949 13.1594 46.0957 12.8357 46.6699 12.24C46.8047 12.0986 46.9238 11.9441 47.0234 11.7795ZM49.3008 7.73999H52V7H48.5V13H52V12.26H49.3008V10.3601H51.7598V9.63989H49.3008V7.73999ZM55.2793 13H54.5098V7.73999H52.8301V7H57V7.73999H55.2793V13ZM59.9395 7V13H60.709V7H59.9395ZM64.1289 13H63.3594V7.73999H61.6797V7H65.7988V7.73999H64.1289V13ZM69.7793 11.72C70.6797 12.6174 72.1387 12.6174 73.0391 11.72C73.9238 10.7441 73.9238 9.25562 73.0391 8.27979C72.1387 7.38232 70.6797 7.38232 69.7793 8.27979C68.8945 9.25562 68.8945 10.7441 69.7793 11.72ZM75.5801 7V13H76.3594V8.11011L79.4102 13H80.2109V7H79.4395V11.6699L76.5195 7H75.5801Z" fill="white"/>
    <path d="M73.6094 12.22L73.6799 12.2909L73.6819 12.2888L73.6094 12.22ZM69.209 12.22L69.1363 12.2887L69.1385 12.2909L69.209 12.22ZM73.6094 7.77002L73.6819 7.70115L73.6803 7.69956L73.6094 7.77002ZM69.209 7.77002L69.138 7.69954L69.1363 7.70135L69.209 7.77002ZM47.4199 10.24H47.3198L47.32 10.2446L47.4199 10.24ZM47.0234 11.7795L46.9382 11.7273L46.9379 11.7278L47.0234 11.7795ZM47.3789 9.78979L47.4773 9.77171L47.4622 9.68979H47.3789V9.78979ZM44.4688 9.78979V9.68979H44.3687V9.78979H44.4688ZM44.4688 10.5098H44.3687V10.6098H44.4688V10.5098ZM46.6387 10.5098L46.7386 10.5132L46.7421 10.4098H46.6387V10.5098ZM46.4961 11.1716L46.5883 11.2104L46.5885 11.2097L46.4961 11.1716ZM46.3965 11.3745L46.3094 11.3253L46.309 11.3261L46.3965 11.3745ZM46.1387 11.73L46.2083 11.802L46.2125 11.7975L46.1387 11.73ZM44.8711 12.3638L44.8868 12.4625L44.8869 12.4625L44.8711 12.3638ZM44.2422 12.3789L44.2531 12.2795L44.253 12.2795L44.2422 12.3789ZM43.5625 12.1992L43.5228 12.291L43.5229 12.291L43.5625 12.1992ZM42.1387 9.99976L42.2387 10.0012L42.2386 9.99718L42.1387 9.99976ZM42.168 9.55078L42.2667 9.5665L42.2668 9.56594L42.168 9.55078ZM42.2148 9.32446L42.1185 9.29769L42.1181 9.29909L42.2148 9.32446ZM42.3574 8.93579L42.448 8.97823L42.4481 8.97793L42.3574 8.93579ZM42.793 8.30371L42.8647 8.37343L42.8647 8.37337L42.793 8.30371ZM44.4688 7.59985L44.4682 7.70003L44.4742 7.69971L44.4688 7.59985ZM46.1094 8.30981L46.0328 8.37414L46.103 8.4577L46.1801 8.38048L46.1094 8.30981ZM46.6387 7.77979L46.7094 7.85045L46.7754 7.78442L46.7141 7.71408L46.6387 7.77979ZM46.1172 7.32788L46.0624 7.41154L46.0628 7.41181L46.1172 7.32788ZM45.6992 7.10986L45.6599 7.20182L45.6617 7.20255L45.6992 7.10986ZM44.4688 6.85986L44.4665 6.95987L44.4691 6.95986L44.4688 6.85986ZM42.2598 7.75977L42.3307 7.83029L42.3312 7.82972L42.2598 7.75977ZM41.5801 11.1787L41.6726 11.1407L41.6726 11.1407L41.5801 11.1787ZM44.4688 13.1299L44.4723 13.0299L44.4695 13.0299L44.4688 13.1299ZM46.6699 12.24L46.7419 12.3094L46.7423 12.309L46.6699 12.24ZM52 7.73999V7.83999H52.1V7.73999H52ZM49.3008 7.73999V7.63999H49.2008V7.73999H49.3008ZM52 7H52.1V6.9H52V7ZM48.5 7V6.9H48.4V7H48.5ZM48.5 13H48.4V13.1H48.5V13ZM52 13V13.1H52.1V13H52ZM52 12.26H52.1V12.16H52V12.26ZM49.3008 12.26H49.2008V12.36H49.3008V12.26ZM49.3008 10.3601V10.2601H49.2008V10.3601H49.3008ZM51.7598 10.3601V10.4601H51.8598V10.3601H51.7598ZM51.7598 9.63989H51.8598V9.53989H51.7598V9.63989ZM49.3008 9.63989H49.2008V9.73989H49.3008V9.63989ZM54.5098 13H54.4098V13.1H54.5098V13ZM55.2793 13V13.1H55.3793V13H55.2793ZM54.5098 7.73999H54.6098V7.63999H54.5098V7.73999ZM52.8301 7.73999H52.7301V7.83999H52.8301V7.73999ZM52.8301 7V6.9H52.7301V7H52.8301ZM57 7H57.1V6.9H57V7ZM57 7.73999V7.83999H57.1V7.73999H57ZM55.2793 7.73999V7.63999H55.1793V7.73999H55.2793ZM59.9395 13H59.8395V13.1H59.9395V13ZM59.9395 7V6.9H59.8395V7H59.9395ZM60.709 13V13.1H60.809V13H60.709ZM60.709 7H60.809V6.9H60.709V7ZM63.3594 13H63.2594V13.1H63.3594V13ZM64.1289 13V13.1H64.2289V13H64.1289ZM63.3594 7.73999H63.4594V7.63999H63.3594V7.73999ZM61.6797 7.73999H61.5797V7.83999H61.6797V7.73999ZM61.6797 7V6.9H61.5797V7H61.6797ZM65.7988 7H65.8988V6.9H65.7988V7ZM65.7988 7.73999V7.83999H65.8988V7.73999H65.7988ZM64.1289 7.73999V7.63999H64.0289V7.73999H64.1289ZM73.0391 11.72L73.1097 11.7909L73.1131 11.7871L73.0391 11.72ZM69.7793 11.72L69.7051 11.7872L69.7087 11.7908L69.7793 11.72ZM73.0391 8.27979L73.1132 8.21253L73.1097 8.20896L73.0391 8.27979ZM69.7793 8.27979L69.7086 8.20887L69.7052 8.21262L69.7793 8.27979ZM75.5801 13H75.4801V13.1H75.5801V13ZM75.5801 7V6.9H75.4801V7H75.5801ZM76.3594 13V13.1H76.4594V13H76.3594ZM76.3594 8.11011L76.4442 8.05717L76.2594 7.7609V8.11011H76.3594ZM79.4102 13L79.3253 13.0529L79.3547 13.1H79.4102V13ZM80.2109 13V13.1H80.3109V13H80.2109ZM80.2109 7H80.3109V6.9H80.2109V7ZM79.4395 7V6.9H79.3395V7H79.4395ZM79.4395 11.6699L79.3547 11.7229L79.5395 12.0185V11.6699H79.4395ZM76.5195 7L76.6043 6.94698L76.5749 6.9H76.5195V7ZM73.5389 12.1491C72.3611 13.3205 70.4573 13.3205 69.2795 12.1491L69.1385 12.2909C70.3943 13.5399 72.4241 13.5399 73.6799 12.2909L73.5389 12.1491ZM73.5368 7.83887C74.6838 9.0471 74.6838 10.9429 73.5368 12.1511L73.6819 12.2888C74.9021 11.0034 74.9021 8.98659 73.6819 7.70117L73.5368 7.83887ZM71.4082 6.954C72.2078 6.954 72.9752 7.27322 73.5384 7.84048L73.6803 7.69956C73.0795 7.09445 72.261 6.754 71.4082 6.754V6.954ZM69.2799 7.84048C69.8432 7.27317 70.6087 6.954 71.4082 6.954V6.754C70.5553 6.754 69.7388 7.0945 69.138 7.69956L69.2799 7.84048ZM69.2817 12.1513C68.1384 10.9411 68.1384 9.04893 69.2817 7.83869L69.1363 7.70135C67.9202 8.98867 67.9202 11.0013 69.1363 12.2886L69.2817 12.1513ZM47.32 10.2446C47.3445 10.7698 47.2091 11.2857 46.9382 11.7273L47.1087 11.8318C47.4003 11.3564 47.5461 10.801 47.5198 10.2353L47.32 10.2446ZM47.2806 9.80788C47.3068 9.95058 47.3199 10.0949 47.3199 10.24H47.5199C47.5199 10.0828 47.5057 9.92637 47.4773 9.77171L47.2806 9.80788ZM44.4688 9.88979H47.3789V9.68979H44.4688V9.88979ZM44.5688 10.5098V9.78979H44.3687V10.5098H44.5688ZM46.6387 10.4098H44.4688V10.6098H46.6387V10.4098ZM46.5885 11.2097C46.679 10.9902 46.7304 10.7544 46.7386 10.5132L46.5387 10.5064C46.5313 10.7237 46.485 10.936 46.4036 11.1335L46.5885 11.2097ZM46.4835 11.4237C46.5226 11.3547 46.5575 11.2836 46.5883 11.2104L46.4039 11.1328C46.3761 11.1988 46.3446 11.263 46.3094 11.3253L46.4835 11.4237ZM46.2125 11.7975C46.3168 11.6834 46.4095 11.5577 46.484 11.4229L46.309 11.3261C46.2429 11.4457 46.1598 11.5588 46.0649 11.6625L46.2125 11.7975ZM44.8869 12.4625C45.3734 12.3846 45.8376 12.1602 46.2082 11.8019L46.0692 11.6581C45.7288 11.9873 45.3023 12.1935 44.8553 12.265L44.8869 12.4625ZM44.2313 12.4783C44.4511 12.5025 44.671 12.4969 44.8868 12.4625L44.8554 12.265C44.6571 12.2966 44.4552 12.3017 44.2531 12.2795L44.2313 12.4783ZM43.5229 12.291C43.7528 12.3902 43.991 12.4521 44.2313 12.4783L44.253 12.2795C44.0324 12.2554 43.8136 12.1986 43.6021 12.1074L43.5229 12.291ZM42.0387 9.99832C42.0244 10.9922 42.6108 11.8966 43.5228 12.291L43.6022 12.1074C42.7642 11.745 42.2256 10.9141 42.2387 10.0012L42.0387 9.99832ZM42.0692 9.53506C42.0448 9.68845 42.0346 9.84497 42.0387 10.0023L42.2386 9.99718C42.2349 9.8518 42.2443 9.70754 42.2667 9.5665L42.0692 9.53506ZM42.1181 9.29909C42.0977 9.37693 42.0814 9.45578 42.0691 9.53562L42.2668 9.56594C42.278 9.49295 42.2929 9.42092 42.3116 9.34983L42.1181 9.29909ZM42.2669 8.89335C42.2057 9.02394 42.1569 9.15937 42.1185 9.29769L42.3112 9.35124C42.347 9.22246 42.392 9.09764 42.448 8.97823L42.2669 8.89335ZM42.7213 8.23399C42.5317 8.42889 42.3789 8.65234 42.2667 8.89365L42.4481 8.97793C42.5508 8.75684 42.6909 8.55207 42.8647 8.37343L42.7213 8.23399ZM44.4693 7.49985C43.8112 7.49654 43.1796 7.76191 42.7212 8.23405L42.8647 8.37337C43.2852 7.94024 43.8646 7.69682 44.4682 7.69985L44.4693 7.49985ZM46.1859 8.24549C45.7614 7.74016 45.1236 7.46412 44.4633 7.5L44.4742 7.69971C45.0718 7.66723 45.6488 7.91706 46.0328 8.37414L46.1859 8.24549ZM46.5679 7.70912L46.0386 8.23915L46.1801 8.38048L46.7094 7.85045L46.5679 7.70912ZM46.0628 7.41181C46.2484 7.53204 46.4171 7.67778 46.5633 7.84549L46.7141 7.71408C46.5555 7.53218 46.3727 7.37421 46.1716 7.24395L46.0628 7.41181ZM45.6617 7.20255C45.8024 7.25954 45.9372 7.32955 46.0624 7.41154L46.172 7.24422C46.0354 7.15482 45.889 7.07884 45.7368 7.01718L45.6617 7.20255ZM44.4691 6.95986C44.8793 6.95845 45.2837 7.0409 45.6599 7.2018L45.7385 7.01792C45.3374 6.84631 44.9059 6.75835 44.4684 6.75986L44.4691 6.95986ZM42.3312 7.82972C42.8919 7.25697 43.666 6.9419 44.4665 6.95984L44.471 6.75989C43.6152 6.74071 42.7877 7.07751 42.1883 7.68981L42.3312 7.82972ZM41.6726 11.1407C41.2055 10.0058 41.4645 8.70116 42.3307 7.83028L42.1889 7.68925C41.2659 8.6172 40.9899 10.0074 41.4876 11.2168L41.6726 11.1407ZM44.4695 13.0299C43.2422 13.0202 42.1397 12.2758 41.6726 11.1407L41.4876 11.2168C41.9853 12.4264 43.1602 13.2196 44.468 13.2299L44.4695 13.0299ZM46.5979 12.1706C46.0434 12.7459 45.2701 13.0585 44.4723 13.0299L44.4652 13.2298C45.3198 13.2604 46.148 12.9255 46.7419 12.3094L46.5979 12.1706ZM46.9379 11.7278C46.8422 11.8858 46.7275 12.0346 46.5975 12.171L46.7423 12.309C46.8818 12.1626 47.0055 12.0023 47.109 11.8313L46.9379 11.7278ZM52 7.63999H49.3008V7.83999H52V7.63999ZM51.9 7V7.73999H52.1V7H51.9ZM48.5 7.1H52V6.9H48.5V7.1ZM48.6 13V7H48.4V13H48.6ZM52 12.9H48.5V13.1H52V12.9ZM51.9 12.26V13H52.1V12.26H51.9ZM49.3008 12.36H52V12.16H49.3008V12.36ZM49.2008 10.3601V12.26H49.4008V10.3601H49.2008ZM51.7598 10.2601H49.3008V10.4601H51.7598V10.2601ZM51.6598 9.63989V10.3601H51.8598V9.63989H51.6598ZM49.3008 9.73989H51.7598V9.53989H49.3008V9.73989ZM49.2008 7.73999V9.63989H49.4008V7.73999H49.2008ZM54.5098 13.1H55.2793V12.9H54.5098V13.1ZM54.4098 7.73999V13H54.6098V7.73999H54.4098ZM52.8301 7.83999H54.5098V7.63999H52.8301V7.83999ZM52.7301 7V7.73999H52.9301V7H52.7301ZM57 6.9H52.8301V7.1H57V6.9ZM57.1 7.73999V7H56.9V7.73999H57.1ZM55.2793 7.83999H57V7.63999H55.2793V7.83999ZM55.3793 13V7.73999H55.1793V13H55.3793ZM60.0395 13V7H59.8395V13H60.0395ZM60.709 12.9H59.9395V13.1H60.709V12.9ZM60.609 7V13H60.809V7H60.609ZM59.9395 7.1H60.709V6.9H59.9395V7.1ZM63.3594 13.1H64.1289V12.9H63.3594V13.1ZM63.2594 7.73999V13H63.4594V7.73999H63.2594ZM61.6797 7.83999H63.3594V7.63999H61.6797V7.83999ZM61.5797 7V7.73999H61.7797V7H61.5797ZM65.7988 6.9H61.6797V7.1H65.7988V6.9ZM65.8988 7.73999V7H65.6988V7.73999H65.8988ZM64.1289 7.83999H65.7988V7.63999H64.1289V7.83999ZM64.2289 13V7.73999H64.0289V13H64.2289ZM72.9685 11.6491C72.1071 12.5077 70.7113 12.5077 69.8499 11.6491L69.7087 11.7908C70.6481 12.7272 72.1702 12.7272 73.1097 11.7908L72.9685 11.6491ZM72.965 8.34695C73.8152 9.28467 73.8152 10.7151 72.965 11.6528L73.1131 11.7871C74.0325 10.7732 74.0325 9.22656 73.1131 8.21262L72.965 8.34695ZM69.8499 8.35061C70.7113 7.49205 72.1071 7.49205 72.9685 8.35061L73.1097 8.20896C72.1702 7.2726 70.6481 7.2726 69.7087 8.20896L69.8499 8.35061ZM69.8534 11.6528C69.0032 10.7151 69.0032 9.28467 69.8534 8.34695L69.7052 8.21262C68.7859 9.22656 68.7859 10.7732 69.7052 11.7871L69.8534 11.6528ZM75.6801 13V7H75.4801V13H75.6801ZM76.3594 12.9H75.5801V13.1H76.3594V12.9ZM76.2594 8.11011V13H76.4594V8.11011H76.2594ZM79.495 12.9471L76.4442 8.05717L76.2745 8.16304L79.3253 13.0529L79.495 12.9471ZM80.2109 12.9H79.4102V13.1H80.2109V12.9ZM80.1109 7V13H80.3109V7H80.1109ZM79.4395 7.1H80.2109V6.9H79.4395V7.1ZM79.5395 11.6699V7H79.3395V11.6699H79.5395ZM76.4347 7.05302L79.3547 11.7229L79.5242 11.6169L76.6043 6.94698L76.4347 7.05302ZM75.5801 7.1H76.5195V6.9H75.5801V7.1Z" fill="white"/>
    <rect width="25" height="26" fill="black" fill-opacity="0" transform="translate(9 7)"/>
    <path d="M10.4401 7.53997C10.1142 7.93108 9.9497 8.43177 9.98014 8.93997V31.06C9.9497 31.5682 10.1142 32.0689 10.4401 32.46L10.5101 32.53L22.9001 20.15V19.86L10.5101 7.46997L10.4401 7.53997Z" fill="url(#paint0_linear)"/>
    <path d="M27.0004 24.28L22.9004 20.15V19.86L27.0004 15.72L27.0904 15.77L32.0004 18.56C33.4004 19.35 33.4004 20.65 32.0004 21.45L27.1104 24.23L27.0004 24.28Z" fill="url(#paint1_linear)"/>
    <path d="M27.1195 24.22L22.8995 20L10.4395 32.46C11.0282 32.9775 11.9019 33.0027 12.5195 32.52L27.1295 24.22" fill="url(#paint2_linear)"/>
    <path d="M27.1197 15.7801L12.5097 7.48005C11.8921 6.99733 11.0184 7.02253 10.4297 7.54005L22.8997 20.0001L27.1197 15.7801Z" fill="url(#paint3_linear)"/>
    <path opacity="0.2" d="M26.9995 24.1299L12.5095 32.3799C11.9165 32.8232 11.1024 32.8232 10.5095 32.3799L10.4395 32.4499L10.5095 32.5199C11.1013 32.9666 11.9176 32.9666 12.5095 32.5199L27.1195 24.2199L26.9995 24.1299Z" fill="black"/>
    <path opacity="0.12" fill-rule="evenodd" clip-rule="evenodd" d="M27 24.1299L32 21.3C32.5176 21.0449 32.8867 20.5649 33 20C32.9492 20.6245 32.5664 21.1736 32 21.4399L27.0898 24.22L27 24.1299ZM10.0645 31.6321C10.1426 31.8813 10.2695 32.1155 10.4395 32.3198L10.5098 32.3999L10.4395 32.47C10.127 32.0942 9.96289 31.6121 9.97852 31.1243C9.98438 31.2974 10.0137 31.468 10.0645 31.6321ZM9.97852 31.1243C9.97852 31.1045 9.98047 31.0896 9.98047 31.0698V30.9199C9.97656 30.9883 9.97852 31.0564 9.97852 31.1243Z" fill="black"/>
    <path opacity="0.25" d="M12.5107 7.61994L32.0007 18.6999C32.5174 18.955 32.8867 19.4351 33.0007 19.9999C32.9492 19.3755 32.5678 18.8263 32.0007 18.5599L12.5107 7.47994C11.1107 6.68994 9.9707 7.34994 9.9707 8.94994V9.09994C10.0007 7.48994 11.1207 6.82994 12.5107 7.61994V7.61994Z" fill="white"/>
    <defs>
        <linearGradient id="paint0_linear" x1="17.4734" y1="-7.559" x2="-2.36605" y2="-2.28266" gradientUnits="userSpaceOnUse">
            <stop stop-color="#00A0FF"/>
            <stop offset="0.01" stop-color="#00A1FF"/>
            <stop offset="0.26" stop-color="#00BEFF"/>
            <stop offset="0.51" stop-color="#00D2FF"/>
            <stop offset="0.76" stop-color="#00DFFF"/>
            <stop offset="1" stop-color="#00E3FF"/>
        </linearGradient>
        <linearGradient id="paint1_linear" x1="33.8304" y1="9.79966" x2="9.64039" y2="9.79966" gradientUnits="userSpaceOnUse">
            <stop stop-color="#FFE000"/>
            <stop offset="0.41" stop-color="#FFBD00"/>
            <stop offset="0.78" stop-color="#FFA500"/>
            <stop offset="1" stop-color="#FF9C00"/>
        </linearGradient>
        <linearGradient id="paint2_linear" x1="10.0733" y1="13.5275" x2="-5.8631" y2="40.3341" gradientUnits="userSpaceOnUse">
            <stop stop-color="#FF3A44"/>
            <stop offset="1" stop-color="#C31162"/>
        </linearGradient>
        <linearGradient id="paint3_linear" x1="0.709706" y1="4.09606" x2="7.82299" y2="16.0665" gradientUnits="userSpaceOnUse">
            <stop stop-color="#32A071"/>
            <stop offset="0.07" stop-color="#2DA771"/>
            <stop offset="0.48" stop-color="#15CF74"/>
            <stop offset="0.8" stop-color="#06E775"/>
            <stop offset="1" stop-color="#00F076"/>
        </linearGradient>
    </defs>
</svg>
