<svg width="32" height="32" viewBox="0 0 32 32" fill="none" xmlns="http://www.w3.org/2000/svg">
<rect opacity="0.2" width="32" height="32" rx="2" fill="#0288D1"/>
<rect x="1" y="1" width="30" height="30" rx="1" stroke="#0288D1" stroke-width="2"/>
<path d="M17.5527 5.82422V9.10059H15.9414V5.82422H17.5527ZM17.3594 23.3662V26.2344H15.7588V23.3662H17.3594ZM19.5078 19.9717C19.5078 19.542 19.4111 19.1553 19.2178 18.8115C19.0244 18.4678 18.7057 18.1527 18.2617 17.8662C17.8177 17.5798 17.2233 17.3148 16.4785 17.0713C15.5762 16.792 14.7956 16.4518 14.1367 16.0508C13.485 15.6497 12.9801 15.152 12.6221 14.5576C12.2712 13.9632 12.0957 13.2435 12.0957 12.3984C12.0957 11.5176 12.2855 10.7585 12.665 10.1211C13.0446 9.48372 13.5817 8.99316 14.2764 8.64941C14.971 8.30566 15.7874 8.13379 16.7256 8.13379C17.4561 8.13379 18.1077 8.24479 18.6807 8.4668C19.2536 8.68164 19.737 9.00391 20.1309 9.43359C20.5319 9.86328 20.8363 10.3896 21.0439 11.0127C21.2588 11.6357 21.3662 12.3555 21.3662 13.1719H19.3896C19.3896 12.6921 19.3324 12.2516 19.2178 11.8506C19.1032 11.4495 18.9313 11.1022 18.7021 10.8086C18.473 10.5078 18.1937 10.2786 17.8643 10.1211C17.5348 9.95638 17.1553 9.87402 16.7256 9.87402C16.124 9.87402 15.6263 9.97786 15.2324 10.1855C14.8457 10.3932 14.5592 10.6868 14.373 11.0664C14.1868 11.4388 14.0938 11.8721 14.0938 12.3662C14.0938 12.8245 14.1868 13.2256 14.373 13.5693C14.5592 13.9131 14.8743 14.2246 15.3184 14.5039C15.7695 14.776 16.389 15.0446 17.1768 15.3096C18.1006 15.6032 18.8848 15.9505 19.5293 16.3516C20.1738 16.7454 20.6644 17.2324 21.001 17.8125C21.3376 18.3854 21.5059 19.098 21.5059 19.9502C21.5059 20.874 21.2982 21.6546 20.8828 22.292C20.4674 22.9222 19.8838 23.402 19.1318 23.7314C18.3799 24.0609 17.499 24.2256 16.4893 24.2256C15.8805 24.2256 15.279 24.1432 14.6846 23.9785C14.0902 23.8138 13.5531 23.5452 13.0732 23.1729C12.5934 22.7933 12.2103 22.2956 11.9238 21.6797C11.6374 21.0566 11.4941 20.2939 11.4941 19.3916H13.4922C13.4922 20.0003 13.5781 20.5052 13.75 20.9062C13.929 21.3001 14.1654 21.6152 14.459 21.8516C14.7526 22.0807 15.0749 22.2454 15.4258 22.3457C15.7839 22.4388 16.1383 22.4854 16.4893 22.4854C17.1338 22.4854 17.6781 22.3851 18.1221 22.1846C18.5732 21.9769 18.917 21.6833 19.1533 21.3037C19.3896 20.9242 19.5078 20.4801 19.5078 19.9717Z" fill="#0288D1"/>
</svg>
