<?xml version="1.0" encoding="UTF-8"?>
<svg width="16px" height="16px" viewBox="0 0 16 16" version="1.1" xmlns="http://www.w3.org/2000/svg" xmlns:xlink="http://www.w3.org/1999/xlink">
    <defs>
        <polygon id="path-1" points="0.0982731554 0.0566259492 15.3533229 0.0566259492 15.3533229 15.4554612 0.0982731554 15.4554612"></polygon>
    </defs>
    <g id="Page-1" stroke="none" stroke-width="1" fill="none" fill-rule="evenodd">
        <g id="style-3" transform="translate(-2938.000000, -1399.000000)">
            <g id="Group-67" transform="translate(2938.000000, 1399.000000)">
                <path d="M15.2951439,7.7564239 C15.2951439,11.8920198 11.9746834,15.2447831 7.87756149,15.2447831 C3.77939299,15.2447831 0.457885924,11.8920198 0.457885924,7.7564239 C0.457885924,3.62008848 3.77939299,0.267219544 7.87756149,0.267219544 C11.9746834,0.267219544 15.2951439,3.62008848 15.2951439,7.7564239" id="Fill-9" fill="#FEB340"></path>
                <path d="M2.25468341,12.6422186 C3.61522763,14.2357742 5.62987964,15.2447937 7.87760335,15.2447937 C10.1236525,15.2447937 12.1368394,14.2372532 13.4971743,12.6455992 C13.0266353,12.7118389 11.5278388,12.8687224 7.88126635,12.8687224 C4.13233909,12.8687224 2.68294087,12.7057115 2.25468341,12.6422186" id="Fill-11" fill="#291900"></path>
                <path d="M15.1109681,9.42550545 C15.2323705,8.88903797 15.2951648,8.33017365 15.2951648,7.75641334 C15.2951648,7.1023625 15.2132182,6.46859558 15.0573836,5.86356421 C14.3221664,5.84644965 12.0119623,5.79964873 7.91232862,5.79964873 C3.76852957,5.79964873 1.41803244,5.84687224 0.69725798,5.86525454 C0.540690738,6.46859558 0.457906855,7.10257379 0.457906855,7.75641334 C0.457906855,8.33778013 0.524154893,8.90340574 0.648278388,9.4463176 C1.52886447,9.46110796 4.99479853,9.51424761 7.97564626,9.51424761 C10.9997174,9.51424761 14.3365044,9.44251436 15.1109681,9.42550545" id="Fill-13" fill="#291900"></path>
                <path d="M13.434202,2.79563156 C12.0753323,1.24507362 10.0896703,0.267219544 7.87753009,0.267219544 C5.66319205,0.267219544 3.67533229,1.24729218 2.31625327,2.79922351 C2.81682889,2.73108221 4.31102041,2.58201651 7.86444793,2.58201651 C11.3938043,2.58201651 12.9037991,2.72527171 13.434202,2.79563156" id="Fill-15" fill="#291900"></path>
                <g id="Group-19" transform="translate(0.150706, 0.000000)">
                    <mask id="mask-2" fill="white">
                        <use xlink:href="#path-1"></use>
                    </mask>
                    <g id="Clip-18"></g>
                    <path d="M7.7270539,0.056583691 C3.51313448,0.056583691 0.0982731554,3.50379399 0.0982731554,7.75644503 C0.0982731554,12.0084622 3.51313448,15.4554612 7.7270539,15.4554612 C11.9392988,15.4554612 15.3533229,12.0084622 15.3533229,7.75644503 C15.3533229,3.50379399 11.9392988,0.056583691 7.7270539,0.056583691 M15.1425432,7.75655068 C15.1425432,11.8910901 11.8228153,15.242797 7.72684458,15.242797 C3.62972266,15.242797 0.309262166,11.8910901 0.309262166,7.75655068 C0.309262166,3.62137735 3.62972266,0.269459227 7.72684458,0.269459227 C11.8228153,0.269459227 15.1425432,3.62137735 15.1425432,7.75655068" id="Fill-17" fill="#291900" mask="url(#mask-2)"></path>
                </g>
            </g>
        </g>
    </g>
</svg>