<?xml version="1.0" encoding="UTF-8"?>
<svg width="19px" height="12px" viewBox="0 0 19 12" version="1.1" xmlns="http://www.w3.org/2000/svg" xmlns:xlink="http://www.w3.org/1999/xlink">
    <g id="Page-1" stroke="none" stroke-width="1" fill="none" fill-rule="evenodd">
        <g id="style-3" transform="translate(-2935.000000, -1151.000000)">
            <g id="Group-54-Copy-2" transform="translate(2698.000000, 1137.000000)">
                <g id="Group-65" transform="translate(237.000000, 14.000000)">
                    <path d="M9.41777778,10.2294358 C10.5550079,9.15929252 11.2727363,7.60596078 11.2727363,5.87988796 C11.2727363,4.15393677 10.5550079,2.60048339 9.41777778,1.51890516 C8.42411672,0.575276511 7.09919641,0 5.64179574,0 C2.52833221,0 0,2.63503161 0,5.87988796 C0,9.1247443 2.52833221,11.7483409 5.64179574,11.7483409 C7.09919641,11.7483409 8.42411672,11.1730644 9.41777778,10.2294358" id="Fill-3" fill="#00A1DE"></path>
                    <path d="M9.41777778,10.2294358 C10.5550079,9.15929252 11.2727363,7.60596078 11.2727363,5.87988796 C11.2727363,4.15393677 10.5550079,2.60048339 9.41777778,1.51890516 L9.41777778,10.2294358 Z" id="Fill-5" fill="#00A1DE"></path>
                    <path d="M13.2047668,2.43297317e-05 C11.7474828,2.43297317e-05 10.4224458,0.57530084 9.41781279,1.51880784 C9.21915062,1.71454054 9.03134366,1.92158655 8.85474209,2.1401892 L9.99197217,2.1401892 C10.1465131,2.33580024 10.2899654,2.55452453 10.4224458,2.76157055 L8.42415174,2.76157055 C8.30264332,2.96873822 8.19222357,3.17578423 8.09289248,3.3829519 L10.7426164,3.3829519 C10.8309755,3.59011957 10.9193347,3.79716559 10.9855165,4.00433325 L7.86108103,4.00433325 C7.79478249,4.21150092 7.73957262,4.41854694 7.6954514,4.63714958 L11.1511461,4.63714958 C11.2284166,5.02837167 11.2726545,5.45414198 11.2726545,5.87991228 C11.2726545,6.52428523 11.1733235,7.15722321 10.9855165,7.74393469 L7.86108103,7.74393469 C7.92726285,7.95110236 8.00453333,8.15814838 8.09289248,8.3654377 L10.7426164,8.3654377 C10.643402,8.57248371 10.5439542,8.791208 10.4224458,8.9866974 L8.42415174,8.9866974 C8.5566321,9.20542169 8.7000844,9.41246771 8.85474209,9.60807875 L9.99197217,9.60807875 C9.81525387,9.82668139 9.62756364,10.0338491 9.41781279,10.2294601 C10.4224458,11.1730888 11.7474828,11.7483653 13.2047668,11.7483653 C16.318347,11.7483653 18.8355906,9.12476863 18.8355906,5.87991228 C18.8355906,2.63505594 16.318347,2.43297317e-05 13.2047668,2.43297317e-05" id="Fill-7" fill="#F14947"></path>
                </g>
            </g>
        </g>
    </g>
</svg>