<svg xmlns="http://www.w3.org/2000/svg" width="16" height="11" viewBox="0 0 16 11">
    <defs>
        <linearGradient id="a" x1="0%" y1="0%" y2="100%">
            <stop offset="0%" stop-color="#ECEFF1"/>
            <stop offset="100%" stop-color="#90A4AE"/>
        </linearGradient>
    </defs>
    <g fill="none" fill-rule="evenodd">
        <rect width="15.333" height="10.353" x=".333" y=".324" fill="url(#a)" rx=".667"/>
        <path fill="#FEFEFE" d="M15.667.324c-.274.01-.548 0-.667 0C8.23.324 2.664 4.71 1 10.676h14.667V.324z" opacity=".4"/>
        <path fill="#78909C" fill-rule="nonzero" d="M1 .324A.657.657 0 0 0 .333.97v9.058c0 .358.299.647.667.647h14c.368 0 .667-.29.667-.647V.971A.657.657 0 0 0 15 .324H1zM1 0h14c.552 0 1 .435 1 .97v9.06c0 .535-.448.97-1 .97H1c-.552 0-1-.435-1-.97V.97C0 .436.448 0 1 0z"/>
        <path fill="#FB8C00" d="M11.953 9.412h1.2v-2.02h-1.2z"/>
        <path fill="#F44336" d="M12.03 8.402c0-.41.205-.774.521-1.01a1.423 1.423 0 0 0-.846-.274c-.758 0-1.372.574-1.372 1.284 0 .71.614 1.285 1.372 1.285.32 0 .614-.103.846-.275a1.255 1.255 0 0 1-.522-1.01"/>
        <path fill="#FFB300" d="M14.773 8.402c0 .71-.613 1.285-1.372 1.285-.32 0-.613-.103-.846-.275.32-.235.522-.6.522-1.01 0-.41-.205-.774-.522-1.01.233-.17.526-.274.846-.274.759 0 1.372.578 1.372 1.284"/>
        <rect width="3.333" height="2.588" x="2.333" y="2.912" fill="#FFD740" rx=".444"/>
        <g fill="#78909C">
            <path d="M2.333 7.765h5.333v1H2.333z"/>
            <path d="M2.333 8.736h2v1h-2z"/>
        </g>
    </g>
</svg>
