<svg width="16" height="16" viewBox="0 0 16 16" fill="none" xmlns="http://www.w3.org/2000/svg">
    <rect width="16" height="16" fill="black" fill-opacity="0"/>
    <path d="M15.9961 7.99998C15.9961 12.4176 12.4181 15.9956 8.00047 15.9956C3.58282 15.9956 0.00488281 12.4176 0.00488281 7.99998C0.00488281 3.58234 3.58282 0.00439453 8.00047 0.00439453C12.4181 0.00439453 15.9961 3.58234 15.9961 7.99998Z" fill="url(#paint0_linear)"/>
    <path d="M15.0098 8.00004C15.0098 11.8677 11.8687 15.0103 7.99955 15.0103C4.13043 15.0103 0.989258 11.8765 0.989258 8.00004C0.989258 4.13239 4.13043 0.989746 7.99955 0.989746C11.876 0.989746 15.0098 4.13239 15.0098 8.00004Z" fill="white"/>
    <rect width="11.6" height="11.6" fill="black" fill-opacity="0" transform="translate(2.29395 2.27942)"/>
    <path d="M12.8621 11.0206L6.2959 13.4515C6.83707 13.6206 7.4106 13.7103 8.00766 13.7103C10.0518 13.7177 11.8518 12.6353 12.8621 11.0206Z" fill="url(#paint1_linear)"/>
    <path d="M13.7176 7.95154L3.63086 11.6912C3.94557 12.0633 4.30145 12.3942 4.69704 12.6677L13.5485 9.38095C13.6617 8.93683 13.7176 8.47654 13.7176 8.00007C13.7176 7.98389 13.7176 7.96771 13.7176 7.95154Z" fill="url(#paint2_linear)"/>
    <path d="M13.1041 5.43237L2.45117 9.3809C2.55558 9.80149 2.71 10.2044 2.90411 10.5927L13.5556 6.64414C13.4512 6.21473 13.2968 5.81178 13.1041 5.43237Z" fill="url(#paint3_linear)"/>
    <path d="M11.3194 3.34851L2.46059 6.63528C2.35618 7.07204 2.29883 7.53233 2.29883 8.0088C2.29883 8.03233 2.29883 8.04851 2.29883 8.07351L12.3856 4.32645C12.0709 3.95439 11.7077 3.62351 11.3194 3.34851Z" fill="url(#paint4_linear)"/>
    <path d="M7.99998 2.28967C5.94115 2.28967 4.13968 3.37938 3.13086 5.01173L9.73674 2.56467C9.19557 2.37938 8.60586 2.28967 7.99998 2.28967Z" fill="url(#paint5_linear)"/>
    <path d="M6.61865 3.35584L5.56129 7.3779L4.85835 7.63672L4.24512 9.93819L4.95541 9.67202L4.43923 11.6338H11.6834L12.3451 9.12202H8.52453L8.751 8.25731L9.45394 7.99849L10.0672 5.69702L9.36423 5.96319L10.051 3.35437H6.61865V3.35584Z" fill="url(#paint6_linear)"/>
    <path d="M6.95003 3.78381L5.91621 7.68381L5.20592 7.96028L4.86621 9.23528L5.57651 8.96911L4.9868 11.1985H11.3427L11.7794 9.54264H7.96033L8.38827 7.92793L9.09121 7.66911L9.43092 6.39264L8.72798 6.65881L9.47945 3.78381L6.95003 3.78381Z" fill="white"/>
    <defs>
        <linearGradient id="paint0_linear" x1="0.0053727" y1="-0.0227954" x2="0.0053727" y2="15.9674" gradientUnits="userSpaceOnUse">
            <stop stop-color="#4F4F4F"/>
            <stop offset="1" stop-color="#333333"/>
        </linearGradient>
        <linearGradient id="paint1_linear" x1="-4.35686" y1="2.22174" x2="-4.35686" y2="13.6391" gradientUnits="userSpaceOnUse">
            <stop stop-color="#D3D4D3"/>
            <stop offset="1" stop-color="#B8BABB"/>
        </linearGradient>
        <linearGradient id="paint2_linear" x1="-3.5352" y1="2.22176" x2="-3.5352" y2="13.6391" gradientUnits="userSpaceOnUse">
            <stop stop-color="#D3D4D3"/>
            <stop offset="1" stop-color="#B8BABB"/>
        </linearGradient>
        <linearGradient id="paint3_linear" x1="-4.28076" y1="2.22172" x2="-4.28076" y2="13.6391" gradientUnits="userSpaceOnUse">
            <stop stop-color="#D3D4D3"/>
            <stop offset="1" stop-color="#B8BABB"/>
        </linearGradient>
        <linearGradient id="paint4_linear" x1="-4.84459" y1="2.22168" x2="-4.84459" y2="13.6391" gradientUnits="userSpaceOnUse">
            <stop stop-color="#D3D4D3"/>
            <stop offset="1" stop-color="#B8BABB"/>
        </linearGradient>
        <linearGradient id="paint5_linear" x1="-7.42056" y1="2.22166" x2="-7.42056" y2="13.639" gradientUnits="userSpaceOnUse">
            <stop stop-color="#D3D4D3"/>
            <stop offset="1" stop-color="#B8BABB"/>
        </linearGradient>
        <linearGradient id="paint6_linear" x1="4.10125" y1="3.23278" x2="4.10125" y2="11.8046" gradientUnits="userSpaceOnUse">
            <stop stop-color="#4F4F4F"/>
            <stop offset="1" stop-color="#333333"/>
        </linearGradient>
    </defs>
</svg>
