<?xml version="1.0" encoding="UTF-8"?>
<svg width="42px" height="12px" viewBox="0 0 42 12" version="1.1" xmlns="http://www.w3.org/2000/svg" xmlns:xlink="http://www.w3.org/1999/xlink">
    <defs>
        <linearGradient x1="0%" y1="0%" x2="100%" y2="100%" id="linearGradient-1">
            <stop stop-color="#00A7E3" offset="0%"></stop>
            <stop stop-color="#007FC4" offset="100%"></stop>
        </linearGradient>
        <path d="M29.5374503,0.0518518519 C30.0430593,2.82503704 32.4491822,4.92666667 35.3446089,4.92666667 L41.8092647,4.92666667 C41.861559,4.66385185 41.8897626,4.3922963 41.8897626,4.11392593 C41.8897626,1.87051852 40.0863456,0.0518518519 37.8620774,0.0518518519 L29.5374503,0.0518518519 Z" id="path-2"></path>
    </defs>
    <g id="Page-1" stroke="none" stroke-width="1" fill="none" fill-rule="evenodd">
        <g id="style-3" transform="translate(-2912.000000, -1203.000000)">
            <g id="Group-54-Copy-3" transform="translate(2698.000000, 1189.000000)">
                <g id="Group-18" transform="translate(214.000000, 14.000000)">
                    <path d="M23.3226023,1.31044444 L20.6764546,7.09281481 L20.4073449,7.09281481 L20.4073449,0.0517777778 L16.647888,0.0517777778 L16.647888,11.9676296 L19.8391591,11.9676296 C20.6764546,11.9676296 21.4376591,11.4765185 21.7891763,10.708963 L24.4359115,4.92659259 L24.7042868,4.92659259 L24.7042868,11.9676296 L28.4637437,11.9676296 L28.4637437,0.0517777778 L25.2733539,0.0517777778 C24.4350302,0.0517777778 23.6739726,0.542888889 23.3226023,1.31044444" id="Fill-4" fill="#20AA4D"></path>
                    <path d="M9.21862367,1.61788148 L7.65258726,7.09343704 L7.3843589,7.09343704 L5.81832249,1.61788148 C5.55244444,0.690325926 4.710889,0.0515111111 3.75431559,0.0515111111 L0,0.0515111111 L0,11.9681037 L3.75857552,11.9681037 L3.75857552,4.92632593 L4.02768524,4.92632593 L6.17571548,11.9681037 L8.86108379,11.9681037 L11.009114,4.92632593 L11.2774893,4.92632593 L11.2774893,11.9681037 L15.0367993,11.9681037 L15.0367993,0.0515111111 L11.2826306,0.0515111111 C10.3260572,0.0515111111 9.48435482,0.690325926 9.21862367,1.61788148" id="Fill-6" fill="#20AA4D"></path>
                    <path d="M30.0747002,5.4682963 L30.0747002,11.9682963 L33.8265186,11.9682963 L33.8265186,8.17674074 L37.8619892,8.17674074 C39.6147279,8.17674074 41.1018822,7.04518519 41.6556724,5.4682963 L30.0747002,5.4682963 Z" id="Fill-8" fill="#20AA4D"></path>
                    <mask id="mask-3" fill="white">
                        <use xlink:href="#path-2"></use>
                    </mask>
                    <use id="Clip-12" fill="url(#linearGradient-1)" xlink:href="#path-2"></use>
                </g>
            </g>
        </g>
    </g>
</svg>