<?xml version="1.0" encoding="UTF-8"?>
<svg width="42px" height="16px" viewBox="0 0 42 16" version="1.1" xmlns="http://www.w3.org/2000/svg" xmlns:xlink="http://www.w3.org/1999/xlink">
    <g id="Page-1" stroke="none" stroke-width="1" fill="none" fill-rule="evenodd">
        <g id="style-3" transform="translate(-2912.000000, -1451.000000)" fill="#0F0F0F">
            <g id="Group-54-Copy-7" transform="translate(2698.000000, 1439.000000)">
                <path d="M249.947973,12.141953 C246.865173,12.805525 245.351332,15.0976747 245.526005,18.8377977 L248.813052,18.542993 C248.663233,16.430052 249.302784,15.928826 249.949584,15.6530936 L249.947973,12.141953 M245.388153,24.7155159 L245.389304,27.9998837 L256,27.9998837 M256,28 L256,24.3924519 L245.388153,24.7156322 M254.568778,13.1620816 C253.583332,12.221149 252.138416,11.8351701 250.558066,12.0645013 L250.558066,15.5122618 C251.197962,15.4763271 251.716575,15.7163574 251.947633,16.1996741 C252.312515,16.9616307 251.936011,18.1049145 251.048142,19.1641179 C249.677562,20.7986264 246.033112,24.144281 246.033112,24.144281 L251.264932,23.9703056 C254.461764,20.8139772 255.609688,18.8981541 255.81566,16.5069222 C255.92394,15.2418789 255.469534,14.0228879 254.568778,13.1620816 M231.378449,25.1458027 L231.378449,27.9998837 L235.311375,27.9998837 L235.311375,25.0259039 L231.378449,25.1458027 M228.163321,15.6225083 L228.163321,28 L230.872838,28 L230.872838,15.237576 L228.163321,15.6225083 M239.837249,24.8869329 L239.837249,28 L244.381304,28 L244.381304,24.7483107 L239.837249,24.8869329 M239.837249,19.4067066 L239.837249,22.5728037 L242.815682,22.4084807 L242.815682,19.1489997 L239.837249,19.4067066 M239.837249,13.9604382 L239.837249,17.0689699 L244.381304,16.5640224 L244.381304,13.3148916 L239.837249,13.9604382 M236.136992,14.4862022 L236.136992,28 L239.255003,28 L239.255003,14.0432393 L236.136992,14.4862022 M223.819945,25.3762969 L223.819945,28 L227.25451,28 L227.25451,25.2716326 L223.819945,25.3762969 M223.819945,20.7975798 L223.819945,23.4583806 L226.074482,23.3341788 L226.074482,20.6015085 L223.819945,20.7975798 M223.819945,16.2395629 L223.819945,18.8526833 L227.25451,18.4707746 L227.25451,15.751827 L223.819945,16.2395629 M220.998236,16.6405437 L220.998236,28 L223.376816,28 L223.376816,16.3024778 L220.998236,16.6405437 M215.967556,20.0848154 L215.967556,28 L218.224855,28 L218.224855,19.8516465 L215.967556,20.0848154 M214,17.63439 L214,19.9442163 L220.1656,19.258781 L220.1656,16.7588145 L214,17.63439" id="Fill-1"></path>
            </g>
        </g>
    </g>
</svg>