<svg width="16" height="16" viewBox="0 0 16 16" fill="none" xmlns="http://www.w3.org/2000/svg">
    <path fill-rule="evenodd" clip-rule="evenodd" d="M15.8506 7.28156C15.8965 3.57397 12.5996 0.137207 8.77051 0.010498C8.48145 0.0513916 7.88379 -0.184875 7.84668 0.450073C7.82617 0.793396 8.14648 0.816162 8.44434 0.837341C8.51758 0.842529 8.58984 0.847656 8.65527 0.857483C12.6416 1.45856 14.4805 3.31683 14.9883 7.25317C14.998 7.3324 15 7.42035 15.002 7.50958C15.0068 7.82977 15.0117 8.16632 15.4258 8.17401C15.7236 8.17963 15.8223 8.02588 15.8516 7.82593C15.8623 7.75018 15.8633 7.66779 15.8604 7.58496C15.8574 7.48047 15.8496 7.37518 15.8506 7.28156ZM12.6045 15.9592C12.6729 15.9741 12.7324 15.9872 12.7793 15.9999C14.0215 16.0121 15.4756 14.8395 15.8955 13.6757C16.251 12.6918 15.6338 12.2292 15.0205 11.7694C14.9355 11.7061 14.8516 11.6428 14.7695 11.5782C14.5547 11.4086 14.334 11.2465 14.1094 11.0881C13.9033 10.9421 13.6943 10.7991 13.4854 10.6562L13.2168 10.4729C12.1719 9.75385 11.2168 9.69818 10.4385 10.8545C10.001 11.504 9.38867 11.5323 8.74805 11.2474C6.98242 10.4625 5.61914 9.25336 4.82031 7.49426C4.46777 6.71606 4.47168 6.01813 5.29883 5.46753C5.73633 5.17639 6.17676 4.83197 6.1416 4.19611C6.0957 3.36652 4.04199 0.594604 3.23047 0.302063C2.89453 0.181152 2.56055 0.188965 2.21875 0.301514C0.317383 0.92865 -0.47168 2.46222 0.283203 4.27814C2.53418 9.69586 6.49609 13.4675 11.9482 15.7694C12.0488 15.8115 12.1523 15.8455 12.2529 15.8737C12.3799 15.9097 12.502 15.9365 12.6045 15.9592ZM13.8838 6.61761C13.875 6.68396 13.8779 6.76184 13.8809 6.84259C13.8887 7.09302 13.8994 7.37164 13.5605 7.42224C13.0752 7.49457 13.0537 7.15918 13.0352 6.84338C13.0303 6.76556 13.0254 6.68896 13.0137 6.61993C12.6084 4.22559 11.751 3.34698 9.28906 2.80743C8.92578 2.72797 8.3623 2.78363 8.45605 2.23621C8.53125 1.79321 8.9082 1.85406 9.25488 1.9101C9.31641 1.9201 9.37695 1.92993 9.43457 1.93671C11.8945 2.22638 13.9043 4.31891 13.8838 6.61761ZM11.625 6.84698C11.9912 6.80408 12.0244 6.48486 12.0127 6.18158C12.0312 5.0722 10.752 3.7901 9.66016 3.81677C9.4043 3.82281 9.1543 3.84979 9.05957 4.11829C8.91895 4.51898 9.21582 4.61438 9.51758 4.66223C10.5283 4.82117 11.0596 5.40479 11.1602 6.3924C11.1729 6.51562 11.2168 6.62811 11.2852 6.71069C11.3662 6.8078 11.4824 6.86359 11.625 6.84698Z" fill="#7C529D"/>
</svg>
