<svg width="17" height="17" viewBox="0 0 17 17" fill="none" xmlns="http://www.w3.org/2000/svg">
    <rect width="17" height="17" fill="black" fill-opacity="0"/>
    <path fill-rule="evenodd" clip-rule="evenodd" d="M16.0547 8.02734C16.0547 12.4607 12.4609 16.0547 8.02734 16.0547C3.59375 16.0547 0 12.4607 0 8.02734C0 3.59399 3.59375 0 8.02734 0C12.4609 0 16.0547 3.59399 16.0547 8.02734ZM14.6953 8.02734C14.6953 12.1602 12.4023 14.6182 8.25586 14.6182C4.10742 14.6182 1.04102 12.1602 1.04102 8.02734C1.04102 7.71448 1.01758 7.40601 0.996094 7.10315C0.941406 6.35645 0.888672 5.6438 1.18555 4.98193C2.35547 2.36694 4.98828 0.544189 8.04688 0.544189C9.4707 0.544189 10.8027 0.939331 11.9375 1.62549C12.0098 1.66907 11.9766 1.77686 11.9414 1.88452C11.9082 1.98816 11.875 2.09167 11.9375 2.13794C13.7773 3.49121 14.6953 5.49048 14.6953 8.02734Z" fill="#E5BE35"/>
    <path fill-rule="evenodd" clip-rule="evenodd" d="M1.45568 1.6877L2.53513 3.24532L4.38653 3.4134L6.18147 2.38446L5.61634 3.58147C5.61634 3.58147 5.89124 3.98579 5.89124 4.36672C5.89124 4.36672 7.67867 4.36672 7.67867 4.36672C7.67867 4.36672 8.03771 4.60177 7.72836 4.96623C7.41901 5.33068 6.14794 6.31789 6.14794 6.31789L6.1393 7.3645L4.96699 7.38974C4.96699 7.38974 4.93149 8.81223 5.87304 9.07464C6.81458 9.33706 8.05212 8.6957 8.05212 8.6957C8.05212 8.6957 8.99759 8.54995 9.35671 8.97459C9.71583 9.39924 9.67562 9.53317 9.21683 9.68584C8.75805 9.8385 7.72377 10.7217 6.93154 10.7217C6.1393 10.7217 5.89032 10.6877 5.89032 10.6877C5.89032 10.6877 6.21317 11.1843 6.87116 11.3961C7.52915 11.6079 10.576 12.3649 12.095 9.66165C12.4048 8.97459 12.3961 7.67262 12.3961 7.67262L13.0455 8.11175C13.0455 8.11175 13.4697 6.43282 13.0455 5.39978C13.0455 5.39978 13.5598 5.32975 13.5598 5.32975C13.5598 5.32975 12.6623 3.40702 10.5954 2.89574C10.5954 2.89574 11.7917 2.57712 11.7917 2.57712C11.7917 2.57712 10.9844 1.8114 9.69225 1.56653L11.9642 1.62579L14.3452 3.86555L15.3585 7.1167L15.0176 10.4011L13.4487 13.0295L11.4306 14.7221L8.86465 15.447L4.8131 14.8912L1.14384 11.5389L0.412109 6.46764L0.993485 4.27744L1.45568 1.6877Z" fill="#E5BE35"/>
</svg>
