<svg width="16" height="17" viewBox="0 0 16 17" fill="none" xmlns="http://www.w3.org/2000/svg">
    <rect width="16" height="17" fill="black" fill-opacity="0"/>
    <path fill-rule="evenodd" clip-rule="evenodd" d="M15.1758 7.38513C15.1758 11.4639 11.7773 14.7704 7.58789 14.7704C7.45508 14.7704 7.32422 14.7671 7.19336 14.7605L10.1094 9.70874C10.6992 9.10303 11.0605 8.28516 11.0605 7.38513C11.0605 6.16809 10.4004 5.10132 9.4082 4.50623H14.5781C14.8008 5.0199 14.9668 5.56335 15.0664 6.12866C15.1387 6.53699 15.1758 6.95679 15.1758 7.38513ZM9.12109 10.418C8.6582 10.64 8.13867 10.7648 7.58789 10.7648C6.30859 10.7648 5.18945 10.0908 4.58789 9.08752L4.56641 9.09961L1.24023 3.33789C0.457031 4.50024 0 5.89087 0 7.38513C0 11.1521 2.89844 14.2603 6.64258 14.7135L9.12109 10.418ZM7.58789 0C5.13281 0 2.94922 1.13501 1.5625 2.89551L4.11523 7.31799C4.15039 5.52429 5.625 4.07068 7.45898 4.00549H7.58789H14.3359C13.0762 1.62659 10.5273 0 7.58789 0ZM7.58789 10.0138C9.07812 10.0138 10.2871 8.83691 10.2871 7.38525C10.2871 5.93347 9.07812 4.75659 7.58789 4.75659C6.0957 4.75659 4.88672 5.93347 4.88672 7.38525C4.88672 8.83691 6.0957 10.0138 7.58789 10.0138Z" fill="#29B6F6"/>
    <mask id="mask0" mask-type="alpha" maskUnits="userSpaceOnUse" x="0" y="0" width="16" height="15">
        <path fill-rule="evenodd" clip-rule="evenodd" d="M15.1758 7.38513C15.1758 11.4639 11.7773 14.7704 7.58789 14.7704C7.45508 14.7704 7.32422 14.7671 7.19336 14.7605L10.1094 9.70874C10.6992 9.10303 11.0605 8.28516 11.0605 7.38513C11.0605 6.16809 10.4004 5.10132 9.4082 4.50623H14.5781C14.8008 5.0199 14.9668 5.56335 15.0664 6.12866C15.1387 6.53699 15.1758 6.95679 15.1758 7.38513ZM9.12109 10.418C8.6582 10.64 8.13867 10.7648 7.58789 10.7648C6.30859 10.7648 5.18945 10.0908 4.58789 9.08752L4.56641 9.09961L1.24023 3.33789C0.457031 4.50024 0 5.89087 0 7.38513C0 11.1521 2.89844 14.2603 6.64258 14.7135L9.12109 10.418ZM7.58789 0C5.13281 0 2.94922 1.13501 1.5625 2.89551L4.11523 7.31799C4.15039 5.52429 5.625 4.07068 7.45898 4.00549H7.58789H14.3359C13.0762 1.62659 10.5273 0 7.58789 0ZM7.58789 10.0138C9.07812 10.0138 10.2871 8.83691 10.2871 7.38525C10.2871 5.93347 9.07812 4.75659 7.58789 4.75659C6.0957 4.75659 4.88672 5.93347 4.88672 7.38525C4.88672 8.83691 6.0957 10.0138 7.58789 10.0138Z" fill="white"/>
    </mask>
    <g mask="url(#mask0)">
        <path fill-rule="evenodd" clip-rule="evenodd" d="M1.14258 2.22721L4.1808 7.92866L4.57941 6.26768L5.69438 4.88736L7.62316 4.39034L9.58308 4.28131L16.78 4.18474L9.31306 -0.898193L4.17 0.013463L1.14258 2.22721Z" fill="#E53935"/>
        <path fill-rule="evenodd" clip-rule="evenodd" d="M8.72579 4.26025L9.89049 5.42421L10.6397 6.58817V7.56608L10.0796 9.06986L6.80078 15.0825L8.53841 15.1754L12.3113 13.9364L14.9713 10.7289L15.8622 7.50545L15.4799 4.97902L15.0007 4.31037L8.72579 4.26025Z" fill="#E5DC35"/>
        <path fill-rule="evenodd" clip-rule="evenodd" d="M1.17999 2.9386L2.4861 5.07704L4.38173 7.88413L5.33695 9.43412L6.16532 10.0402L7.23433 10.3353L8.68562 10.303L9.51776 9.97588L6.5549 15.2466L1.34728 13.278L-0.818359 8.67599L-0.579492 5.21835L1.17999 2.9386Z" fill="#59C816"/>
    </g>
</svg>
