<svg width="17" height="17" viewBox="0 0 17 17" fill="none" xmlns="http://www.w3.org/2000/svg">
    <rect width="17" height="17" fill="black" fill-opacity="0"/>
    <path fill-rule="evenodd" clip-rule="evenodd" d="M14.2051 10.7296C13.3672 12.939 11.2363 14.5085 8.74023 14.5085C5.99414 14.5085 3.69141 12.6069 3.06445 10.0438L5.07422 6.35388C5.07422 6.35388 3.84961 7.37756 2.89844 8.48022C2.98242 5.31409 5.56641 2.77368 8.74023 2.77368C11.9688 2.77368 14.5859 5.40063 14.5859 8.64111C14.5859 8.87671 14.5723 9.10901 14.5449 9.33728H14.1895H11.0195H6.26367C6.26367 10.8751 7.32812 12.1218 8.64062 12.1218C9.52148 12.1218 10.2891 11.5619 10.7012 10.7296H14.2051ZM8.64062 5.55823C9.71875 5.55823 10.6289 6.39697 10.9219 7.54724H6.36133C6.6543 6.39697 7.56445 5.55823 8.64062 5.55823Z" fill="#29B6F6"/>
    <path fill-rule="evenodd" clip-rule="evenodd" d="M5.36328 13.7721C3.94336 14.3862 2.76758 14.4625 2.16211 13.8562C0.927734 12.6218 2.52148 9.02551 5.72461 5.82385C8.92578 2.62207 12.5215 1.02722 13.7559 2.2616C14.4727 2.97766 14.2363 4.4884 13.2871 6.25598C13.9414 4.849 14.1934 3.65198 13.6719 3.12878C12.4004 1.85754 9.27734 3.66919 6.36133 6.58386C3.44727 9.49854 1.57031 12.5413 2.79102 13.761C3.22656 14.1984 4.21875 14.1531 5.36328 13.7721Z" fill="#29B6F6"/>
</svg>
