<?xml version="1.0" encoding="UTF-8"?>
<svg width="40px" height="40px" viewBox="0 0 40 40" version="1.1" xmlns="http://www.w3.org/2000/svg" xmlns:xlink="http://www.w3.org/1999/xlink">
    <defs>
        <linearGradient x1="50.0000012%" y1="-0.170030573%" x2="50.0000012%" y2="99.823847%" id="linearGradient-1">
            <stop stop-color="#4F4F4F" offset="0%"></stop>
            <stop stop-color="#333333" offset="100%"></stop>
        </linearGradient>
        <linearGradient x1="50.0023299%" y1="-327.127614%" x2="50.0023299%" y2="97.3506876%" id="linearGradient-2">
            <stop stop-color="#D3D4D3" offset="0%"></stop>
            <stop stop-color="#B8BABB" offset="100%"></stop>
        </linearGradient>
        <linearGradient x1="50.0006822%" y1="-121.491951%" x2="50.0006822%" y2="120.597715%" id="linearGradient-3">
            <stop stop-color="#D3D4D3" offset="0%"></stop>
            <stop stop-color="#B8BABB" offset="100%"></stop>
        </linearGradient>
        <linearGradient x1="50.0032407%" y1="-62.2184918%" x2="50.0032407%" y2="159.035871%" id="linearGradient-4">
            <stop stop-color="#D3D4D3" offset="0%"></stop>
            <stop stop-color="#B8BABB" offset="100%"></stop>
        </linearGradient>
        <linearGradient x1="49.9990836%" y1="-23.8483311%" x2="49.9990836%" y2="217.789254%" id="linearGradient-5">
            <stop stop-color="#D3D4D3" offset="0%"></stop>
            <stop stop-color="#B8BABB" offset="100%"></stop>
        </linearGradient>
        <linearGradient x1="49.9918218%" y1="-2.49848064%" x2="49.9918218%" y2="416.940504%" id="linearGradient-6">
            <stop stop-color="#D3D4D3" offset="0%"></stop>
            <stop stop-color="#B8BABB" offset="100%"></stop>
        </linearGradient>
        <linearGradient x1="49.9898903%" y1="-1.46863635%" x2="49.9898903%" y2="102.063542%" id="linearGradient-7">
            <stop stop-color="#4F4F4F" offset="0%"></stop>
            <stop stop-color="#333333" offset="100%"></stop>
        </linearGradient>
    </defs>
    <g id="Page-1" stroke="none" stroke-width="1" fill="none" fill-rule="evenodd">
        <g id="style-3" transform="translate(-1056.000000, -959.000000)" fill-rule="nonzero">
            <g id="Group-12-Copy-5" transform="translate(926.000000, 379.000000)">
                <g id="Group-Copy">
                    <g id="Group-42" transform="translate(16.000000, 110.000000)">
                        <g id="Group-40" transform="translate(0.000000, 436.000000)">
                            <g id="Group-23-Copy" transform="translate(92.000000, 23.000000)">
                                <g id="Logo" transform="translate(22.000000, 11.000000)">
                                    <path d="M39.9889706,20 C39.9889706,31.0441176 31.0441176,39.9889706 20,39.9889706 C8.95588235,39.9889706 0.0110294118,31.0441176 0.0110294118,20 C0.0110294118,8.95588235 8.95588235,0.0110294118 20,0.0110294118 C31.0441176,0.0110294118 39.9889706,8.95588235 39.9889706,20 Z" id="path11087_1_" fill="url(#linearGradient-1)"></path>
                                    <path d="M37.5257353,20 C37.5257353,29.6691176 29.6727941,37.5257353 20,37.5257353 C10.3272059,37.5257353 2.47426471,29.6911765 2.47426471,20 C2.47426471,10.3308824 10.3272059,2.47426471 20,2.47426471 C29.6911765,2.47426471 37.5257353,10.3308824 37.5257353,20 Z" id="path11089_1_" fill="#FFFFFF"></path>
                                    <g id="XMLID_552_" transform="translate(5.735294, 5.698529)">
                                        <path d="M26.4191176,21.8529412 L10.0036765,27.9301471 C11.3566176,28.3529412 12.7904412,28.5772059 14.2830882,28.5772059 C19.3933824,28.5955882 23.8933824,25.8897059 26.4191176,21.8529412 Z" id="path11093_1_" fill="url(#linearGradient-2)"></path>
                                        <path d="M28.5588235,14.1801471 L3.34191176,23.5294118 C4.12867647,24.4595588 5.01838235,25.2867647 6.00735294,25.9705882 L28.1360294,17.7536765 C28.4191176,16.6433824 28.5588235,15.4926471 28.5588235,14.3014706 C28.5588235,14.2610294 28.5588235,14.2205882 28.5588235,14.1801471 Z" id="path11095_1_" fill="url(#linearGradient-3)"></path>
                                        <path d="M27.0257353,7.88235294 L0.393382353,17.7536765 C0.654411765,18.8051471 1.04044118,19.8125 1.52573529,20.7830882 L28.1544118,10.9117647 C27.8933824,9.83823529 27.5073529,8.83088235 27.0257353,7.88235294 Z" id="path11097_1_" fill="url(#linearGradient-4)"></path>
                                        <path d="M22.5625,2.67279412 L0.415441176,10.8897059 C0.154411765,11.9816176 0.0110294118,13.1323529 0.0110294118,14.3235294 C0.0110294118,14.3823529 0.0110294118,14.4227941 0.0110294118,14.4852941 L25.2279412,5.11764706 C24.4411765,4.1875 23.5330882,3.36029412 22.5625,2.67279412 Z" id="path11099_1_" fill="url(#linearGradient-5)"></path>
                                        <path d="M14.2647059,0.0257352941 C9.11764706,0.0257352941 4.61397059,2.75 2.09191176,6.83088235 L18.6066176,0.713235294 C17.2536765,0.25 15.7794118,0.0257352941 14.2647059,0.0257352941 Z" id="path11101_1_" fill="url(#linearGradient-6)"></path>
                                    </g>
                                    <polygon id="path11103_1_" fill="url(#linearGradient-7)" points="16.5477941 8.38970588 13.9044118 18.4448529 12.1470588 19.0919118 10.6139706 24.8455882 12.3897059 24.1801471 11.0992647 29.0845588 29.2095588 29.0845588 30.8639706 22.8051471 21.3125 22.8051471 21.8786765 20.6433824 23.6360294 19.9963235 25.1691176 14.2426471 23.4117647 14.9080882 25.1286765 8.38602941 16.5477941 8.38602941"></polygon>
                                    <polygon id="path11105_1_" fill="#FFFFFF" points="17.375 9.45955882 14.7904412 19.2095588 13.0147059 19.9007353 12.1654412 23.0882353 13.9411765 22.4227941 12.4669118 27.9963235 28.3566176 27.9963235 29.4485294 23.8566176 19.9007353 23.8566176 20.9705882 19.8198529 22.7279412 19.1727941 23.5772059 15.9816176 21.8198529 16.6470588 23.6985294 9.45955882"></polygon>
                                </g>
                            </g>
                        </g>
                    </g>
                </g>
            </g>
        </g>
    </g>
</svg>