<?xml version="1.0" encoding="UTF-8"?>
<svg width="60px" height="28px" viewBox="0 0 60 28" version="1.1" xmlns="http://www.w3.org/2000/svg" xmlns:xlink="http://www.w3.org/1999/xlink">
    <g id="Page-1" stroke="none" stroke-width="1" fill="none" fill-rule="evenodd">
        <g id="style-3" transform="translate(-1230.000000, -747.000000)">
            <g id="Group-12-Copy-5" transform="translate(926.000000, 379.000000)">
                <g id="Group-Copy">
                    <g id="Group-42" transform="translate(16.000000, 110.000000)">
                        <g id="Group-38" transform="translate(0.000000, 218.000000)">
                            <g id="Group-11-Copy-15" transform="translate(276.000000, 23.000000)">
                                <g id="Group-27" transform="translate(12.000000, 17.000000)">
                                    <path d="M30.6904406,23.4620514 C36.6738958,23.498789 42.2437297,23.1818528 47.8101749,22.8017677 C50.2671848,22.6341649 52.7008725,22.3053138 54.9852579,21.3076401 C57.6244606,20.1556684 59.1986134,18.1676684 59.6279822,15.3152429 C59.9501084,13.175328 59.9128327,11.0163493 59.7390121,8.87683156 C59.43662,5.1556117 56.9810054,2.40605142 53.3929656,1.65164007 C50.4007396,1.02273227 47.3676499,0.62437766 44.3174174,0.465115249 C38.016022,0.136264185 31.708846,-0.0841613466 25.3966865,0.0308173768 C19.351836,0.141030143 13.321537,0.451413121 7.3428659,1.43200887 C3.23396224,2.10599468 0.850507092,4.44449114 0.195291145,8.56366844 C-0.118463008,10.5349876 0.00153699185,12.5128599 0.168779517,14.4976826 C0.552699783,19.0573138 3.25489247,21.2887748 7.35761673,22.1855691 C8.52014164,22.4399521 9.72313168,22.5872996 10.9121682,22.6194699 C11.8661882,22.6450869 12.0758892,23.0277535 12.0250586,23.8806613 C11.9602745,24.9692855 12.0013377,26.0642642 12.0136965,27.1564628 C12.0168858,27.4380514 11.8719689,27.8252855 12.2078493,27.964094 C12.5465204,28.104094 12.7207396,27.7285762 12.9085137,27.5238387 C14.0965536,26.2298812 15.2726333,24.9252004 16.4443277,23.6165479 C16.7186134,23.3101365 16.9757563,23.0990443 17.4521682,23.1278387 C21.99363,23.403867 26.5402745,23.5176543 30.6904406,23.4620514" id="Fill-1" fill="#FEFEFE"></path>
                                    <path d="M14.7350254,10.6319351 C14.7469855,9.87196348 13.8850586,8.99383582 13.1493111,9.01210532 C12.9768858,9.01647411 12.8078493,9.0349422 12.7442612,9.21863014 C12.6491782,9.49326844 12.8493111,9.55860177 13.0532313,9.59116915 C13.7341616,9.70019043 14.0921682,10.0999351 14.1601416,10.7763039 C14.1784805,10.9597933 14.2954905,11.1085309 14.4734971,11.0874812 C14.7202745,11.0582897 14.7426001,10.8394528 14.7350254,10.6319351 M15.996022,10.9304032 C16.0093775,9.35604858 14.6550918,7.92308404 12.9970187,7.72470106 C12.7386798,7.69372234 12.3974174,7.57238901 12.3372181,7.92963723 C12.2740287,8.30455922 12.6543609,8.26643156 12.8987463,8.32104149 C14.5580154,8.69040319 15.1358892,9.2923039 15.4091782,10.9321904 C15.4490453,11.1712826 15.3697097,11.5432259 15.7775503,11.481467 C16.079743,11.4357933 15.9707064,11.1166727 15.996022,10.9304032 M31.1393443,7.74078617 C31.0759556,7.00226135 30.6589456,6.57809114 29.9491117,6.49985 C29.2813377,6.42657341 28.6801416,7.05409114 28.6843277,7.74058759 C28.6887131,8.44813369 29.2558227,9.00992092 29.9578825,8.96663014 C30.7161549,8.91976489 31.0552247,8.44833227 31.1393443,7.74078617 M12.5493111,6.40532518 C12.3545602,6.43332518 11.9517031,6.27148121 11.9265868,6.70637482 C11.9096433,6.99948121 12.2489124,6.95142447 12.4715702,6.9855805 C15.1584141,7.39704149 16.3974838,8.66994929 16.739743,11.3658926 C16.7714373,11.6149138 16.6783476,11.9896372 17.0349589,11.9965876 C17.4077164,12.0037365 17.3178161,11.6343748 17.3210054,11.385155 C17.3523011,8.84589255 15.1301084,6.49210532 12.5493111,6.40532518 M28.7473177,13.594772 C28.7473177,14.4530415 28.7608725,15.3111124 28.743331,16.1687862 C28.7279822,16.9194245 29.0660553,17.4190557 29.8133642,17.4448713 C30.5642612,17.4706869 30.9485802,16.9901195 30.9501749,16.2404741 C30.9539622,14.4584032 30.9593443,12.6763323 30.9465868,10.8946585 C30.9416034,10.2127294 30.6414041,9.74070106 29.8873177,9.73355213 C29.0999423,9.72580745 28.7548925,10.1757933 28.7503078,10.9220628 C28.7443277,11.8128996 28.7489124,12.7039351 28.7473177,13.594772 M48.6974174,13.187084 C48.6974174,14.2119635 48.6810719,15.2370415 48.7033975,16.2613252 C48.7173509,16.9017507 49.0552247,17.3630557 49.71064,17.4119067 C50.4126998,17.4641337 50.8412712,17.0429422 50.9134307,16.3594245 C50.9758227,15.770233 51.0093111,15.1641621 50.9411383,14.5787436 C50.7461882,12.9017223 51.0431981,11.5706301 52.9677828,11.1192543 C53.4338294,11.0098358 53.6090453,10.5942046 53.5041948,10.0904032 C53.3955569,9.56813369 53.0768194,9.27899894 52.5697097,9.19877199 C52.1188127,9.12748121 51.7113709,9.26688546 51.3738958,9.56813369 C51.1356898,9.78041738 51.0011383,9.94782163 50.7164872,9.54509823 C50.4001416,9.09749539 49.8709058,9.08796348 49.3620021,9.30342447 C48.8680486,9.51272943 48.689444,9.89738192 48.694228,10.4101195 C48.7033975,11.3357082 48.6968194,12.2614954 48.6974174,13.187084 M15.2513044,17.3563039 C16.0883144,17.3646443 17.0684473,16.5615805 17.3515038,15.7644741 C17.6241948,14.9977507 17.0481151,14.6933252 16.592434,14.3279351 C16.2569523,14.0588571 15.898547,13.8175805 15.545723,13.5707436 C14.8418692,13.0784599 14.1982147,13.0401337 13.6731649,13.8322755 C13.3783476,14.2770982 12.965723,14.2965592 12.5339622,14.1013535 C11.3441284,13.5637933 10.4251915,12.7357082 9.88718483,11.5309138 C9.64897885,10.9979209 9.65196889,10.5199351 10.2093111,10.1428287 C10.5041284,9.94345284 10.8013377,9.70753794 10.7774174,9.27185 C10.7465204,8.70390674 9.36193566,6.80526844 8.81535759,6.60509823 C8.58891241,6.52228972 8.36366324,6.52765142 8.13343068,6.60470106 C6.85150377,7.0340344 6.32047387,8.08453085 6.82897885,9.32824716 C8.34612171,13.0387436 11.016022,15.621694 14.6911715,17.1984316 C14.9006732,17.2881904 15.1336965,17.3241337 15.2513044,17.3563039 M44.9588792,14.0544883 C45.5224008,14.0544883 46.086321,14.0602472 46.6498426,14.0530982 C47.8508393,14.0374103 48.179743,13.6269422 47.9493111,12.4437933 C47.5370852,10.3287011 45.722733,8.92115497 43.6709722,9.12470106 C41.6353576,9.32645993 40.1241948,11.1184599 40.1495104,13.3477365 C40.1692446,15.0749989 40.865125,16.4626869 42.5022679,17.1597082 C44.1860553,17.8759918 45.8190121,17.5711691 47.3004739,16.5302046 C47.7725004,16.1981762 48.0252579,15.7327011 47.642733,15.1647578 C47.3080486,14.6681053 46.8637297,14.6071408 46.3452579,14.8869422 C45.9958227,15.0755947 45.6461882,15.2727862 45.2770187,15.4143748 C44.2588127,15.8039918 43.0348925,15.4405876 42.631836,14.664928 C42.4305071,14.2774954 42.4426666,14.042772 42.9693111,14.0525025 C43.6323011,14.064616 44.2956898,14.0554812 44.9588792,14.0544883 M23.5492446,13.4003606 C22.7357563,11.2213252 22.0426666,9.33579326 21.3254573,7.45959468 C21.0709058,6.79375071 20.6600752,6.25460177 19.831836,6.54770816 C19.0119689,6.83783582 18.8497097,7.46297057 19.1501084,8.2304883 C20.2328991,10.9975238 21.3164872,13.7639635 22.410042,16.5266301 C22.6153576,17.0451266 22.9484473,17.4486443 23.5799423,17.4353394 C24.1592114,17.4234245 24.4783476,17.05585 24.6778825,16.5705167 C25.0169523,15.7462046 25.3374838,14.9143465 25.6639955,14.0846727 C26.4376167,12.1185167 27.2180154,10.1549422 27.9790785,8.18382163 C28.2537629,7.47210532 28.1287795,6.86245993 27.3427995,6.56637482 C26.5944938,6.28438901 26.1435968,6.68055922 25.8471848,7.31999184 C25.7226001,7.58887128 25.6275171,7.87165142 25.5228659,8.14946702 C24.899145,9.80702731 24.27662,11.4647862 23.5492446,13.4003606 M31.9388792,11.8881621 C31.9388792,13.2780344 31.9432646,14.6677082 31.9364872,16.0573819 C31.9338958,16.5891833 32.0620686,17.0526727 32.5789456,17.2979209 C33.0868526,17.5389989 33.5726333,17.4534103 33.9140951,17.006006 C34.1443277,16.7047578 34.2625337,16.7980911 34.5320353,16.9625167 C36.2134307,17.9871975 38.0519024,17.5104032 39.0487795,15.812928 C40.0275171,14.1460344 39.9292446,12.4559067 39.0553576,10.7973535 C38.2978825,9.36002021 36.8068526,8.7807578 35.2466533,9.2416656 C34.1431317,9.56773653 34.1431317,9.56773653 34.1417363,8.37028972 C34.141537,8.2046727 34.1353576,8.03905567 34.142733,7.87383582 C34.1776167,7.11346702 33.9164872,6.50243156 33.0810719,6.49548121 C32.1988127,6.48813369 31.9291117,7.12061596 31.9350918,7.91752376 C31.9446599,9.24106986 31.9376832,10.564616 31.9388792,11.8881621 M30.6904406,23.4620911 C26.5402745,23.517694 21.99363,23.4039067 17.4521682,23.1278784 C16.9757563,23.099084 16.7186134,23.3101762 16.4443277,23.6165876 C15.2726333,24.9252401 14.0965536,26.2299209 12.9085137,27.5238784 C12.7207396,27.728616 12.5465204,28.1041337 12.2078493,27.9641337 C11.8719689,27.8253252 12.0168858,27.4380911 12.0136965,27.1563039 C12.0013377,26.0643039 11.9602745,24.9693252 12.0250586,23.8807011 C12.0758892,23.0277933 11.8661882,22.6451266 10.9121682,22.6195096 C9.72313168,22.5873394 8.52014164,22.4397933 7.35761673,22.1856089 C3.25489247,21.2888145 0.552699783,19.0573535 0.168779517,14.4977223 C0.00153699185,12.5128996 -0.118463008,10.5350273 0.195291145,8.56350958 C0.850507092,4.44453085 3.23396224,2.1060344 7.3428659,1.43204858 C13.321537,0.451452838 19.351836,0.140871278 25.3966865,0.0308570931 C31.708846,-0.0841216303 38.016022,0.13610532 44.3174174,0.465154965 C47.3676499,0.624417377 50.4007396,1.02277199 53.3929656,1.65167979 C56.9810054,2.40609114 59.43662,5.15565142 59.7390121,8.87687128 C59.9128327,11.016389 59.9501084,13.1753677 59.6279822,15.315084 C59.1986134,18.1677082 57.6244606,20.1555096 54.9852579,21.3076798 C52.7008725,22.3053535 50.2671848,22.6342046 47.8101749,22.8018074 C42.2437297,23.1818926 36.6738958,23.4986301 30.6904406,23.4620911" id="Fill-4" fill="#7C529D"></path>
                                    <path d="M37.5075569,13.3601876 C37.5229058,12.1188543 36.82264,11.1690387 35.8738028,11.1440174 C34.8845004,11.1178046 34.1593177,12.0040741 34.1403808,13.2618897 C34.12264,14.4722443 34.8520088,15.462372 35.7821084,15.4899748 C36.7560619,15.5189677 37.4922081,14.6102585 37.5075569,13.3601876 M31.938321,11.8881025 C31.937723,10.5645564 31.9446998,9.24101028 31.9351317,7.91746419 C31.9291516,7.12055638 32.1988526,6.4882727 33.0811117,6.49542163 C33.9163277,6.50237199 34.1776566,7.11340745 34.1427729,7.87397482 C34.1353975,8.0389961 34.1415769,8.2048117 34.1417762,8.37023014 C34.1431715,9.56767695 34.1431715,9.56767695 35.2466931,9.24160603 C36.8066931,8.78069823 38.2979224,9.35996064 39.0553975,10.7974926 C39.9290852,12.4558472 40.0275569,14.1459748 39.04862,15.813067 C38.051743,17.5103436 36.2134705,17.9871379 34.5320752,16.9626557 C34.2625735,16.7980316 34.1443676,16.7046982 33.914135,17.0059465 C33.5726732,17.4533507 33.0868925,17.5389394 32.5787862,17.2978613 C32.0621084,17.0526131 31.9339357,16.5891238 31.936527,16.0573223 C31.9433044,14.6676486 31.9387197,13.2779748 31.938321,11.8881025" id="Fill-7" fill="#FAF9FB"></path>
                                    <path d="M23.5492048,13.4003408 C24.2765802,11.4647663 24.8991051,9.80700745 25.522826,8.14944716 C25.6274772,7.87163156 25.7225602,7.58885142 25.847145,7.31997199 C26.1437563,6.68053936 26.5944539,6.28436915 27.3427596,6.56635497 C28.128939,6.86244007 28.2539224,7.47208546 27.9790387,8.18380177 C27.2179755,10.1549223 26.4375769,12.1184968 25.6639556,14.0846528 C25.337444,14.9143266 25.0169124,15.7461848 24.6778426,16.5704968 C24.4783078,17.0558301 24.1591715,17.4234046 23.5799024,17.4353195 C22.9484074,17.4486245 22.6153177,17.0451067 22.4102014,16.5266103 C21.3164473,13.7639436 20.2328593,10.9975039 19.1502679,8.23046844 C18.8496699,7.46295071 19.011929,6.83781596 19.8319955,6.5476883 C20.6600353,6.25458192 21.0708659,6.79373085 21.3254174,7.45957482 C22.0426267,9.33577341 22.7357164,11.2213053 23.5492048,13.4003408" id="Fill-9" fill="#FAF9FB"></path>
                                    <path d="M43.9842081,12.5502528 C44.181949,12.5502528 44.3836765,12.574877 44.5768327,12.5450897 C44.9418161,12.4886926 45.5244739,12.7653167 45.6287264,12.3552457 C45.7658692,11.8162954 45.3193576,11.3796145 44.8214174,11.1353592 C44.1717828,10.8168344 43.5388925,10.8736287 42.9871317,11.372267 C42.6905204,11.6403521 42.3604207,11.9787351 42.5071317,12.3768911 C42.6428792,12.744267 43.0879955,12.4982245 43.3915835,12.5460826 C43.5847396,12.576267 43.7864672,12.5516429 43.9842081,12.5502528 M44.9589589,14.0549053 C44.2955702,14.0555011 43.6321815,14.0644372 42.9691915,14.0525223 C42.4427463,14.0427918 42.4305868,14.2775152 42.6319157,14.6649479 C43.0347729,15.4406074 44.2588925,15.8040117 45.2768991,15.4141961 C45.6462679,15.2726074 45.9959024,15.0756145 46.3453377,14.8869621 C46.8636101,14.6071606 47.3081284,14.6681252 47.6428127,15.1647777 C48.0251383,15.7327209 47.7725802,16.1981961 47.3005536,16.5302245 C45.8190918,17.571189 44.186135,17.8760117 42.5021483,17.1595294 C40.8652048,16.4627067 40.169125,15.0748202 40.1495901,13.3477564 C40.1242745,11.1184798 41.6354373,9.32647979 43.6710519,9.12472092 C45.7228127,8.92117482 47.5369656,10.3285223 47.9493908,12.4436145 C48.1798227,13.6267635 47.8507197,14.0374301 46.6499224,14.0531181 C46.0864008,14.060267 45.5224805,14.0545082 44.9589589,14.0549053" id="Fill-11" fill="#F9F7F9"></path>
                                    <path d="M15.2513842,17.3562642 C15.1335769,17.324094 14.9007529,17.2881507 14.6912513,17.1983918 C11.0161018,15.6218528 8.34600211,13.0387039 6.82905859,9.32820745 C6.32035427,8.08449114 6.8515835,7.03419326 8.13351041,6.60466135 C8.36354364,6.5276117 8.58899214,6.52225 8.81523799,6.60505851 C9.3620154,6.80542731 10.7464008,8.70386702 10.7774971,9.27200887 C10.8012181,9.70749823 10.5042081,9.94341312 10.2093908,10.142789 C9.65204862,10.5198954 9.64905859,10.9978812 9.88706523,11.5308741 C10.4252712,12.7356684 11.3440088,13.5637535 12.534042,14.1013138 C12.9658028,14.2965195 13.3784274,14.2770585 13.6732446,13.8322358 C14.1982945,13.0402926 14.841949,13.0784202 15.5458028,13.5709025 C15.8986267,13.8175408 16.2568327,14.059016 16.5925137,14.3278954 C17.0479955,14.6932855 17.6240752,14.997711 17.3515835,15.7644344 C17.0683277,16.5615408 16.0881948,17.3646046 15.2513842,17.3562642" id="Fill-13" fill="#FAF9FB"></path>
                                    <path d="M48.6972181,13.1870245 C48.6968194,12.2614358 48.7033975,11.3356486 48.694228,10.4100599 C48.689444,9.89752092 48.8680486,9.51266986 49.3620021,9.30336489 C49.8709058,9.0879039 50.4001416,9.09743582 50.7164872,9.54503865 C51.0011383,9.94776206 51.1356898,9.7803578 51.3738958,9.56807411 C51.7113709,9.26702447 52.1188127,9.12742163 52.5697097,9.19871241 C53.0768194,9.27893936 53.3955569,9.56807411 53.5041948,10.0903436 C53.6090453,10.594145 53.4338294,11.0099748 52.9677828,11.1191947 C51.0433975,11.5705706 50.7461882,12.9016628 50.9411383,14.578684 C51.0093111,15.1641025 50.9758227,15.770372 50.9134307,16.3595635 C50.8412712,17.0428826 50.4126998,17.4640741 49.71064,17.4118472 C49.0552247,17.3629961 48.7173509,16.9016911 48.7033975,16.2612656 C48.6810719,15.2369819 48.6974174,14.2119039 48.6972181,13.1870245" id="Fill-15" fill="#F9F7F9"></path>
                                    <path d="M28.7480951,13.5948514 C28.7488925,12.7040145 28.7443078,11.8129791 28.7502878,10.9221422 C28.7550719,10.1758727 29.1001217,9.72588688 29.8872978,9.73343298 C30.6413842,9.74058192 30.9415835,10.2126103 30.9465669,10.8945394 C30.9593244,12.6764117 30.9539423,14.4584826 30.9501549,16.240355 C30.9485602,16.9901989 30.5642413,17.4707663 29.8133443,17.4449507 C29.0660353,17.4191351 28.7279622,16.9193053 28.7433111,16.1688656 C28.7608526,15.3111918 28.7474971,14.4529223 28.7480951,13.5948514" id="Fill-17" fill="#FAF9FB"></path>
                                    <path d="M12.5493509,6.40538475 C15.1301483,6.49216489 17.352341,8.84595213 17.320846,11.3852145 C17.3178559,11.6344344 17.4077563,12.0035975 17.0347995,11.9964486 C16.6781882,11.9896968 16.7714772,11.6147748 16.7397828,11.3657535 C16.3975237,8.66981028 15.1584539,7.39710106 12.4716101,6.98544149 C12.2489523,6.95148404 11.9096832,6.99954078 11.9264274,6.7064344 C11.9515436,6.27154078 12.3544008,6.43338475 12.5493509,6.40538475" id="Fill-19" fill="#EFE9F3"></path>
                                    <path d="M31.1393443,7.7408656 C31.0552247,8.4484117 30.7161549,8.91984433 29.9578825,8.96651099 C29.2558227,9.00980177 28.6889124,8.44821312 28.6843277,7.74066702 C28.6801416,7.05417057 29.2813377,6.42645426 29.9491117,6.49992943 C30.6589456,6.57817057 31.0759556,7.00234078 31.1393443,7.7408656" id="Fill-21" fill="#F9F7F9"></path>
                                    <path d="M15.9959622,10.9304826 C15.970846,11.1167521 16.0796832,11.4356741 15.7776898,11.4815465 C15.3696499,11.5433053 15.4489855,11.1711635 15.4091184,10.9320713 C15.1360287,9.29218475 14.5581549,8.69048263 12.8986865,8.32092234 C12.6543011,8.26651099 12.2739689,8.30463865 12.3371583,7.92971667 C12.3973576,7.57226986 12.7388194,7.69380177 12.9971583,7.72458192 C14.655032,7.92296489 16.0093177,9.35612802 15.9959622,10.9304826" id="Fill-23" fill="#EFE9F3"></path>
                                    <path d="M14.734846,10.6318358 C14.74262,10.8395521 14.7202945,11.0581904 14.4735171,11.0875805 C14.2955104,11.1086301 14.1785004,10.9598926 14.1601616,10.7762046 C14.0921882,10.0998358 13.7339822,9.70009114 13.0532513,9.59126844 C12.849331,9.55850248 12.6491981,9.49316915 12.7442812,9.21872943 C12.8078692,9.03484291 12.9769058,9.01637482 13.149331,9.01220461 C13.8850785,8.99393511 14.7470054,9.87206277 14.734846,10.6318358" id="Fill-25" fill="#EFE9F3"></path>
                                    <path d="M37.5075569,13.3601876 C37.4922081,14.6102585 36.7560619,15.5189677 35.7821084,15.4899748 C34.8520088,15.462372 34.12264,14.4722443 34.1403808,13.2618897 C34.1593177,12.0040741 34.8845004,11.1178046 35.8738028,11.1440174 C36.82264,11.1690387 37.5229058,12.1188543 37.5075569,13.3601876" id="Fill-27" fill="#7C529D"></path>
                                    <path d="M43.9842081,12.550928 C43.7864672,12.5515238 43.5847396,12.5761479 43.3915835,12.5459635 C43.0879955,12.4983039 42.6428792,12.7443465 42.5071317,12.3769706 C42.3604207,11.9788145 42.6905204,11.6404316 42.9871317,11.3723465 C43.5388925,10.8735096 44.1717828,10.8167152 44.8214174,11.1354387 C45.3193576,11.379694 45.7658692,11.8161762 45.6287264,12.3551266 C45.5244739,12.7651975 44.9418161,12.488772 44.5768327,12.5449706 C44.3836765,12.5747578 44.181949,12.5503323 43.9842081,12.550928" id="Fill-29" fill="#7C529D"></path>
                                </g>
                            </g>
                        </g>
                    </g>
                </g>
            </g>
        </g>
    </g>
</svg>