<svg width="16" height="16" viewBox="0 0 16 16" fill="none" xmlns="http://www.w3.org/2000/svg">
    <rect width="16" height="16" fill="black" fill-opacity="0"/>
    <path fill-rule="evenodd" clip-rule="evenodd" d="M7.98113 16C12.389 16 15.9623 12.4183 15.9623 8C15.9623 3.58172 12.389 0 7.98113 0C3.57327 0 0 3.58172 0 8C0 12.4183 3.57327 16 7.98113 16Z" fill="#29B6F6"/>
    <path fill-rule="evenodd" clip-rule="evenodd" d="M8.38672 4.92639L7.86523 2.16943L7.34375 4.92615C7.05273 4.97681 6.77539 5.06897 6.51953 5.19666L7.32422 5.7616C7.49805 5.71802 7.67969 5.69482 7.86719 5.69482C8.99219 5.69482 9.92969 6.53198 10.1035 7.62842V8.37134C9.92969 9.46777 8.99219 10.3051 7.86719 10.3051C6.74023 10.3051 5.80273 9.46777 5.62891 8.37134V7.62842C5.63867 7.56311 5.65234 7.49866 5.66797 7.4353L5.11914 6.61475C4.98828 6.88416 4.89258 7.17566 4.8418 7.4823L2.10352 7.99988L4.8418 8.51758C5.05664 9.82129 6.06445 10.8512 7.34375 11.0739L7.86523 13.8304L8.38672 11.0736C9.66602 10.8503 10.6738 9.82092 10.8887 8.51794L13.6289 7.99988L10.8887 7.48193C10.6738 6.17908 9.66602 5.14966 8.38672 4.92639Z" fill="white"/>
    <path fill-rule="evenodd" clip-rule="evenodd" d="M2.74306 2.82811L8.76905 7.15704L7.07199 8.8541L2.74306 2.82811Z" fill="#E53935"/>
    <path fill-rule="evenodd" clip-rule="evenodd" d="M12.9874 13.1581L6.96142 8.82917L8.65848 7.13211L12.9874 13.1581Z" fill="#F8D8D8"/>
    <path fill-rule="evenodd" clip-rule="evenodd" d="M7.86602 9.22034C8.52876 9.22034 9.06602 8.67398 9.06602 8C9.06602 7.32603 8.52876 6.77966 7.86602 6.77966C7.20327 6.77966 6.66602 7.32603 6.66602 8C6.66602 8.67398 7.20327 9.22034 7.86602 9.22034Z" fill="white"/>
</svg>
