<svg width="32" height="32" viewBox="0 0 32 32" fill="none" xmlns="http://www.w3.org/2000/svg">
<rect opacity="0.2" width="32" height="32" rx="2" fill="#0288D1"/>
<rect x="1" y="1" width="30" height="30" rx="1" stroke="#0288D1" stroke-width="2"/>
<path d="M19.0674 22.5391C19.4827 22.5391 19.8874 22.5068 20.2812 22.4424C20.6751 22.3779 21.0511 22.2884 21.4092 22.1738L21.624 23.8926C21.223 23.9928 20.804 24.0716 20.3672 24.1289C19.9303 24.1862 19.4899 24.2148 19.0459 24.2148C18.1937 24.2148 17.4131 24.0859 16.7041 23.8281C15.9951 23.5632 15.3828 23.1729 14.8672 22.6572C14.3516 22.1344 13.9505 21.4863 13.6641 20.7129C13.3848 19.9323 13.2451 19.0228 13.2451 17.9844V14.4072C13.2451 13.3617 13.3848 12.4486 13.6641 11.668C13.9434 10.8874 14.3408 10.2357 14.8564 9.71289C15.3721 9.1901 15.9808 8.7998 16.6826 8.54199C17.3916 8.27702 18.1758 8.14453 19.0352 8.14453C19.4863 8.14453 19.9196 8.17676 20.335 8.24121C20.7575 8.2985 21.1872 8.37728 21.624 8.47754L21.4092 10.207C21.0583 10.0924 20.6823 10.0029 20.2812 9.93848C19.8802 9.86686 19.472 9.83105 19.0566 9.83105C18.4837 9.83105 17.9645 9.92415 17.499 10.1104C17.0407 10.2965 16.6468 10.5758 16.3174 10.9482C15.9951 11.3206 15.748 11.7933 15.5762 12.3662C15.4043 12.9391 15.3184 13.6123 15.3184 14.3857V17.9844C15.3184 18.7578 15.4043 19.431 15.5762 20.0039C15.7552 20.5768 16.0094 21.0495 16.3389 21.4219C16.6683 21.7943 17.0622 22.0736 17.5205 22.2598C17.986 22.446 18.5016 22.5391 19.0674 22.5391ZM19.4434 14.042V15.3848H11.333V14.042H19.4434ZM19.4434 16.8457V18.1777H11.333V16.8457H19.4434Z" fill="#0288D1"/>
</svg>
