<svg width="32" height="32" viewBox="0 0 32 32" fill="none" xmlns="http://www.w3.org/2000/svg">
<rect opacity="0.2" width="32" height="32" rx="2" fill="#0288D1"/>
<rect x="1" y="1" width="30" height="30" rx="1" stroke="#0288D1" stroke-width="2"/>
<path d="M21.2314 12.1836L20.7373 13.8809H10.7686L11.2627 12.1836H21.2314ZM16.7627 24L11.0801 17.3613L11.0693 16.0293H13.6904C14.4495 16.0293 15.0762 15.904 15.5703 15.6533C16.0716 15.3955 16.4476 15.0482 16.6982 14.6113C16.9489 14.1745 17.0742 13.6839 17.0742 13.1396C17.0742 12.5309 16.9561 11.9974 16.7197 11.5391C16.4834 11.0736 16.111 10.7119 15.6025 10.4541C15.1012 10.1891 14.4424 10.0566 13.626 10.0566H10.79L11.2949 8.35938H13.626C14.8721 8.35938 15.8997 8.54915 16.709 8.92871C17.5254 9.30111 18.1341 9.84538 18.5352 10.5615C18.9362 11.2777 19.1367 12.1442 19.1367 13.1611C19.1367 14.0348 18.9684 14.819 18.6318 15.5137C18.3024 16.2012 17.7546 16.7419 16.9883 17.1357C16.2292 17.5296 15.2051 17.7266 13.916 17.7266L19.2012 23.8711V24H16.7627ZM21.2314 8.35938L20.7373 10.0566H12.7021L13.1963 8.35938H21.2314Z" fill="#0288D1"/>
</svg>
