<?xml version="1.0" encoding="UTF-8"?>
<svg width="16px" height="16px" viewBox="0 0 16 16" version="1.1" xmlns="http://www.w3.org/2000/svg" xmlns:xlink="http://www.w3.org/1999/xlink">
    <g id="Page-1" stroke="none" stroke-width="1" fill="none" fill-rule="evenodd">
        <g id="style-3" transform="translate(-3618.000000, -565.000000)">
            <g id="Group-59" transform="translate(3602.000000, 379.000000)">
                <g id="Group-12-Copy-15">
                    <g id="Group-Copy">
                        <g id="Group-12-Copy">
                            <g id="comission" transform="translate(16.000000, 186.000000)">
                                <g id="Group-8" stroke-width="1">
                                    <rect id="Rectangle-4" fill="#FFFFFF" x="0" y="0" width="16" height="16"></rect>
                                    <g id="Group-53" transform="translate(5.000000, 3.000000)"></g>
                                </g>
                                <polygon id="Rectangle-6" fill="#272424" points="8.08035714 0 16 15 0 15"></polygon>
                                <path d="M8.20995576,10 L7.79004424,10 C7.2655732,10 6.83021149,9.5948033 6.79261666,9.07168142 L6.57701777,6.07168142 C6.53742922,5.52081738 6.95189989,5.04216098 7.50276393,5.00257242 C7.52661928,5.00085803 7.55052847,5 7.57444535,5 L8.42555465,5 C8.9778394,5 9.42555465,5.44771525 9.42555465,6 C9.42555465,6.02391688 9.42469662,6.04782607 9.42298223,6.07168142 L9.20738334,9.07168142 C9.16978851,9.5948033 8.7344268,10 8.20995576,10 Z M6.5,12.5 C6.5,12.062128 6.6430467,11.7026641 6.92914439,11.4215976 C7.21524207,11.1405311 7.57219037,11 8,11 C8.42780963,11 8.78475793,11.1405311 9.07085561,11.4215976 C9.3569533,11.7026641 9.5,12.062128 9.5,12.5 C9.5,12.937872 9.3569533,13.2973359 9.07085561,13.5784024 C8.78475793,13.8594689 8.42780963,14 8,14 C7.57219037,14 7.21524207,13.8594689 6.92914439,13.5784024 C6.6430467,13.2973359 6.5,12.937872 6.5,12.5 Z"  fill="#FFFFFF"></path>
                            </g>
                        </g>
                    </g>
                </g>
            </g>
        </g>
    </g>
</svg>