<svg width="16" height="16" viewBox="0 0 16 16" fill="none" xmlns="http://www.w3.org/2000/svg">
    <rect width="16" height="16" fill="black" fill-opacity="0"/>
    <rect width="16" height="12" fill="black" fill-opacity="0" transform="translate(0 2)"/>
    <path fill-rule="evenodd" clip-rule="evenodd" d="M16 8C16 8 12.418 14 8 14C3.58203 14 0 8 0 8C0 8 3.58203 2 8 2C12.418 2 16 8 16 8ZM12 8C12 10.2091 10.209 12 8 12C5.79102 12 4 10.2091 4 8C4 5.79089 5.79102 4 8 4C10.209 4 12 5.79089 12 8Z" fill="#272424"/>
    <mask id="mask0" mask-type="alpha" maskUnits="userSpaceOnUse" x="0" y="2" width="16" height="12">
        <path fill-rule="evenodd" clip-rule="evenodd" d="M16 8C16 8 12.418 14 8 14C3.58203 14 0 8 0 8C0 8 3.58203 2 8 2C12.418 2 16 8 16 8ZM12 8C12 10.2091 10.209 12 8 12C5.79102 12 4 10.2091 4 8C4 5.79089 5.79102 4 8 4C10.209 4 12 5.79089 12 8Z" fill="white"/>
    </mask>
    <path d="M15 1L1 15" stroke="#272424" stroke-width="2" stroke-linecap="round"/>
</svg>
