<?xml version="1.0" encoding="UTF-8"?>
<svg width="12px" height="12px" viewBox="0 0 12 12" version="1.1" xmlns="http://www.w3.org/2000/svg" xmlns:xlink="http://www.w3.org/1999/xlink">
    <g  stroke="none" stroke-width="1" fill="none" fill-rule="evenodd">
        <g  transform="translate(-1296.000000, -331.000000)" fill="#272424">
            <g id="edit" transform="translate(1293.000000, 329.000000)">
                <g id="Group" transform="translate(8.000000, 8.500000) rotate(45.000000) translate(-8.000000, -8.500000) translate(6.000000, 1.000000)">
                    <path d="M1,0 L3,0 C3.55228475,-1.01453063e-16 4,0.44771525 4,1 L4,2 L0,2 L0,1 C-6.76353751e-17,0.44771525 0.44771525,1.01453063e-16 1,0 Z" id="Rectangle-17"></path>
                    <path d="M2.83205029,13.2480754 L4,15 L0,15 L1.16794971,13.2480754 C1.47430216,12.7885468 2.09517151,12.6643729 2.5547002,12.9707253 C2.66455248,13.0439602 2.75881544,13.1382232 2.83205029,13.2480754 Z" id="Triangle" transform="translate(2.000000, 13.500000) scale(1, -1) translate(-2.000000, -13.500000) "></path>
                    <rect id="Rectangle" x="0" y="3" width="4" height="8"></rect>
                </g>
            </g>
        </g>
    </g>
</svg>