<?xml version="1.0" encoding="UTF-8"?>
<svg width="16px" height="16px" viewBox="0 0 16 16" version="1.1" xmlns="http://www.w3.org/2000/svg" xmlns:xlink="http://www.w3.org/1999/xlink">
    <defs>
        <path d="M7.57084188,3.27828867 L6.59439502,5.34678287 L4.409726,5.67955421 C4.01795099,5.73892187 3.86094193,6.24354696 4.14505357,6.53257372 L5.72561151,8.14174972 L5.3517804,10.4149061 C5.2844908,10.8257928 5.69869567,11.1335672 6.04561095,10.9414035 L8,9.86809872 L9.95438905,10.9414035 C10.3013043,11.1320049 10.7155092,10.8257928 10.6482196,10.4149061 L10.2743885,8.14174972 L11.8549464,6.53257372 C12.1390581,6.24354696 11.982049,5.73892187 11.590274,5.67955421 L9.40560498,5.34678287 L8.42915812,3.27828867 C8.25420516,2.90958427 7.74729017,2.90489735 7.57084188,3.27828867 Z" id="path-1"></path>
    </defs>
    <g id="Page-1" stroke="none" stroke-width="1" fill="none" fill-rule="evenodd">
        <g id="style-3" transform="translate(-2298.000000, -717.000000)">
            <g id="Group-12-Copy-11" transform="translate(2282.000000, 379.000000)">
                <g id="Group-Copy">
                    <g id="Group-12-Copy">
                        <g id="Group-10" transform="translate(16.000000, 338.000000)">
                            <g id="protected">
                                <g id="Group-8" stroke-width="1" fill-rule="evenodd" fill="#FFFFFF">
                                    <rect id="Rectangle-4" x="0" y="0" width="16" height="16"></rect>
                                </g>
                                <path d="M8,0 C10.2950649,1.30270148 12.9617316,1.87956663 16,1.73059546 C15.3339138,9.84815924 12.6672471,14.6046274 8,16 C3.33275286,14.6046274 0.666086195,9.84815924 0,1.73059546 C3.03826844,1.87956663 5.7049351,1.30270148 8,0 Z" id="Combined-Shape" fill="#272424" fill-rule="evenodd"></path>
                                <mask id="mask-2" fill="white">
                                    <use xlink:href="#path-1"></use>
                                </mask>
                                <use id="star" fill="#FFFFFF" fill-rule="nonzero" xlink:href="#path-1"></use>
                            </g>
                        </g>
                    </g>
                </g>
            </g>
        </g>
    </g>
</svg>