<?xml version="1.0" encoding="UTF-8"?>
<svg width="16px" height="16px" viewBox="0 0 16 16" version="1.1" xmlns="http://www.w3.org/2000/svg" xmlns:xlink="http://www.w3.org/1999/xlink">
    <defs>
        <rect id="path-1" x="0" y="0" width="14" height="12" rx="2"></rect>
    </defs>
    <g id="Page-1" stroke="none" stroke-width="1" fill="none" fill-rule="evenodd">
        <g id="style-3" transform="translate(-66.000000, -680.000000)">
            <g id="Group-12-Copy-3" transform="translate(50.000000, 379.000000)">
                <g id="Group-Copy">
                    <g id="Group-12-Copy">
                        <g id="Group-10" transform="translate(16.000000, 273.000000)">
                            <g id="wallet" transform="translate(0.000000, 28.000000)">
                                <g id="Group-7" stroke-width="1" fill="#FFFFFF">
                                    <rect id="Rectangle-4-Copy" x="0" y="0" width="16" height="16"></rect>
                                </g>
                                <g id="Group-6" stroke-width="1" transform="translate(0.000000, 4.000000)">
                                    <g id="Rectangle-3-Copy">
                                        <mask id="mask-2" fill="white">
                                            <use xlink:href="#path-1"></use>
                                        </mask>
                                        <use id="Mask" fill="#272424" xlink:href="#path-1"></use>
                                        <path d="M10,3 L16,3 L16,9 L10,9 C8.8954305,9 8,8.1045695 8,7 L8,5 C8,3.8954305 8.8954305,3 10,3 Z" fill="#FFFFFF" mask="url(#mask-2)"></path>
                                    </g>
                                    <path d="M10,4 L15,4 L15,8 L10,8 C9.44771525,8 9,7.55228475 9,7 L9,5 C9,4.44771525 9.44771525,4 10,4 Z" id="Rectangle-3" fill="#272424"></path>
                                </g>
                                <polygon id="Rectangle" fill="#3B3636" points="0 4 11 0 11 4 0.916666667 4"></polygon>
                            </g>
                        </g>
                    </g>
                </g>
            </g>
        </g>
    </g>
</svg>