<svg width="10" height="16" viewBox="0 0 10 16" fill="none" xmlns="http://www.w3.org/2000/svg">
    <path fill-rule="evenodd" clip-rule="evenodd" d="M5 0C6.06055 0 6.39355 0.780151 6.67188 1.56091C6.79102 1.8916 9.5459 9.64014 9.62891 9.87256C9.65137 9.93713 9.63672 10.0444 9.53906 10.0822L7.93066 10.7228C7.85156 10.7529 7.76172 10.7078 7.7334 10.6274L7.28223 9.34802L7.04297 8.66821H2.96094L2.2666 10.6274C2.23828 10.7047 2.15234 10.7566 2.06934 10.7228L0.459961 10.0822C0.378906 10.0502 0.342773 9.9541 0.371094 9.87256C0.420898 9.72729 1.125 7.74841 1.83301 5.75635L2.31641 4.39758L3.32422 1.56091C3.59277 0.792114 3.93848 0 5 0ZM0.15332 13.8644C0.0683594 13.8644 0 13.9371 0 14.0271V15.8373C0 15.9276 0.0683594 16 0.15332 16H9.84668C9.88867 16 9.92578 15.9825 9.95312 15.9541C9.98242 15.9247 10 15.8833 10 15.8373V14.0271C10 13.9371 9.93164 13.8644 9.84668 13.8644H0.15332ZM3.61035 6.78687L4.99121 2.5304H5.00879L6.39355 6.78687H3.61035Z" fill="#F15241"/>
</svg>
