<svg width="13" height="16" viewBox="0 0 13 16" fill="none" xmlns="http://www.w3.org/2000/svg">
    <path fill-rule="evenodd" clip-rule="evenodd" d="M9.43262 0.175842L9.42188 0C7.41406 0.422485 6.37402 1.78162 6.3252 3.88263C6.33105 3.88574 6.33691 3.89185 6.3418 3.89154C6.69629 3.86517 7.05078 3.836 7.38477 3.70148C7.77734 3.54333 8.09375 3.27313 8.38086 2.96539C9.01758 2.28381 9.37988 1.47467 9.44434 0.533447C9.45215 0.416321 9.44238 0.297974 9.43262 0.175842ZM12.0586 5.6601C12.2168 5.50781 12.3779 5.35968 12.5381 5.20996L12.5312 5.19299L12.5225 5.17963C12.4551 5.09875 12.3877 5.0177 12.3184 4.93799C11.7705 4.30225 11.1152 3.84674 10.2871 3.68292C9.94629 3.61548 9.60742 3.59924 9.27148 3.62726C8.97754 3.65186 8.68555 3.71045 8.39551 3.7984C7.97754 3.92493 7.56445 4.06696 7.14648 4.19214C6.85059 4.28088 6.54785 4.31689 6.24121 4.23755L6.02344 4.18317C5.88086 4.14825 5.73828 4.1134 5.59766 4.07172C5.08789 3.92053 4.58105 3.76343 4.0498 3.70966C2.98242 3.60168 2.07324 3.93011 1.33398 4.72937C0.620117 5.50085 0.242188 6.43439 0.0888672 7.46912C-0.0859375 8.64209 0.000976562 9.80054 0.311523 10.9426C0.660156 12.2264 1.22949 13.404 1.97656 14.4926C2.27441 14.9269 2.61816 15.3213 3.05371 15.6217C3.27246 15.7726 3.50098 15.8889 3.74023 15.9507C3.97363 16.011 4.21777 16.0193 4.47461 15.9572C4.78027 15.8828 5.0791 15.7705 5.37598 15.6588L5.44629 15.6321C5.86621 15.474 6.28809 15.3346 6.74414 15.3457C7.11133 15.3546 7.46484 15.443 7.81348 15.5531L8.1709 15.668C8.38965 15.7388 8.6084 15.8094 8.8291 15.8749C9.50977 16.0778 10.1152 15.906 10.6543 15.4602C10.8135 15.3289 10.9688 15.1893 11.1064 15.0355C11.8447 14.2087 12.3867 13.2561 12.8027 12.2261C12.875 12.0495 12.9336 11.8676 13 11.6828C12.9268 11.6542 12.8662 11.6322 12.8066 11.6074C12.2949 11.3947 11.9111 11.0247 11.5889 10.579C10.9453 9.68768 10.7266 8.69373 10.9316 7.60999C11.0801 6.82758 11.5 6.1994 12.0586 5.6601Z" fill="#000607"/>
</svg>
