<svg width="16" height="16" viewBox="0 0 16 16" fill="none" xmlns="http://www.w3.org/2000/svg">
    <rect width="16" height="16" fill="black" fill-opacity="0"/>
    <path d="M8 16C12.4183 16 16 12.4183 16 8C16 3.58172 12.4183 0 8 0C3.58172 0 0 3.58172 0 8C0 12.4183 3.58172 16 8 16Z" fill="#2573C2"/>
    <rect width="10.8" height="6.4" fill="black" fill-opacity="0" transform="translate(2.75977 4.91199)"/>
    <path d="M13.2204 5.8944C13.2097 5.71512 13.1571 5.54086 13.0668 5.3856C12.9868 5.2256 12.8444 5.1008 12.678 5.0368C12.5084 4.95223 12.3204 4.911 12.1308 4.9168H5.03005L4.52125 6.4416H10.9548L9.93885 9.5584H3.50685L2.99805 11.0832H10.1324C10.345 11.077 10.5552 11.0365 10.7548 10.9632C10.9548 10.8496 11.1836 10.7344 11.3772 10.5744C11.5663 10.4254 11.737 10.2546 11.886 10.0656C12.0092 9.88041 12.1142 9.68376 12.1996 9.4784L13.142 6.5152C13.2278 6.32023 13.255 6.10456 13.2204 5.8944Z" fill="white"/>
    <path d="M7.0571 7.29285H3.2715L2.7627 8.70245H6.5867L7.0571 7.29285Z" fill="white"/>
</svg>
