<?xml version="1.0" encoding="utf-8"?>
<svg width="29px" height="22px" viewBox="0 0 29 22" version="1.1" xmlns:xlink="http://www.w3.org/1999/xlink" xmlns="http://www.w3.org/2000/svg">
  <desc>Created with Lunacy</desc>
  <defs>
    <linearGradient x1="-0.5754589" y1="0.5010469" x2="2.32407975" y2="0.5010469" id="gradient_1">
      <stop offset="0" stop-color="#007940" />
      <stop offset="0.2285" stop-color="#00873F" />
      <stop offset="0.7433" stop-color="#40A737" />
      <stop offset="1" stop-color="#5CB531" />
    </linearGradient>
    <linearGradient x1="0.00182544545" y1="0.4995835" x2="1.00273466" y2="0.4995835" id="gradient_2">
      <stop offset="0" stop-color="#007940" />
      <stop offset="0.2285" stop-color="#00873F" />
      <stop offset="0.7433" stop-color="#40A737" />
      <stop offset="1" stop-color="#5CB531" />
    </linearGradient>
    <linearGradient x1="-0.6281496" y1="0.498288363" x2="2.53656244" y2="0.498288363" id="gradient_3">
      <stop offset="0" stop-color="#007940" />
      <stop offset="0.2285" stop-color="#00873F" />
      <stop offset="0.7433" stop-color="#40A737" />
      <stop offset="1" stop-color="#5CB531" />
    </linearGradient>
    <linearGradient x1="0.0017207684" y1="0.500041842" x2="1.01807177" y2="0.500041842" id="gradient_4">
      <stop offset="0" stop-color="#1F286F" />
      <stop offset="0.4751" stop-color="#004E94" />
      <stop offset="0.8261" stop-color="#0066B1" />
      <stop offset="1" stop-color="#006FBC" />
    </linearGradient>
    <linearGradient x1="-0.005788419" y1="0.499126017" x2="0.9812876" y2="0.499126017" id="gradient_5">
      <stop offset="0" stop-color="#6C2C2F" />
      <stop offset="0.1735" stop-color="#882730" />
      <stop offset="0.5731" stop-color="#BE1833" />
      <stop offset="0.8585" stop-color="#DC0436" />
      <stop offset="1" stop-color="#E60039" />
    </linearGradient>
  </defs>
  <g id="jcb_emblem_logo">
    <g id="Group">
      <path d="M28.3402 17.4268C28.3402 19.852 26.3654 21.8268 23.9402 21.8268L0 21.8268L0 4.4C0 1.9748 1.9748 0 4.4 0L28.3402 0L28.3402 17.4268Z" transform="translate(0.06929134 0.1212598)" id="Path" fill="#FFFFFF" stroke="none" />
      <g id="Group" transform="translate(19.05512 1.559055)">
        <path d="M0 1.66299L1.8189 1.66299C1.87087 1.66299 1.99213 1.64567 2.04409 1.64567C2.39055 1.57638 2.68504 1.26457 2.68504 0.831496C2.68504 0.415748 2.39055 0.103937 2.04409 0.0173228C1.99213 0 1.88819 0 1.8189 0L0 0L0 1.66299Z" transform="translate(1.559055 9.856693)" id="Path" fill="url(#gradient_1)" stroke="none" />
        <path d="M3.17008 0C1.4378 0 0.0173228 1.40315 0.0173228 3.15276L0.0173228 6.42677L4.46929 6.42677C4.57323 6.42677 4.69449 6.42677 4.7811 6.44409C5.78583 6.49606 6.53071 7.01575 6.53071 7.91654C6.53071 8.62677 6.02835 9.23307 5.09291 9.35433L5.09291 9.38898C6.11496 9.45827 6.89449 10.0299 6.89449 10.9134C6.89449 11.8661 6.02835 12.4898 4.88504 12.4898L0 12.4898L0 18.8992L4.6252 18.8992C6.35748 18.8992 7.77795 17.4961 7.77795 15.7465L7.77795 0L3.17008 0Z" transform="translate(2.842171E-14 0.03464567)" id="Path" fill="url(#gradient_2)" stroke="none" />
        <path d="M2.45984 0.762205C2.45984 0.346457 2.16535 0.0692913 1.8189 0.0173228C1.78425 0.0173228 1.69764 0 1.64567 0L0 0L0 1.52441L1.64567 1.52441C1.69764 1.52441 1.80157 1.52441 1.8189 1.50709C2.16535 1.45512 2.45984 1.17795 2.45984 0.762205Z" transform="translate(1.559055 7.396851)" id="Path" fill="url(#gradient_3)" stroke="none" />
      </g>
      <path d="M3.17008 0C1.4378 0 0.0173228 1.40315 0.0173228 3.15276L0.0173228 10.9307C0.900787 11.3638 1.8189 11.6409 2.73701 11.6409C3.82835 11.6409 4.41732 10.9827 4.41732 10.0819L4.41732 6.40945L7.11969 6.40945L7.11969 10.0646C7.11969 11.485 6.23622 12.6457 3.23937 12.6457C1.42047 12.6457 0 12.2472 0 12.2472L0 18.8819L4.6252 18.8819C6.35748 18.8819 7.77795 17.4787 7.77795 15.7291L7.77795 0L3.17008 0Z" transform="translate(1.628346 1.593701)" id="Path" fill="url(#gradient_4)" stroke="none" />
      <path d="M3.15276 0C1.42047 0 0 1.40315 0 3.15276L0 7.27559C0.79685 6.6 2.18268 6.16693 4.41732 6.27087C5.6126 6.32283 6.89449 6.65197 6.89449 6.65197L6.89449 7.98583C6.25354 7.65669 5.49134 7.36221 4.50394 7.29291C2.8063 7.17165 1.78425 8.00315 1.78425 9.45827C1.78425 10.9307 2.8063 11.7622 4.50394 11.6236C5.49134 11.5543 6.25354 11.2425 6.89449 10.9307L6.89449 12.2646C6.89449 12.2646 5.62992 12.5937 4.41732 12.6457C2.18268 12.7496 0.79685 12.3165 0 11.6409L0 18.9165L4.6252 18.9165C6.35748 18.9165 7.77795 17.5134 7.77795 15.7638L7.77795 0L3.15276 0Z" transform="translate(10.35906 1.593701)" id="Path" fill="url(#gradient_5)" stroke="none" />
    </g>
  </g>
</svg>