<?xml version="1.0" encoding="UTF-8"?>
<svg width="16px" height="16px" viewBox="0 0 16 16" version="1.1" xmlns="http://www.w3.org/2000/svg" xmlns:xlink="http://www.w3.org/1999/xlink">
    <g id="Page-1" stroke="none" stroke-width="1" fill="none" fill-rule="evenodd">
        <g id="style-3" transform="translate(-2938.000000, -1347.000000)">
            <g id="Group-66" transform="translate(2938.000000, 1347.000000)">
                <path d="M6.35747955,6.7405977 C5.84512658,6.7405977 5.42988049,6.3259954 5.42988049,5.81443678 C5.42988049,5.30287816 5.84512658,4.88827586 6.35747955,4.88827586 C6.86983251,4.88827586 7.2850786,5.30287816 7.2850786,5.81443678 C7.2850786,6.3259954 6.86983251,6.7405977 6.35747955,6.7405977 M7.87066695,0 C3.52384493,0 1.8189894e-12,3.51838161 1.8189894e-12,7.85861149 C1.8189894e-12,11.7195034 2.78942814,14.9277425 6.46534333,15.5896644 L6.46534333,8.68016552 C6.46534333,8.35589885 6.7310242,8.09077701 7.05564703,8.09077701 L8.10451917,8.09077701 C8.1354637,8.09077701 8.16066138,8.06547126 8.16066138,8.03472184 L8.16066138,0.00735632184 C8.06429128,0.00382528736 7.96806854,0 7.87066695,0" id="Fill-2" fill="#32B45A"></path>
                <path d="M13.4322385,11.8934657 C12.9744069,11.8934657 12.6030725,11.52256 12.6030725,11.0654382 C12.6030725,10.6081692 12.9744069,10.2375577 13.4322385,10.2375577 C13.8902175,10.2375577 14.2615519,10.6081692 14.2615519,11.0654382 C14.2615519,11.52256 13.8902175,11.8934657 13.4322385,11.8934657 M11.2390083,11.8934657 C10.7811766,11.8934657 10.4098423,11.52256 10.4098423,11.0654382 C10.4098423,10.6081692 10.7811766,10.2375577 11.2390083,10.2375577 C11.6971346,10.2375577 12.0683216,10.6081692 12.0683216,11.0654382 C12.0683216,11.52256 11.6971346,11.8934657 11.2390083,11.8934657 M9.04592538,11.8934657 C8.58794637,11.8934657 8.21661204,11.52256 8.21661204,11.0654382 C8.21661204,10.6081692 8.58794637,10.2375577 9.04592538,10.2375577 C9.50390439,10.2375577 9.87509137,10.6081692 9.87509137,11.0654382 C9.87509137,11.52256 9.50390439,11.8934657 9.04592538,11.8934657 M9.09573133,0.0953967816 L9.09573133,8.40671632 C9.09573133,8.73083586 8.83019782,8.9959577 8.50542763,8.9959577 L7.45655549,8.9959577 C7.42561097,8.9959577 7.40041328,9.02126345 7.40041328,9.05216 L7.40041328,15.7019807 C7.5561674,15.7111025 7.7126583,15.7169876 7.87062275,15.7169876 C12.2177395,15.7169876 15.7415844,12.1987531 15.7415844,7.85867034 C15.7415844,3.93451402 12.8607962,0.682872644 9.09573133,0.0953967816" id="Fill-4" fill="#3C4583"></path>
            </g>
        </g>
    </g>
</svg>