<svg width="15" height="16" viewBox="0 0 15 16" fill="none" xmlns="http://www.w3.org/2000/svg">
    <rect width="15" height="16" fill="black" fill-opacity="0"/>
    <path fill-rule="evenodd" clip-rule="evenodd" d="M12.4939 10.7658C12.365 10.1576 12.0884 9.69998 11.7013 9.3542C11.5676 9.21078 11.4059 9.10927 11.2225 9.00146C11.1302 8.94709 11.0627 8.91374 10.9421 8.86727C10.7411 8.78947 10.4773 8.69907 10.1494 8.73282C10.3138 8.64818 10.5584 8.6447 10.81 8.64858C11.0188 8.67135 11.1918 8.73027 11.3709 8.7829C11.5208 8.8658 11.6692 8.95004 11.8168 9.03507C12.1786 7.93399 12.0401 6.42726 11.6355 5.45622C11.2439 4.43749 10.6752 3.59902 9.93523 2.93572C9.20746 2.25916 8.33339 1.73152 7.17812 1.49073C6.60628 1.36498 5.88681 1.38521 5.36181 1.50761C4.81325 1.65465 4.3572 1.89624 3.95865 2.19635C3.58825 2.53062 3.22878 2.87626 2.98457 3.33895C2.89654 3.42868 2.85865 3.5697 2.78628 3.67509C2.73562 3.80258 2.67878 3.92391 2.62154 4.04471C2.53615 4.31067 2.43839 4.56391 2.3901 4.86804C2.25812 5.41805 2.23431 6.17389 2.32431 6.76688C2.39207 7.40354 2.57549 7.92247 2.77036 8.43016C2.89023 8.66639 2.9997 8.91334 3.13286 9.13578C3.25944 9.36023 3.41615 9.55348 3.5626 9.7577C3.89523 10.1248 4.25246 10.4667 4.66839 10.7491C5.51181 11.3082 6.4797 11.7397 7.80523 11.8075C7.83128 11.7526 7.76944 11.643 7.75575 11.5723C7.73589 11.4916 7.72812 11.3987 7.70589 11.3205C7.6872 11.1395 7.68141 10.9284 7.70589 10.7491C7.75852 10.763 7.75694 10.8316 7.78878 10.8667C7.81694 10.8996 7.82746 10.9505 7.87141 10.9674C7.90457 11.0622 7.97667 11.1177 8.01983 11.2027C8.14444 11.3335 8.24154 11.4924 8.3997 11.589C8.52549 11.7189 8.69365 11.8049 8.84536 11.9084C9.00891 11.9942 9.14904 12.1034 9.34075 12.1603C9.66865 12.336 10.1084 12.3981 10.5459 12.4629C10.9868 12.5237 11.4122 12.6001 11.8168 12.6982C12.1896 12.8283 12.5694 12.9511 12.8736 13.1513C13.034 13.2459 13.1923 13.3425 13.3356 13.4543C13.4058 13.5115 13.4943 13.5503 13.5502 13.6221C13.6371 13.6573 13.6754 13.7414 13.7648 13.7731C14.0211 14.022 14.2743 14.2741 14.4918 14.5629C14.5813 14.7293 14.7036 14.8622 14.7722 15.0505C14.8325 15.1178 14.8501 15.2284 14.9042 15.3022C14.9077 15.3977 14.9985 15.5122 14.9205 15.588C14.798 15.6064 14.8229 15.4746 14.7722 15.4199C14.7325 15.3542 14.683 15.2974 14.6561 15.2185C14.463 15.012 14.29 14.7849 14.0785 14.5969C13.8693 14.4122 13.6636 14.2234 13.4181 14.0761C12.9571 13.7441 12.4226 13.4876 11.8002 13.3196C11.1875 13.1392 10.5004 13.0667 9.70378 13.1181C9.35404 13.1649 9.02023 13.2293 8.72957 13.3362C8.41681 13.4154 8.06852 13.4587 7.7226 13.5042C6.37141 13.5891 4.86667 13.2609 3.85931 12.7654C3.32181 12.512 2.8272 12.2142 2.40681 11.8412C2.17707 11.6721 1.98931 11.4594 1.79602 11.253C1.61931 11.0352 1.43339 10.8265 1.30062 10.564C1.12417 10.3404 1.0197 10.0432 0.87128 9.79118C0.774833 9.49201 0.638122 9.23341 0.574175 8.90075C0.473254 8.60051 0.41128 8.26008 0.37628 7.89248C0.370491 7.7915 0.326017 7.59665 0.326412 7.43876C0.326412 7.4247 0.344306 7.41224 0.343122 7.3884C0.335754 7.24511 0.302333 7.02441 0.343122 6.90121C0.335754 6.56828 0.394569 6.15876 0.458912 5.84257C0.517991 5.50536 0.606148 5.19722 0.706675 4.90152C0.804833 4.5986 0.934833 4.32768 1.05286 4.04471C1.13233 3.92378 1.19273 3.7837 1.26746 3.65835C1.33062 3.52644 1.42523 3.42694 1.48246 3.2886C1.54602 3.25231 1.55733 3.16325 1.61417 3.12067C1.63983 3.0458 1.70839 3.0146 1.72983 2.93572C1.78391 2.88992 1.82694 2.83274 1.86194 2.76765C1.9122 2.71784 1.96483 2.67056 1.99391 2.59959C2.19062 2.40219 2.36667 2.1835 2.57167 1.99481C2.77615 1.79955 3.0047 1.62907 3.21589 1.44038C3.34983 1.3753 3.44654 1.27204 3.57891 1.20508C3.67944 1.11147 3.82589 1.0642 3.92562 0.969788C4.20102 0.846716 4.43549 0.68213 4.73457 0.583163C4.99246 0.448039 5.30141 0.364741 5.59312 0.264168C6.22694 0.0986437 6.86641 -0.0151877 7.65641 0.0119979C7.68483 0.0154798 7.69931 -0.0166608 7.70589 0.0119979C9.20194 0.0579322 10.2923 0.516606 11.2225 1.13786C12.1442 1.76246 12.8577 2.59878 13.3686 3.64148C13.8685 4.67426 14.1497 6.07787 13.9136 7.55661C13.7954 8.22044 13.6043 8.80996 13.3686 9.3542C13.2336 9.60919 13.1133 9.87863 12.9559 10.1104C12.8869 10.2358 12.813 10.3569 12.7248 10.4633C12.6952 10.5281 12.6533 10.5806 12.6096 10.6314C12.5901 10.6622 12.566 10.688 12.5434 10.7155C12.5359 10.7304 12.529 10.7456 12.5102 10.7491C12.515 10.7791 12.4951 10.7835 12.4939 10.7658Z" fill="#F8893E"/>
    <path fill-rule="evenodd" clip-rule="evenodd" d="M12.1067 11.2027C11.9078 11.1252 11.8743 10.884 11.7843 10.6987C11.7682 10.6306 11.7543 10.5283 11.7843 10.4634C11.7979 10.4602 11.801 10.4465 11.8182 10.4465C11.8682 10.4146 11.9159 10.4551 11.9875 10.4801C12.0851 10.5909 12.1471 10.7367 12.1912 10.9002C12.1947 11.0325 12.2049 11.1714 12.1067 11.2027Z" fill="#F8893E"/>
    <path fill-rule="evenodd" clip-rule="evenodd" d="M10.6456 10.9171C10.6486 10.8978 10.6623 10.9077 10.6623 10.9171C10.9549 10.955 11.0893 11.1543 11.108 11.4715C11.0818 11.647 10.9852 11.7502 10.827 11.7908C10.433 11.7976 10.2086 11.4283 10.3484 11.0514C10.427 10.9861 10.4828 10.8973 10.6456 10.9171Z" fill="#F8893E"/>
</svg>
