<svg width="20" height="9" viewBox="0 0 20 9" fill="none" xmlns="http://www.w3.org/2000/svg">
    <rect width="20" height="9" fill="black" fill-opacity="0"/>
    <path fill-rule="evenodd" clip-rule="evenodd" d="M6.20456 4.99011C5.93483 4.99011 5.70003 5.07353 5.50721 5.26966C5.30997 5.47414 5.2334 5.76587 5.2334 6.05661C5.2334 6.36623 5.30787 6.66817 5.49992 6.87243C5.69351 7.07723 5.9324 7.14901 6.20997 7.14901C6.49163 7.14901 6.72036 7.03542 6.8945 6.86047C7.09395 6.65873 7.18865 6.38467 7.18865 6.09042C7.18865 5.76806 7.09307 5.48171 6.8997 5.27778C6.73351 5.10228 6.49329 4.99011 6.20456 4.99011ZM4.54883 8.97529V4.41766H5.28817V4.75264C5.39026 4.58921 5.58861 4.47331 5.74441 4.42074C5.90087 4.36959 6.06297 4.34314 6.22828 4.34314C6.63678 4.34314 7.07336 4.48012 7.42817 4.84626C7.75557 5.18464 7.92883 5.59601 7.92883 6.0831C7.92883 6.30679 7.88573 6.52696 7.79999 6.73813C7.717 6.95029 7.59778 7.13709 7.44529 7.29251C7.28408 7.46032 7.10054 7.58698 6.89877 7.6727C6.69745 7.75765 6.50905 7.8009 6.26198 7.8009C6.0822 7.8009 5.90883 7.77368 5.74485 7.71693C5.58363 7.66524 5.35767 7.53638 5.27612 7.39579V8.97529H4.54883Z" fill="#164193"/>
    <path fill-rule="evenodd" clip-rule="evenodd" d="M12.9969 8.97524L13.6208 7.53809L12.1895 4.41772H12.9686L13.9857 6.76036L14.9237 4.41772H15.7074L13.7617 8.97524H12.9969Z" fill="#164193"/>
    <path fill-rule="evenodd" clip-rule="evenodd" d="M9.39256 5.27778C9.19919 5.4816 9.10449 5.76806 9.10449 6.09042C9.10449 6.38456 9.19919 6.65873 9.39864 6.86047C9.57256 7.03542 9.80107 7.14901 10.0827 7.14901C10.361 7.14901 10.5992 7.07723 10.7919 6.87243C10.9855 6.66817 11.0584 6.36623 11.0584 6.05661C11.0584 5.76587 10.9827 5.47458 10.786 5.26966C10.5919 5.07221 10.3579 4.99011 10.0884 4.99011C9.79897 4.99011 9.55919 5.10228 9.39256 5.27778ZM11.0167 7.74064V7.39579C10.9353 7.53638 10.7094 7.66524 10.5486 7.71693C10.3844 7.77368 10.2094 7.8009 10.0312 7.8009C9.78417 7.8009 9.59599 7.75765 9.39378 7.6727C9.19256 7.58698 9.00914 7.46032 8.84814 7.29229C8.69499 7.13698 8.57577 6.95029 8.49334 6.73857C8.40726 6.52608 8.36328 6.30679 8.36328 6.0831C8.36328 5.5959 8.53654 5.18464 8.86439 4.84626C9.21986 4.48012 9.65621 4.34314 10.0656 4.34314C10.2298 4.34314 10.3919 4.36959 10.5486 4.42129C10.705 4.47331 10.9038 4.58921 11.0059 4.75264V4.41766H11.7442V7.74064H11.0167Z" fill="#164193"/>
    <path fill-rule="evenodd" clip-rule="evenodd" d="M16.4815 2.30916L16.4435 0.090332H17.1486V2.88999H16.1349L15.4329 0.591588H15.4148L15.4549 2.88999H14.7559V0.090332H15.8112L16.4661 2.30916H16.4815Z" fill="#164193"/>
    <path fill-rule="evenodd" clip-rule="evenodd" d="M3.67579 0.350881L3.28706 2.91555H2.51855L3.04541 0.09021H4.3127L4.83878 2.91555H4.0727L3.69281 0.350881H3.67579Z" fill="#164193"/>
    <path fill-rule="evenodd" clip-rule="evenodd" d="M6.99424 2.25165L7.34629 0.090332H8.50584L8.56949 2.91556H7.85711L7.83722 0.375039H7.82341L7.3475 2.91556H6.62717L6.14949 0.375039H6.13358L6.1159 2.91556H5.4043L5.46905 0.090332H6.62971L6.97999 2.25165H6.99424Z" fill="#164193"/>
    <path fill-rule="evenodd" clip-rule="evenodd" d="M12.9613 2.4918C13.1614 2.4918 13.2209 2.35723 13.2354 2.28908C13.2413 2.25878 13.2413 2.2173 13.2413 2.18086V0.090332H13.9638V2.11599C13.9638 2.16878 13.9581 2.27459 13.9557 2.3028C13.907 2.83072 13.4849 3.0003 12.9613 3.0003C12.4386 3.0003 12.0185 2.83072 11.9703 2.3028C11.9667 2.27459 11.9615 2.16878 11.9632 2.11599V0.090332H12.6834V2.18086C12.6809 2.2173 12.6845 2.25878 12.689 2.28908C12.7026 2.35723 12.7645 2.4918 12.9613 2.4918Z" fill="#164193"/>
    <path fill-rule="evenodd" clip-rule="evenodd" d="M1.32099 2.11818C1.34773 2.18678 1.34 2.27459 1.32663 2.32738C1.30376 2.42166 1.23967 2.51846 1.04796 2.51846C0.870608 2.51846 0.763978 2.41617 0.763978 2.26152L0.761768 1.98735H0V2.20544C0 2.83676 0.498122 3.02598 1.03182 3.02598C1.54895 3.02598 1.97215 2.85212 2.03878 2.38127C2.07392 2.13618 2.04873 1.97649 2.03702 1.91689C1.91724 1.32355 0.836464 1.1497 0.755801 0.818232C0.741989 0.759622 0.744309 0.701671 0.752486 0.670061C0.773039 0.577537 0.835028 0.479085 1.01215 0.479085C1.18055 0.479085 1.27801 0.583024 1.27801 0.733939V0.910976H1.98829V0.712537C1.98829 0.0961463 1.43061 0 1.02707 0C0.522099 0 0.108066 0.167049 0.0325967 0.628573C0.0131492 0.753366 0.0103867 0.866085 0.038232 1.00789C0.162762 1.58707 1.17403 1.7528 1.32099 2.11818Z" fill="#164193"/>
    <path fill-rule="evenodd" clip-rule="evenodd" d="M10.5727 2.11471C10.6012 2.18166 10.5893 2.26804 10.5784 2.32094C10.5567 2.41358 10.4912 2.50786 10.3044 2.50786C10.1275 2.50786 10.0211 2.40743 10.0211 2.2541V1.98223H9.26465V2.19977C9.26465 2.82516 9.75934 3.01076 10.2897 3.01076C10.7971 3.01076 11.2169 2.83899 11.2842 2.37198C11.3184 2.13073 11.2935 1.97247 11.2806 1.91122C11.1619 1.32644 10.0929 1.15325 10.0142 0.82354C10.001 0.768771 10.0046 0.709393 10.0107 0.678771C10.0297 0.58921 10.0916 0.491088 10.268 0.491088C10.4346 0.491088 10.5308 0.591515 10.5308 0.741771V0.916064H11.2327V0.72004C11.2327 0.111003 10.6814 0.015625 10.2842 0.015625C9.78266 0.015625 9.37194 0.177954 9.29923 0.636845C9.27636 0.759662 9.27349 0.870954 9.30476 1.01353C9.42697 1.58711 10.4277 1.75131 10.5727 2.11471Z" fill="#164193"/>
    <path fill-rule="evenodd" clip-rule="evenodd" d="M18.8978 2.46331C19.1027 2.46331 19.1752 2.33577 19.1883 2.25872C19.1928 2.22689 19.1948 2.18661 19.1946 2.15083V1.74199H18.9039V1.32755H19.9113V2.08673C19.9113 2.13964 19.9091 2.1786 19.9011 2.27354C19.8538 2.78511 19.4041 2.97126 18.8989 2.97126C18.3956 2.97126 17.948 2.78511 17.9018 2.27354C17.8906 2.1786 17.8906 2.13964 17.8906 2.08673V0.898074C17.8906 0.847147 17.8964 0.758025 17.9038 0.712367C17.9655 0.181147 18.3956 0.0135498 18.8989 0.0135498C19.4041 0.0135498 19.8481 0.179391 19.8986 0.712367C19.9091 0.799623 19.904 0.898074 19.904 0.898074L19.9057 0.99005H19.1883V0.832221C19.1883 0.832221 19.1883 0.764172 19.1784 0.724001C19.1663 0.663525 19.1108 0.520184 18.8933 0.520184C18.6891 0.520184 18.6272 0.655952 18.611 0.724001C18.6021 0.761867 18.6005 0.812464 18.6005 0.858452V2.15083C18.6005 2.18661 18.6021 2.22689 18.6054 2.25872C18.6195 2.33577 18.6911 2.46331 18.8978 2.46331Z" fill="#164193"/>
</svg>
