<svg width="12" height="16" viewBox="0 0 12 16" fill="none" xmlns="http://www.w3.org/2000/svg">
    <rect width="12" height="16" fill="black" fill-opacity="0"/>
    <path fill-rule="evenodd" clip-rule="evenodd" d="M0.000169811 7.91163C0.000169811 7.01603 0.074264 6.44771 1.90494 5.06317C3.42057 3.91696 8.27853 0 8.27853 0V6.53867H11.9729V15.9495H1.15409C0.519453 15.9495 0 15.4232 0 14.7802L0.000169811 7.91163Z" fill="#FFCB34"/>
    <path fill-rule="evenodd" clip-rule="evenodd" d="M8.27889 6.5387V10.3274L1.49023 15.013L10.0733 12.1836V6.5387H8.27889Z" fill="#C99F24"/>
    <path fill-rule="evenodd" clip-rule="evenodd" d="M5.17594 6.34272C5.5729 5.86347 6.1527 5.69424 6.47103 5.96492C6.78937 6.2356 6.72575 6.8436 6.32873 7.32285C5.932 7.80205 5.35203 7.97105 5.0337 7.70037C4.7153 7.42975 4.77909 6.82192 5.17594 6.34272Z" fill="#211300"/>
</svg>
