<svg width="16" height="16" viewBox="0 0 16 16" fill="none" xmlns="http://www.w3.org/2000/svg">
    <rect width="15.9689" height="15.9689" fill="black" fill-opacity="0" transform="translate(0.00292969 0.0279541)"/>
    <path d="M7.9874 15.9969C12.3971 15.9969 15.9719 12.4221 15.9719 8.01242C15.9719 3.60272 12.3971 0.0279541 7.9874 0.0279541C3.5777 0.0279541 0.00292969 3.60272 0.00292969 8.01242C0.00292969 12.4221 3.5777 15.9969 7.9874 15.9969Z" fill="#010101"/>
    <path d="M7.98703 14.226C11.4187 14.226 14.2006 11.4441 14.2006 8.01242C14.2006 4.58075 11.4187 1.79883 7.98703 1.79883C4.55536 1.79883 1.77344 4.58075 1.77344 8.01242C1.77344 11.4441 4.55536 14.226 7.98703 14.226Z" fill="url(#paint0_linear)"/>
    <path d="M10.9788 9.95415H7.67007V9.92308C8.06153 9.50367 8.4157 9.02211 8.79473 8.52192L10.8639 5.63881V4.22211H8.81648V2.83337H7.09842V4.22211H5.23434V6.09551H8.26036V6.12658C7.8689 6.5926 7.55822 6.96541 7.16366 7.48114L4.99512 10.4885V11.84H7.09842V13.1914H8.81648V11.84H10.9788V9.95415Z" fill="#010101"/>
    <defs>
        <linearGradient id="paint0_linear" x1="7.98687" y1="-0.775495" x2="-0.800476" y2="8.01185" gradientUnits="userSpaceOnUse">
            <stop stop-color="#FFD35D"/>
            <stop offset="1" stop-color="#CC842A"/>
        </linearGradient>
    </defs>
</svg>
