<?xml version="1.0" encoding="UTF-8"?>
<svg width="16px" height="14px" viewBox="0 0 16 14" version="1.1" xmlns="http://www.w3.org/2000/svg" xmlns:xlink="http://www.w3.org/1999/xlink">
    <title>exclamation-triangle</title>
    <defs>
        <path d="M15.8199201,13.0316055 C16.3326422,13.9064414 15.6890591,15 14.6650038,15 L1.33484092,15 C0.308813431,15 -0.331797498,13.9047461 0.179924579,13.0316055 L6.84508935,1.65583997 C7.35806143,0.780593887 8.64286662,0.782179824 9.15492203,1.65583997 L15.8199201,13.0316055 Z M8.00000569,10.6796875 C7.29431145,10.6796875 6.72222828,11.2428321 6.72222828,11.9375 C6.72222828,12.632168 7.29431145,13.1953125 8.00000569,13.1953125 C8.70569994,13.1953125 9.27778311,12.632168 9.27778311,11.9375 C9.27778311,11.2428321 8.70569994,10.6796875 8.00000569,10.6796875 Z M6.78686715,6.1585079 L6.99292264,9.87725786 C7.00256153,10.0512735 7.14872816,10.1875 7.32575588,10.1875 L8.6742555,10.1875 C8.85128323,10.1875 8.99744985,10.0512735 9.00708874,9.87725786 L9.21314424,6.1585079 C9.2235609,5.97054696 9.07153316,5.81250009 8.880311,5.81250009 L7.11967261,5.81250009 C6.92845044,5.81250009 6.77645048,5.97054696 6.78686715,6.1585079 Z" id="path-1"></path>
    </defs>
    <g id="Page-1" stroke="none" stroke-width="1" fill="none" fill-rule="evenodd">
        <g id="other-payment-methods-styles" transform="translate(-922.000000, -410.000000)" fill-rule="nonzero">
            <g id="Group-12-Copy-23" transform="translate(904.000000, 121.000000)">
                <g id="Group-Copy">
                    <g id="Group-12-Copy">
                        <g id="Group-10" transform="translate(18.000000, 260.000000)">
                            <g id="Group-7" transform="translate(0.000000, 28.000000)">
                                <g id="exclamation-triangle">
                                    <use fill="#BFBFBF" fill-rule="evenodd" xlink:href="#path-1"></use>
                                    <use fill="#4a96b6" fill-rule="evenodd" xlink:href="#path-1"></use>
                                </g>
                            </g>
                        </g>
                    </g>
                </g>
            </g>
        </g>
    </g>
</svg>