<?xml version="1.0" encoding="UTF-8"?>
<svg width="16px" height="16px" viewBox="0 0 16 16" version="1.1" xmlns="http://www.w3.org/2000/svg" xmlns:xlink="http://www.w3.org/1999/xlink">
    <g id="Page-1" stroke="none" stroke-width="1" fill="none" fill-rule="evenodd">
        <g id="style-3" transform="translate(-3618.000000, -621.000000)">
            <g id="Group-59" transform="translate(3602.000000, 379.000000)">
                <g id="Group-12-Copy-15">
                    <g id="Group-Copy">
                        <g id="Group-12-Copy">
                            <g id="personal-wallet" transform="translate(16.000000, 242.000000)">
                                <g id="Group-8" stroke-width="1" fill="#FFFFFF">
                                    <rect id="Rectangle-4" x="0" y="0" width="16" height="16"></rect>
                                </g>
                                <path d="M1,0 L11,0 C11.5522847,-1.01453063e-16 12,0.44771525 12,1 L12,15 C12,15.5522847 11.5522847,16 11,16 L1,16 C0.44771525,16 6.76353751e-17,15.5522847 0,15 L0,1 C-6.76353751e-17,0.44771525 0.44771525,1.01453063e-16 1,0 Z M6,8 C7.1045695,8 8,7.1045695 8,6 C8,4.8954305 7.1045695,4 6,4 C4.8954305,4 4,4.8954305 4,6 C4,7.1045695 4.8954305,8 6,8 Z M2,10.7857143 C3.33436461,9.92857143 4.66808099,9.5 6.00114914,9.5 C7.33421729,9.5 8.66716757,9.92857143 10,10.7857143 L10,12.5 L2,12.5 L2,10.7857143 Z" id="Combined-Shape" fill="#272424"></path>
                                <rect id="Rectangle-2" fill="#272424" x="13" y="2" width="1" height="12"></rect>
                                <rect id="Rectangle-2-Copy" fill="#272424" x="15" y="4" width="1" height="8"></rect>
                            </g>
                        </g>
                    </g>
                </g>
            </g>
        </g>
    </g>
</svg>