<svg width="16" height="16" viewBox="0 0 16 16" fill="none" xmlns="http://www.w3.org/2000/svg">
    <path fill-rule="evenodd" clip-rule="evenodd" d="M5 6C5 4.34326 6.34375 3 8 3C9.65625 3 11 4.34326 11 6H5ZM2 6H1C0.447266 6 0 6.44775 0 7V15C0 15.5522 0.447266 16 1 16H15C15.2422 16 15.4629 15.9141 15.6348 15.7712C15.8574 15.5879 16 15.3105 16 15V7C16 6.44775 15.5527 6 15 6H14C14 2.68628 11.3145 0 8 0C4.68555 0 2 2.68628 2 6ZM9 11.7327C9.59766 11.387 10 10.7405 10 10C10 8.89551 9.10547 8 8 8C6.89453 8 6 8.89551 6 10C6 10.7405 6.40234 11.387 7 11.7327V13C7 13.5522 7.44727 14 8 14C8.55273 14 9 13.5522 9 13V11.7327Z" fill="#272424"/>
</svg>
