<?xml version="1.0" encoding="UTF-8"?>
<svg width="16px" height="16px" viewBox="0 0 16 16" version="1.1" xmlns="http://www.w3.org/2000/svg" xmlns:xlink="http://www.w3.org/1999/xlink">
    <!-- Generator: Sketch 51.1 (57501) - http://www.bohemiancoding.com/sketch -->
    <g id="resend" stroke="none" stroke-width="1" fill="none" fill-rule="evenodd">
        <path d="M4,8 L5.99707067,8 C6.55097324,8 6.74828863,8.35958767 6.42204618,8.82564831 L4.07795382,12.1743517 C3.75875874,12.6303447 3.24828863,12.6404123 2.92204618,12.1743517 L0.577953815,8.82564831 C0.258758737,8.36965534 0.437881351,8 1.00292933,8 L2,8 C2,4.13400675 5.13400675,1 9,1 C12.8659932,1 16,4.13400675 16,8 C16,11.8659932 12.8659932,15 9,15 L9,13 C11.7614237,13 14,10.7614237 14,8 C14,5.23857625 11.7614237,3 9,3 C6.23857625,3 4,5.23857625 4,8 Z" id="Combined-Shape" fill="#272424" fill-rule="nonzero"></path>
    </g>
</svg>