<?xml version="1.0" encoding="UTF-8"?>
<svg width="16px" height="16px" viewBox="0 0 16 16" version="1.1" xmlns="http://www.w3.org/2000/svg" xmlns:xlink="http://www.w3.org/1999/xlink">
    <g id="Page-1" stroke="none" stroke-width="1" fill="none" fill-rule="evenodd">
        <g id="style-3" transform="translate(-66.000000, -652.000000)">
            <g id="Group-12-Copy-3" transform="translate(50.000000, 379.000000)">
                <g id="Group-Copy">
                    <g id="Group-12-Copy">
                        <g id="Group-10" transform="translate(16.000000, 273.000000)">
                            <g id="max_payment">
                                <g id="Group-8">
                                    <rect id="Rectangle-4" x="0" y="0" width="16" height="16"></rect>
                                    <g id="Group-53" fill="#272424" stroke="#272424" stroke-width="2">
                                        <circle id="Oval-2" cx="8" cy="8" r="7"></circle>
                                    </g>
                                </g>
                                <g id="Group" transform="translate(4.000000, 3.000000)" fill="#FFFFFF">
                                    <path d="M3.70117188,6.10546875 L3.70117188,9 L1.64453125,9 L1.64453125,0.46875 L5.04882812,0.46875 C5.70117514,0.46875 6.2783178,0.588865986 6.78027344,0.829101562 C7.28222907,1.06933714 7.67089706,1.4111306 7.94628906,1.85449219 C8.22168106,2.29785378 8.359375,2.80077844 8.359375,3.36328125 C8.359375,4.19531666 8.06152642,4.86034907 7.46582031,5.35839844 C6.87011421,5.8564478 6.05273957,6.10546875 5.01367188,6.10546875 L3.70117188,6.10546875 Z M3.70117188,4.51757812 L5.04882812,4.51757812 C5.44726762,4.51757812 5.75097552,4.41796975 5.95996094,4.21875 C6.16894636,4.01953025 6.2734375,3.73828307 6.2734375,3.375 C6.2734375,2.97656051 6.1660167,2.65820432 5.95117188,2.41992188 C5.73632705,2.18163943 5.44336123,2.06054689 5.07226562,2.05664062 L3.70117188,2.05664062 L3.70117188,4.51757812 Z" id="P"></path>
                                    <rect id="Rectangle" x="0.0999999046" y="4.5" width="1.60000002" height="1.60000002"></rect>
                                </g>
                            </g>
                        </g>
                    </g>
                </g>
            </g>
        </g>
    </g>
</svg>