<?xml version="1.0" encoding="UTF-8"?>
<svg width="22px" height="24px" viewBox="0 0 22 24" version="1.1" xmlns="http://www.w3.org/2000/svg" xmlns:xlink="http://www.w3.org/1999/xlink">
    <!-- Generator: Sketch 56.3 (81716) - https://sketch.com -->
    <title>calendar_active@svg</title>
    <desc>Created with Sketch.</desc>
    <g id="Платежная-страница-v2.0" stroke="none" stroke-width="1" fill="none" fill-rule="evenodd">
        <g id="Artboard" transform="translate(-78.000000, -452.000000)" fill="#404040">
            <path d="M94,454 L97,454 C98.6568542,454 100,455.343146 100,457 L100,473 C100,474.656854 98.6568542,476 97,476 L81,476 C79.3431458,476 78,474.656854 78,473 L78,457 C78,455.343146 79.3431458,454 81,454 L84,454 L84,453 C84,452.447715 84.4477153,452 85,452 C85.5522847,452 86,452.447715 86,453 L86,454 L92,454 L92,453 C92,452.447715 92.4477153,452 93,452 C93.5522847,452 94,452.447715 94,453 L94,454 Z M82,461 L82,463 L84,463 L84,461 L82,461 Z M86,461 L86,463 L88,463 L88,461 L86,461 Z M90,461 L90,463 L92,463 L92,461 L90,461 Z M94,461 L94,463 L96,463 L96,461 L94,461 Z M82,465 L82,467 L84,467 L84,465 L82,465 Z M86,465 L86,467 L88,467 L88,465 L86,465 Z M90,465 L90,467 L92,467 L92,465 L90,465 Z M94,465 L94,467 L96,467 L96,465 L94,465 Z M82,469 L82,471 L84,471 L84,469 L82,469 Z M86,469 L86,471 L88,471 L88,469 L86,469 Z M90,469 L90,471 L92,471 L92,469 L90,469 Z M94,469 L94,471 L96,471 L96,469 L94,469 Z" id="calendar_active"></path>
        </g>
    </g>
</svg>