<?xml version="1.0" encoding="UTF-8"?>
<svg width="20px" height="20px" viewBox="0 0 20 20" version="1.1" xmlns="http://www.w3.org/2000/svg" xmlns:xlink="http://www.w3.org/1999/xlink">
    <!-- Generator: Sketch 56.3 (81716) - https://sketch.com -->
    <title>cvc_rest@svg</title>
    <desc>Created with Sketch.</desc>
    <g id="Платежная-страница-v2.0" stroke="none" stroke-width="1" fill="none" fill-rule="evenodd">
        <g id="Artboard" transform="translate(-40.000000, -609.000000)" fill="#C7C7C7" fill-rule="nonzero">
            <path d="M50,629 C44.4771525,629 40,624.522847 40,619 C40,613.477153 44.4771525,609 50,609 C55.5228475,609 60,613.477153 60,619 C60,624.522847 55.5228475,629 50,629 Z M50,627 C54.418278,627 58,623.418278 58,619 C58,614.581722 54.418278,611 50,611 C45.581722,611 42,614.581722 42,619 C42,623.418278 45.581722,627 50,627 Z M48.9516985,620.25 C48.9516985,619.650654 49.0246808,619.177547 49.1706476,618.830665 C49.3166143,618.483783 49.5532538,618.183088 49.8805732,617.928571 C50.2078926,617.674055 50.4566959,617.441093 50.6269904,617.22968 C50.797285,617.018267 50.882431,616.785305 50.882431,616.530788 C50.882431,615.910916 50.594925,615.600985 50.0199045,615.600985 C49.7545104,615.600985 49.5399867,615.691296 49.376327,615.871921 C49.2126673,616.052546 49.1264155,616.296796 49.117569,616.60468 L46.875,616.60468 C46.8838465,615.783658 47.1625061,615.144296 47.7109873,614.686576 C48.2594684,614.228856 49.0290998,614 50.0199045,614 C51.0062859,614 51.7703883,614.21141 52.3122346,614.634236 C52.8540809,615.057063 53.125,615.658453 53.125,616.438424 C53.125,616.779148 53.0520177,617.089079 52.906051,617.368227 C52.7600842,617.647374 52.5256562,617.932675 52.2027601,618.224138 L51.4397558,618.883005 C51.2230173,619.075945 51.0726296,619.274014 50.9885881,619.477217 C50.9045466,619.68042 50.8581034,619.938012 50.8492569,620.25 L48.9516985,620.25 Z M48.75,623.375 C48.75,623.010107 48.8692056,622.710553 49.1076203,622.476331 C49.3460351,622.242109 49.643492,622.125 50,622.125 C50.356508,622.125 50.6539649,622.242109 50.8923797,622.476331 C51.1307944,622.710553 51.25,623.010107 51.25,623.375 C51.25,623.739893 51.1307944,624.039447 50.8923797,624.273669 C50.6539649,624.507891 50.356508,624.625 50,624.625 C49.643492,624.625 49.3460351,624.507891 49.1076203,624.273669 C48.8692056,624.039447 48.75,623.739893 48.75,623.375 Z" id="cvc_rest"></path>
        </g>
    </g>
</svg>