<?xml version="1.0" encoding="utf-8"?>
<svg width="126px" height="104px" viewBox="0 0 126 104" version="1.1" xmlns:xlink="http://www.w3.org/1999/xlink" xmlns="http://www.w3.org/2000/svg">
  <desc>Created with Lunacy</desc>
  <defs>
    <linearGradient x1="1" y1="0.5" x2="-2.220446E-16" y2="0.5" id="gradient_1">
      <stop offset="0" stop-color="#EF0E0E" />
      <stop offset="1" stop-color="#EF980E" />
    </linearGradient>
  </defs>
  <g id="Group-23">
    <path d="M71.2635 4.64696L124.087 87.9697C127.044 92.6342 125.66 98.8127 120.996 101.77C119.394 102.785 117.537 103.324 115.641 103.324L10 103.324C4.47715 103.324 0 98.8469 0 93.324C0 91.4282 0.538928 89.5714 1.55395 87.9701L54.3717 4.64738C57.3286 -0.0172452 63.507 -1.40165 68.1717 1.55523C69.4177 2.34511 70.4736 3.40092 71.2635 4.64696ZM67.8852 6.78866C67.4113 6.04104 66.7778 5.40755 66.0301 4.93362C63.2313 3.1595 59.5243 3.99014 57.7501 6.78892L4.93237 90.1117C4.32336 91.0724 4 92.1865 4 93.324C4 96.6377 6.68629 99.324 10 99.324L115.641 99.324C116.779 99.324 117.893 99.0006 118.854 98.3915C121.653 96.6172 122.483 92.9101 120.709 90.1114L67.8852 6.78866ZM66.8213 27.324L58.8213 27.324C56.6121 27.324 54.8213 29.1148 54.8213 31.324L54.8213 65.324C54.8213 67.5331 56.6121 69.324 58.8213 69.324L66.8213 69.324C69.0304 69.324 70.8213 67.5331 70.8213 65.324L70.8213 31.324C70.8213 29.1148 69.0304 27.324 66.8213 27.324ZM58.8213 65.324L58.8213 31.324L66.8213 31.324L66.8213 65.324L58.8213 65.324ZM62.8213 92.324C67.2396 92.324 70.8213 88.7422 70.8213 84.324C70.8213 79.9057 67.2396 76.324 62.8213 76.324C58.403 76.324 54.8213 79.9057 54.8213 84.324C54.8213 88.7422 58.403 92.324 62.8213 92.324ZM62.8213 88.324C60.6122 88.324 58.8213 86.5331 58.8213 84.324C58.8213 82.1148 60.6122 80.324 62.8213 80.324C65.0304 80.324 66.8213 82.1148 66.8213 84.324C66.8213 86.5331 65.0304 88.324 62.8213 88.324Z" id="Combined-Shape" fill="url(#gradient_1)" fill-rule="evenodd" stroke="none" />
  </g>
</svg>