<?xml version="1.0" encoding="UTF-8"?>
<svg width="16px" height="16px" viewBox="0 0 16 16" version="1.1" xmlns="http://www.w3.org/2000/svg" xmlns:xlink="http://www.w3.org/1999/xlink">
    <g  stroke="none" stroke-width="1" fill="none" fill-rule="evenodd">
        <g  transform="translate(-582.000000, -343.000000)">
            <g id="Group-17" transform="translate(552.000000, 156.000000)">
                <g id="Group-9">
                    <g id="Group">
                        <g id="Group-6" transform="translate(16.000000, 73.000000)">
                            <g id="Group-4" transform="translate(0.000000, 83.000000)">
                                <g id="Group-6-Copy" transform="translate(0.000000, 19.000000)">
                                    <g id="password" transform="translate(14.000000, 12.000000)">
                                        <g id="Group-8" stroke-width="1" fill-rule="evenodd"></g>
                                        <path d="M7,11.7324356 L7,13 C7,13.5522847 7.44771525,14 8,14 C8.55228475,14 9,13.5522847 9,13 L9,11.7324356 C9.59780137,11.3866262 10,10.7402824 10,10 C10,8.8954305 9.1045695,8 8,8 C6.8954305,8 6,8.8954305 6,10 C6,10.7402824 6.40219863,11.3866262 7,11.7324356 Z M5,6 L11,6 C11,4.34314575 9.65685425,3 8,3 C6.34314575,3 5,4.34314575 5,6 Z M2,6 C2,2.6862915 4.6862915,0 8,0 C11.3137085,0 14,2.6862915 14,6 L15,6 C15.5522847,6 16,6.44771525 16,7 L16,15 C16,15.5522847 15.5522847,16 15,16 L1,16 C0.44771525,16 6.76353751e-17,15.5522847 0,15 L0,7 C-6.76353751e-17,6.44771525 0.44771525,6 1,6 L2,6 Z" id="Combined-Shape" fill="#272424" fill-rule="nonzero"></path>
                                    </g>
                                </g>
                            </g>
                        </g>
                    </g>
                </g>
            </g>
        </g>
    </g>
</svg>