<?xml version="1.0" encoding="UTF-8"?>
<svg width="62px" height="20px" viewBox="0 0 62 20" version="1.1" xmlns="http://www.w3.org/2000/svg" xmlns:xlink="http://www.w3.org/1999/xlink">
    <!-- Generator: Sketch 56.3 (81716) - https://sketch.com -->
    <title>visa@svg</title>
    <desc>Created with Sketch.</desc>
    <g id="Платежная-страница-v2.0" stroke="none" stroke-width="1" fill="none" fill-rule="evenodd">
        <g id="Artboard" transform="translate(-184.000000, -452.000000)">
            <g id="visa" transform="translate(184.000000, 452.000000)">
                <polygon id="Fill-2" fill="#005197" points="5.25875421 2.94960003 9.66015603 19.3934514 14.769466 19.3934514 22.7185645 0.34916773 17.5364018 0.34916773 12.528719 13.2795687 10.4708827 3.16088969"></polygon>
                <polygon id="Fill-3" fill="#005197" points="24.6544574 0.278459632 21.6017924 19.3935059 26.4288555 19.3935059 29.5508909 0.278459632"></polygon>
                <path d="M43.747634,4.84650761 L44.4565502,0.843434938 C44.4565502,0.843434938 42.3270525,0 39.7729931,0 C37.2165512,0 31.6804802,1.61610734 31.6804802,6.32208783 C31.6804802,11.0309714 38.5653797,11.2417167 38.5653797,13.8399717 C38.5653797,16.4405854 32.3906794,16.1601662 30.5444365,14.4750201 L29.7636757,18.61989 C29.7636757,18.61989 32.5317112,19.6747053 35.0153004,19.6747053 C37.4998977,19.6747053 43.6781719,19.1129596 43.6781719,13.0000749 C43.6781719,7.65732235 36.7920812,8.71231912 36.7920812,5.48037659 C36.7920812,5.48037659 37.4998977,2.2481619 43.747634,4.84650761" id="Fill-4" fill="#005197"></path>
                <path d="M43.391279,19.3934786 L48.7145651,19.3934786 L49.638832,16.6525192 L56.1675322,16.6525192 L56.7114073,19.3691654 L61.3257772,19.3691654 L57.0917991,0.491808663 L52.8325287,0.491808663 C52.8325287,0.491808663 51.2709154,0.667626337 50.5619992,2.52931595 C49.8876308,4.29937716 43.391279,19.3934786 43.391279,19.3934786" id="Fill-6" fill="#005197"></path>
                <polygon id="Fill-8" fill="#FEFEFE" points="55.3878802 12.7178503 51.0570401 12.7178503 53.7557051 5.69058667"></polygon>
                <path d="M11.9894442,10.6319796 L10.470901,3.16090783 C10.470901,3.16090783 10.265264,0.354810589 8.24564097,0.354810589 L0,0.354810589 L0,0.744548837 C0,0.744548837 8.15959233,2.08341221 11.9894442,10.6319796" id="Fill-10" fill="#005197"></path>
            </g>
        </g>
    </g>
</svg>