<?xml version="1.0" encoding="utf-8"?>
<svg width="31px" height="22px" viewBox="0 0 31 22" version="1.1" xmlns:xlink="http://www.w3.org/1999/xlink" xmlns="http://www.w3.org/2000/svg">
  <desc>Created with Lunacy</desc>
  <g id="amex-svgrepo-com">
    <path d="M1.91033 0L28.6554 0C29.71 0 30.5658 0.8558 30.5658 1.91128L30.5658 20.0597C30.5658 21.1142 29.71 21.97 28.6554 21.97L1.91033 21.97C0.854857 21.9701 0 21.1142 0 20.0598L0 1.91128C0 0.8558 0.8558 0 1.91033 0Z" transform="translate(0 0.002619048)" id="Path" fill="#26A6D1" stroke="none" />
    <path d="M0 6.67962L3.0184 0L6.10175 0L6.50289 0.78519L6.50289 0L10.1088 0L10.8996 1.72407L11.6724 0L20.6711 0L21.5833 1.01818L22.5624 0L26.7451 0L23.7172 3.35846L26.7451 6.68821L22.4965 6.67962L21.5547 5.64227L20.5488 6.67962L12.2769 6.67962L12.2769 5.84959L11.9225 6.67962L9.86511 6.67962L9.5107 5.86677L9.5107 6.67962L5.53331 6.67962L5.08535 5.61461L4.06141 5.61461L3.61345 6.67962L0 6.67962ZM3.71758 0.948514L5.47894 0.948514L7.48105 5.478L7.48105 0.948514L9.41055 0.948514L10.9569 4.19613L12.3821 0.948514L14.302 0.948514L14.302 5.74158L13.1338 5.74158L13.1243 1.98576L11.4211 5.74158L10.3761 5.74158L8.6635 1.98576L8.6635 5.74158L6.26026 5.74158L5.80465 4.66704L3.34316 4.66704L2.8885 5.74064L1.60087 5.74064L3.71758 0.948514ZM20.1209 0.948514L15.3708 0.948514L15.3708 5.73875L20.0473 5.73875L21.5547 4.15119L23.0075 5.73875L24.5262 5.73875L22.3188 3.35751L24.5262 0.948514L23.0734 0.948514L21.5737 2.51785L20.1209 0.948514ZM4.57443 1.75948L3.76347 3.67369L5.38445 3.67369L4.57443 1.75948ZM16.5438 2.8159L16.5438 1.94009L19.5077 1.94009L20.801 3.33939L19.4504 4.74634L16.5438 4.74634L16.5438 3.79112L19.1352 3.79112L19.1352 2.8159L16.5438 2.8159Z" transform="translate(1.910333 7.644057)" id="Shape" fill="#FFFFFF" fill-rule="evenodd" stroke="none" />
  </g>
</svg>