<svg xmlns="http://www.w3.org/2000/svg" width="20" height="24" viewBox="0 0 20 24">
    <g fill="#000607" fill-rule="evenodd">
        <path d="M18.869 7.517c-.24.216-.484.43-.722.649-.84.778-1.473 1.684-1.695 2.813-.309 1.564.02 2.998.989 4.284.484.643 1.062 1.176 1.832 1.483.09.036.18.068.291.109-.1.267-.189.53-.296.784-.627 1.486-1.442 2.86-2.554 4.053a6.1 6.1 0 0 1-.68.613c-.812.643-1.722.89-2.747.598-.512-.146-1.019-.31-1.528-.464-.525-.159-1.056-.287-1.61-.3-.686-.015-1.32.186-1.953.414-.481.173-.965.353-1.462.469-.782.182-1.49-.054-2.139-.484-.655-.434-1.172-1.003-1.62-1.63C1.85 19.339.993 17.64.468 15.789c-.467-1.649-.598-3.32-.335-5.012.231-1.493.8-2.84 1.874-3.953C3.12 5.67 4.489 5.196 6.095 5.352c.8.078 1.563.304 2.33.522.318.091.645.16.967.24.462.114.917.062 1.363-.066.63-.18 1.251-.385 1.88-.568.934-.272 1.882-.35 2.846-.167 1.247.237 2.233.894 3.058 1.811.103.115.205.232.306.349.01.01.014.025.024.044"/>
        <path d="M14.18 0c.013.268.052.52.034.77-.097 1.358-.642 2.525-1.6 3.508-.432.444-.91.834-1.5 1.062-.502.194-1.036.236-1.569.274-.008 0-.017-.008-.025-.012C9.594 2.57 11.158.61 14.18 0"/>
    </g>
</svg>
