<?xml version="1.0" encoding="UTF-8"?>
<svg width="16px" height="16px" viewBox="0 0 16 16" version="1.1" xmlns="http://www.w3.org/2000/svg" xmlns:xlink="http://www.w3.org/1999/xlink">
    <g id="Symbols" stroke="none" stroke-width="1" fill="none" fill-rule="evenodd">
        <g id="cvc-selected" fill="#4CAF50">
            <g id="Group-8">
                <g id="Group-53">
                    <path d="M8,16 C3.581722,16 0,12.418278 0,8 C0,3.581722 3.581722,0 8,0 C12.418278,0 16,3.581722 16,8 C16,12.418278 12.418278,16 8,16 Z M7.16135881,9 L8.67940552,9 C8.6864827,8.75040926 8.72363731,8.54433579 8.79087049,8.3817734 C8.85810366,8.21921101 8.97841385,8.06075611 9.15180467,7.90640394 L9.76220807,7.37931034 C10.020525,7.14614005 10.2080674,6.91789931 10.3248408,6.69458128 C10.4416142,6.47126325 10.5,6.22331828 10.5,5.95073892 C10.5,5.32676207 10.2832647,4.8456503 9.84978769,4.50738916 C9.41631064,4.16912803 8.80502872,4 8.01592357,4 C7.22327983,4 6.60757473,4.1830852 6.16878981,4.54926108 C5.73000488,4.91543697 5.50707718,5.42692611 5.5,6.08374384 L7.2940552,6.08374384 C7.30113238,5.83743719 7.37013381,5.64203685 7.50106157,5.49753695 C7.63198933,5.35303704 7.80360828,5.28078818 8.01592357,5.28078818 C8.47594002,5.28078818 8.7059448,5.52873315 8.7059448,6.02463054 C8.7059448,6.22824404 8.637828,6.41461328 8.50159236,6.58374384 C8.36535671,6.75287441 8.16631412,6.93924365 7.9044586,7.14285714 C7.64260308,7.34647064 7.45329145,7.58702653 7.33651805,7.86453202 C7.21974464,8.14203751 7.16135881,8.52052305 7.16135881,9 Z M7,11.5 C7,11.7919147 7.09536447,12.0315572 7.28609626,12.2189349 C7.47682805,12.4063126 7.71479358,12.5 8,12.5 C8.28520642,12.5 8.52317195,12.4063126 8.71390374,12.2189349 C8.90463553,12.0315572 9,11.7919147 9,11.5 C9,11.2080853 8.90463553,10.9684428 8.71390374,10.7810651 C8.52317195,10.5936874 8.28520642,10.5 8,10.5 C7.71479358,10.5 7.47682805,10.5936874 7.28609626,10.7810651 C7.09536447,10.9684428 7,11.2080853 7,11.5 Z" id="Combined-Shape"></path>
                </g>
            </g>
        </g>
    </g>
</svg>