<svg width="16" height="16" viewBox="0 0 16 16" fill="none" xmlns="http://www.w3.org/2000/svg">
<path fill-rule="evenodd" clip-rule="evenodd" d="M16 8C16 12.4183 12.4183 16 8 16C3.58172 16 0 12.4183 0 8C0 3.58172 3.58172 0 8 0C12.4183 0 16 3.58172 16 8ZM7.16136 9C7.16136 8.52052 7.21974 8.14204 7.33652 7.86453C7.45329 7.58703 7.6426 7.34647 7.90446 7.14286C8.16631 6.93924 8.36536 6.75287 8.50159 6.58374C8.63783 6.41461 8.70595 6.22824 8.70595 6.02463C8.70595 5.52873 8.47594 5.28079 8.01592 5.28079C7.80361 5.28079 7.63199 5.35304 7.50106 5.49754C7.37013 5.64204 7.30113 5.83744 7.29405 6.08374H5.5C5.50708 5.42693 5.73 4.91544 6.16879 4.54926C6.60757 4.18309 7.22328 4 8.01592 4C8.80503 4 9.41631 4.16913 9.84979 4.50739C10.2833 4.84565 10.5 5.32676 10.5 5.95074C10.5 6.22332 10.4416 6.47126 10.3248 6.69458C10.2081 6.9179 10.0205 7.14614 9.76221 7.37931L9.1518 7.9064C8.97841 8.06076 8.8581 8.21921 8.79087 8.38177C8.72364 8.54434 8.68648 8.75041 8.67941 9H7.16136ZM7.2861 10.7811C7.09536 10.9684 7 11.2081 7 11.5C7 11.7919 7.09536 12.0316 7.2861 12.2189C7.47683 12.4063 7.71479 12.5 8 12.5C8.28521 12.5 8.52317 12.4063 8.7139 12.2189C8.90464 12.0316 9 11.7919 9 11.5C9 11.2081 8.90464 10.9684 8.7139 10.7811C8.52317 10.5937 8.28521 10.5 8 10.5C7.71479 10.5 7.47683 10.5937 7.2861 10.7811Z" fill="#272424"/>
</svg>
