<?xml version="1.0" encoding="UTF-8"?>
<svg width="49px" height="52px" viewBox="0 0 49 52" version="1.1" xmlns="http://www.w3.org/2000/svg" xmlns:xlink="http://www.w3.org/1999/xlink">
    <!-- Generator: Sketch 56.3 (81716) - https://sketch.com -->
    <title>Failure@svg</title>
    <desc>Created with Sketch.</desc>
    <defs>
        <linearGradient x1="100%" y1="50%" x2="-2.22044605e-14%" y2="50%" id="linearGradient-1">
            <stop stop-color="#EF0E0E" offset="0%"></stop>
            <stop stop-color="#EF980E" offset="100%"></stop>
        </linearGradient>
        <linearGradient x1="50%" y1="-2.48949813e-15%" x2="50%" y2="100%" id="linearGradient-2">
            <stop stop-color="#EF0E0E" offset="0%"></stop>
            <stop stop-color="#EF980E" offset="100%"></stop>
        </linearGradient>
    </defs>
    <g id="Платежная-страница-v2.0" stroke="none" stroke-width="1" fill="none" fill-rule="evenodd">
        <g id="Artboard" transform="translate(-742.000000, -520.000000)">
            <g id="Failure" transform="translate(741.000000, 520.000000)">
                <path d="M36.2601526,0 L45.564176,0 C47.6155194,-8.01754635e-15 49.2784617,1.66294236 49.2784617,3.71428571 C49.2784617,4.39752965 49.0900031,5.06753509 48.733819,5.65059185 L21.5055381,50.2220204 C20.8308837,51.3263984 19.6300393,52 18.3358951,52 L3.32985089,52 C2.30417921,52 1.47270803,51.1685288 1.47270803,50.1428571 C1.47270803,49.7981455 1.56864827,49.4602364 1.74978933,49.166955 L29.9399063,3.52496268 C31.2932103,1.3338583 33.6848137,5.80215258e-15 36.2601526,0 Z" id="Path-12-Copy-2" fill="url(#linearGradient-1)" transform="translate(26.092857, 26.000000) scale(1, -1) translate(-26.092857, -26.000000) "></path>
                <path d="M36.2601526,0 L45.564176,0 C47.6155194,9.55441968e-16 49.2784617,1.66294236 49.2784617,3.71428571 C49.2784617,4.39752965 49.0900031,5.06753509 48.733819,5.65059185 L21.5055381,50.2220204 C20.8308837,51.3263984 19.6300393,52 18.3358951,52 L3.32985089,52 C2.30417921,52 1.47270803,51.1685288 1.47270803,50.1428571 C1.47270803,49.7981455 1.56864827,49.4602364 1.74978933,49.166955 L29.9399063,3.52496268 C31.2932103,1.3338583 33.6848137,-3.59063513e-15 36.2601526,0 Z" id="Path-12" fill="url(#linearGradient-2)"></path>
            </g>
        </g>
    </g>
</svg>