<?xml version="1.0" encoding="UTF-8"?>
<svg width="20px" height="20px" viewBox="0 0 20 20" version="1.1" xmlns="http://www.w3.org/2000/svg" xmlns:xlink="http://www.w3.org/1999/xlink">
    <!-- Generator: Sketch 56.3 (81716) - https://sketch.com -->
    <title>cvc_active@svg</title>
    <desc>Created with Sketch.</desc>
    <g id="Платежная-страница-v2.0" stroke="none" stroke-width="1" fill="none" fill-rule="evenodd">
        <g id="Artboard" transform="translate(-80.000000, -609.000000)" fill="#404040">
            <path d="M90,629 C84.4771525,629 80,624.522847 80,619 C80,613.477153 84.4771525,609 90,609 C95.5228475,609 100,613.477153 100,619 C100,624.522847 95.5228475,629 90,629 Z M88.9516985,620.25 L90.8492569,620.25 C90.8581034,619.938012 90.9045466,619.68042 90.9885881,619.477217 C91.0726296,619.274014 91.2230173,619.075945 91.4397558,618.883005 L92.2027601,618.224138 C92.5256562,617.932675 92.7600842,617.647374 92.906051,617.368227 C93.0520177,617.089079 93.125,616.779148 93.125,616.438424 C93.125,615.658453 92.8540809,615.057063 92.3122346,614.634236 C91.7703883,614.21141 91.0062859,614 90.0199045,614 C89.0290998,614 88.2594684,614.228856 87.7109873,614.686576 C87.1625061,615.144296 86.8838465,615.783658 86.875,616.60468 L89.117569,616.60468 C89.1264155,616.296796 89.2126673,616.052546 89.376327,615.871921 C89.5399867,615.691296 89.7545104,615.600985 90.0199045,615.600985 C90.594925,615.600985 90.882431,615.910916 90.882431,616.530788 C90.882431,616.785305 90.797285,617.018267 90.6269904,617.22968 C90.4566959,617.441093 90.2078926,617.674055 89.8805732,617.928571 C89.5532538,618.183088 89.3166143,618.483783 89.1706476,618.830665 C89.0246808,619.177547 88.9516985,619.650654 88.9516985,620.25 Z M88.75,623.375 C88.75,623.739893 88.8692056,624.039447 89.1076203,624.273669 C89.3460351,624.507891 89.643492,624.625 90,624.625 C90.356508,624.625 90.6539649,624.507891 90.8923797,624.273669 C91.1307944,624.039447 91.25,623.739893 91.25,623.375 C91.25,623.010107 91.1307944,622.710553 90.8923797,622.476331 C90.6539649,622.242109 90.356508,622.125 90,622.125 C89.643492,622.125 89.3460351,622.242109 89.1076203,622.476331 C88.8692056,622.710553 88.75,623.010107 88.75,623.375 Z" id="cvc_active"></path>
        </g>
    </g>
</svg>