<?xml version="1.0" encoding="UTF-8"?>
<svg width="22px" height="23px" viewBox="0 0 22 23" version="1.1" xmlns="http://www.w3.org/2000/svg" xmlns:xlink="http://www.w3.org/1999/xlink">
    <!-- Generator: Sketch 56.3 (81716) - https://sketch.com -->
    <title>lock_rest@svg</title>
    <desc>Created with Sketch.</desc>
    <g id="Платежная-страница-v2.0" stroke="none" stroke-width="1" fill="none" fill-rule="evenodd">
        <g id="Artboard" transform="translate(-38.000000, -572.000000)" fill="#C7C7C7" fill-rule="nonzero">
            <path d="M41.9738571,579 C42.0284124,574.455929 44.4510742,572 48.9973639,572 C53.5435763,572 55.9677065,574.455739 56.0254083,579 L57,579 C58.6568542,579 60,580.343146 60,582 L60,592 C60,593.656854 58.6568542,595 57,595 L41,595 C39.3431458,595 38,593.656854 38,592 L38,582 C38,580.343146 39.3431458,579 41,579 L41.9738571,579 Z M43.9714608,579 L54.0277817,579 C53.9929802,575.548002 52.3951339,574 48.9973639,574 C45.5996744,574 44.0034036,575.547776 43.9714608,579 Z M42.0605727,581 L41,581 C40.4477153,581 40,581.447715 40,582 L40,592 C40,592.552285 40.4477153,593 41,593 L57,593 C57.5522847,593 58,592.552285 58,592 L58,582 C58,581.447715 57.5522847,581 57,581 L55.9401427,581 L42.0605727,581 Z M49,591 C46.790861,591 45,589.209139 45,587 C45,584.790861 46.790861,583 49,583 C51.209139,583 53,584.790861 53,587 C53,589.209139 51.209139,591 49,591 Z M49,589 C50.1045695,589 51,588.104569 51,587 C51,585.895431 50.1045695,585 49,585 C47.8954305,585 47,585.895431 47,587 C47,588.104569 47.8954305,589 49,589 Z" id="lock_rest"></path>
        </g>
    </g>
</svg>