<?xml version="1.0" encoding="UTF-8"?>
<svg width="34px" height="22px" viewBox="0 0 34 22" version="1.1" xmlns="http://www.w3.org/2000/svg" xmlns:xlink="http://www.w3.org/1999/xlink">
    <!-- Generator: Sketch 56.3 (81716) - https://sketch.com -->
    <title>maestro@svg</title>
    <desc>Created with Sketch.</desc>
    <g id="Платежная-страница-v2.0" stroke="none" stroke-width="1" fill="none" fill-rule="evenodd">
        <g id="Artboard" transform="translate(-184.000000, -492.000000)">
            <g id="maestro" transform="translate(184.000000, 492.000000)">
                <path d="M16.8528655,18.3053061 C18.8879088,16.3903129 20.1722649,13.6106667 20.1722649,10.5219048 C20.1722649,7.43336054 18.8879088,4.6534966 16.8528655,2.71804082 C15.0747352,1.02944218 12.7038252,0 10.095845,0 C4.52438396,0 0,4.71531973 0,10.5219048 C0,16.3284898 4.52438396,21.0233469 10.095845,21.0233469 C12.7038252,21.0233469 15.0747352,19.9939048 16.8528655,18.3053061" id="Fill-3" fill="#00A1DE"></path>
                <path d="M16.8528655,18.3053061 C18.8879088,16.3903129 20.1722649,13.6106667 20.1722649,10.5219048 C20.1722649,7.43336054 18.8879088,4.6534966 16.8528655,2.71804082 L16.8528655,18.3053061 Z" id="Fill-5" fill="#00A1DE"></path>
                <path d="M23.6295827,4.35374146e-05 C21.0218114,4.35374146e-05 18.6506925,1.02948571 16.8529282,2.71786667 C16.4974274,3.06812517 16.1613518,3.43862857 15.8453279,3.82981224 L17.8803712,3.82981224 C18.1569182,4.17985306 18.4136224,4.57125442 18.6506925,4.94175782 L15.0747978,4.94175782 C14.8573617,5.31247891 14.6597685,5.68298231 14.4820181,6.0537034 L19.2236293,6.0537034 C19.3817457,6.42442449 19.5398621,6.79492789 19.6582927,7.16564898 L14.0671976,7.16564898 C13.9485581,7.53637007 13.8497615,7.90687347 13.7708078,8.29805714 L19.9546825,8.29805714 C20.092956,8.99813878 20.1721187,9.76004354 20.1721187,10.5219483 C20.1721187,11.6750367 19.9943683,12.8076626 19.6582927,13.8575673 L14.0671976,13.8575673 C14.1856283,14.2282884 14.3239018,14.5987918 14.4820181,14.9697306 L19.2236293,14.9697306 C19.0460878,15.340234 18.8681286,15.7316354 18.6506925,16.0814585 L15.0747978,16.0814585 C15.311868,16.4728599 15.5685721,16.8433633 15.8453279,17.1934041 L17.8803712,17.1934041 C17.5641385,17.5845878 17.2282718,17.9553088 16.8529282,18.3053497 C18.6506925,19.9939483 21.0218114,21.0233905 23.6295827,21.0233905 C29.2012526,21.0233905 33.7057937,16.3285333 33.7057937,10.5219483 C33.7057937,4.71536327 29.2012526,4.35374146e-05 23.6295827,4.35374146e-05" id="Fill-7" fill="#F14947"></path>
            </g>
        </g>
    </g>
</svg>