<?xml version="1.0" encoding="UTF-8"?>
<svg width="20px" height="20px" viewBox="0 0 20 20" version="1.1" xmlns="http://www.w3.org/2000/svg" xmlns:xlink="http://www.w3.org/1999/xlink">
    <!-- Generator: Sketch 56.3 (81716) - https://sketch.com -->
    <title>Mask</title>
    <desc>Created with Sketch.</desc>
    <g id="Платежная-страница-v2.0" stroke="none" stroke-width="1" fill="none" fill-rule="evenodd">
        <g id="[v]-Desktop-Copy" transform="translate(-2385.000000, -308.000000)">
            <g id="Group-11-Copy-6" transform="translate(2336.000000, 100.000000)">
                <g id="Group-10">
                    <g id="Group-4" transform="translate(32.000000, 186.000000)">
                        <g id="Group-17">
                            <g id="Mask" transform="translate(17.000000, 22.000000)">
                                <g id="Group-8">
                                    <g id="Group-53">
                                        <circle id="Oval-2" fill="#F20F0F" cx="10" cy="10" r="10"></circle>
                                        <path d="M10.0797919,10.25 C10.0839014,10.23917 10.088094,10.2286768 10.0923673,10.2185217 C10.1700634,10.0338811 10.2991861,9.8698065 10.4944164,9.71799948 C10.8780587,9.41968707 11.1809512,9.13608018 11.4057633,8.85698581 C11.5512514,8.67636876 11.6649282,8.48107573 11.7447206,8.27452502 C11.682621,8.34102716 11.6120167,8.41023571 11.5327084,8.48182345 L10.7861878,9.12613716 C10.4520612,9.42342371 10.2109113,9.74103088 10.064503,10.0950301 C10.0436093,10.1455487 10.0243316,10.1972018 10.0066247,10.25 L8.95169851,10.25 L8.95169851,11.25 L9.95169851,11.25 C9.95169851,11.2414756 9.95171561,11.2329926 9.9517497,11.2245511 L10.8492569,11.25 L10.8492569,10.25 L10.0797919,10.25 Z M11.5262956,6.30846981 C11.2065375,5.86243993 10.6853725,5.60098522 10.0199045,5.60098522 C9.47873169,5.60098522 8.99328662,5.80534993 8.63527552,6.20047293 C8.59817504,6.24141929 8.56313505,6.2836318 8.53013343,6.32705164 C8.87770382,6.11527207 9.36723184,6 10.0199045,6 C10.6826004,6 11.179373,6.10979523 11.5262956,6.30846981 Z M8.35480502,6.6046798 C8.20551088,6.89340656 8.12816867,7.22141634 8.11798154,7.57595846 L9.117569,7.6046798 L9.117569,6.6046798 L8.35480502,6.6046798 Z M8.19836773,6.6046798 L6.875,6.6046798 L6.875,7.6046798 L7.87494196,7.61545412 C7.87971293,7.17266981 7.98636896,6.85080042 8.19836773,6.6046798 Z" id="?" stroke="#FFFFFF" stroke-width="2"></path>
                                        <path d="M8.75,14.375 C8.75,14.0101067 8.86920558,13.7105534 9.10762032,13.4763314 C9.34603506,13.2421093 9.64349198,13.125 10,13.125 C10.356508,13.125 10.6539649,13.2421093 10.8923797,13.4763314 C11.1307944,13.7105534 11.25,14.0101067 11.25,14.375 C11.25,14.7398933 11.1307944,15.0394466 10.8923797,15.2736686 C10.6539649,15.5078907 10.356508,15.625 10,15.625 C9.64349198,15.625 9.34603506,15.5078907 9.10762032,15.2736686 C8.86920558,15.0394466 8.75,14.7398933 8.75,14.375 Z" id="?" fill="#FFFFFF"></path>
                                    </g>
                                </g>
                            </g>
                        </g>
                    </g>
                </g>
            </g>
        </g>
    </g>
</svg>