<?xml version="1.0" encoding="UTF-8"?>
<svg width="34px" height="20px" viewBox="0 0 34 20" version="1.1" xmlns="http://www.w3.org/2000/svg" xmlns:xlink="http://www.w3.org/1999/xlink">
    <!-- Generator: Sketch 56.3 (81716) - https://sketch.com -->
    <title>mastercard@svg</title>
    <desc>Created with Sketch.</desc>
    <g id="Платежная-страница-v2.0" stroke="none" stroke-width="1" fill="none" fill-rule="evenodd">
        <g id="Artboard" transform="translate(-184.000000, -416.000000)">
            <g id="mastercard" transform="translate(184.000000, 416.000000)">
                <polygon id="Fill-4" fill="#FF5F00" points="12.1481771 17.7329146 21.1520833 17.7329146 21.1520833 2.12349246 12.1481771 2.12349246"></polygon>
                <path d="M12.7198568,9.92819095 C12.7198568,6.75670854 14.2633464,3.94364322 16.6358724,2.12354271 C14.8922526,0.799673367 12.6912109,-7.53768844e-05 10.2901693,-7.53768844e-05 C4.60201823,-7.53768844e-05 6.51041667e-05,4.44 6.51041667e-05,9.92819095 C6.51041667e-05,15.4162563 4.60201823,19.8564573 10.2901693,19.8564573 C12.6912109,19.8564573 14.8922526,19.0567085 16.6358724,17.7328392 C14.2633464,15.9403769 12.7198568,13.099799 12.7198568,9.92819095" id="Fill-6" fill="#FF0015"></path>
                <path d="M33.3002734,9.92819095 C33.3002734,15.4162563 28.6983203,19.8564573 23.0101693,19.8564573 C20.6089974,19.8564573 18.4080859,19.0567085 16.6644661,17.7328392 C19.0655078,15.9127387 20.5804818,13.099799 20.5804818,9.92819095 C20.5804818,6.75670854 19.036862,3.94364322 16.6644661,2.12354271 C18.4080859,0.799673367 20.6089974,-7.53768844e-05 23.0101693,-7.53768844e-05 C28.6983203,-7.53768844e-05 33.3002734,4.46763819 33.3002734,9.92819095" id="Fill-7" fill="#FFA000"></path>
            </g>
        </g>
    </g>
</svg>