<svg xmlns="http://www.w3.org/2000/svg" width="16" height="16" viewBox="0 0 16 16">
    <g fill="none" fill-rule="evenodd">
        <circle cx="8" cy="8" r="7" fill="#272424" stroke="#272424" stroke-width="2"/>
        <g fill="#FFF">
            <path d="M7.701 9.105V12H5.645V3.469h3.404c.652 0 1.23.12 1.731.36.502.24.89.582 1.166 1.025a2.8 2.8 0 0 1 .413 1.51c0 .831-.297 1.496-.893 1.994-.596.498-1.413.747-2.452.747H7.7zm0-1.587H9.05c.398 0 .702-.1.911-.3.209-.198.313-.48.313-.843 0-.398-.107-.717-.322-.955-.215-.238-.508-.36-.879-.363h-1.37v2.46z"/>
            <path d="M4.1 7.5h1.6v1.6H4.1z"/>
        </g>
    </g>
</svg>
