<svg xmlns="http://www.w3.org/2000/svg" width="16" height="16" viewBox="0 0 16 16">
    <path fill="#272424" fill-rule="evenodd" d="M11.48 5.526c.173-.017.347-.026.521-.026C13.334 5.5 14.667 6 16 7v2h-4.29c.187-.463.29-.97.29-1.5 0-.718-.19-1.392-.52-1.974zm-6.96 0A3.982 3.982 0 0 0 4 7.5c0 .53.103 1.037.29 1.5H0V7c1.334-1 2.668-1.5 4.001-1.5.173 0 .346.008.52.025zM4 5a2 2 0 1 1 0-4 2 2 0 0 1 0 4zm8 0a2 2 0 1 1 0-4 2 2 0 0 1 0 4zm-4 5a2.5 2.5 0 1 1 0-5 2.5 2.5 0 0 1 0 5zm-5 2.5c1.668-1.25 3.335-1.875 5.001-1.875 1.667 0 3.333.625 4.999 1.875V15H3v-2.5z"/>
</svg>
