<?xml version="1.0" encoding="UTF-8"?>
<svg width="45px" height="40px" viewBox="0 0 45 40" version="1.1" xmlns="http://www.w3.org/2000/svg" xmlns:xlink="http://www.w3.org/1999/xlink">
    <g id="Page-1" stroke="none" stroke-width="1" fill="none" fill-rule="evenodd">
        <g id="style-3" transform="translate(-1146.000000, -850.000000)" fill="#F15241">
            <g id="Group-12-Copy-5" transform="translate(926.000000, 379.000000)">
                <g id="Group-Copy">
                    <g id="Group-42" transform="translate(16.000000, 110.000000)">
                        <g id="Group-39" transform="translate(0.000000, 327.000000)">
                            <g id="Group-11-Copy-14" transform="translate(184.000000, 23.000000)">
                                <path d="M46.1594296,46.8029857 C45.7710949,46.8029857 45.4559911,47.1212368 45.4559911,47.5096982 C45.4559911,47.903124 45.7710949,48.2172973 46.1594296,48.2172973 C46.5451238,48.2172973 46.8602277,47.903124 46.8602277,47.5096982 C46.8602277,47.1212368 46.5451238,46.8029857 46.1594296,46.8029857 Z M21.8835817,47.4744158 C21.8835817,47.4744158 22.2342448,46.295025 22.2879357,46.1093933 C22.4280601,45.6290912 22.6401831,44.872735 22.6401831,44.872735 L22.6752142,44.872735 C22.6752142,44.872735 22.8695576,45.657459 22.9970074,46.1028332 C23.0464734,46.2765859 23.3807652,47.4744158 23.3807652,47.4744158 L21.8835817,47.4744158 Z M24.0150217,49.6183114 L25.2821265,49.6183114 L23.3677385,43.728272 C23.167762,43.6596575 22.9155029,43.6167512 22.6503931,43.6167512 C22.3595822,43.6167512 22.2574815,43.6562888 22.0295153,43.728272 L20,49.6183114 L21.2141181,49.6183114 C21.2141181,49.6183114 21.3760709,49.1030815 21.5751672,48.4630332 L23.6742166,48.4630332 C23.8618707,49.1020177 24.0150217,49.6183114 24.0150217,49.6183114 Z M65,49.6183114 C65,49.6183114 64.4023589,48.32935 64.2553691,48.0375164 C64.0888393,47.7061452 63.9360404,47.4776072 63.5992841,47.3976455 L63.5992841,47.3784972 C63.8247858,47.3348817 64.0041662,47.1957023 64.1992137,46.7753271 C64.3895083,46.3634623 64.4446074,46.2755221 64.5539256,46.1776533 C64.6632438,46.0781887 64.8107616,46.1163079 64.8107616,46.1163079 L64.8655087,45.350023 C64.708661,45.3289245 64.5338575,45.3282153 64.353421,45.3384986 C64.0552165,45.3569377 63.9004812,45.4402681 63.7571881,45.590972 C63.643117,45.704975 63.564253,45.8757136 63.4672574,46.0741108 C63.3635724,46.2881104 63.2825959,46.4584944 63.1775026,46.6765718 C63.0717052,46.8989043 63.0201267,46.9965959 62.7381176,46.9965959 L62.5524,46.9965959 L62.5524,45.4039218 L61.4491844,45.4039218 L61.4491844,49.6183114 L62.5524,49.6183114 L62.5524,47.8979823 L62.7020303,47.8951456 C63.0150217,47.8951456 63.0692407,47.9720932 63.2362986,48.3071877 C63.4322263,48.7052232 63.8045417,49.6183114 63.8045417,49.6183114 L65,49.6183114 Z M60.4883816,49.6183114 L60.4883816,45.4039218 L59.3888628,45.4039218 L59.3888628,46.9983689 L58.1434104,46.9983689 L58.1434104,45.4039218 L57.0454759,45.4039218 L57.0454759,49.6183114 L58.1434104,49.6183114 L58.1434104,47.8990461 L59.3888628,47.8990461 L59.3888628,49.6183114 L60.4883816,49.6183114 Z M30.2053163,45.367221 L30.2007393,49.3973973 C30.722157,49.6183114 31.2955052,49.7183079 31.8040723,49.7183079 C32.972245,49.7183079 33.5978758,49.1103507 33.5978758,48.1080813 C33.5978758,47.2022623 33.0444197,46.6409347 32.0103861,46.6409347 C31.7468607,46.6409347 31.5931816,46.6765718 31.3053632,46.7462501 L31.3053632,45.367221 L30.2053163,45.367221 Z M32.4606854,48.1596752 C32.4606854,48.5752633 32.3147518,48.8612461 31.7855885,48.8612461 C31.6076165,48.8612461 31.5354418,48.8612461 31.304307,48.7958228 L31.304307,47.5800858 C31.5910691,47.5238821 31.6158902,47.5146626 31.7855885,47.5146626 C32.2904589,47.5146626 32.4606854,47.7621716 32.4606854,48.1596752 Z M56.4698392,49.2142477 C56.177444,48.7706464 56.1031569,48.5077125 56.1031569,47.9492217 L56.1031569,46.8138009 C56.1031569,46.2005248 56.0325666,45.9742917 55.8711419,45.7508954 C55.6472245,45.4340626 55.2770215,45.2996702 54.5885459,45.2996702 C54.105328,45.2996702 53.6287994,45.3519733 53.1753315,45.4673948 L53.3393968,46.2815503 C53.6446426,46.2381121 53.9696045,46.2005248 54.203732,46.2005248 C54.929351,46.2005248 55.012968,46.3077905 55.012968,46.8563526 L55.012968,47.0620191 C54.8515432,47.018049 54.6700505,46.9857806 54.4595118,46.9857806 C53.3605211,46.9857806 52.7808356,47.5263643 52.7808356,48.4187086 C52.7808356,49.2560902 53.4003051,49.7138754 54.1563784,49.7138754 C54.4389156,49.7138754 54.7299026,49.6601539 54.9635019,49.5663629 C55.1038024,49.5050176 55.1650628,49.4697351 55.3470837,49.3484628 C55.4569299,49.5105138 55.6752142,49.6743378 55.7644643,49.7037694 L56.4698392,49.2142477 Z M55.0717639,48.7273856 C54.8283065,48.8131981 54.6700505,48.8321691 54.4797559,48.8321691 C54.0850839,48.8321691 53.8623988,48.675437 53.8623988,48.2692458 C53.8623988,47.8470976 54.1459923,47.703663 54.6895904,47.703663 C54.8210891,47.703663 54.9531158,47.7236977 55.012968,47.7455055 L55.012968,48.0476224 C55.012968,48.3750931 55.0314517,48.588738 55.0717639,48.7273856 Z M44.2404647,49.2142477 C43.9510621,48.7706464 43.8762469,48.5077125 43.8762469,47.9492217 L43.8762469,46.8138009 C43.8762469,46.2005248 43.8046004,45.9742917 43.6431757,45.7508954 C43.4194343,45.4340626 43.0495834,45.2996702 42.3626922,45.2996702 C41.8789461,45.2996702 41.4018894,45.3519733 40.9470133,45.4673948 L41.1103744,46.2815503 C41.4182608,46.2381121 41.7416383,46.2005248 41.9738294,46.2005248 C42.7019129,46.2005248 42.7865861,46.3077905 42.7865861,46.8563526 L42.7865861,47.0620191 C42.6246333,47.018049 42.4420843,46.9857806 42.2311935,46.9857806 C41.1311466,46.9857806 40.5519892,47.5263643 40.5519892,48.4187086 C40.5519892,49.2560902 41.1702265,49.7138754 41.9273559,49.7138754 C42.2098932,49.7138754 42.5029926,49.6601539 42.7355357,49.5663629 C42.8772445,49.5050176 42.9376247,49.4697351 43.1207018,49.3484628 C43.2275555,49.5105138 43.4477761,49.6743378 43.5370262,49.7037694 L44.2404647,49.2142477 Z M42.864922,48.7273856 C42.6225208,48.8131981 42.4632085,48.8321691 42.272914,48.8321691 C41.8794742,48.8321691 41.656085,48.675437 41.656085,48.2692458 C41.656085,47.8470976 41.9382702,47.703663 42.4827485,47.703663 C42.6147753,47.703663 42.7462739,47.7236977 42.8082385,47.7455055 L42.8082385,48.0476224 C42.8082385,48.3750931 42.8253139,48.588738 42.864922,48.7273856 Z M29.3570004,49.6183114 L29.3570004,45.5574625 C28.7530219,45.3769724 28.2888159,45.2996702 27.6829011,45.2996702 C27.0775144,45.2996702 26.6245746,45.3769724 26.0202441,45.5574625 L26.0202441,47.637176 C26.0202441,48.2024042 26.0103861,48.3729655 25.9489497,48.5545193 C25.8896256,48.7147973 25.8082971,48.9080529 25.585436,49.0552108 L25.8861049,49.7037694 C26.7690999,49.4541328 27.1011032,49.0656714 27.1011032,47.8369916 L27.1011032,46.3077905 C27.3931463,46.2648842 27.450886,46.2547782 27.6829011,46.2547782 C27.9170285,46.2547782 27.9664945,46.2648842 28.2564253,46.3077905 L28.2564253,49.6183114 L29.3570004,49.6183114 Z M37.6194109,51 L37.6194109,49.485692 C37.7591832,49.5674267 38.0366154,49.6902947 38.5055745,49.6902947 C39.435923,49.6902947 40.1222861,48.9121308 40.1222861,47.4864721 C40.1222861,45.9514202 39.441028,45.2966561 38.3198568,45.2966561 C38.0357352,45.2966561 37.8494895,45.3257331 37.6194109,45.4351264 L37.6194109,43.6272118 L36.5241169,43.6272118 L36.5241169,45.4351264 C36.292982,45.3257331 36.1083206,45.2966561 35.8231428,45.2966561 C34.7019716,45.2966561 34.0207135,45.9792561 34.0207135,47.512535 C34.0207135,48.9389029 34.6375425,49.6902947 35.6376012,49.6902947 C36.1077925,49.6902947 36.3848727,49.5674267 36.5241169,49.485692 L36.5241169,51 L37.6194109,51 Z M35.1506865,47.512535 C35.1506865,46.6671749 35.4032977,46.220205 35.907816,46.220205 C36.120291,46.220205 36.2611196,46.218432 36.5241169,46.3459097 L36.5241169,48.6718911 C36.2852365,48.750789 36.1738059,48.7616042 35.9602746,48.7616042 C35.3853421,48.7616042 35.1506865,48.2885713 35.1506865,47.512535 Z M38.9933693,47.4864721 C38.9933693,48.2619765 38.6881235,48.7616042 38.1836052,48.7616042 C37.970602,48.7616042 37.8582913,48.750789 37.6194109,48.6718911 L37.6194109,46.3459097 C37.8820561,46.218432 38.0237648,46.220205 38.2362399,46.220205 C38.7416383,46.220205 38.9933693,46.6398709 38.9933693,47.4864721 Z M52.3620467,47.789121 C52.3620467,46.7451863 51.7529633,46.0258856 50.4765286,46.0258856 C50.1645934,46.0258856 49.9470133,46.056381 49.6076165,46.1370519 L49.6049759,44.6339137 C49.8149865,44.6037729 50.1769159,44.5780646 50.5714118,44.5780646 C50.9468959,44.5780646 51.4228964,44.5975675 51.8386926,44.6496933 L51.8675625,43.7788022 C51.396139,43.6718911 50.7071353,43.6064679 50.1744514,43.6064679 C49.6472245,43.6064679 48.8298909,43.7387327 48.441028,43.8444027 L48.4399718,49.4000567 C49.0485272,49.6223893 49.6385988,49.7255771 50.2490905,49.7255771 C51.6374839,49.7255771 52.3620467,48.9835821 52.3620467,47.789121 Z M51.1919376,47.874047 C51.1919376,48.4371476 50.8814106,48.8073473 50.3126394,48.8073473 C50.0871377,48.8073473 49.9015961,48.8080565 49.6076165,48.727031 L49.6076165,47.0221269 C49.7359465,47.0006737 50.0058092,46.9588312 50.3126394,46.9694692 C50.8907405,46.9912769 51.1919376,47.265558 51.1919376,47.874047 Z M42.4875015,14.7227403 L40.4162657,20.9849296 L44.5911278,20.9849296 L42.5137308,14.7227403 L42.4875015,14.7227403 Z M35.2300786,31.3976809 C35.1031569,31.3976809 35,31.5047693 35,31.6370341 L35,34.3002376 C35,34.4332116 35.1031569,34.5395908 35.2300786,34.5395908 L49.7706255,34.5395908 C49.8978993,34.5395908 50.0005281,34.4332116 50.0005281,34.3002376 L50.0005281,31.6370341 C50.0005281,31.5047693 49.8978993,31.3976809 49.7706255,31.3976809 L35.2300786,31.3976809 Z M42.5003521,11 C44.0913625,11 44.5916559,12.1478316 45.0093886,13.2963725 C45.1868325,13.7830573 49.3203263,25.1828304 49.4440793,25.5246622 C49.4782303,25.6196943 49.4560498,25.7776675 49.30906,25.8331619 C49.1625983,25.8891883 47.014963,26.7304706 46.8968431,26.7756817 C46.777843,26.8200064 46.6442319,26.7535194 46.600399,26.6352612 C46.556038,26.5171802 45.6663537,24.0318074 45.5653092,23.7529166 L39.4415562,23.7529166 C39.3405117,24.0318074 38.4414975,26.5214354 38.4003051,26.6352612 C38.3585847,26.7490869 38.2295505,26.8253253 38.1042131,26.7756817 C37.9788757,26.7251516 35.8210304,25.882451 35.6911161,25.8331619 C35.5689473,25.7860005 35.5142002,25.6446935 35.5569769,25.5246622 C35.7087196,25.0971951 39.7793686,13.8811035 39.9870907,13.2963725 C40.3905645,12.1653842 40.9088135,11 42.5003521,11 Z" id="Fill-1"></path>
                            </g>
                        </g>
                    </g>
                </g>
            </g>
        </g>
    </g>
</svg>