<?xml version="1.0" encoding="UTF-8"?>
<svg width="50px" height="40px" viewBox="0 0 50 40" version="1.1" xmlns="http://www.w3.org/2000/svg" xmlns:xlink="http://www.w3.org/1999/xlink">
    <defs>
        <polygon id="path-1" points="0 0.00266094421 49.9047279 0.00266094421 49.9047279 11.6738197 0 11.6738197"></polygon>
        <polygon id="path-3" points="0.159693878 0.0920171674 24.9491497 0.0920171674 24.9491497 25.1151245 0.159693878 25.1151245"></polygon>
    </defs>
    <g id="Page-1" stroke="none" stroke-width="1" fill="none" fill-rule="evenodd">
        <g id="style-3" transform="translate(-1143.000000, -632.000000)">
            <g id="Group-12-Copy-5" transform="translate(926.000000, 379.000000)">
                <g id="Group-Copy">
                    <g id="Group-42" transform="translate(16.000000, 110.000000)">
                        <g id="Group-7" transform="translate(0.000000, 109.000000)">
                            <g id="Group-11-Copy-14" transform="translate(184.000000, 23.000000)">
                                <g id="Group-16" transform="translate(17.000000, 11.000000)">
                                    <g id="Group-8" transform="translate(0.000000, 28.326180)">
                                        <mask id="mask-2" fill="white">
                                            <use xlink:href="#path-1"></use>
                                        </mask>
                                        <g id="Clip-7"></g>
                                        <path d="M18.4397619,8.67321888 C18.3370408,9.77038627 18.0501361,10.0392275 17.1276871,10.1425751 C16.9841497,10.1633476 16.8411224,10.308412 16.8411224,10.4737339 L16.8411224,11.3013734 C16.8411224,11.4665236 16.9841497,11.6117597 17.1276871,11.6117597 C18.9317687,11.6117597 19.8338095,10.7427468 20.0185034,8.59081545 L20.2028571,6.66583691 C20.3258163,5.32094421 20.592483,4.9072103 21.8016667,4.9072103 L23.1344898,4.9072103 L23.1344898,11.2388841 C23.1344898,11.4048927 23.2780272,11.5501288 23.4418027,11.5501288 L24.4259864,11.5501288 C24.5695238,11.5501288 24.7336395,11.4048927 24.7336395,11.2388841 L24.7336395,3.68626609 C24.7336395,3.52094421 24.5695238,3.37587983 24.4259864,3.37587983 L21.7198639,3.37587983 C19.485,3.37587983 18.8290476,4.67974249 18.6446939,6.52128755 L18.4397619,8.67321888 Z M39.9004762,11.3640343 C39.9421429,11.4665236 40.0440136,11.5501288 40.1673129,11.5501288 L40.8848299,11.5501288 C41.0281973,11.5501288 41.1717347,11.4256652 41.1717347,11.26 L41.1717347,3.68626609 C41.1717347,3.52094421 41.0484354,3.37587983 40.8644218,3.37587983 L39.8802381,3.37587983 C39.6958844,3.37587983 39.5727551,3.52094421 39.5727551,3.68626609 L39.5727551,9.00420601 C39.039932,9.5839485 38.0763265,10.0804292 37.3588095,10.0804292 C36.3543878,10.0804292 35.8620408,9.52180258 35.8620408,8.09381974 L35.8620408,3.68626609 C35.8620408,3.52094421 35.7186735,3.37587983 35.5545578,3.37587983 L34.5707143,3.37587983 C34.4065986,3.37587983 34.2634014,3.52094421 34.2634014,3.68626609 L34.2634014,8.61193133 C34.2634014,10.4117597 35.2266667,11.6739056 37.0921429,11.6739056 C38.2404422,11.6739056 39.2452041,11.053133 39.7372109,10.61897 L39.9004762,11.3640343 Z M14.6292177,11.3640343 C14.6703741,11.4665236 14.7729252,11.5501288 14.8955442,11.5501288 L15.6134014,11.5501288 C15.7569388,11.5501288 15.9003061,11.4256652 15.9003061,11.26 L15.9003061,3.68626609 C15.9003061,3.52094421 15.777517,3.37587983 15.5931633,3.37587983 L14.6089796,3.37587983 C14.4242857,3.37587983 14.3013265,3.52094421 14.3013265,3.68626609 L14.3013265,9.00420601 C13.7685034,9.5839485 12.804898,10.0804292 12.087381,10.0804292 C11.082619,10.0804292 10.5907823,9.52180258 10.5907823,8.09381974 L10.5907823,3.68626609 C10.5907823,3.52094421 10.4472449,3.37587983 10.2834694,3.37587983 L9.29928571,3.37587983 C9.13517007,3.37587983 8.99163265,3.52094421 8.99163265,3.68626609 L8.99163265,8.61193133 C8.99163265,10.4117597 9.9552381,11.6739056 11.8210544,11.6739056 C12.9690136,11.6739056 13.9734354,11.053133 14.4654422,10.61897 L14.6292177,11.3640343 Z M27.8698639,8.90120172 C27.8698639,8.32145923 27.9722449,7.7216309 29.1613605,7.61811159 L30.9446939,7.4527897 L30.9652721,9.62515021 C30.3912925,9.97725322 29.939932,10.1633476 29.2429932,10.1633476 C28.5668027,10.1633476 27.8698639,9.89467811 27.8698639,8.90120172 Z M27.0295578,3.52094421 C26.9268367,3.5623176 26.8455442,3.68626609 26.8455442,3.78961373 L26.8455442,4.72111588 C26.8455442,4.80351931 26.9065986,4.9072103 26.9678231,4.94841202 C27.0497959,4.98961373 27.1317687,5.01072961 27.2139116,4.98961373 C27.7676531,4.80351931 28.4026871,4.61742489 29.4482653,4.61742489 C30.7397619,4.61742489 30.9652721,5.01072961 30.9652721,5.94154506 L30.9652721,6.10755365 L29.1819388,6.23150215 C26.3120408,6.4383691 26.1681633,8.32145923 26.1681633,8.90120172 C26.1681633,10.61897 27.0703741,11.6739056 29.222415,11.6739056 C29.8994558,11.6739056 30.6581293,11.4665236 31.3140816,11.053133 L31.457619,11.3640343 C31.4984354,11.4665236 31.6014966,11.5501288 31.7239456,11.5501288 L32.3188435,11.5501288 C32.4617007,11.5501288 32.6059184,11.4256652 32.6059184,11.26 L32.6059184,5.96266094 C32.6059184,4.01759657 31.5805782,3.08609442 29.4482653,3.08609442 C28.5462245,3.08609442 27.664932,3.25175966 27.0295578,3.52094421 Z M3.77173469,5.61055794 C5.2685034,5.61055794 6.10914966,6.4383691 6.10914966,7.84575107 C6.10914966,9.25296137 5.2685034,10.0187983 3.77173469,10.0187983 L3.2392517,10.0187983 C2.11153061,10.0187983 1.66085034,9.54257511 1.66085034,8.25982833 L1.66085034,5.61055794 L3.77173469,5.61055794 Z M0.307619048,0.00266094421 C0.143503401,0.00266094421 -3.40136054e-05,0.147553648 -3.40136054e-05,0.313218884 L-3.40136054e-05,8.09381974 C-3.40136054e-05,10.1841202 0.656428571,11.5705579 3.2392517,11.5705579 L3.54656463,11.5705579 C7.23653061,11.5705579 7.78993197,9.10772532 7.78993197,7.84575107 C7.78993197,6.72849785 7.38006803,4.07922747 3.71068027,4.07922747 L1.66085034,4.07922747 L1.66085034,1.55476395 L6.39656463,1.55476395 C6.56017007,1.55476395 6.70370748,1.41021459 6.70370748,1.24472103 L6.70370748,0.313218884 C6.70370748,0.147553648 6.56017007,0.00266094421 6.39656463,0.00266094421 L0.307619048,0.00266094421 Z M40.8236054,0.00266094421 C41.0079592,0.00266094421 41.1514966,0.147553648 41.1514966,0.313218884 L41.1514966,1.24472103 C41.1514966,1.41021459 41.0079592,1.55476395 40.8236054,1.55476395 L34.5707143,1.55476395 C34.4065986,1.55476395 34.2634014,1.41021459 34.2634014,1.24472103 L34.2634014,0.313218884 C34.2634014,0.147553648 34.4065986,0.00266094421 34.5707143,0.00266094421 L40.8236054,0.00266094421 Z M48.6135714,3.37587983 C48.4494558,3.37587983 48.3062585,3.52094421 48.3062585,3.68626609 L48.3062585,6.62480687 L44.6361905,6.62480687 L44.6361905,3.68626609 C44.6361905,3.52094421 44.4926531,3.37587983 44.3287075,3.37587983 L43.3241156,3.37587983 C43.16,3.37587983 43.0372109,3.52094421 43.0372109,3.68626609 L43.0372109,11.2388841 C43.0372109,11.4048927 43.16,11.5501288 43.3241156,11.5501288 L44.3287075,11.5501288 C44.4926531,11.5501288 44.6361905,11.4048927 44.6361905,11.2388841 L44.6361905,8.09381974 L48.3062585,8.09381974 L48.3062585,11.2388841 C48.3062585,11.4048927 48.4494558,11.5501288 48.6135714,11.5501288 L49.6179932,11.5501288 C49.7611905,11.5501288 49.9047279,11.4048927 49.9047279,11.2388841 L49.9047279,3.68626609 C49.9047279,3.52094421 49.7611905,3.37587983 49.6179932,3.37587983 L48.6135714,3.37587983 Z" id="Fill-6" fill="#291900" mask="url(#mask-2)"></path>
                                    </g>
                                    <g id="Group-67" transform="translate(12.000000, 0.000000)">
                                        <path d="M24.8546088,12.6041888 C24.8546088,19.3245322 19.4588605,24.7727725 12.8010374,24.7727725 C6.14151361,24.7727725 0.744064626,19.3245322 0.744064626,12.6041888 C0.744064626,5.88264378 6.14151361,0.43423176 12.8010374,0.43423176 C19.4588605,0.43423176 24.8546088,5.88264378 24.8546088,12.6041888" id="Fill-9" fill="#FEB340"></path>
                                        <path d="M3.66386054,20.5436052 C5.8747449,23.133133 9.14855442,24.7727897 12.8011054,24.7727897 C16.4509354,24.7727897 19.7223639,23.1355365 21.9329082,20.5490987 C21.1682823,20.6567382 18.7327381,20.9116738 12.8070578,20.9116738 C6.71505102,20.9116738 4.35977891,20.6467811 3.66386054,20.5436052" id="Fill-11" fill="#291900"></path>
                                        <path d="M24.5553231,15.3164464 C24.752602,14.4446867 24.8546429,13.5365322 24.8546429,12.6041717 C24.8546429,11.5413391 24.7214796,10.5114678 24.4682483,9.52829185 C23.2735204,9.50048069 19.5194388,9.42442918 12.857534,9.42442918 C6.12386054,9.42442918 2.30430272,9.50116738 1.13304422,9.53103863 C0.878622449,10.5114678 0.744098639,11.5416824 0.744098639,12.6041717 C0.744098639,13.5488927 0.851751701,14.4680343 1.05345238,15.3502661 C2.48440476,15.3743004 8.11654762,15.4606524 12.9604252,15.4606524 C17.8745408,15.4606524 23.2968197,15.3440858 24.5553231,15.3164464" id="Fill-13" fill="#291900"></path>
                                        <path d="M21.8305782,4.54290129 C19.622415,2.02324464 16.3957143,0.43423176 12.8009864,0.43423176 C9.20268707,0.43423176 5.97241497,2.02684979 3.76391156,4.5487382 C4.57734694,4.43800858 7.00540816,4.19577682 12.7797279,4.19577682 C18.514932,4.19577682 20.9686735,4.42856652 21.8305782,4.54290129" id="Fill-15" fill="#291900"></path>
                                        <g id="Group-19" transform="translate(0.244898, 0.000000)">
                                            <mask id="mask-4" fill="white">
                                                <use xlink:href="#path-3"></use>
                                            </mask>
                                            <g id="Clip-18"></g>
                                            <path d="M12.5564626,0.0919484979 C5.70884354,0.0919484979 0.159693878,5.69366524 0.159693878,12.6042232 C0.159693878,19.5137511 5.70884354,25.1151245 12.5564626,25.1151245 C19.4013605,25.1151245 24.9491497,19.5137511 24.9491497,12.6042232 C24.9491497,5.69366524 19.4013605,0.0919484979 12.5564626,0.0919484979 M24.6066327,12.6043948 C24.6066327,19.3230215 19.2120748,24.7695451 12.5561224,24.7695451 C5.89829932,24.7695451 0.50255102,19.3230215 0.50255102,12.6043948 C0.50255102,5.8847382 5.89829932,0.437871245 12.5561224,0.437871245 C19.2120748,0.437871245 24.6066327,5.8847382 24.6066327,12.6043948" id="Fill-17" fill="#291900" mask="url(#mask-4)"></path>
                                        </g>
                                    </g>
                                </g>
                            </g>
                        </g>
                    </g>
                </g>
            </g>
        </g>
    </g>
</svg>