<?xml version="1.0" encoding="UTF-8"?>
<svg width="48px" height="34px" viewBox="0 0 48 34" version="1.1" xmlns="http://www.w3.org/2000/svg" xmlns:xlink="http://www.w3.org/1999/xlink">
    <defs>
        <linearGradient x1="0%" y1="0%" x2="100%" y2="100%" id="linearGradient-1">
            <stop stop-color="#EBEBEB" offset="0%"></stop>
            <stop stop-color="#D9D9D9" offset="100%"></stop>
        </linearGradient>
        <rect id="path-2" x="0" y="0" width="46" height="32" rx="2"></rect>
    </defs>
    <g id="Symbols" stroke="none" stroke-width="1" fill="none" fill-rule="evenodd">
        <g id="Group-2" transform="translate(1.000000, 1.000000)">
            <g id="Oval">
                <mask id="mask-3" fill="white">
                    <use xlink:href="#path-2"></use>
                </mask>
                <rect stroke="#D8D8D8" x="-0.5" y="-0.5" width="47" height="33" rx="2"></rect>
                <circle fill="#FFFFFF" opacity="0.400000006" mask="url(#mask-3)" cx="43.5" cy="43.5" r="43.5"></circle>
            </g>
            <g id="Group" transform="translate(30.000000, 21.000000)">
                <polygon id="Fill-4" fill="#FF5F00" points="4.85927083 7.09316583 8.46083333 7.09316583 8.46083333 0.849396985 4.85927083 0.849396985"></polygon>
                <path d="M5.08794271,3.97127638 C5.08794271,2.70268342 5.70533854,1.57745729 6.65434896,0.849417085 C5.95690104,0.319869347 5.07648437,-3.01507538e-05 4.11606771,-3.01507538e-05 C1.84080729,-3.01507538e-05 2.60416667e-05,1.776 2.60416667e-05,3.97127638 C2.60416667e-05,6.16650251 1.84080729,7.94258291 4.11606771,7.94258291 C5.07648437,7.94258291 5.95690104,7.62268342 6.65434896,7.09313568 C5.70533854,6.37615075 5.08794271,5.2399196 5.08794271,3.97127638" id="Fill-6" fill="#FF0015"></path>
                <path d="M13.3201094,3.97127638 C13.3201094,6.16650251 11.4793281,7.94258291 9.20406771,7.94258291 C8.24359896,7.94258291 7.36323438,7.62268342 6.66578646,7.09313568 C7.62620312,6.36509548 8.23219271,5.2399196 8.23219271,3.97127638 C8.23219271,2.70268342 7.61474479,1.57745729 6.66578646,0.849417085 C7.36323438,0.319869347 8.24359896,-3.01507538e-05 9.20406771,-3.01507538e-05 C11.4793281,-3.01507538e-05 13.3201094,1.78705528 13.3201094,3.97127638" id="Fill-7" fill="#FFA000"></path>
            </g>
            <rect id="Rectangle-Copy" fill="#FFC400" x="6" y="8" width="10" height="8" rx="1.33333333"></rect>
            <g id="Group-5" transform="translate(6.000000, 23.000000)" fill="#999999">
                <rect id="Rectangle-Copy-2" x="2.84217094e-14" y="0" width="16" height="2"></rect>
                <rect id="Rectangle-Copy-3" x="2.84217094e-14" y="3" width="6" height="2"></rect>
            </g>
        </g>
    </g>
</svg>