<?xml version="1.0" encoding="UTF-8"?>
<svg width="40px" height="40px" viewBox="0 0 40 40" version="1.1" xmlns="http://www.w3.org/2000/svg" xmlns:xlink="http://www.w3.org/1999/xlink">
    <title>dash-seeklogo.com</title>
    <g id="Page-1" stroke="none" stroke-width="1" fill="none" fill-rule="evenodd">
        <g id="style-3" transform="translate(-1148.000000, -959.000000)" fill-rule="nonzero">
            <g id="Group-12-Copy-5" transform="translate(926.000000, 379.000000)">
                <g id="Group-Copy">
                    <g id="Group-42" transform="translate(16.000000, 110.000000)">
                        <g id="Group-40" transform="translate(0.000000, 436.000000)">
                            <g id="Group-11-Copy-17" transform="translate(184.000000, 23.000000)">
                                <g id="dash-seeklogo.com" transform="translate(22.000000, 11.000000)">
                                    <circle id="Oval" fill="#2573C2" cx="20" cy="20" r="20"></circle>
                                    <g id="Group" transform="translate(6.900000, 12.280000)" fill="#FFFFFF">
                                        <path d="M26.152,2.456 C26.1251506,2.00781958 25.9936338,1.57217004 25.768,1.184 C25.568,0.784 25.212,0.472 24.796,0.312 C24.3717671,0.100575227 23.9017762,-0.00249295327 23.428,0.012 L5.676,0.012 L4.404,3.824 L20.488,3.824 L17.948,11.616 L1.868,11.616 L0.596,15.428 L18.432,15.428 C18.9634567,15.412617 19.4889193,15.3113067 19.988,15.128 C20.488,14.844 21.06,14.556 21.544,14.156 C22.0165257,13.7834738 22.4434738,13.3565257 22.816,12.884 C23.1239406,12.4210215 23.3864904,11.9294103 23.6,11.416 L25.956,4.008 C26.1703343,3.52058648 26.2384279,2.98139637 26.152,2.456 Z" id="Shape"></path>
                                        <polygon id="Shape" points="10.744 5.952 1.28 5.952 0.008 9.476 9.568 9.476"></polygon>
                                    </g>
                                </g>
                            </g>
                        </g>
                    </g>
                </g>
            </g>
        </g>
    </g>
</svg>