<?xml version="1.0" encoding="UTF-8"?>
<svg width="56px" height="40px" viewBox="0 0 56 40" version="1.1" xmlns="http://www.w3.org/2000/svg" xmlns:xlink="http://www.w3.org/1999/xlink">
    <defs>
        <polygon id="path-1" points="0.0353043478 0.0263850932 4.26083835 0.0263850932 4.26083835 5.34161491 0.0353043478 5.34161491"></polygon>
    </defs>
    <g id="Page-1" stroke="none" stroke-width="1" fill="none" fill-rule="evenodd">
        <g id="style-3" transform="translate(-1232.000000, -959.000000)">
            <g id="Group-12-Copy-5" transform="translate(926.000000, 379.000000)">
                <g id="Group-Copy">
                    <g id="Group-42" transform="translate(16.000000, 110.000000)">
                        <g id="Group-40" transform="translate(0.000000, 436.000000)">
                            <g id="Group-11-Copy-16" transform="translate(276.000000, 23.000000)">
                                <g id="Group-35" transform="translate(14.000000, 11.000000)">
                                    <polygon id="Fill-1" fill="#2E2F2F" points="27.9717128 21.2291491 27.9717128 28.3197081 36.7203237 16.0942422"></polygon>
                                    <polygon id="Fill-2" fill="#010202" points="27.9717128 10.4877205 27.9717128 19.5889006 36.720074 14.4404534"></polygon>
                                    <polygon id="Fill-3" fill="#2E2F2F" points="27.9717191 0 27.9717191 10.487764 36.7200803 14.4404348"></polygon>
                                    <polygon id="Fill-4" fill="#818283" points="27.9718939 21.2291491 27.9718939 28.3197081 19.2233454 16.0942422"></polygon>
                                    <polygon id="Fill-5" fill="#343534" points="27.9718939 10.4877205 27.9718939 19.5889006 19.2235327 14.4404534"></polygon>
                                    <polygon id="Fill-6" fill="#818283" points="27.9718876 0 19.2235264 14.4404348 27.9718876 10.487764"></polygon>
                                    <g id="Group-24" transform="translate(0.000000, 30.221919)">
                                        <path d="M2.51059799,4.70876398 C1.93692575,4.71298758 1.5087786,4.96460248 1.14100156,5.28696273 C0.773037235,5.60919876 0.521380602,6.2188882 0.460698328,6.78298758 L4.55662698,6.78298758 C4.52278974,6.2188882 4.25221672,5.6936087 3.92071171,5.34149689 C3.59445084,4.99485093 3.25545418,4.70323602 2.51059799,4.70876398 Z M0.440658194,7.19596894 C0.497657079,8.11988199 1.25799599,9.27267702 2.54412308,9.27472671 C3.42258016,9.27609317 3.9534252,8.871 4.32707068,8.35149689 C4.39343411,8.25932298 4.53739844,8.24404348 4.63585106,8.30124845 L4.63653779,8.30168323 C4.68891683,8.3320559 4.72625017,8.38261491 4.73979755,8.44137267 C4.75334493,8.50013043 4.74179532,8.56180745 4.70808294,8.61193168 C4.36652664,9.11882609 3.64033712,9.76460248 2.51059799,9.71131056 C1.68046198,9.71131056 1.07320223,9.2778323 0.632381717,8.80298758 C0.274718395,8.41777019 2.49721293e-05,7.76659006 2.49721293e-05,6.981 C2.49721293e-05,6.20895031 0.234450836,5.58454037 0.703614716,5.10770807 C1.1725913,4.631 1.73440178,4.28516149 2.51059799,4.28516149 C3.28660691,4.28516149 3.8531621,4.57646584 4.29941405,5.05261491 C4.87514649,5.66696273 5.03103501,6.29981988 5.05400936,6.96851553 C5.05600713,7.02808075 5.03365708,7.08584472 4.99207848,7.12876398 C4.95043746,7.17162112 4.89306399,7.19596894 4.83319331,7.19596894 L0.440658194,7.19596894 Z" id="Fill-7" fill="#231F20"></path>
                                        <path d="M22.7861565,4.70876398 C22.2124843,4.71298758 21.7843371,4.96460248 21.4165601,5.28696273 C21.0485958,5.60919876 20.7969391,6.2188882 20.7362569,6.78298758 L24.8321855,6.78298758 C24.7983483,6.2188882 24.5277753,5.6936087 24.1962702,5.34149689 C23.8700094,4.99485093 23.5310127,4.70323602 22.7861565,4.70876398 Z M20.7162167,7.19596894 C20.7732156,8.11988199 21.5335545,9.27267702 22.8196816,9.27472671 C23.6981387,9.27609317 24.2289837,8.871 24.6026292,8.35149689 C24.6689926,8.25932298 24.812957,8.24404348 24.9114096,8.30124845 L24.9120963,8.30168323 C24.9644754,8.3320559 25.0018087,8.38261491 25.0153561,8.44137267 C25.0289035,8.50013043 25.0173538,8.56180745 24.9836415,8.61193168 C24.6420852,9.11882609 23.9158957,9.76460248 22.7861565,9.71131056 C21.9560205,9.71131056 21.3487608,9.2778323 20.9079402,8.80298758 C20.5502769,8.41777019 20.2755835,7.76659006 20.2755835,6.981 C20.2755835,6.20895031 20.5100094,5.58454037 20.9791732,5.10770807 C21.4481498,4.631 22.0099603,4.28516149 22.7861565,4.28516149 C23.5621654,4.28516149 24.1287206,4.57646584 24.5749726,5.05261491 C25.150705,5.66696273 25.3065935,6.29981988 25.3295679,6.96851553 C25.3315657,7.02808075 25.3092156,7.08584472 25.267637,7.12876398 C25.225996,7.17162112 25.1686225,7.19596894 25.1087518,7.19596894 L20.7162167,7.19596894 Z" id="Fill-9" fill="#231F20"></path>
                                        <path d="M35.3339148,4.70876398 C34.7602426,4.71298758 34.3320954,4.96460248 33.9643808,5.28696273 C33.5963541,5.60919876 33.3446974,6.2188882 33.2839527,6.78298758 L37.3799438,6.78298758 C37.3460441,6.2188882 37.0754711,5.6936087 36.7439661,5.34149689 C36.4177677,4.99485093 36.0787086,4.70323602 35.3339148,4.70876398 Z M33.263975,7.19596894 C33.3210363,8.11988199 34.0813128,9.27267702 35.3674399,9.27472671 C36.245897,9.27609317 36.776742,8.871 37.1503875,8.35149689 C37.2167509,8.25932298 37.3607153,8.24404348 37.4591679,8.30124845 L37.4598546,8.30168323 C37.5122337,8.3320559 37.549567,8.38261491 37.5631144,8.44137267 C37.5766618,8.50013043 37.5651122,8.56180745 37.5313373,8.61193168 C37.1899059,9.11882609 36.463654,9.76460248 35.3339148,9.71131056 C34.5037788,9.71131056 33.8965191,9.2778323 33.4556361,8.80298758 C33.0980352,8.41777019 32.8232794,7.76659006 32.8232794,6.981 C32.8232794,6.20895031 33.0577677,5.58454037 33.5269315,5.10770807 C33.9959081,4.631 34.5577186,4.28516149 35.3339148,4.28516149 C36.1099237,4.28516149 36.6765414,4.57646584 37.1226685,5.05261491 C37.6984633,5.66702484 37.8543518,6.2999441 37.8772638,6.96863975 C37.879324,7.02826708 37.8569739,7.08609317 37.8152705,7.12895031 C37.7736294,7.17180745 37.716256,7.19596894 37.6563229,7.19596894 L33.263975,7.19596894 Z" id="Fill-11" fill="#231F20"></path>
                                        <path d="M9.1627175,4.80078261 L9.1627175,9.43575155 C9.1627175,9.54773913 9.07063278,9.63929193 8.95813333,9.63929193 L8.95782118,9.63929193 C8.84532174,9.63929193 8.75323701,9.54773913 8.75323701,9.43575155 L8.75323701,4.80078261 L7.58285574,4.80078261 C7.47378997,4.80078261 7.38457703,4.71202484 7.38457703,4.60351553 C7.38457703,4.49500621 7.47378997,4.40624845 7.58285574,4.40624845 L8.75323701,4.40624845 L8.75323701,2.68991304 C8.75323701,2.57668323 8.84632062,2.48407453 8.96006867,2.48407453 L8.9644388,2.48407453 C9.07350457,2.48407453 9.1627175,2.5728323 9.1627175,2.68134161 L9.1627175,4.40624845 L10.3702448,4.40624845 C10.4793106,4.40624845 10.5685235,4.49500621 10.5685235,4.60351553 C10.5685235,4.71202484 10.4793106,4.80078261 10.3702448,4.80078261 L9.1627175,4.80078261 Z" id="Fill-13" fill="#231F20"></path>
                                        <path d="M15.7598172,4.34791925 C14.9461628,4.23630435 14.175835,4.50568323 13.6449275,5.37829193 L13.6449275,0.234627329 C13.6449275,0.126118012 13.5556522,0.0374223602 13.4466488,0.0374223602 L13.4422787,0.0374223602 C13.3285307,0.0374223602 13.2353846,0.130031056 13.2353846,0.243198758 L13.2353846,9.43574534 C13.2353846,9.54773292 13.3274693,9.63928571 13.4400312,9.63928571 L13.4402809,9.63928571 C13.5528428,9.63928571 13.6449275,9.54773292 13.6449275,9.43574534 L13.6449275,6.32860248 C13.6449275,5.45804348 14.7533155,4.52121118 15.758631,4.745 C16.406845,4.88928571 17.0538105,5.52810559 17.0514381,6.55145963 L17.0514381,9.43574534 C17.0514381,9.54773292 17.1435229,9.63928571 17.2560847,9.63928571 L17.2563344,9.63928571 C17.3688963,9.63928571 17.460981,9.54773292 17.460981,9.43574534 L17.460981,6.56046584 C17.519728,5.68381988 16.9117815,4.50593168 15.7598172,4.34791925" id="Fill-15" fill="#231F20"></path>
                                        <g id="Group-19" transform="translate(40.642140, 4.409938)">
                                            <mask id="mask-2" fill="white">
                                                <use xlink:href="#path-1"></use>
                                            </mask>
                                            <g id="Clip-18"></g>
                                            <path d="M1.7364058,5.31775155 C2.5500602,5.42936646 3.32045039,5.15998758 3.851233,4.28737888 L3.851233,5.02700621 C3.851233,5.13551553 3.94050836,5.22427329 4.04951171,5.22427329 L4.05388183,5.22427329 C4.16762988,5.22427329 4.26083835,5.1316646 4.26083835,5.01849689 L4.26083835,0.229925466 C4.26083835,0.117937888 4.16875362,0.0263850932 4.05619175,0.0263850932 L4.05594203,0.0263850932 C3.94344259,0.0263850932 3.85135786,0.117937888 3.85135786,0.229925466 L3.87608027,2.76731677 C3.87608027,4.08439752 2.84367001,5.13880745 1.76237681,4.91029814 C1.11260201,4.77303106 0.442412486,4.13756522 0.444784838,3.11421118 L0.444784838,0.229925466 C0.444784838,0.117937888 0.352700111,0.0263850932 0.240138239,0.0263850932 L0.239888517,0.0263850932 C0.127389075,0.0263850932 0.0353043478,0.117937888 0.0353043478,0.229925466 L0.0353043478,3.10520497 C0.0353043478,4.1811677 0.584503902,5.15973913 1.7364058,5.31775155" id="Fill-17" fill="#231F20" mask="url(#mask-2)"></path>
                                        </g>
                                        <path d="M54.2385971,4.34791925 C53.4403006,4.23841615 52.4334867,4.5818323 52.0128312,5.70481366 C51.7679795,5.05586957 51.2158457,4.45736025 50.4180486,4.34791925 C49.6044566,4.23630435 48.8266372,4.48276398 48.2959171,5.35537267 L48.2959171,4.61574534 C48.2959171,4.50717391 48.2066417,4.41847826 48.0976384,4.41847826 L48.0932058,4.41847826 C47.9794577,4.41847826 47.8863117,4.51108696 47.8863117,4.62425466 L47.8863117,9.41282609 C47.8863117,9.52481366 47.9783964,9.61636646 48.0908959,9.61636646 L48.0911456,9.61636646 C48.2037075,9.61636646 48.2957922,9.52481366 48.2957922,9.41282609 L48.2710074,6.87537267 C48.2710074,5.55835404 49.310722,4.52686335 50.3922025,4.75537267 C51.0171924,4.88742236 51.6607866,5.48071429 51.7067353,6.43661491 L51.7067353,9.41282609 C51.7067353,9.42015528 51.7087331,9.4271118 51.7096696,9.43431677 L51.7096696,9.43574534 C51.7096696,9.54773292 51.8341556,9.63928571 51.9467175,9.63928571 L51.9470921,9.63928571 C52.059654,9.63928571 52.1516763,9.54773292 52.1516763,9.43574534 L52.1516763,8.74114907 C52.1534243,8.28531056 52.1553596,7.68375776 52.1553596,7.22059006 C52.1553596,5.79785714 52.7998903,4.53798137 54.2126261,4.75537267 C54.8691434,4.85636646 55.5325904,5.52810559 55.5302181,6.55145963 L55.5302181,9.43574534 C55.5302181,9.54773292 55.6223028,9.63928571 55.7348647,9.63928571 L55.7351144,9.63928571 C55.8476138,9.63928571 55.9396986,9.54773292 55.9396986,9.43574534 L55.9396986,6.56046584 C55.9984455,5.68381988 55.390499,4.50593168 54.2385971,4.34791925" id="Fill-20" fill="#231F20"></path>
                                        <path d="M30.6954167,4.63349068 C30.6954167,4.57193789 30.6675104,4.51367702 30.6195639,4.47485714 C30.571555,4.43609938 30.5098114,4.432 30.4478805,4.4335528 C29.6046965,4.45467081 28.8084602,5.13908075 28.6035014,5.66181366 L28.6035014,4.59970186 C28.6035014,4.49119255 28.5142261,4.40243478 28.4052227,4.40243478 L28.4008526,4.40243478 C28.2871046,4.40243478 28.1939585,4.49504348 28.1939585,4.60827329 L28.1939585,9.39678261 C28.1939585,9.50877019 28.2859808,9.60038509 28.3985427,9.60038509 L28.3989173,9.60038509 C28.5114792,9.60038509 28.6035014,9.50877019 28.6035014,9.39678261 L28.6165494,6.99982609 C28.6165494,5.85038509 29.5073052,4.87504348 30.5372807,4.82628571 C30.6306765,4.82181366 30.6954167,4.72827329 30.6954167,4.6351677 L30.6954167,4.63349068 Z" id="Fill-22" fill="#231F20"></path>
                                    </g>
                                </g>
                            </g>
                        </g>
                    </g>
                </g>
            </g>
        </g>
    </g>
</svg>