<?xml version="1.0" encoding="UTF-8"?>
<svg width="60px" height="37px" viewBox="0 0 60 37" version="1.1" xmlns="http://www.w3.org/2000/svg" xmlns:xlink="http://www.w3.org/1999/xlink">
    <g id="Page-1" stroke="none" stroke-width="1" fill="none" fill-rule="evenodd">
        <g id="style-3" transform="translate(-1138.000000, -525.000000)">
            <g id="Group-12-Copy-5" transform="translate(926.000000, 379.000000)">
                <g id="Group-Copy">
                    <g id="Group-42" transform="translate(16.000000, 110.000000)">
                        <g id="Group-6">
                            <g id="Group-11-Copy-14" transform="translate(184.000000, 23.000000)">
                                <g id="Group-22" transform="translate(12.000000, 13.000000)">
                                    <g id="Group-41">
                                        <path d="M29.9608464,31.899265 C33.5520992,28.5996566 35.81861,23.8102171 35.81861,18.4881592 C35.81861,13.1664764 33.5520992,8.37666181 29.9608464,5.0417956 C26.8229693,2.13227392 22.6390105,0.358504682 18.0366925,0.358504682 C8.20470246,0.358504682 0.220495481,8.48318549 0.220495481,18.4881592 C0.220495481,28.4931329 8.20470246,36.5825559 18.0366925,36.5825559 C22.6390105,36.5825559 26.8229693,34.8087867 29.9608464,31.899265" id="Fill-3" fill="#00A1DE"></path>
                                        <path d="M29.9608464,31.899265 C33.5520992,28.5996566 35.81861,23.8102171 35.81861,18.4881592 C35.81861,13.1664764 33.5520992,8.37666181 29.9608464,5.0417956 L29.9608464,31.899265 Z" id="Fill-5" fill="#00A1DE"></path>
                                        <path d="M41.919759,0.358579699 C37.3178097,0.358579699 33.1334822,2.13234894 29.9609569,5.04149553 C29.3336027,5.64500467 28.7405281,6.28339656 28.1828389,6.95742137 L31.7740918,6.95742137 C32.2621159,7.56055542 32.7151232,8.23495532 33.1334822,8.87334721 L26.8230799,8.87334721 C26.4393691,9.51211418 26.0906752,10.1505061 25.7769981,10.789273 L34.1445472,10.789273 C34.4235761,11.42804 34.702605,12.0664319 34.9116002,12.7051989 L25.0449619,12.7051989 C24.8355981,13.3439659 24.6612511,13.9823577 24.521921,14.6563826 L35.4346411,14.6563826 C35.6786532,15.8626507 35.8183519,17.1754424 35.8183519,18.4882342 C35.8183519,20.4750508 35.5046748,22.4266096 34.9116002,24.2356367 L25.0449619,24.2356367 C25.2539571,24.8744036 25.4979692,25.5127955 25.7769981,26.1519376 L34.1445472,26.1519376 C33.8312387,26.7903295 33.517193,27.4647294 33.1334822,28.0674883 L26.8230799,28.0674883 C27.241439,28.7418882 27.6944462,29.3802801 28.1828389,29.9834142 L31.7740918,29.9834142 C31.216034,30.657439 30.623328,31.2962059 29.9609569,31.89934 C33.1334822,34.8088617 37.3178097,36.5826309 41.919759,36.5826309 C51.7521177,36.5826309 59.7013078,28.4932079 59.7013078,18.4882342 C59.7013078,8.4832605 51.7521177,0.358579699 41.919759,0.358579699" id="Fill-7" fill="#F14947"></path>
                                        <path d="M57.9231898,28.5286533 L57.9928549,28.5286533 L58.0625199,28.5286533 C58.0625199,28.5286533 58.0975368,28.4930204 58.0975368,28.4581377 L58.0625199,28.4225047 C58.0275031,28.3868718 57.9928549,28.3868718 57.9928549,28.3868718 L57.9231898,28.3868718 L57.9231898,28.5286533 Z M57.9231898,28.8125914 L57.7838596,28.8125914 L57.7838596,28.3159811 L57.9928549,28.3159811 C58.0625199,28.3159811 58.0975368,28.3159811 58.132185,28.3512389 C58.1672018,28.3512389 58.2022187,28.4225047 58.2022187,28.4581377 C58.2022187,28.5286533 58.1672018,28.5642862 58.132185,28.5995441 L58.2022187,28.8125914 L58.0625199,28.8125914 L57.9928549,28.635177 L57.9231898,28.635177 L57.9231898,28.8125914 Z M57.9928549,29.0256388 C58.2372355,29.0256388 58.4462307,28.8125914 58.4462307,28.5642862 C58.4462307,28.3159811 58.2372355,28.1385666 57.9928549,28.1385666 C57.7488428,28.1385666 57.539479,28.3159811 57.539479,28.5642862 C57.539479,28.8125914 57.7488428,29.0256388 57.9928549,29.0256388 Z M57.4351657,28.5642862 C57.4351657,28.2447152 57.6791777,27.9967851 57.9928549,27.9967851 C58.306532,27.9967851 58.550544,28.2447152 58.550544,28.5642862 C58.550544,28.8834822 58.306532,29.1674203 57.9928549,29.1674203 C57.6791777,29.1674203 57.4351657,28.8834822 57.4351657,28.5642862 Z" id="Fill-9" fill="#F14947"></path>
                                        <polygon id="Fill-11" fill="#263B6D" points="15.2475095 23.526204 13.0160156 23.526204 14.3411264 16.4660098 11.3079312 23.526204 9.42513131 23.526204 9.04142052 16.5012676 7.57697962 23.526204 5.55484955 23.526204 7.2633025 14.3370366 10.7848903 14.3370366 10.8195385 20.0139233 13.2603962 14.3370366 16.9909793 14.3370366"></polygon>
                                        <path d="M40.002274,23.4199804 C39.3745511,23.5973948 38.9211753,23.6682856 38.3981343,23.6682856 C37.282756,23.6682856 36.6550331,23.1004093 36.6550331,22.0362978 C36.6550331,21.8232505 36.69005,21.5749453 36.7246982,21.362273 L36.8640284,20.6169824 L36.9690789,20.0494812 L37.9801439,14.3373366 L40.1766209,14.3373366 L39.8625752,16.0402151 L40.9783222,16.0402151 L40.6996619,17.8496173 L39.5492667,17.8496173 L38.9561921,20.9718112 C38.9561921,21.1139678 38.9211753,21.2201164 38.9211753,21.2910072 C38.9211753,21.6810939 39.1651873,21.8232505 39.6882282,21.8232505 C39.9326089,21.8232505 40.1416041,21.8232505 40.2813029,21.7523597 L40.002274,23.4199804 Z" id="Fill-13" fill="#263B6D"></path>
                                        <path d="M31.216034,18.4173435 C31.216034,19.3396735 31.739075,20.0136983 32.8894701,20.4750508 C33.8312387,20.8655126 33.9705688,20.9716612 33.9705688,21.3264901 C33.9705688,21.7878426 33.5522098,22.0005149 32.6804749,22.0005149 C31.983087,22.0005149 31.3907496,21.8939912 30.6579763,21.6813189 L30.3446677,23.4198303 L30.448981,23.4198303 L30.8673401,23.4907211 C31.0070388,23.526354 31.1810172,23.5616118 31.4600461,23.5616118 C31.983087,23.5972448 32.401446,23.6328777 32.6804749,23.6328777 C35.051299,23.6328777 36.1320291,22.8523292 36.1320291,21.1494507 C36.1320291,20.120597 35.6786532,19.5170879 34.5632749,19.0561104 C33.6215063,18.7009065 33.517193,18.5947579 33.517193,18.239929 C33.517193,17.8494673 33.9009038,17.636795 34.5979231,17.636795 C35.051299,17.636795 35.644005,17.6720528 36.236711,17.7433187 L36.5507567,16.0400651 C35.9576821,15.9335414 35.0863158,15.8626507 34.5632749,15.8626507 C32.0531207,15.8626507 31.1810172,17.0336609 31.216034,18.4173435" id="Fill-15" fill="#263B6D"></path>
                                        <path d="M20.9307418,20.1911127 C20.6867298,20.1558549 20.5820478,20.1558549 20.4077009,20.1558549 C19.1526238,20.1558549 18.5249009,20.5459416 18.5249009,21.2912322 C18.5249009,21.7522097 18.8389467,22.0361478 19.3269708,22.0361478 C20.2333539,22.0361478 20.895725,21.2912322 20.9307418,20.1911127 Z M22.4298309,23.526354 L20.5820478,23.526354 L20.6170647,22.7458055 C20.0590069,23.3489396 19.2919539,23.6328777 18.2808889,23.6328777 C17.0954769,23.6328777 16.2587588,22.8166963 16.2587588,21.6104282 C16.2587588,19.801026 17.6881829,18.7365394 20.1636888,18.7365394 C20.4077009,18.7365394 20.721378,18.7365394 21.0700719,18.7721723 C21.139737,18.5238671 21.139737,18.4173435 21.139737,18.3108198 C21.139737,17.8142094 20.7563948,17.6011621 19.710313,17.6011621 C19.0825901,17.6011621 18.3855708,17.7076857 17.8975467,17.8142094 L17.583501,17.920358 L17.3745058,17.9559909 L17.6881829,16.2883703 C18.8039298,15.9691743 19.535966,15.8626507 20.3380358,15.8626507 C22.255484,15.8626507 23.266549,16.6435742 23.266549,18.0625146 C23.266549,18.4526013 23.2319008,18.7009065 23.0575538,19.5527208 L22.6041779,22.1783044 L22.5345128,22.6749148 L22.4648478,23.0650015 L22.4298309,23.3133067 L22.4298309,23.526354 Z" id="Fill-17" fill="#263B6D"></path>
                                        <path d="M28.6360305,18.9138413 L28.6360305,18.5237546 C28.6360305,17.9206206 28.2523197,17.5657917 27.5899486,17.5657917 C26.8929293,17.5657917 26.3698884,18.0271442 26.1605245,18.9138413 L28.6360305,18.9138413 Z M29.6821124,23.3488271 C28.9497076,23.5618744 28.2176715,23.6683981 27.4156016,23.6683981 C24.9404643,23.6683981 23.6503704,22.4973878 23.6503704,20.2975239 C23.6503704,17.7432061 25.2887897,15.8629132 27.5202835,15.8629132 C29.3680666,15.8629132 30.5188304,16.9273998 30.5188304,18.5593875 C30.5188304,19.1268887 30.4487967,19.6587569 30.2398015,20.4040475 L25.8468474,20.4040475 C25.8118306,20.5462041 25.8118306,20.581462 25.8118306,20.6523527 C25.8118306,21.503792 26.4742017,21.9651445 27.7642956,21.9651445 C28.5663654,21.9651445 29.2637533,21.823363 30.0654545,21.4685341 L29.6821124,23.3488271 Z" id="Fill-19" fill="#263B6D"></path>
                                        <path d="M51.089378,19.2332623 C51.089378,18.4527138 50.7757009,17.7077983 49.8689491,17.7077983 C48.7535708,17.7077983 48.0215346,19.0914808 48.0215346,20.262116 C48.0215346,21.2909697 48.5095587,21.9649945 49.31126,21.9649945 C49.7996527,21.9649945 50.8103491,21.2909697 51.0200815,20.1203345 C51.0543612,19.8720293 51.089378,19.5528333 51.089378,19.2332623 M53.3208719,20.1203345 C53.0071948,22.6037615 51.2987418,23.7035059 49.0325997,23.7035059 C46.5220769,23.7035059 45.5110119,22.1784169 45.5110119,20.262116 C45.5110119,17.6369075 47.2194648,15.8271303 49.8689491,15.8271303 C52.1704767,15.8271303 53.3905369,17.3173365 53.3905369,19.1976294 C53.3905369,19.6589819 53.3905369,19.6942398 53.3208719,20.1203345" id="Fill-21" fill="#263B6D"></path>
                                        <path d="M54.0878511,22.3555313 L54.1575162,22.3555313 L54.2275499,22.3555313 L54.2275499,22.2846405 L54.2275499,22.2490076 L54.122868,22.2490076 L54.0878511,22.2490076 L54.0878511,22.3555313 Z M54.0878511,22.6394694 L53.948521,22.6394694 L53.948521,22.1424839 L54.1575162,22.1424839 C54.2275499,22.1424839 54.2625667,22.1424839 54.2968464,22.1781168 C54.3318632,22.2133747 54.36688,22.2490076 54.36688,22.2846405 C54.36688,22.3555313 54.3318632,22.426422 54.2625667,22.426422 L54.36688,22.6394694 L54.2275499,22.6394694 L54.1575162,22.4616799 L54.0878511,22.4616799 L54.0878511,22.6394694 Z M54.1575162,22.8521417 C54.4018969,22.8521417 54.5758752,22.6394694 54.5758752,22.3911642 C54.5758752,22.1424839 54.4018969,21.9650695 54.1575162,21.9650695 C53.9135042,21.9650695 53.7045089,22.1424839 53.7045089,22.3911642 C53.7045089,22.6394694 53.9135042,22.8521417 54.1575162,22.8521417 Z M53.5648102,22.3911642 C53.5648102,22.0715932 53.8438391,21.823288 54.1575162,21.823288 C54.4715619,21.823288 54.715574,22.0715932 54.715574,22.3911642 C54.715574,22.7099851 54.4715619,22.9939232 54.1575162,22.9939232 C53.8438391,22.9939232 53.5648102,22.7099851 53.5648102,22.3911642 Z" id="Fill-23" fill="#FEFEFE"></path>
                                        <polygon id="Fill-25" fill="#FEFEFE" points="15.8054567 22.9939607 13.5739628 22.9939607 14.8990735 15.9337665 11.8658784 22.9939607 9.84337976 22.9939607 9.49468581 15.9690243 8.16994365 22.9939607 6.14781357 22.9939607 7.85626652 13.8047933 11.3428375 13.8047933 11.5168159 19.48168 13.9576736 13.8047933 17.5485579 13.8047933"></polygon>
                                        <path d="M40.5602212,22.8877371 C39.9324983,23.0651515 39.4791225,23.1360423 38.9560815,23.1360423 C37.8407032,23.1360423 37.2129803,22.568166 37.2129803,21.5040545 C37.2129803,21.2910072 37.2479972,21.0783349 37.2826454,20.8300297 L37.4219755,20.0847391 L37.527026,19.5172379 L38.5380911,13.8050933 L40.7345681,13.8050933 L40.4205224,15.5079718 L41.5712862,15.5079718 L41.2576091,17.317374 L40.1072139,17.317374 L39.5491561,20.4395679 C39.5141393,20.5817245 39.4791225,20.6878731 39.4791225,20.7587639 C39.4791225,21.1492257 39.7231345,21.3266401 40.2461754,21.3266401 C40.4905561,21.3266401 40.6995513,21.2910072 40.8388814,21.2553743 L40.5602212,22.8877371 Z" id="Fill-27" fill="#FEFEFE"></path>
                                        <path d="M46.2432323,17.6721278 L46.2082155,17.4238226 L46.6265745,16.2528124 C46.5222612,16.2528124 46.4872444,16.2528124 46.4522275,16.2175545 C46.3475456,16.2175545 46.2782492,16.1819216 46.2782492,16.1819216 L46.0688853,16.1819216 C45.3368492,16.1819216 44.8138083,16.5014927 44.1160517,17.3885648 L44.3604324,16.0401401 L42.0589048,16.0401401 L40.6995144,23.5260539 L42.8959915,23.5260539 C43.2100372,21.7879176 43.3489988,20.8299547 43.5237143,20.0137733 C43.8027432,18.6653486 44.7787914,18.0625896 45.5111962,18.2043711 C45.5804926,18.2043711 45.6505263,18.2043711 45.7552082,18.2400041 L45.8945384,18.3108948 L46.2432323,17.6721278 Z" id="Fill-29" fill="#263B6D"></path>
                                        <path d="M47.0103222,15.5789376 C46.8356066,15.5080468 46.801327,15.5080468 46.7663101,15.5080468 C46.6616282,15.4724139 46.5915945,15.4724139 46.5915945,15.4371561 L46.3475825,15.4371561 C45.6155463,15.4371561 45.092874,15.756352 44.4301343,16.6434242 L44.6391295,15.5080468 L42.6169995,15.5080468 L41.2576091,22.9939607 L43.4887344,22.9939607 C44.2908042,18.4171934 44.6044813,17.6013871 45.6852114,17.6013871 C45.7552451,17.6013871 45.8595584,17.636645 45.9642403,17.636645 L46.2082523,17.7075357 L47.0103222,15.5789376 Z" id="Fill-31" fill="#FEFEFE"></path>
                                        <path d="M31.7739444,17.8851002 C31.7739444,18.8074302 32.2969853,19.481455 33.4823973,19.9428075 C34.3887804,20.3332693 34.5284792,20.4394179 34.5284792,20.7942468 C34.5284792,21.2555993 34.1101201,21.4682716 33.2383853,21.4682716 C32.5760142,21.4682716 31.9482913,21.362123 31.2158866,21.1494507 L30.9368577,22.887587 L31.0419082,22.887587 L31.4252504,22.9941107 C31.5649491,22.9941107 31.7739444,23.0293685 32.0179564,23.0293685 C32.5409973,23.1006344 32.9593564,23.1006344 33.2730335,23.1006344 C35.6088407,23.1006344 36.7249562,22.3200859 36.7249562,20.6172074 C36.7249562,19.5883537 36.2715804,18.9848446 35.1211852,18.5238671 C34.1794166,18.1690383 34.0751033,18.0625146 34.0751033,17.7076857 C34.0751033,17.317224 34.4584455,17.1045517 35.1908503,17.1045517 C35.6088407,17.1045517 36.2365635,17.1401846 36.7946213,17.2110754 L37.1082984,15.5081969 C36.5155924,15.4016732 35.6438575,15.3660403 35.1558334,15.3660403 C32.6456792,15.3660403 31.7739444,16.5014176 31.7739444,17.8851002" id="Fill-33" fill="#FEFEFE"></path>
                                        <path d="M21.3839334,19.6588694 C21.1399213,19.6236116 21.0352394,19.6236116 20.8959093,19.6236116 C19.6408322,19.6236116 19.0131093,20.0136983 19.0131093,20.7589889 C19.0131093,21.2199664 19.2921382,21.5395374 19.7801623,21.5395374 C20.6865455,21.5395374 21.3489165,20.7589889 21.3839334,19.6588694 Z M22.9877044,22.9941107 L21.1749382,22.9941107 L21.2095864,22.2135622 C20.6518972,22.8166963 19.8848442,23.1006344 18.8734106,23.1006344 C17.6883672,23.1006344 16.8516491,22.284453 16.8516491,21.0781849 C16.8516491,19.2687827 18.2810732,18.2046712 20.7562105,18.2046712 C21.0002226,18.2046712 21.3142683,18.2046712 21.6629623,18.239929 C21.7326273,17.9916238 21.7326273,17.8851002 21.7326273,17.7785765 C21.7326273,17.2819661 21.3489165,17.1045517 20.3032033,17.1045517 C19.6754804,17.1045517 18.9780925,17.1754424 18.4900684,17.2819661 L18.1763913,17.3884898 L17.9670275,17.4237476 L18.2810732,15.7565021 C19.3964515,15.472564 20.0938394,15.3660403 20.9309261,15.3660403 C22.8483743,15.3660403 23.8244225,16.1113309 23.8244225,17.5302713 C23.8244225,17.920358 23.7897742,18.2046712 23.6500755,19.0204775 L23.1970682,21.6813189 L23.1270346,22.1422964 L23.0577381,22.5327582 L23.0227212,22.7810634 L22.9877044,22.9941107 Z" id="Fill-35" fill="#FEFEFE"></path>
                                        <path d="M29.089222,18.3818231 L29.089222,17.9913613 C29.089222,17.3886023 28.7055113,17.0337735 28.0435088,17.0337735 C27.3461209,17.0337735 26.8577282,17.5300088 26.6487329,18.3818231 L29.089222,18.3818231 Z M30.2746341,22.8168088 C29.5075811,23.0294811 28.7755449,23.1360047 28.0084919,23.1360047 C25.532986,23.1360047 24.2428921,21.9649945 24.2428921,19.7655056 C24.2428921,17.2108128 25.88168,15.3305199 28.1131738,15.3305199 C29.9263087,15.3305199 31.0767039,16.3950065 31.0767039,18.0269942 C31.0767039,18.5948704 31.0070388,19.1271137 30.8326918,19.8720293 L26.4047209,19.8720293 L26.4047209,20.1203345 C26.4047209,20.9717737 27.0320751,21.4327512 28.3221691,21.4327512 C29.1242389,21.4327512 29.856275,21.2909697 30.623328,20.9717737 L30.2746341,22.8168088 Z" id="Fill-37" fill="#FEFEFE"></path>
                                        <path d="M51.6123821,18.6303533 C51.6123821,17.8494297 51.2987049,17.1401471 50.3919532,17.1401471 C49.2765749,17.1401471 48.579187,18.4881967 48.579187,19.6944648 C48.579187,20.6876856 49.0675797,21.3620855 49.834264,21.3620855 C50.3226567,21.3620855 51.36837,20.6876856 51.5430856,19.5526833 C51.6123821,19.2687452 51.6123821,18.9495493 51.6123821,18.6303533 M53.913541,19.5883162 C53.5648471,22.0717432 51.8563941,23.1711126 49.590252,23.1711126 C47.1147461,23.1711126 46.103681,21.6460236 46.103681,19.7300977 C46.103681,17.1045142 47.812134,15.295112 50.4619869,15.295112 C52.7631458,15.295112 53.9835747,16.7853182 53.9835747,18.6656112 C53.9835747,19.1269637 53.9835747,19.1622215 53.913541,19.5883162" id="Fill-39" fill="#FEFEFE"></path>
                                    </g>
                                </g>
                            </g>
                        </g>
                    </g>
                </g>
            </g>
        </g>
    </g>
</svg>