<?xml version="1.0" encoding="UTF-8"?>
<svg width="43px" height="40px" viewBox="0 0 43 40" version="1.1" xmlns="http://www.w3.org/2000/svg" xmlns:xlink="http://www.w3.org/1999/xlink">
    <g id="Page-1" stroke="none" stroke-width="1" fill="none" fill-rule="evenodd">
        <g id="style-3" transform="translate(-1054.000000, -632.000000)">
            <g id="Group-12-Copy-5" transform="translate(926.000000, 379.000000)">
                <g id="Group-Copy">
                    <g id="Group-42" transform="translate(16.000000, 110.000000)">
                        <g id="Group-7" transform="translate(0.000000, 109.000000)">
                            <g id="Group-23" transform="translate(92.000000, 23.000000)">
                                <g id="Group-20" transform="translate(20.000000, 11.000000)">
                                    <path d="M18.7246037,12.3885333 C17.795964,12.3885333 17.0433304,11.6370667 17.0433304,10.7098667 C17.0433304,9.78266667 17.795964,9.0312 18.7246037,9.0312 C19.6532435,9.0312 20.405877,9.78266667 20.405877,10.7098667 C20.405877,11.6370667 19.6532435,12.3885333 18.7246037,12.3885333 M21.4672559,0.1712 C13.588641,0.1712 7.20167205,6.54826667 7.20167205,14.4149333 C7.20167205,21.4128 12.2575106,27.2277333 18.9201068,28.4274667 L18.9201068,15.904 C18.9201068,15.3162667 19.4016534,14.8357333 19.9900323,14.8357333 L21.891113,14.8357333 C21.9472,14.8357333 21.9928708,14.7898667 21.9928708,14.7341333 L21.9928708,0.184533333 C21.8182,0.178133333 21.6437963,0.1712 21.4672559,0.1712" id="Fill-2" fill="#32B45A"></path>
                                    <path d="M31.5476043,21.7281067 C30.7177845,21.7281067 30.044741,21.05584 30.044741,20.2273067 C30.044741,19.3985067 30.7177845,18.7267733 31.5476043,18.7267733 C32.3776913,18.7267733 33.0507348,19.3985067 33.0507348,20.2273067 C33.0507348,21.05584 32.3776913,21.7281067 31.5476043,21.7281067 M27.5723745,21.7281067 C26.7425547,21.7281067 26.0695112,21.05584 26.0695112,20.2273067 C26.0695112,19.3985067 26.7425547,18.7267733 27.5723745,18.7267733 C28.4027286,18.7267733 29.075505,19.3985067 29.075505,20.2273067 C29.075505,21.05584 28.4027286,21.7281067 27.5723745,21.7281067 M23.5974118,21.7281067 C22.7673248,21.7281067 22.0942814,21.05584 22.0942814,20.2273067 C22.0942814,19.3985067 22.7673248,18.7267733 23.5974118,18.7267733 C24.4274988,18.7267733 25.1002752,19.3985067 25.1002752,20.2273067 C25.1002752,21.05584 24.4274988,21.7281067 23.5974118,21.7281067 M23.6876851,0.344106667 L23.6876851,15.4083733 C23.6876851,15.99584 23.2064056,16.4763733 22.6177596,16.4763733 L20.7166789,16.4763733 C20.6605919,16.4763733 20.6149211,16.52224 20.6149211,16.57824 L20.6149211,28.63104 C20.8972255,28.6475733 21.1808652,28.65824 21.4671758,28.65824 C29.3463248,28.65824 35.7332938,22.28144 35.7332938,14.41504 C35.7332938,7.30250667 30.5118652,1.40890667 23.6876851,0.344106667" id="Fill-4" fill="#3C4583"></path>
                                    <path d="M9.9495323,38.7424267 L9.9495323,37.8746933 L12.9768925,37.8746933 L12.9768925,36.8792267 L9.9495323,36.8792267 L9.9495323,36.15816 C9.9495323,36.0872267 9.95888012,36.0304267 10.0387373,36.0304267 L13.0476689,36.0304267 L13.0476689,34.9930933 L9.52807888,34.9930933 C9.10876211,34.9930933 8.83527143,35.2848267 8.83527143,35.7904267 L8.83527143,39.09576 C8.83527143,39.6000267 9.10876211,39.8928267 9.52807888,39.8928267 L13.1176441,39.8928267 L13.1176441,38.8554933 L10.0387373,38.8554933 C9.95888012,38.8554933 9.9495323,38.8130933 9.9495323,38.7424267" id="Fill-6" fill="#3C4583"></path>
                                    <path d="M18.3850106,36.0304533 L18.3850106,34.99312 L14.8710292,34.99312 C14.4501099,34.99312 14.1760851,35.2848533 14.1760851,35.7904533 L14.1760851,39.8829867 L15.3242652,39.8829867 L15.3242652,36.1581867 C15.3242652,36.0960533 15.3288056,36.0304533 15.4083957,36.0304533 L18.3850106,36.0304533 Z" id="Fill-8" fill="#3C4583"></path>
                                    <path d="M28.6110248,38.2090933 C28.4935093,38.22856 28.3607702,38.2368267 28.2090683,38.2368267 L27.6660932,38.2368267 L27.6660932,35.2426933 L28.1901056,35.2426933 C28.3514224,35.2426933 28.4879006,35.2522933 28.6110248,35.2714933 C29.3527081,35.38936 29.5610311,35.86536 29.5610311,36.7522933 C29.5610311,37.61016 29.3428261,38.0912267 28.6110248,38.2090933 Z M26.5184472,38.2368267 L25.9789441,38.2368267 C25.8341863,38.2368267 25.6961056,38.22856 25.5785901,38.2090933 C24.8510621,38.0912267 24.6379317,37.61016 24.6379317,36.7522933 C24.6379317,35.86536 24.8467888,35.38936 25.5785901,35.2714933 C25.700913,35.2522933 25.8424658,35.2426933 25.9987081,35.2426933 L26.5184472,35.2426933 L26.5184472,38.2368267 Z M28.6110248,34.22936 C28.4836273,34.21896 28.3514224,34.21496 28.2090683,34.21496 L25.9789441,34.21496 C25.8381925,34.21496 25.7051863,34.21896 25.5785901,34.22936 C24.066913,34.3472267 23.4726584,35.1578933 23.4726584,36.7336267 C23.4726584,38.2896267 24.1088447,39.1146933 25.5785901,39.2418933 C25.7110621,39.2514933 25.8478075,39.25576 25.9941677,39.25576 L26.5184472,39.25576 L26.5184472,39.88296 L27.6660932,39.88296 L27.6660932,39.25576 L28.2005217,39.25576 C28.3415404,39.25576 28.4836273,39.2514933 28.6110248,39.2418933 C30.0895839,39.1146933 30.7174907,38.2896267 30.7174907,36.7336267 C30.7174907,35.15336 30.1451366,34.3472267 28.6110248,34.22936 Z" id="Fill-10" fill="#3C4583"></path>
                                    <path d="M6.58677205,34.09712 C6.03418199,34.09712 5.67976584,34.4037867 5.41428758,35.0256533 L3.87056087,38.7088533 L2.29745528,35.0256533 C2.03811988,34.4037867 1.67889627,34.09712 1.12657329,34.09712 C0.478635404,34.09712 0.0686664596,34.48352 0.0686664596,35.3232533 L0.0686664596,39.8829867 L1.25851118,39.8829867 L1.25851118,35.4832533 L2.84603913,39.1893867 C3.0629087,39.6997867 3.38901429,39.9776533 3.85239938,39.9776533 C4.34302671,39.9776533 4.65470994,39.6997867 4.86730621,39.1893867 L6.45910745,35.4461867 L6.45910745,39.8829867 L7.64414472,39.8829867 L7.64414472,35.3232533 C7.64414472,34.48352 7.24272236,34.09712 6.58677205,34.09712" id="Fill-12" fill="#3C4583"></path>
                                    <path d="M34.6231994,38.9445067 L34.2078888,38.9445067 C33.1825658,38.9445067 32.852187,38.4543733 32.852187,37.4501067 C32.852187,36.4311733 33.1401,35.9413067 34.2263174,35.94104 L34.6045037,35.94104 C35.690187,35.94104 35.9738267,36.4311733 35.9738267,37.4501067 C35.9738267,38.4543733 35.6525286,38.9445067 34.6231994,38.9445067 M34.6231994,34.92264 L34.2078888,34.92264 C32.4128391,34.92264 31.7002677,35.7245067 31.7002677,37.4359733 C31.7002677,39.12424 32.4272615,39.9637067 34.2172366,39.9631733 L34.608777,39.9631733 C36.3851311,39.9631733 37.1318888,39.12424 37.1318888,37.4359733 C37.1318888,35.72904 36.4361435,34.92264 34.6231994,34.92264" id="Fill-14" fill="#3C4583"></path>
                                    <path d="M19.6790702,37.8465867 L20.415946,36.0961867 C20.4613497,35.99352 20.5569646,35.9953867 20.5962255,36.0961867 L21.3373745,37.8465867 L19.6790702,37.8465867 Z M20.5110267,34.8705867 L20.5014118,34.8705867 C20.052182,34.8705867 19.7410329,35.08712 19.5417907,35.5353867 L17.9924553,39.0060533 L17.6009149,39.88312 L17.9924553,39.88312 L18.8610019,39.88312 L19.3054242,38.82712 L21.7235733,38.82712 L22.182418,39.88312 L23.409654,39.88312 L21.4693124,35.5636533 C21.2754118,35.12072 20.9546478,34.8756533 20.5110267,34.8705867 Z" id="Fill-16" fill="#3C4583"></path>
                                    <polygon id="Fill-18" fill="#3C4583" points="41.7272 34.9932 41.7272 36.846 39.2230509 36.846 39.2230509 34.9932 38.0858211 34.9932 38.0858211 39.8830667 39.2230509 39.8830667 39.2230509 37.902 41.7272 37.902 41.7272 39.8830667 42.8660323 39.8830667 42.8660323 34.9932"></polygon>
                                </g>
                            </g>
                        </g>
                    </g>
                </g>
            </g>
        </g>
    </g>
</svg>