<?xml version="1.0" encoding="UTF-8"?>
<svg width="60px" height="29px" viewBox="0 0 60 29" version="1.1" xmlns="http://www.w3.org/2000/svg" xmlns:xlink="http://www.w3.org/1999/xlink">
    <defs>
        <polygon id="path-1" points="0 28.5217391 59.8263717 28.5217391 59.8263717 0.124869565 0 0.124869565"></polygon>
    </defs>
    <g id="Page-1" stroke="none" stroke-width="1" fill="none" fill-rule="evenodd">
        <g id="style-3" transform="translate(-954.000000, -638.000000)">
            <g id="Group-12-Copy-5" transform="translate(926.000000, 379.000000)">
                <g id="Group-Copy">
                    <g id="Group-42" transform="translate(16.000000, 110.000000)">
                        <g id="Group-7" transform="translate(0.000000, 109.000000)">
                            <g id="Group-11" transform="translate(0.000000, 23.000000)">
                                <g id="Group-21" transform="translate(12.000000, 17.000000)">
                                    <g id="Group-9" transform="translate(0.000000, 0.049043)">
                                        <polygon id="Fill-1" fill="#F15041" points="0 28.509913 28.8895575 28.509913 28.8895575 0.124695652 0 0.124695652"></polygon>
                                        <path d="M14.4444779,3.04022609 C18.5499646,3.04022609 22.9370442,10.2524 22.9370442,16.4977913 C22.9370442,21.4035304 20.002354,25.5884 14.4444779,25.5884 C8.88253097,25.5884 5.95527434,21.4035304 5.95527434,16.4977913 C5.95527434,10.2524 10.3384602,3.04022609 14.4444779,3.04022609" id="Fill-2" fill="#FEFEFE"></path>
                                        <mask id="mask-2" fill="white">
                                            <use xlink:href="#path-1"></use>
                                        </mask>
                                        <g id="Clip-5"></g>
                                        <polygon id="Fill-4" fill="#F15041" mask="url(#mask-2)" points="30.939823 28.5217391 59.8263717 28.5217391 59.8263717 0.137043478 30.939823 0.137043478"></polygon>
                                        <polygon id="Fill-6" fill="#FEFEFE" mask="url(#mask-2)" points="34.3586487 10.9649913 37.4004186 10.9649913 38.3938699 14.9738609 38.4103301 14.9738609 39.4050204 10.9649913 42.4443124 10.9649913 42.4443124 17.7792522 40.4232505 17.7792522 40.4232505 13.405687 40.4020115 13.405687 39.1995337 17.7792522 37.6046664 17.7792522 36.3997107 13.405687 36.3821885 13.405687 36.3821885 17.7792522 34.3586487 17.7792522"></polygon>
                                        <polygon id="Fill-7" fill="#FEFEFE" mask="url(#mask-2)" points="45.5523124 12.7101391 43.6101885 12.7101391 43.6101885 10.9649217 49.6346133 10.9649217 49.6346133 12.7101391 47.6878876 12.7101391 47.6878876 17.7791826 45.5523124 17.7791826"></polygon>
                                        <path d="M54.7931797,13.5009043 C54.7542416,13.2553391 54.5581354,12.499687 53.6781354,12.499687 C52.6751266,12.499687 52.3538876,13.4553391 52.3538876,14.3736 C52.3538876,15.2906435 52.6751266,16.243513 53.6781354,16.243513 C54.3938876,16.243513 54.6774275,15.7473391 54.8027372,15.1043826 L56.9018523,15.1043826 C56.9018523,16.4791652 55.7641531,17.9429913 53.7337107,17.9429913 C51.4880469,17.9429913 50.2181354,16.3868174 50.2181354,14.3736 C50.2181354,12.2240348 51.5967195,10.803687 53.7337107,10.803687 C55.6390204,10.8111652 56.6891089,11.7937739 56.8698169,13.5009043 L54.7931797,13.5009043 Z" id="Fill-8" fill="#FEFEFE" mask="url(#mask-2)"></path>
                                    </g>
                                </g>
                            </g>
                        </g>
                    </g>
                </g>
            </g>
        </g>
    </g>
</svg>