<?xml version="1.0" encoding="UTF-8"?>
<svg width="21px" height="34px" viewBox="0 0 21 34" version="1.1" xmlns="http://www.w3.org/2000/svg" xmlns:xlink="http://www.w3.org/1999/xlink">
    <title>Free-76-12-baby-pot</title>
    <g id="Symbols" stroke="none" stroke-width="1" fill="none" fill-rule="evenodd" stroke-linecap="round" stroke-linejoin="round">
        <g id="Free-76-12-baby-pot" transform="translate(1.000000, 1.000000)">
            <rect id="Layer-1" stroke="#D8D8D8" fill="#EBEBEB" x="0" y="0" width="19" height="32" rx="0.96"></rect>
            <path d="M19,26.88 L19,31.0423036 C19,31.5712247 18.5765186,32 18.0512865,32 L0.948713521,32 C0.424753511,32 0,31.571836 0,31.0423036 L0,26.88 L19,26.88 L19,26.88 Z" id="Layer-2" stroke="#D8D8D8" fill="#F7F7F7"></path>
            <path d="M19,5.12 L19,1.09451021 C19,0.489330292 18.5752465,0 18.0512865,0 L0.948713521,0 C0.423481418,0 0,0.490028915 0,1.09451021 L0,5.12 L19,5.12 L19,5.12 Z" id="Layer-3" stroke="#D8D8D8" fill="#F7F7F7"></path>
            <path d="M9.50000305,30.4 C10.0246736,30.4 10.4500031,29.9701934 10.4500031,29.44 C10.4500031,28.9098066 10.0246736,28.48 9.50000305,28.48 C8.97533254,28.48 8.55000305,28.9098066 8.55000305,29.44 C8.55000305,29.9701934 8.97533254,30.4 9.50000305,30.4 Z" id="Layer-4" stroke="#999999" fill="#999999"></path>
            <path d="M8.55,2.56 L10.45,2.56" id="Layer-5" stroke="#999999" fill="#999999"></path>
        </g>
    </g>
</svg>