<?xml version="1.0" encoding="UTF-8"?>
<svg width="21px" height="34px" viewBox="0 0 21 34" version="1.1" xmlns="http://www.w3.org/2000/svg" xmlns:xlink="http://www.w3.org/1999/xlink">
    <title>Free-76-12-baby-pot Copy</title>
    <g id="Symbols" stroke="none" stroke-width="1" fill="none" fill-rule="evenodd" stroke-linecap="round" stroke-linejoin="round">
        <g id="Tabs-payment-card" transform="translate(-232.000000, -27.000000)" stroke="#78909C">
            <g id="Free-76-12-baby-pot-Copy" transform="translate(233.000000, 28.000000)">
                <rect id="Layer-1" fill="#ECEFF1" x="-0.5" y="-0.5" width="20" height="33" rx="0.96"></rect>
                <path d="M19.5,26.38 L19.5,31.0423036 C19.5,31.8466591 18.8533867,32.5 18.0512865,32.5 L0.948713521,32.5 C0.147391481,32.5 -0.5,31.8467668 -0.5,31.0423036 L-0.5,26.38 L19.5,26.38 Z" id="Layer-2" fill="#CFD8DC"></path>
                <path d="M19.5,5.62 L-0.5,5.62 L-0.5,1.09451021 C-0.5,0.228083829 0.130513268,-0.5 0.948713521,-0.5 L18.0512865,-0.5 C18.8686893,-0.5 19.5,0.228008328 19.5,1.09451021 L19.5,5.62 Z" id="Layer-3" fill="#CFD8DC"></path>
                <path d="M9.50000305,30.4 C10.0246736,30.4 10.4500031,29.9701934 10.4500031,29.44 C10.4500031,28.9098066 10.0246736,28.48 9.50000305,28.48 C8.97533254,28.48 8.55000305,28.9098066 8.55000305,29.44 C8.55000305,29.9701934 8.97533254,30.4 9.50000305,30.4 Z" id="Layer-4" fill="#78909C"></path>
                <path d="M8.55,2.56 L10.45,2.56" id="Layer-5" fill="#78909C"></path>
            </g>
        </g>
    </g>
</svg>