<?xml version="1.0" encoding="UTF-8"?>
<svg width="60px" height="32px" viewBox="0 0 60 32" version="1.1" xmlns="http://www.w3.org/2000/svg" xmlns:xlink="http://www.w3.org/1999/xlink">
    <g id="Page-1" stroke="none" stroke-width="1" fill="none" fill-rule="evenodd">
        <g id="style-3" transform="translate(-1230.000000, -854.000000)">
            <g id="Group-12-Copy-5" transform="translate(926.000000, 379.000000)">
                <g id="Group-Copy">
                    <g id="Group-42" transform="translate(16.000000, 110.000000)">
                        <g id="Group-39" transform="translate(0.000000, 327.000000)">
                            <g id="Group-11-Copy-15" transform="translate(276.000000, 23.000000)">
                                <g id="Group-32" transform="translate(12.000000, 15.000000)">
                                    <polygon id="Fill-1" fill="#4163AC" points="50.9678385 30.1424565 50.9678385 25.5566682 52.273677 25.5566682 52.273677 27.2560565 53.712559 27.2560565 53.712559 25.5566682 55.0183975 25.5566682 55.0183975 30.1424565 53.712559 30.1424565 53.712559 28.0963388 52.273677 28.0963388 52.273677 30.1424565"></polygon>
                                    <path d="M49.0644596,29.4208 L49.0644596,27.7906824 C48.5140248,27.8667294 47.6945217,27.9604706 47.6945217,28.7589647 C47.6945217,29.7434353 48.7353913,29.5484235 49.0644596,29.4208 M46.4893043,28.8327529 C46.4893043,28.2051765 46.8176273,27.7379765 47.4399876,27.4962824 C47.720236,27.3867294 47.9717888,27.3170824 48.1939006,27.2869647 C48.4152671,27.2508235 48.7055776,27.2120471 49.0558882,27.1638588 L49.0558882,27.0102588 C49.0827205,26.3450353 48.7011056,26.2305882 48.2449565,26.2223059 C47.811913,26.2223059 47.3736522,26.3668706 46.9920373,26.5724235 L46.906323,25.7438118 C47.4340248,25.5480471 47.9807329,25.4516706 48.5404845,25.4516706 C48.891913,25.4516706 49.1948944,25.4904471 49.4430932,25.5695059 C49.9450807,25.7264941 50.2137764,26.1127529 50.269677,26.5810824 C50.2834658,26.6823529 50.2879379,26.8400941 50.2879379,27.0456471 L50.2879379,29.9105882 C49.1401118,30.3495529 46.4893043,30.6488471 46.4893043,28.8327529" id="Fill-2" fill="#4163AC"></path>
                                    <path d="M44.5290932,29.2626824 C44.4031304,29.4377412 44.2264845,29.5247059 43.9954286,29.5247059 C43.250087,29.5247059 43.0637516,28.2808471 43.0637516,27.7112471 C43.0637516,27.2508235 43.1599006,26.7606588 43.4226335,26.4410353 C43.5575404,26.2787765 43.7401491,26.1959529 43.970087,26.1959529 C44.2648696,26.1959529 44.5290932,26.3804235 44.6725714,26.7606588 C44.8246211,27.1427765 44.8667329,27.5493647 44.8667329,27.9179294 C44.8667329,28.3952941 44.7903354,28.9076706 44.5290932,29.2626824 M46.1159255,26.8175059 C46.0335652,26.4545882 45.8248696,26.1391059 45.5423851,25.8721882 C45.0880994,25.4347294 43.5120745,25.0846118 42.7495901,26.2347294 C42.7488447,25.0221176 43.2508323,24.4186353 44.272323,24.2526118 C45.2926957,24.0877176 45.861764,23.9830588 45.861764,23.9830588 L45.7570435,22.9959529 C45.7570435,22.9959529 44.7169193,23.1457882 43.850087,23.3460706 C42.9247453,23.5617882 42.0288447,24.2447059 41.8052422,25.6286118 C41.662882,26.5170824 41.6800248,28.0734118 41.9423851,28.7902118 C42.2464845,29.6233412 42.8621366,30.2524235 43.9876025,30.2524235 C45.5349317,30.2524235 46.2418882,29.2924235 46.2418882,27.7989647 C46.2418882,27.5053176 46.1986584,27.1811765 46.1159255,26.8175059" id="Fill-4" fill="#4163AC"></path>
                                    <polygon id="Fill-6" fill="#4163AC" points="55.768882 30.1424565 55.768882 25.5566682 57.0657764 25.5566682 57.0657764 27.65888 58.531118 25.5566682 59.8019255 25.5566682 58.319441 27.6024094 59.9446584 30.1424565 58.496087 30.1424565 57.0657764 27.8553976 57.0657764 30.1424565"></polygon>
                                    <path d="M35.0398137,30.2428612 C34.6280124,30.2428612 34.1904969,30.2086024 33.7958385,30.0550024 L33.9042857,29.25312 C34.2158385,29.4413553 34.502795,29.5249318 34.8620497,29.5249318 C35.5123602,29.5332141 35.8768323,29.2173553 35.8552174,28.7979671 C35.8552174,28.5833788 35.791118,28.4203671 35.6547205,28.3164612 C35.5261491,28.2069082 35.3737267,28.1451671 35.2008075,28.1316141 C35.0267702,28.1142965 34.8795652,28.1048847 34.7580745,28.1048847 L34.437205,28.1048847 L34.437205,27.4129318 L34.5236646,27.4129318 C35.01,27.4129318 35.7683851,27.3959906 35.7683851,26.7691671 C35.7814286,26.2790024 35.2749689,26.1611671 35.014472,26.1694494 C34.6022981,26.1694494 34.2724845,26.2662024 33.9124845,26.46272 L33.8345963,25.6920847 C34.2981988,25.5125082 34.7968323,25.4417318 35.2958385,25.4417318 C36.3501242,25.4206494 37.0041615,25.8942494 36.9780745,26.61632 C36.9918634,27.2118965 36.4969565,27.5537318 36.1410559,27.6674259 C36.3754658,27.7077082 36.5703727,27.7769788 36.7268944,27.8820141 C37.0391925,28.0879435 37.1651553,28.4425788 37.1651553,28.7618259 C37.1651553,29.3536376 36.8472671,29.7654965 36.3929814,29.9804612 C35.9424224,30.1905318 35.4385714,30.2428612 35.0398137,30.2428612" id="Fill-8" fill="#4163AC"></path>
                                    <path d="M23.3297888,30.2428612 C21.8376149,30.2428612 20.9976149,29.3141082 20.9976149,27.8210259 C20.9976149,26.3317082 21.8894161,25.4417318 23.3603478,25.4417318 C23.7542609,25.4417318 24.0538882,25.4948141 24.4310311,25.6220612 L24.2745093,26.4544376 C24.0363727,26.3354729 23.8284224,26.2571671 23.5634534,26.2571671 C22.6835776,26.2571671 22.3109068,26.9927906 22.3109068,27.7905318 C22.3109068,28.5909082 22.6738882,29.40672 23.5720248,29.40672 C23.8369938,29.40672 24.0673043,29.3449788 24.3095404,29.22752 L24.396,30.0719435 C24.0322733,30.1905318 23.7155031,30.2428612 23.3297888,30.2428612" id="Fill-10" fill="#4163AC"></path>
                                    <path d="M37.7234907,30.1424565 L37.7234907,25.5566682 L39.0110683,25.5566682 L39.0110683,27.0004329 C39.2883354,26.9880094 39.460882,26.9846212 39.5357888,26.9846212 C40.1380248,26.9846212 40.5766584,27.0900329 40.8505714,27.2989741 C41.1792671,27.5459388 41.3935528,27.9826447 41.3823727,28.4562447 C41.349205,29.9621271 39.8365342,30.2429741 39.0315652,30.2429741 C38.1777764,30.2429741 37.7234907,30.1424565 37.7234907,30.1424565 Z M39.0110683,29.4098447 C39.0110683,29.4098447 40.1901988,29.6481506 40.1901988,28.5176094 C40.1901988,28.3120565 40.1551677,28.1546918 40.0869689,28.0440094 C39.9472174,27.8162447 39.6479627,27.7725741 39.3319379,27.7725741 L39.2111925,27.7725741 L39.1448571,27.7725741 C39.1318137,27.7725741 39.0889565,27.7770918 39.0110683,27.7816094 L39.0110683,29.4098447 Z" id="Fill-12" fill="#4163AC"></path>
                                    <path d="M26.373764,27.4616094 L26.373764,26.2030682 C26.373764,26.2030682 26.5019627,26.1895153 26.8343851,26.1895153 C27.4511553,26.1895153 27.5789814,26.5561976 27.5789814,26.7869741 C27.5789814,27.2425035 27.3009689,27.4616094 26.677118,27.4616094 L26.373764,27.4616094 Z M26.7035776,28.1753976 C26.8205963,28.1753976 26.9547578,28.1802918 27.1146335,28.1893271 C27.2756273,28.1972329 27.4086708,28.2503153 27.5268075,28.3470682 C27.6430807,28.4393035 27.7049441,28.5910212 27.7049441,28.8059859 C27.7049441,29.3059388 27.2696646,29.4960565 26.6946335,29.4960565 C26.5440745,29.4960565 26.373764,29.4772329 26.373764,29.4772329 L26.373764,28.1753976 L26.7035776,28.1753976 Z M27.9904099,27.7033035 C28.532646,27.5320094 28.805441,27.1811388 28.805441,26.6510682 C28.805441,26.4217976 28.7510311,26.2361976 28.654882,26.0856094 C28.5434534,25.9022682 28.3753789,25.7599624 28.1629565,25.6797741 C27.7414658,25.4851388 27.1764969,25.4418447 26.673764,25.4418447 C25.7200994,25.4418447 25.1029565,25.5566682 25.1029565,25.5566682 L25.1029565,30.1424565 C25.1029565,30.1424565 25.749913,30.2429741 26.673764,30.2429741 C27.5849441,30.2429741 28.9738882,30.00768 29.0085466,28.8425035 C29.0092919,28.8281976 29.0100373,28.8123859 29.0100373,28.79808 C29.0312795,28.2887153 28.7197267,27.8030682 27.9904099,27.7033035 Z" id="Fill-14" fill="#4163AC"></path>
                                    <path d="M31.8502733,27.5402541 L31.5294037,27.5402541 C30.9055528,27.5402541 30.6458012,27.3313129 30.6458012,26.8204424 C30.6458012,26.2862306 31.0482857,26.1612424 31.3766087,26.1612424 C31.6922609,26.1612424 31.8502733,26.1928659 31.8502733,26.1928659 L31.8502733,27.5402541 Z M31.5599627,25.4418071 C30.6062981,25.4418071 29.4081615,25.6010541 29.4081615,26.8400188 C29.4081615,27.4883012 29.725677,27.8997835 30.3595901,28.0703247 L29.1491553,30.1424188 L30.4933789,30.1424188 L31.4690311,28.3120188 L31.8502733,28.3120188 L31.8502733,30.1424188 L33.1300248,30.1424188 L33.1300248,25.5566306 C33.1300248,25.5566306 32.5132547,25.4418071 31.5599627,25.4418071 Z" id="Fill-16" fill="#4163AC"></path>
                                    <polygon id="Fill-18" fill="#4163AC" points="3.72670807e-05 30.1424565 3.72670807e-05 23.8087153 4.78662112 23.8087153 4.78662112 30.1424565 3.39469565 30.1424565 3.39469565 24.6979388 1.39606211 24.6979388 1.39606211 30.1424565"></polygon>
                                    <path d="M8.49212422,27.6939294 C8.49212422,25.9666824 7.29547826,26.1146353 6.86616149,26.2226824 L6.86616149,29.2246588 C7.03870807,29.2559059 8.49212422,29.8183529 8.49212422,27.6939294 Z M5.55137888,32 L5.55137888,25.6745412 C6.6898882,25.4418824 9.77895652,24.7868235 9.77895652,27.5843765 C9.77895652,28.3248941 9.58032298,28.9686588 9.20318012,29.4068706 C8.46901863,30.2987294 7.26268323,30.2019765 6.86616149,30.0397176 L6.86616149,32 L5.55137888,32 Z" id="Fill-20" fill="#4163AC"></path>
                                    <path d="M12.4866708,29.5152565 C12.867913,29.5152565 13.1235652,29.2095624 13.226795,28.8022212 C13.3311429,28.3858447 13.3404596,28.0963388 13.3404596,27.7819859 C13.3404596,27.3433976 13.2923851,27.0143624 13.1664224,26.6774212 C13.0404596,26.3318212 12.7594658,26.16128 12.4866708,26.16128 C12.1087826,26.16128 11.844559,26.4368565 11.722323,26.8095624 C11.5963602,27.1762447 11.5795901,27.5402918 11.5795901,27.7819859 C11.5795901,28.3553506 11.7055528,29.5152565 12.4866708,29.5152565 M12.3860497,30.2429741 C10.8949938,30.2429741 10.2398385,29.2795859 10.2398385,27.8471153 C10.2398385,26.3574212 11.0205839,25.4418447 12.529528,25.4418447 C13.0631925,25.4418447 13.496236,25.5649506 13.8260497,25.8100329 C14.1513913,26.0509741 14.3682857,26.3574212 14.4722609,26.7305035 C14.576236,27.0986918 14.6280373,27.4570918 14.6280373,27.8128565 C14.6280373,29.3627859 13.9818261,30.2429741 12.3860497,30.2429741" id="Fill-22" fill="#4163AC"></path>
                                    <polygon id="Fill-24" fill="#4163AC" points="14.9061242 30.1424565 15.3794161 25.5566682 16.8879876 25.5566682 17.8204099 28.6787388 18.7610311 25.5566682 20.2610311 25.5566682 20.6955652 30.1424565 19.4903478 30.1424565 19.2384224 26.8400565 18.244882 30.1424565 17.2055031 30.1424565 16.2030186 26.8219859 15.9563106 30.1424565"></polygon>
                                    <path d="M39.9631304,5.26859294 C39.9631304,2.55574588 37.7859876,0.357534118 35.1008944,0.357534118 L28.2325714,0.357534118 C26.0170435,0.357534118 24.1268571,1.86605176 23.5533168,3.95132235 L31.8553043,3.95132235 C35.0490932,3.95132235 36.4044969,5.45231059 36.4044969,8.97419294 L36.4044969,16.9339106 C38.4646211,16.3541459 39.9631304,14.4382871 39.9631304,12.2084518 L39.9631304,5.26859294 Z" id="Fill-26" fill="#4163AC"></path>
                                    <path d="M19.9815652,15.6170918 C19.9815652,18.3303153 22.1579627,20.5281506 24.8430559,20.5281506 L31.7113789,20.5281506 C33.9276522,20.5281506 35.8178385,19.0196329 36.3913789,16.9339859 L28.0893913,16.9339859 C24.8956025,16.9339859 23.5401988,15.4333741 23.5401988,11.9111153 L23.5401988,3.95139765 C21.4800745,4.53153882 19.9815652,6.44815059 19.9815652,8.67760941 L19.9815652,15.6170918 Z" id="Fill-28" fill="#F46A40"></path>
                                    <path d="M32.8649441,10.1615812 L32.222087,10.1615812 L32.222087,8.58341647 L32.8649441,8.58341647 C33.6494161,8.58341647 33.8637019,8.96553412 33.8637019,9.36948706 C33.8637019,9.77268706 33.578236,10.1615812 32.8649441,10.1615812 Z M32.222087,6.28355765 L32.736,6.28355765 C33.606559,6.28355765 33.6494161,6.82341647 33.6494161,6.98906353 C33.6494161,7.23414588 33.5215901,7.68929882 32.7792298,7.68929882 L32.222087,7.68929882 L32.222087,6.28355765 Z M31.0947578,9.03781647 L31.0947578,10.41344 C30.8230807,10.2485459 30.5104099,10.1186635 30.1828323,9.97447529 C29.825441,9.81560471 29.440472,9.61344 29.440472,9.15828706 C29.440472,8.92713412 29.5828323,8.58341647 30.2678012,8.58341647 L30.7235776,8.58341647 L31.0947578,8.58341647 L31.537118,8.58341647 L31.0947578,9.03781647 Z M26.7274286,12.5559341 L26.1997267,12.5559341 L26.1997267,10.70144 L26.7274286,10.70144 C27.3840745,10.70144 27.6840745,11.1042635 27.6840745,11.5951812 C27.6840745,12.0510871 27.4131429,12.5559341 26.7274286,12.5559341 Z M33.8927702,8.11433412 L33.8927702,8.09249882 C34.2777391,7.97014588 34.7916522,7.64525176 34.7916522,6.79405176 C34.7916522,5.83631059 34.0209689,5.39621647 32.9361242,5.39621647 L31.0947578,5.39621647 L31.0947578,7.68929882 L30.0110311,7.68929882 C28.5553789,7.68929882 28.2553789,8.72082824 28.2553789,9.28252235 C28.2553789,10.0813929 28.7122733,10.4360282 29.5545093,10.8603106 C30.067677,11.1193224 30.6807205,11.2781929 30.6807205,11.8696282 C30.6807205,12.1809694 30.396,12.5559341 29.7825839,12.5559341 L28.6410932,12.5559341 C28.8121491,12.2596518 28.8825839,11.9355106 28.8825839,11.6535341 C28.8825839,11.2868518 28.7547578,9.81560471 26.7274286,9.81560471 L25.0723975,9.81560471 L25.0723975,15.4882635 L26.1997267,15.4882635 L26.1997267,13.0163576 L26.6562484,13.4779106 L29.7400994,13.4779106 C31.1800994,13.4779106 31.865441,12.7287341 31.865441,11.8346165 C31.865441,11.5180047 31.8080497,11.2635106 31.7081739,11.0556988 L32.8649441,11.0556988 C34.6489193,11.0556988 35.0622112,10.1615812 35.0622112,9.46172235 C35.0622112,8.74944 34.6060621,8.22238118 33.8927702,8.11433412 Z" id="Fill-30" fill="#4163AC"></path>
                                </g>
                            </g>
                        </g>
                    </g>
                </g>
            </g>
        </g>
    </g>
</svg>