<?xml version="1.0" encoding="UTF-8"?>
<svg width="26px" height="40px" viewBox="0 0 26 40" version="1.1" xmlns="http://www.w3.org/2000/svg" xmlns:xlink="http://www.w3.org/1999/xlink">
    <g id="Page-1" stroke="none" stroke-width="1" fill="none" fill-rule="evenodd">
        <g id="style-3" transform="translate(-1063.000000, -741.000000)">
            <g id="Group-12-Copy-5" transform="translate(926.000000, 379.000000)">
                <g id="Group-Copy">
                    <g id="Group-42" transform="translate(16.000000, 110.000000)">
                        <g id="Group-38" transform="translate(0.000000, 218.000000)">
                            <g id="Group-23" transform="translate(92.000000, 23.000000)">
                                <g id="Group-25" transform="translate(29.000000, 11.000000)">
                                    <path d="M21.6568371,18.1673652 C21.4333283,17.1409245 20.9539248,16.3687211 20.2829423,15.7852183 C20.051223,15.5431844 19.7709248,15.3718849 19.452995,15.189964 C19.2931178,15.0982126 19.1761178,15.0419414 18.9669774,14.9635234 C18.6187143,14.8322239 18.1614335,14.6796816 17.5930827,14.7366307 C17.8779423,14.5938058 18.3019248,14.5879301 18.737995,14.5944838 C19.0999423,14.6329019 19.3998546,14.7323369 19.7102581,14.8211505 C19.97003,14.9610375 20.2272932,15.1031844 20.4831879,15.2466872 C21.1103809,13.3886081 20.870223,10.8460092 20.1689072,9.20736517 C19.4901704,7.48826913 18.5044511,6.07335387 17.2217844,4.95403184 C15.9603283,3.81233692 14.4452581,2.92194144 12.442802,2.51561376 C11.451609,2.30341037 10.2045213,2.33753466 9.29452127,2.54408833 C8.34369671,2.79222393 7.55320548,3.19990754 6.86238092,3.70634822 C6.22036337,4.27041602 5.59727565,4.85369285 5.17397741,5.63448381 C5.02139846,5.78589624 4.95571425,6.02386235 4.83027565,6.20171545 C4.74246864,6.4168567 4.64394232,6.62160246 4.54473179,6.82544427 C4.39671425,7.27425783 4.22725811,7.70160246 4.14355636,8.2148228 C3.91480197,9.14295839 3.87352127,10.4184386 4.02952127,11.4191166 C4.14697741,12.4934669 4.46490723,13.3691731 4.80267916,14.2258962 C5.01045109,14.6245403 5.20020548,15.0412635 5.4310125,15.4166307 C5.65041601,15.7953878 5.92204758,16.1214895 6.17588969,16.4661222 C6.75245109,17.0855573 7.37166162,17.6625064 8.09259144,18.1391166 C9.55452127,19.0826194 11.2322055,19.810755 13.5297844,19.9251053 C13.5749423,19.8324499 13.4677493,19.6475912 13.44403,19.5282691 C13.4095914,19.3919979 13.3961353,19.2353878 13.3575914,19.1034104 C13.3252055,18.7978736 13.3151704,18.4417155 13.3575914,18.1391166 C13.4488195,18.1626194 13.4460827,18.2783256 13.5012757,18.3375347 C13.5500827,18.3931279 13.5683283,18.4790036 13.6445037,18.5074782 C13.7019774,18.6674782 13.8269599,18.7610375 13.9017669,18.9045403 C14.1177493,19.1253313 14.2860651,19.3933539 14.5602055,19.5565177 C14.7782406,19.7757268 15.0697143,19.9208115 15.3326792,20.0955008 C15.6161704,20.2401335 15.8590651,20.4245403 16.1913634,20.5205855 C16.7597143,20.8170827 17.5219248,20.9217155 18.2802581,21.031094 C19.0445213,21.1336929 19.7818721,21.2627324 20.4831879,21.4281561 C21.1293107,21.6478171 21.7877493,21.8550488 22.3150476,22.1929019 C22.5930651,22.3524499 22.8674335,22.5153878 23.115802,22.7040883 C23.2373634,22.8005855 23.3908546,22.8661222 23.4877844,22.9872522 C23.6383107,23.0466872 23.7046792,23.1886081 23.8597669,23.2421674 C24.3040476,23.6620544 24.7428546,24.0875912 25.1198546,24.5748228 C25.2749423,24.8557268 25.4870476,25.0799075 25.6058721,25.3976477 C25.7103283,25.51132 25.7408897,25.6979866 25.8346265,25.8225064 C25.8407844,25.9836364 25.9981528,26.1768567 25.8629072,26.3047663 C25.6505739,26.3357268 25.6936792,26.1133539 25.6058721,26.0211505 C25.536995,25.91019 25.4512406,25.8143708 25.4047143,25.6812635 C25.0699072,25.3327889 24.769995,24.9495121 24.4034862,24.6322239 C24.0408546,24.3205855 23.6843809,24.0019414 23.258802,23.7533539 C22.4596441,23.1931279 21.533223,22.7603595 20.4544511,22.4767437 C19.3923283,22.1723369 18.2013458,22.050077 16.820609,22.1368567 C16.2143985,22.2157268 15.6357844,22.3244273 15.1319774,22.5047663 C14.5898546,22.6385516 13.9861528,22.711546 13.3865564,22.7883821 C11.0445037,22.931659 8.4362932,22.3777607 6.69018793,21.5416025 C5.75852127,21.1140318 4.90120548,20.611433 4.17252127,19.9820544 C3.77431074,19.6966307 3.4488546,19.3377607 3.11381951,18.9895121 C2.80752127,18.6218284 2.48525811,18.2697381 2.2551353,17.8268002 C1.9492932,17.4493991 1.76820548,16.9479301 1.51094232,16.5226194 C1.34376688,16.0177607 1.10680197,15.5813765 0.995959865,15.0200205 C0.82103004,14.5133539 0.713608988,13.9388906 0.652942321,13.3185516 C0.642907233,13.1481561 0.565819514,12.8193426 0.566503724,12.5529019 C0.566503724,12.5291731 0.597521268,12.5081561 0.595468637,12.4679301 C0.582696707,12.2261222 0.524766882,11.8536929 0.595468637,11.6457833 C0.582696707,11.0839753 0.684644075,10.3929019 0.796170391,9.85934257 C0.8985739,9.29030302 1.05138092,8.77030302 1.22562653,8.27131997 C1.39576688,7.76013353 1.62110022,7.30295839 1.82567916,6.82544427 C1.96343355,6.62137647 2.06811776,6.38499229 2.19766162,6.17346687 C2.3071353,5.950868 2.47111776,5.78295839 2.57032829,5.54951206 C2.68048618,5.48826913 2.70010022,5.33798664 2.79862653,5.26612223 C2.84310022,5.13979455 2.96192478,5.08713918 2.99910022,4.95403184 C3.09283706,4.8767437 3.16741601,4.78024653 3.22808267,4.67041602 C3.31520548,4.58634822 3.40643355,4.50657421 3.45683706,4.3868002 C3.79780197,4.05369285 4.10295986,3.68465331 4.4582932,3.36623523 C4.81271425,3.0367437 5.20887215,2.74906009 5.57492478,2.43064201 C5.80710022,2.3208115 5.97473179,2.14657421 6.20417039,2.03357986 C6.37841601,1.87561376 6.63225811,1.79583975 6.8051353,1.63651771 C7.28248618,1.4288341 7.68890723,1.15109398 8.20731074,0.984088335 C8.65432829,0.756065736 9.18983706,0.615500764 9.69546864,0.44578325 C10.7940827,0.166461216 11.9025037,-0.0256291794 13.2718371,0.0202465269 C13.3211002,0.0261222331 13.3461879,-0.0281150551 13.3575914,0.0202465269 C15.9507493,0.0977606512 17.8407669,0.871771951 19.452995,1.92013353 C21.0506265,2.97414483 22.2874511,4.38544427 23.1730476,6.14499229 C24.0394862,7.88781715 24.5268721,10.2564047 24.1177143,12.751772 C23.9126792,13.8719979 23.5815213,14.8668002 23.1730476,15.7852183 C22.9390476,16.2155008 22.7303634,16.67019 22.4575914,17.0613765 C22.3380827,17.2729019 22.2099072,17.4771957 22.0571002,17.6568567 C22.0057844,17.7662352 21.93303,17.8548228 21.8573107,17.9404725 C21.8235564,17.9924499 21.7818195,18.0360657 21.7425914,18.0823934 C21.7295914,18.1074782 21.7177318,18.1332409 21.6851178,18.1391166 C21.6933283,18.1897381 21.6588897,18.1971957 21.6568371,18.1673652" id="Fill-1" fill="#F8893E"></path>
                                    <path d="M20.9701862,18.9045855 C20.6344669,18.7737381 20.5779055,18.3667324 20.4260107,18.053964 C20.3988704,17.9391618 20.3753792,17.7665064 20.4260107,17.6569019 C20.4490458,17.6514782 20.4542914,17.6284273 20.4832564,17.6284273 C20.5676423,17.574642 20.6481511,17.6428906 20.7690283,17.6851505 C20.933695,17.8720431 21.0383792,18.1181448 21.11273,18.394077 C21.1186599,18.6173539 21.1357651,18.8517042 20.9701862,18.9045855" id="Fill-4" fill="#F8893E"></path>
                                    <path d="M18.4518353,18.4225968 C18.4570809,18.3900544 18.4808002,18.4067776 18.4808002,18.4225968 C18.9880283,18.4865516 19.2208879,18.8228228 19.2532739,19.35819 C19.2078879,19.6542352 19.0404844,19.8284725 18.7663441,19.8969471 C18.0832739,19.9084725 17.6944143,19.2851957 17.9366248,18.6492635 C18.0730107,18.538981 18.1697125,18.3891505 18.4518353,18.4225968" id="Fill-6" fill="#F8893E"></path>
                                    <path d="M3.34284758,30.1608793 C3.09288267,30.1782804 2.94372478,30.2948906 2.74188267,30.3597494 C2.60823355,30.4820092 2.44219846,30.5730827 2.3409353,30.7283369 C2.17604057,30.8198623 2.13088267,31.0300318 1.99791776,31.1531957 C1.88639144,31.4286759 1.77919846,31.7344386 1.71168969,32.0890149 C1.64486513,32.4388454 1.60016337,32.8356816 1.59742653,33.2237042 C1.59012829,34.1997494 1.80063706,35.1699188 2.19770723,35.74732 C2.42805811,36.0282239 2.71018092,36.2596364 3.05661951,36.427094 C3.25572478,36.446755 3.4130932,36.5084499 3.62839144,36.5125177 C3.74790022,36.4698058 3.95179495,36.5104838 4.02956688,36.427094 C4.20495285,36.4402013 4.24828618,36.3226872 4.40154934,36.3138736 C4.48183004,36.2327437 4.57419846,36.1638171 4.68777741,36.1152296 C4.79040899,36.0002013 4.89098793,35.8822352 5.00228618,35.7753426 C5.06044408,35.6910488 5.09077741,35.5794104 5.17379495,35.5197494 C5.67144408,34.5764725 5.72891776,32.8456251 5.40277741,31.7484499 C5.28326864,31.346416 5.1076546,31.0225742 4.91653179,30.7563595 C4.70602302,30.5396364 4.45697039,30.3604273 4.17256688,30.2171505 C3.9438125,30.1703708 3.72897039,30.1089019 3.42860197,30.1328567 C3.41104057,30.1342126 3.39484758,30.1369245 3.39963706,30.1608793 L3.34284758,30.1608793 Z M4.71605811,37.305964 C4.79770723,37.6512748 4.9753739,37.9007663 5.17379495,38.1290149 C5.37175986,38.3581674 5.60598793,38.5509358 5.88970723,38.6962465 C6.15358443,38.8594104 6.44186513,38.9983934 6.77598793,39.0921787 C6.93814583,39.1495799 7.09414583,39.2133087 7.29119846,39.2338736 C7.42758443,39.307772 7.59772478,39.347772 7.60639144,39.546416 C7.5990932,39.7846081 7.43784758,39.8709358 7.23440899,39.9150036 C7.0293739,39.8722917 6.77530372,39.8783934 6.60447916,39.8013313 C6.17046162,39.7507098 5.8226546,39.6126307 5.46025109,39.4894669 C4.76144408,39.2180544 4.17735636,38.8325177 3.68586513,38.3550036 C3.58574232,38.1895799 3.44958443,38.0605403 3.34284758,37.9014443 C3.23679495,37.7421222 3.16518092,37.5479979 3.05661951,37.3916138 C2.20591776,37.2799753 1.62456688,36.9005403 1.11072478,36.4555686 C0.638163373,35.9224612 0.266180917,35.2887889 0.108812496,34.4424612 C-0.072275223,33.6291279 -0.0161699598,32.6176025 0.194566882,31.8334217 C0.663023023,30.3136477 1.65079495,29.305964 3.51435636,29.1681109 C4.02819846,29.1843821 4.47635636,29.246529 4.88756688,29.3956816 C5.30083004,29.5441561 5.69447916,29.8171505 6.00419846,30.1041561 C6.02928618,30.127659 6.04091776,30.1301448 6.06098793,30.1608793 C6.12598793,30.2573765 6.28654934,30.3843821 6.37572478,30.5007663 C6.39328618,30.5233652 6.38575986,30.5611053 6.40400548,30.586416 C6.43912829,30.6327437 6.48975986,30.6553426 6.51872478,30.7003143 C6.5376546,30.7283369 6.53104057,30.7583934 6.54791776,30.7846081 C6.56935636,30.8198623 6.59991776,30.8689019 6.63367215,30.926303 C6.64644408,30.9489019 6.68225109,30.966303 6.69023355,30.9832522 C6.73972478,31.0761335 6.76047916,31.1907098 6.80518092,31.2951166 C6.85102302,31.4026872 6.9123739,31.5003143 6.94818092,31.607207 C7.0576546,31.9326307 7.12972478,32.3125177 7.17716337,32.7125177 C7.28846162,33.8539866 7.06039144,34.8740996 6.63367215,35.6334217 C6.43228618,36.0295799 6.15632127,36.3520657 5.83223355,36.6255121 C5.53026864,36.9220092 5.11654934,37.1079979 4.71605811,37.305964 Z" id="Fill-8" fill="#4573B7"></path>
                                    <path d="M9.38091425,29.3668228 C9.82975636,29.3849019 10.3524932,29.3299866 10.7541248,29.3957494 C10.8439844,29.5354104 10.8088616,29.6954104 10.8115985,29.8493087 C10.8433002,31.9297607 10.8115985,34.1589132 10.8115985,36.2850149 C10.8115985,36.4563143 10.8157037,36.6289697 10.8115985,36.7962013 C10.8074932,36.9374443 10.8433002,37.0906646 10.7541248,37.2217381 C10.5529669,37.2712296 10.2687914,37.2497607 10.0101599,37.2497607 C9.74080899,37.2497607 9.47328267,37.2859188 9.29447565,37.1923595 C9.24658092,34.6782352 9.24658092,31.9659188 9.29447565,29.4517945 C9.31066864,29.4108906 9.33963355,29.38219 9.38091425,29.3668228" id="Fill-11" fill="#4573B7"></path>
                                    <path d="M12.8141002,29.3668228 L14.15903,29.3668228 C14.2799072,29.5308906 14.3175388,29.7767663 14.3595037,30.0192522 C14.7631879,31.5469358 15.1650476,33.0777833 15.5322406,34.6407211 C15.6193634,34.6513426 15.5924511,34.5482917 15.6186792,34.4988002 C15.6579072,34.462642 15.6364686,34.3650149 15.6761528,34.3288567 C15.6916616,34.202981 15.7687493,34.1374443 15.7619072,33.9889697 C15.8645388,33.7975573 15.8941879,33.5333765 15.9899774,33.3367663 C16.1083458,32.8764273 16.2588721,32.4490827 16.3911528,32.0041109 C16.5168195,31.542416 16.6890125,31.1263708 16.7923283,30.642755 C16.9811704,30.2540544 17.0263283,29.722755 17.2500651,29.3668228 L17.8218371,29.3668228 C18.0277844,29.7487437 18.101223,30.262642 18.2802581,30.6712296 C18.3942932,31.1336025 18.5585037,31.5485177 18.6798371,32.0041109 C18.9635564,32.8863708 19.2538897,33.7607211 19.5104686,34.6694217 C19.6245037,34.4988002 19.6251879,34.2158623 19.7102581,34.0169923 C19.7604335,33.7916816 19.804223,33.5609471 19.8817669,33.3647889 C20.103223,32.4685177 20.311223,31.5598171 20.5689423,30.7001561 C20.6663283,30.2479527 20.7593809,29.7916816 20.9119599,29.3957494 C21.2431178,29.3487437 21.7553634,29.3487437 22.085609,29.3957494 C22.1145739,29.7288567 21.9558371,30.0893087 21.8573107,30.3878397 C21.8046265,30.7516816 21.6675564,31.0312296 21.5993634,31.3799301 C21.3954686,32.0194782 21.237416,32.7039979 21.0269072,33.3367663 C20.8654335,34.0169923 20.6494511,34.6445629 20.4831879,35.321851 C20.3732581,35.6373313 20.2922932,35.982642 20.1971879,36.3137155 C20.0856616,36.6197042 20.047802,36.9982352 19.8817669,37.2497607 L19.0810125,37.2497607 C18.8771178,36.8940544 18.8041353,36.4088567 18.6232757,36.0307776 C18.2248371,34.7797042 17.779416,33.5769923 17.3932932,32.3159753 C17.2573634,32.4556364 17.2607844,32.7326985 17.1643107,32.9114556 C17.103416,33.1254669 17.0427493,33.3394782 16.9638371,33.5347324 C16.8555037,33.9668228 16.6869599,34.3383482 16.5916265,34.782416 C16.4331178,35.1731505 16.3133809,35.603433 16.1913634,36.0307776 C16.0225914,36.402077 15.9623809,36.8811731 15.7619072,37.2217381 C15.5493458,37.2845629 15.2202406,37.2323595 14.9611528,37.2497607 C14.7593107,37.023772 14.7403809,36.6167663 14.6167669,36.3137155 C14.5202932,35.9946194 14.4534686,35.6441109 14.331223,35.3498736 C14.1786441,34.6594782 13.9448721,34.0493087 13.7870476,33.3647889 C13.5790476,32.7306646 13.4029774,32.063772 13.2150476,31.4079527 C13.1126441,31.0947324 13.0314511,30.7582352 12.9288195,30.4447889 C12.8822932,30.102868 12.6487493,29.7968793 12.7283458,29.423772 C12.7500125,29.3971053 12.7803458,29.3808341 12.8141002,29.3668228" id="Fill-13" fill="#4573B7"></path>
                                    <path d="M24.1177371,29.3668228 C24.566123,29.3849019 25.089316,29.3299866 25.4909476,29.3957494 C25.589702,29.6940544 25.5484213,30.0104386 25.5484213,30.3308906 L25.5484213,36.2850149 C25.5484213,36.6075008 25.589702,36.922077 25.4909476,37.2217381 C25.1819125,37.2565403 24.7269125,37.2678397 24.3460353,37.2497607 C24.2372458,37.2443369 24.1042809,37.2757494 24.0312985,37.1923595 C23.9327721,36.8978962 23.9747371,36.5808341 23.9747371,36.2569923 L23.9747371,30.3598171 C23.9747371,30.001851 23.9409827,29.6592522 24.0312985,29.423772 C24.0529651,29.3971053 24.0842107,29.3808341 24.1177371,29.3668228" id="Fill-15" fill="#4573B7"></path>
                                </g>
                            </g>
                        </g>
                    </g>
                </g>
            </g>
        </g>
    </g>
</svg>