<?xml version="1.0" encoding="UTF-8"?>
<svg width="60px" height="27px" viewBox="0 0 60 27" version="1.1" xmlns="http://www.w3.org/2000/svg" xmlns:xlink="http://www.w3.org/1999/xlink">
    <g id="Page-1" stroke="none" stroke-width="1" fill="none" fill-rule="evenodd">
        <g id="style-3" transform="translate(-1046.000000, -857.000000)" fill="#164193">
            <g id="Group-12-Copy-5" transform="translate(926.000000, 379.000000)">
                <g id="Group-Copy">
                    <g id="Group-42" transform="translate(16.000000, 110.000000)">
                        <g id="Group-39" transform="translate(0.000000, 327.000000)">
                            <g id="Group-23" transform="translate(92.000000, 23.000000)">
                                <g id="Group-29" transform="translate(12.000000, 18.000000)">
                                    <path d="M18.6132265,14.9705122 C17.8040552,14.9705122 17.0996354,15.2207561 16.5211823,15.8091585 C15.9294696,16.4225854 15.6997459,17.2977805 15.6997459,18.1700122 C15.6997459,19.098878 15.9231713,20.0046951 16.4993039,20.6174634 C17.0800773,21.231878 17.7967624,21.4472195 18.6294696,21.4472195 C19.474442,21.4472195 20.1606298,21.1064268 20.6830608,20.5815732 C21.2814033,19.976378 21.5654917,19.1541951 21.5654917,18.2714268 C21.5654917,17.3043659 21.2787514,16.4453049 20.6986409,15.8335244 C20.2000773,15.3070244 19.4794144,14.9705122 18.6132265,14.9705122 M13.6461547,26.9259146 L13.6461547,13.2530488 L15.8641657,13.2530488 L15.8641657,14.2579756 C16.1704641,13.7676951 16.7654917,13.4199878 17.232895,13.2622683 C17.7022873,13.1088293 18.1885856,13.0294756 18.6844972,13.0294756 C19.9100221,13.0294756 21.2197459,13.4404024 22.2841657,14.5388415 C23.2663757,15.5539756 23.7861547,16.7880732 23.7861547,18.2493659 C23.7861547,18.9204146 23.6568729,19.5809268 23.3996354,20.214439 C23.1506851,20.8509146 22.7930055,21.4113293 22.335547,21.8775732 C21.8519006,22.3810244 21.3012928,22.761 20.695989,23.0181585 C20.092011,23.2730122 19.5268177,23.4027439 18.7856022,23.4027439 C18.2462652,23.4027439 17.7261547,23.3210854 17.234221,23.1508537 C16.7505746,22.9957683 16.072674,22.6092073 15.8280331,22.1874146 L15.8280331,26.9259146 L13.6461547,26.9259146" id="Fill-1"></path>
                                    <polygon id="Fill-4" points="38.9913812 26.9257829 40.8633149 22.6143439 36.5691713 13.2532463 38.9065193 13.2532463 41.9579006 20.2811488 44.7719337 13.2532463 47.1228729 13.2532463 41.2859669 26.9257829"></polygon>
                                    <path d="M28.1790497,15.8335573 C27.5989392,16.4450085 27.3148508,17.3043988 27.3148508,18.2714598 C27.3148508,19.1538988 27.5989392,19.976411 28.1972818,20.5816061 C28.7190497,21.1064598 29.4045746,21.4472524 30.249547,21.4472524 C31.0842431,21.4472524 31.7989392,21.231911 32.3770608,20.6174963 C32.9578343,20.004728 33.1766188,19.098911 33.1766188,18.1700451 C33.1766188,17.2978134 32.949547,16.4239354 32.3594917,15.8091915 C31.7770608,15.2168378 31.0749613,14.9705451 30.266453,14.9705451 C29.3982762,14.9705451 28.6789392,15.3070573 28.1790497,15.8335573 M33.0503204,23.2220085 L33.0503204,22.1874476 C32.8063425,22.6092402 32.128442,22.9958012 31.6461215,23.1508866 C31.1535249,23.3211183 30.628442,23.4027768 30.0940773,23.4027768 C29.3528619,23.4027768 28.7883315,23.2730451 28.1817017,23.0181915 C27.5780552,22.7610329 27.027779,22.3810573 26.5447956,21.8769476 C26.0853481,21.4110329 25.7276685,20.8509476 25.4803757,20.215789 C25.2221436,19.5783256 25.0902099,18.9204476 25.0902099,18.2493988 C25.0902099,16.7877768 25.609989,15.5540085 26.5935249,14.5388744 C27.6599337,13.4404354 28.9689945,13.0295085 30.1971713,13.0295085 C30.689768,13.0295085 31.1760663,13.1088622 31.6461215,13.2639476 C32.1155138,13.4200207 32.7118674,13.767728 33.0181657,14.2580085 L33.0181657,13.2530817 L35.2328619,13.2530817 L35.2328619,23.2220085 L33.0503204,23.2220085" id="Fill-6"></path>
                                    <polygon id="Fill-8" points="49.445337 6.92754146 49.3313039 0.271053659 51.4465525 0.271053659 51.4465525 8.67002927 48.4054475 8.67002927 46.2994807 1.77482195 46.245116 1.77482195 46.3654475 8.67002927 44.2684309 8.67002927 44.2684309 0.271053659 47.4345083 0.271053659 49.3992597 6.92754146"></polygon>
                                    <polygon id="Fill-10" points="11.0283978 1.05280244 9.86220994 8.74681463 7.55668508 8.74681463 9.13723757 0.270790244 12.939116 0.270790244 14.5173481 8.74681463 12.219116 8.74681463 11.0794475 1.05280244"></polygon>
                                    <polygon id="Fill-12" points="20.9834917 6.7550378 22.0396243 0.271086585 25.5182983 0.271086585 25.7092376 8.74678171 23.5721105 8.74678171 23.512442 1.12520854 23.4710055 1.12520854 22.0432707 8.74678171 19.8822762 8.74678171 18.4492376 1.12520854 18.4015028 1.12520854 18.3484641 8.74678171 16.2136575 8.74678171 16.4079116 0.271086585 19.8899006 0.271086585 20.9407293 6.7550378"></polygon>
                                    <path d="M38.8848729,7.47547683 C39.4852044,7.47547683 39.6638785,7.0717939 39.7073039,6.86731829 C39.7248729,6.77644024 39.7248729,6.65197683 39.7248729,6.54265976 L39.7248729,0.271086585 L41.8924972,0.271086585 L41.8924972,6.3480622 C41.8924972,6.50644024 41.8752597,6.82385488 41.8682983,6.90847683 C41.7221105,8.49225732 40.4558122,9.00097683 38.8848729,9.00097683 C37.3169171,9.00097683 36.0565856,8.49225732 35.9120552,6.90847683 C35.901116,6.82385488 35.8855359,6.50644024 35.8908398,6.3480622 L35.8908398,0.271086585 L38.0511713,0.271086585 L38.0511713,6.54265976 C38.0438785,6.65197683 38.0544862,6.77644024 38.0680773,6.86731829 C38.1088508,7.0717939 38.2944862,7.47547683 38.8848729,7.47547683" id="Fill-14"></path>
                                    <path d="M3.96298343,6.35454878 C4.04320442,6.56034146 4.02,6.8237561 3.9798895,6.98213415 C3.91127072,7.26497561 3.71900552,7.55539024 3.1438674,7.55539024 C2.6118232,7.55539024 2.2919337,7.2485122 2.2919337,6.78457317 L2.28530387,5.96206098 L0,5.96206098 L0,6.61631707 C0,8.51026829 1.49436464,9.07792683 3.09546961,9.07792683 C4.64685083,9.07792683 5.91646409,8.55636585 6.11635359,7.14380488 C6.22176796,6.40854878 6.14618785,5.92946341 6.11104972,5.75067073 C5.75171271,3.97064634 2.50939227,3.44908537 2.26740331,2.45469512 C2.22596685,2.27886585 2.23292818,2.1050122 2.25745856,2.01018293 C2.31911602,1.73260976 2.50508287,1.4372561 3.03646409,1.4372561 C3.54165746,1.4372561 3.83403315,1.74907317 3.83403315,2.20181707 L3.83403315,2.73292683 L5.96486188,2.73292683 L5.96486188,2.13760976 C5.96486188,0.288439024 4.2918232,0 3.08121547,0 C1.56629834,0 0.324198895,0.501146341 0.0977900552,1.88571951 C0.0394475138,2.26009756 0.031160221,2.5982561 0.114696133,3.02367073 C0.488287293,4.76121951 3.52209945,5.25841463 3.96298343,6.35454878" id="Fill-16"></path>
                                    <path d="M31.7194475,6.34407805 C31.8049724,6.54493171 31.7691713,6.80406585 31.7363536,6.96277317 C31.6713812,7.24067561 31.4748066,7.52351707 30.9145856,7.52351707 C30.3838674,7.52351707 30.0646409,7.22223659 30.0646409,6.76224878 L30.0646409,5.94665122 L27.7952486,5.94665122 L27.7952486,6.59926098 C27.7952486,8.47543171 29.279337,9.03222439 30.8704972,9.03222439 C32.3927072,9.03222439 33.6520442,8.51691951 33.8539227,7.11588293 C33.9563536,6.39215122 33.881768,5.91734634 33.8429834,5.73361463 C33.4869613,3.97927317 30.2801105,3.4596878 30.0437569,2.47056585 C30.0043094,2.30626098 30.0152486,2.12812683 30.0334807,2.03626098 C30.0904972,1.76757805 30.2761326,1.4732122 30.8051934,1.4732122 C31.3050829,1.4732122 31.5938122,1.77449268 31.5938122,2.22526098 L31.5938122,2.74813902 L33.6994475,2.74813902 L33.6994475,2.16006585 C33.6994475,0.332956098 32.0456354,0.0468219512 30.8539227,0.0468219512 C29.3492818,0.0468219512 28.1171271,0.533809756 27.8990055,1.91048049 C27.8303867,2.27893171 27.821768,2.61280976 27.9155801,3.04052927 C28.2822099,4.76128537 31.2845304,5.25387073 31.7194475,6.34407805" id="Fill-19"></path>
                                    <path d="M56.6934696,7.39009756 C57.3080552,7.39009756 57.5255138,7.0074878 57.5649613,6.77634146 C57.5785525,6.68085366 57.5845193,6.5600122 57.5838564,6.45267073 L57.5838564,5.22614634 L56.7117017,5.22614634 L56.7117017,3.98282927 L59.7339116,3.98282927 L59.7339116,6.26037805 C59.7339116,6.41908537 59.7272818,6.53597561 59.7034144,6.82079268 C59.5615359,8.3555122 58.2123646,8.91395122 56.6967845,8.91395122 C55.1868398,8.91395122 53.8439669,8.3555122 53.7054033,6.82079268 C53.6719227,6.53597561 53.6719227,6.41908537 53.6719227,6.26037805 L53.6719227,2.69440244 C53.6719227,2.54162195 53.6891602,2.2742561 53.7113702,2.13728049 C53.896674,0.543621951 55.1868398,0.0408292683 56.6967845,0.0408292683 C58.2123646,0.0408292683 59.5442983,0.538353659 59.6957901,2.13728049 C59.7272818,2.39904878 59.7120331,2.69440244 59.7120331,2.69440244 L59.7170055,2.97032927 L57.5649613,2.97032927 L57.5649613,2.49684146 C57.5649613,2.49684146 57.5649613,2.29269512 57.5351271,2.17218293 C57.4989945,1.9907561 57.3325856,1.56073171 56.6798785,1.56073171 C56.0672818,1.56073171 55.8816464,1.96803659 55.8329171,2.17218293 C55.8063978,2.28578049 55.8014254,2.43757317 55.8014254,2.57553659 L55.8014254,6.45267073 C55.8014254,6.5600122 55.8063978,6.68085366 55.8163425,6.77634146 C55.858442,7.0074878 56.0732486,7.39009756 56.6934696,7.39009756" id="Fill-21"></path>
                                </g>
                            </g>
                        </g>
                    </g>
                </g>
            </g>
        </g>
    </g>
</svg>