<?xml version="1.0" encoding="UTF-8"?>
<svg width="60px" height="23px" viewBox="0 0 60 23" version="1.1" xmlns="http://www.w3.org/2000/svg" xmlns:xlink="http://www.w3.org/1999/xlink">
    <g id="Page-1" stroke="none" stroke-width="1" fill="none" fill-rule="evenodd">
        <g id="style-3" transform="translate(-1230.000000, -641.000000)" fill="#0F0F0F">
            <g id="Group-12-Copy-5" transform="translate(926.000000, 379.000000)">
                <g id="Group-Copy">
                    <g id="Group-42" transform="translate(16.000000, 110.000000)">
                        <g id="Group-7" transform="translate(0.000000, 109.000000)">
                            <g id="Group-11-Copy-15" transform="translate(276.000000, 23.000000)">
                                <path d="M63.3542466,20.2040574 C58.9502466,21.1579422 56.7876164,24.4529073 57.0371507,29.8293341 L61.7329315,29.4055525 C61.5189041,26.3681998 62.4325479,25.6476874 63.3565479,25.251322 L63.3542466,20.2040574 M56.8402192,38.2785541 L56.841863,42.9998328 L72,42.9998328 M72,43 L72,37.8141496 L56.8402192,38.2787213 M69.9553973,21.6704924 C68.5476164,20.3179017 66.4834521,19.763057 64.2258082,20.0927207 L64.2258082,25.0488764 C65.1399452,24.9972202 65.8808219,25.3422637 66.2109041,26.0370316 C66.7321644,27.1323442 66.1943014,28.7758146 64.9259178,30.2984195 C62.9679452,32.6480255 57.761589,37.457404 57.761589,37.457404 L65.2356164,37.2073143 C69.8025205,32.6700922 71.442411,29.9160965 71.7366575,26.4787007 C71.8913425,24.6602009 71.2421918,22.9079014 69.9553973,21.6704924 M36.8263562,38.8970914 L36.8263562,42.9998328 L42.4448219,42.9998328 L42.4448219,38.7247368 L36.8263562,38.8970914 M32.2333151,25.2073557 L32.2333151,43 L36.1040548,43 L36.1040548,24.6540155 L32.2333151,25.2073557 M48.9103562,38.524966 L48.9103562,43 L55.401863,43 L55.401863,38.3256967 L48.9103562,38.524966 M48.9103562,30.6471408 L48.9103562,35.1984053 L53.1652603,34.962191 L53.1652603,30.2766871 L48.9103562,30.6471408 M48.9103562,22.8181299 L48.9103562,27.2866442 L55.401863,26.5607823 L55.401863,21.8901567 L48.9103562,22.8181299 M43.624274,23.5739156 L43.624274,43 L48.0785753,43 L48.0785753,22.9371565 L43.624274,23.5739156 M26.0284932,39.2284268 L26.0284932,43 L30.9350137,43 L30.9350137,39.0779718 L26.0284932,39.2284268 M26.0284932,32.6465209 L26.0284932,36.471422 L29.2492603,36.2928821 L29.2492603,32.3646685 L26.0284932,32.6465209 M26.0284932,26.0943717 L26.0284932,29.8507322 L30.9350137,29.3017385 L30.9350137,25.3932512 L26.0284932,26.0943717 M21.9974795,26.6707816 L21.9974795,43 L25.3954521,43 L25.3954521,26.1848119 L21.9974795,26.6707816 M14.8107945,31.6219222 L14.8107945,43 L18.0355068,43 L18.0355068,31.2867418 L14.8107945,31.6219222 M12,28.0994357 L12,31.4198109 L20.808,30.4344977 L20.808,26.8407958 L12,28.0994357" id="Fill-1"></path>
                            </g>
                        </g>
                    </g>
                </g>
            </g>
        </g>
    </g>
</svg>