<?xml version="1.0" encoding="UTF-8"?>
<svg width="60px" height="38px" viewBox="0 0 60 38" version="1.1" xmlns="http://www.w3.org/2000/svg" xmlns:xlink="http://www.w3.org/1999/xlink">
    <defs>
        <polygon id="path-1" points="0 0.0650652401 59.9688204 0.0650652401 59.9688204 8.92696546 0 8.92696546"></polygon>
    </defs>
    <g id="Page-1" stroke="none" stroke-width="1" fill="none" fill-rule="evenodd">
        <g id="style-3" transform="translate(-954.000000, -524.000000)">
            <g id="Group-12-Copy-5" transform="translate(926.000000, 379.000000)">
                <g id="Group-Copy">
                    <g id="Group-42" transform="translate(16.000000, 110.000000)">
                        <g id="Group-6">
                            <g id="Group-11" transform="translate(0.000000, 23.000000)">
                                <g id="Group-10" transform="translate(12.000000, 12.000000)">
                                    <polygon id="Fill-1" fill="#FEFEFE" points="0 36.4584527 59.968835 36.4584527 59.968835 1.00069105 0 1.00069105"></polygon>
                                    <polygon id="Fill-2" fill="#005197" points="9.93334951 13.2202044 13.4306796 26.3752856 17.4905097 26.3752856 23.8068204 11.1398586 19.6891019 11.1398586 15.7100243 21.4841794 14.0748786 13.3892362"></polygon>
                                    <polygon id="Fill-3" fill="#005197" points="25.3450704 11.0832921 22.9194393 26.3753291 26.7549976 26.3753291 29.23575 11.0832921"></polygon>
                                    <g id="Group-17" transform="translate(0.000000, 0.019668)">
                                        <path d="M40.5164053,14.7180621 L41.0797063,11.515604 C41.0797063,11.515604 39.3876189,10.8408561 37.3581772,10.8408561 C35.3268422,10.8408561 30.9279102,12.1337419 30.9279102,15.8985263 C30.9279102,19.6656332 36.3986141,19.8342294 36.3986141,21.9128334 C36.3986141,23.9933244 31.4922306,23.768989 30.025216,22.4208721 L29.4048277,25.736768 C29.4048277,25.736768 31.6042937,26.5806203 33.5777403,26.5806203 C35.5519879,26.5806203 40.4612112,26.1312238 40.4612112,21.240916 C40.4612112,16.9667139 34.9895607,17.8107113 34.9895607,15.2251573 C34.9895607,15.2251573 35.5519879,12.6393856 40.5164053,14.7180621" id="Fill-4" fill="#005197"></path>
                                        <path d="M40.2332476,26.355639 L44.4631019,26.355639 L45.1975194,24.1628714 L50.3851893,24.1628714 L50.8173495,26.3361883 L54.4839029,26.3361883 L51.1196068,11.234303 L47.7352136,11.234303 C47.7352136,11.234303 46.4943641,11.3749571 45.9310631,12.8643088 C45.3952136,14.2803578 40.2332476,26.355639 40.2332476,26.355639" id="Fill-6" fill="#005197"></path>
                                        <polygon id="Fill-8" fill="#FEFEFE" points="49.765682 21.0151363 46.3244199 21.0151363 48.4687646 15.3933254"></polygon>
                                        <path d="M15.2815194,19.3464397 L14.0748932,13.3695823 C14.0748932,13.3695823 13.9114951,11.1247045 12.3067136,11.1247045 L5.75477184,11.1247045 L5.75477184,11.4364951 C5.75477184,11.4364951 12.2383398,12.5075858 15.2815194,19.3464397" id="Fill-10" fill="#005197"></path>
                                        <g id="Group-14" transform="translate(0.000000, 28.522743)">
                                            <mask id="mask-2" fill="white">
                                                <use xlink:href="#path-1"></use>
                                            </mask>
                                            <g id="Clip-13"></g>
                                            <polygon id="Fill-12" fill="#F5A700" mask="url(#mask-2)" points="59.9688204 0.0650652401 -1.45631068e-05 0.0650652401 -1.45631068e-05 8.92656629 59.9688204 8.92700175"></polygon>
                                        </g>
                                        <polygon id="Fill-15" fill="#005197" points="0 8.91368388 59.968835 8.91368388 59.968835 0.0529086002 0 0.0529086002"></polygon>
                                    </g>
                                </g>
                            </g>
                        </g>
                    </g>
                </g>
            </g>
        </g>
    </g>
</svg>