<?xml version="1.0" encoding="UTF-8"?>
<svg width="43px" height="44px" viewBox="0 0 43 44" version="1.1" xmlns="http://www.w3.org/2000/svg" xmlns:xlink="http://www.w3.org/1999/xlink">
    <defs>
        <polygon id="path-1" points="0 0.151938865 21.4790625 0.151938865 21.4790625 26.782444 0 26.782444"></polygon>
    </defs>
    <g id="Page-1" stroke="none" stroke-width="1" fill="none" fill-rule="evenodd">
        <g id="style-3" transform="translate(-963.000000, -739.000000)">
            <g id="Group-12-Copy-5" transform="translate(926.000000, 379.000000)">
                <g id="Group-Copy">
                    <g id="Group-42" transform="translate(16.000000, 110.000000)">
                        <g id="Group-38" transform="translate(0.000000, 218.000000)">
                            <g id="Group-11" transform="translate(0.000000, 23.000000)">
                                <g id="Group-4" transform="translate(21.000000, 9.000000)">
                                    <g id="Group-13" transform="translate(8.000000, 0.000000)">
                                        <g id="Group-3" transform="translate(0.000000, 0.363108)">
                                            <mask id="mask-2" fill="white">
                                                <use xlink:href="#path-1"></use>
                                            </mask>
                                            <g id="Clip-2"></g>
                                            <path d="M13.2200284,0.151938865 C15.2956534,0.151938865 17.2613352,0.638143234 19.0122443,1.5034222 C19.2868466,1.63424413 19.5614489,1.77948739 19.8360511,1.93760682 L18.6200284,3.03568702 L16.7908807,1.13104321 L13.7048011,3.90354122 L11.8715625,1.88867735 L6.12332386,7.10816366 L9.80923295,11.1986669 L8.36105114,12.481649 L11.9907102,16.579363 L10.5512216,17.8587397 L15.737983,23.6741354 L18.8169034,20.8187148 L21.4790625,23.878094 C20.9503125,24.2927068 20.372983,24.6831125 19.7378693,25.0441604 C17.8120739,26.1499663 15.5871307,26.782444 13.2200284,26.782444 C5.93872159,26.782444 -0.000255681818,20.8012032 -0.000255681818,13.467449 C-0.000255681818,6.13317968 5.93872159,0.151938865 13.2200284,0.151938865" id="Fill-1" fill="#0060B2" mask="url(#mask-2)"></path>
                                        </g>
                                        <polygon id="Fill-4" fill="#0060B2" points="10.8105341 12.9888158 13.9538864 10.1375156 16.7847955 13.3040246 13.6414432 16.1548097"></polygon>
                                        <polygon id="Fill-6" fill="#0060B2" points="13.0465227 18.4601601 16.189875 15.6093749 19.0207841 18.7753689 15.8769205 21.626669"></polygon>
                                        <polygon id="Fill-8" fill="#0060B2" points="8.56084091 7.58185238 11.7041932 4.73106723 14.5351023 7.89706115 11.3912386 10.7478463"></polygon>
                                        <polygon id="Fill-10" fill="#0060B2" points="14.329892 6.04773339 16.6872784 3.90925824 18.8104602 6.28413996 16.4525625 8.42261511"></polygon>
                                        <polygon id="Fill-12" fill="#0060B2" points="18.5194432 15.8406825 20.8768295 13.7027224 23.0000114 16.0776042 20.6421136 18.2155643"></polygon>
                                        <polygon id="Fill-14" fill="#0060B2" points="20.5926136 20.6370577 22.9505114 18.4990976 25.0736932 20.8734643 22.7157955 23.0114244"></polygon>
                                        <polygon id="Fill-16" fill="#0060B2" points="21.5431875 9.64353402 23.1151193 8.21788393 24.5305739 9.80165345 22.958642 11.2267885"></polygon>
                                        <polygon id="Fill-18" fill="#0060B2" points="19.5344489 4.9399703 21.1063807 3.5143202 22.5213239 5.09808973 20.9499034 6.52322478"></polygon>
                                        <polygon id="Fill-20" fill="#0060B2" points="23.5521818 14.3473553 25.1241136 12.9217052 26.5395682 14.5054747 24.9676364 15.9306098"></polygon>
                                        <polygon id="Fill-22" fill="#0060B2" points="16.5034432 10.8224766 18.8608295 8.68451651 20.9835 11.0588832 18.6261136 13.1973583"></polygon>
                                    </g>
                                    <g id="Group-24" transform="translate(0.000000, 33.000000)" fill="#0060B2">
                                        <path d="M20.2478788,1.23405371 L20.2039394,1.26374643 L20.160303,1.23405371 C19.8390909,0.935889286 19.4884848,0.816499798 19.0506061,0.816499798 C18.0430303,0.816499798 17.3857576,1.53221813 17.3857576,2.6500254 L17.3857576,7.88182123 L18.3933333,7.88182123 L18.3933333,2.6500254 C18.3933333,1.90461435 18.89,1.84522891 19.0506061,1.84522891 C19.1675758,1.84522891 19.3427273,1.87492163 19.4884848,1.99431112 C19.6348485,2.14308403 19.7075758,2.35186098 19.7075758,2.6500254 L19.7075758,7.88182123 L20.7154545,7.88182123 L20.7154545,2.6500254 C20.7154545,1.90461435 21.2121212,1.84522891 21.3724242,1.84522891 C21.4893939,1.84522891 21.6645455,1.87492163 21.8106061,1.99431112 C21.9566667,2.14308403 22.029697,2.35186098 22.029697,2.6500254 L22.029697,7.88182123 L23.0369697,7.88182123 L23.0369697,2.6500254 C23.0369697,2.06885222 22.8621212,1.59160357 22.5406061,1.26374643 C22.2487879,0.980737668 21.839697,0.816499798 21.3724242,0.816499798 C20.919697,0.816499798 20.5548485,0.950735647 20.2478788,1.23405371" id="Fill-24"></path>
                                        <path d="M27.1992121,5.49703167 C27.1992121,5.98881739 27.1992121,6.54029784 26.8340606,6.94300539 C26.688,7.0917783 26.4104242,7.28570889 25.9431515,7.28570889 C25.5049697,7.28570889 25.227697,7.0917783 25.0816364,6.94300539 C24.7164848,6.54029784 24.7164848,5.98881739 24.7164848,5.49703167 L24.7164848,5.03493868 C24.7164848,4.54315296 24.7164848,3.99136321 25.0816364,3.60412062 C25.227697,3.44019205 25.5049697,3.24626146 25.9431515,3.24626146 C26.4104242,3.24626146 26.688,3.44019205 26.8340606,3.60412062 C27.1992121,3.99136321 27.1992121,4.54315296 27.1992121,5.03493868 L27.1992121,5.49703167 Z M27.5937576,3.23141509 C27.257697,2.87355593 26.7025455,2.56054515 25.9431515,2.56054515 C25.2128485,2.56054515 24.658,2.87355593 24.3222424,3.23141509 C23.7964848,3.81289757 23.6943636,4.63254043 23.6943636,5.27309906 C23.6943636,5.89942992 23.7964848,6.71938208 24.3222424,7.30055526 C24.658,7.65810512 25.2128485,7.9711159 25.9431515,7.9711159 C26.7025455,7.9711159 27.257697,7.65810512 27.5937576,7.30055526 C28.1192121,6.71938208 28.2213333,5.89942992 28.2213333,5.27309906 C28.2213333,4.63254043 28.1192121,3.81289757 27.5937576,3.23141509 Z" id="Fill-26"></path>
                                        <path d="M29.0535152,2.65005633 L29.9007879,2.6649027 L29.9007879,3.12699569 C30.1489697,2.94822075 30.3680606,2.81398491 30.6165455,2.72459744 C30.9232121,2.59036159 31.142303,2.56066887 31.4486667,2.56066887 C31.8871515,2.56066887 32.3395758,2.65005633 32.7047273,3.06761024 C33.0550303,3.48485485 33.1280606,3.97694987 33.1280606,4.39419447 L33.1280606,7.8670058 L32.1932121,7.8670058 L32.1932121,4.31934407 C32.1932121,3.47000849 31.6680606,3.24607588 31.2298788,3.24607588 C30.7913939,3.24607588 30.3389697,3.44031577 29.9741212,3.78270997 L29.9741212,7.8670058 L29.0535152,7.8670058 L29.0535152,3.41031375 L29.0535152,2.65005633 Z" id="Fill-28"></path>
                                        <path d="M34.7930303,4.69238982 C34.7930303,4.09575168 34.9827273,3.75304818 35.1290909,3.58911961 C35.2748485,3.42519104 35.5084848,3.24610681 35.9027273,3.24610681 C36.1657576,3.24610681 36.4281818,3.30580155 36.6184848,3.49973214 C36.9545455,3.82758929 36.9545455,4.22998753 36.9545455,4.5878467 L36.9545455,4.81147001 L34.7930303,4.81147001 L34.7930303,4.69238982 Z M37.6990909,6.85346327 C37.5236364,6.94285074 37.3339394,7.01739185 37.100303,7.09193295 C36.8227273,7.18162972 36.6039394,7.2258595 36.3115152,7.2258595 C35.83,7.2258595 35.3918182,7.06224023 35.1578788,6.79376853 C34.9827273,6.6149936 34.7930303,6.25744373 34.7930303,5.63111287 L34.7930303,5.49718632 L37.9472727,5.49718632 L37.9472727,5.25871664 C37.9472727,4.42391813 37.9181818,3.73820182 37.4069697,3.18641206 C37.0712121,2.81401584 36.56,2.5606998 35.9172727,2.5606998 C35.2018182,2.5606998 34.6760606,2.87371058 34.3551515,3.24610681 C33.8290909,3.85759131 33.7706061,4.6620785 33.7706061,5.18386624 C33.7706061,5.76534872 33.8584848,6.63014926 34.3839394,7.2258595 C34.72,7.62825775 35.3184848,7.97127055 36.1657576,7.97127055 C36.5454545,7.97127055 36.9545455,7.92642217 37.3630303,7.7624936 C37.5821212,7.67310613 37.830303,7.55402594 37.9912121,7.46432918 L37.6990909,6.85346327 Z" id="Fill-30"></path>
                                        <path d="M43,2.66502642 L40.9993939,8.80616186 C40.9263636,9.07463356 40.7366667,9.52157089 40.5175758,9.77457763 C40.2545455,10.0730513 39.9042424,10.2072872 39.509697,10.2072872 C39.2321212,10.2072872 38.969697,10.1472832 38.7066667,9.99851024 C38.5463636,9.89396712 38.3851515,9.78973329 38.2830303,9.6703438 L38.7212121,9.10370768 C38.7942424,9.17886739 38.8963636,9.25340849 38.9842424,9.31248464 C39.13,9.4021814 39.3057576,9.44702978 39.4660606,9.44702978 C39.7436364,9.44702978 39.9187879,9.29794757 40.0063636,9.17886739 C40.1084848,9.04463154 40.2106061,8.73162075 40.2839394,8.53769016 L40.4009091,8.12044555 L38.2542424,2.66502642 L39.2615152,2.66502642 L40.5463636,5.92937008 C40.6781818,6.24176226 40.8093939,6.71932022 40.8387879,6.85355606 L40.8824242,6.85355606 C41.0430303,6.2275345 41.1163636,6.01844825 41.2478788,5.63120566 L42.1675758,2.66502642 L43,2.66502642 Z" id="Fill-32"></path>
                                        <path d="M3.70224242,7.56881044 L3.73163636,7.52396206 L3.77527273,7.56881044 C4.1110303,7.8521285 4.44709091,7.98636435 4.89981818,7.98636435 C5.90739394,7.98636435 6.56466667,7.25549036 6.56466667,6.15283875 L6.56466667,0.921042925 L5.54224242,0.921042925 L5.54224242,6.15283875 C5.54224242,6.8979405 5.04587879,6.94309818 4.89981818,6.94309818 C4.76830303,6.94309818 4.59315152,6.92794252 4.46163636,6.79370667 C4.31557576,6.65978012 4.24254545,6.43615681 4.24254545,6.15283875 L4.24254545,0.921042925 L3.22042424,0.921042925 L3.22042424,6.15283875 C3.22042424,6.8979405 2.72375758,6.94309818 2.56345455,6.94309818 C2.44648485,6.94309818 2.2710303,6.92794252 2.13981818,6.79370667 C1.99345455,6.65978012 1.92072727,6.43615681 1.92072727,6.15283875 L1.92072727,0.921042925 L0.898606061,0.921042925 L0.898606061,6.15283875 C0.898606061,6.71947487 1.07375758,7.19610492 1.3949697,7.52396206 C1.68709091,7.82212648 2.11072727,7.98636435 2.56345455,7.98636435 C3.01587879,7.98636435 3.3810303,7.83728214 3.70224242,7.56881044" id="Fill-34"></path>
                                        <path d="M8.37539394,4.69238982 C8.37539394,4.09575168 8.55054545,3.76820384 8.71115152,3.58911961 C8.84266667,3.4403467 9.07630303,3.24610681 9.47054545,3.24610681 C9.73357576,3.24610681 9.99660606,3.32064791 10.186303,3.5145785 C10.5220606,3.82758929 10.5220606,4.22998753 10.5220606,4.60269306 L10.5220606,4.81147001 L8.37539394,4.81147001 L8.37539394,4.69238982 Z M11.2523636,6.85346327 C11.0917576,6.92800438 10.9017576,7.01739185 10.6681212,7.09193295 C10.3908485,7.18162972 10.1714545,7.2258595 9.87963636,7.2258595 C9.39781818,7.2258595 8.95933333,7.06224023 8.72569697,6.79376853 C8.56509091,6.6149936 8.37539394,6.25744373 8.37539394,5.63111287 L8.37539394,5.49718632 L11.5005455,5.49718632 L11.5005455,5.25871664 C11.5005455,4.42391813 11.4714545,3.73820182 10.9747879,3.18641206 C10.6390303,2.8288622 10.1278182,2.57554616 9.47054545,2.57554616 C8.78418182,2.57554616 8.25872727,2.88855694 7.93721212,3.24610681 C7.39690909,3.87243767 7.3529697,4.67692487 7.3529697,5.18386624 C7.3529697,5.76534872 7.42630303,6.63014926 7.95206061,7.2258595 C8.30236364,7.61372069 8.88660606,7.97127055 9.73357576,7.97127055 C10.1132727,7.97127055 10.5075152,7.91157581 10.9311515,7.74764724 C11.1499394,7.67310613 11.3835758,7.53887028 11.5444848,7.44948282 L11.2523636,6.85346327 Z" id="Fill-36"></path>
                                        <path d="M14.2603636,3.24616867 C14.6255152,3.24616867 15.0055152,3.36555815 15.2388485,3.61918349 C15.5603636,3.97673336 15.5603636,4.51305815 15.5603636,4.97546044 L15.5603636,5.42239778 C15.5603636,6.30204468 15.414303,6.65959454 15.2827879,6.85352513 C15.1367273,7.04745573 14.8303636,7.2859254 14.3046061,7.2859254 C14.1146061,7.2859254 13.8806667,7.22592136 13.7055152,7.18169158 C13.574303,7.13653389 13.413697,7.04745573 13.2821818,6.97260532 L13.2821818,3.55917945 M15.8376364,3.09739575 C15.4724848,2.76922931 14.9612727,2.57560802 14.4358182,2.57560802 C14.2021818,2.57560802 13.954,2.6201471 13.7785455,2.65014912 C13.6327879,2.69468821 13.4427879,2.76922931 13.2821818,2.82892406 L13.2821818,0.786930795 L12.3621818,0.786930795 L12.3621818,7.41954265 C12.9024848,7.7477091 13.5452121,7.97102311 14.2752121,7.97102311 C14.8152121,7.97102311 15.5458182,7.85225222 16.0712727,7.15138026 C16.4949091,6.56989778 16.5824848,5.83995168 16.5824848,5.24362284 C16.5824848,4.67698673 16.5388485,3.70826166 15.8376364,3.09739575" id="Fill-38"></path>
                                    </g>
                                </g>
                            </g>
                        </g>
                    </g>
                </g>
            </g>
        </g>
    </g>
</svg>