<?xml version="1.0" encoding="UTF-8"?>
<svg width="30px" height="40px" viewBox="0 0 30 40" version="1.1" xmlns="http://www.w3.org/2000/svg" xmlns:xlink="http://www.w3.org/1999/xlink">
    <g id="Page-1" stroke="none" stroke-width="1" fill="none" fill-rule="evenodd">
        <g id="style-3" transform="translate(-1153.000000, -738.000000)">
            <g id="Group-12-Copy-5" transform="translate(926.000000, 379.000000)">
                <g id="Group-Copy">
                    <g id="Group-42" transform="translate(16.000000, 110.000000)">
                        <g id="Group-38" transform="translate(0.000000, 218.000000)">
                            <g id="Group-11-Copy-14" transform="translate(184.000000, 23.000000)">
                                <g id="Group-26" transform="translate(27.000000, 8.000000)">
                                    <path d="M0.000424528302,19.7790681 C0.000424528302,17.5400717 0.185660377,16.1192832 4.76235849,12.6579211 C8.55141509,9.79240143 20.6963208,0 20.6963208,0 L20.6963208,16.3466667 L29.9323585,16.3466667 L29.9323585,39.8736918 L2.88523585,39.8736918 C1.29863208,39.8736918 0,38.5579928 0,36.9505376 L0.000424528302,19.7790681" id="Fill-1" fill="#FFCB34"></path>
                                    <polygon id="Fill-4" fill="#C99F24" points="20.6963208 16.346681 20.6963208 25.8183656 3.72466981 37.5323441 25.1823113 30.4589391 25.1823113 16.346681"></polygon>
                                    <path d="M12.9407972,15.8567885 C13.9332028,14.6586523 15.382684,14.2355699 16.178533,14.9122724 C16.9743821,15.5889749 16.8153255,17.1089749 15.8227783,18.3071111 C14.8309387,19.5051039 13.381033,19.9276129 12.585184,19.2509104 C11.7891934,18.5743513 11.9486745,17.0547814 12.9407972,15.8567885" id="Fill-5" fill="#211300"></path>
                                </g>
                            </g>
                        </g>
                    </g>
                </g>
            </g>
        </g>
    </g>
</svg>