<?xml version="1.0" encoding="UTF-8"?>
<svg width="18px" height="17px" viewBox="0 0 18 17" version="1.1" xmlns="http://www.w3.org/2000/svg" xmlns:xlink="http://www.w3.org/1999/xlink">
    <title>arrow-right</title>
    <defs>
        <path d="M365.653164,120.138654 L366.545028,119.274445 C366.922665,118.908518 367.533311,118.908518 367.90693,119.274445 L375.716773,126.838218 C376.094409,127.204145 376.094409,127.795855 375.716773,128.157889 L367.90693,135.725555 C367.529294,136.091482 366.918647,136.091482 366.545028,135.725555 L365.653164,134.861346 C365.27151,134.491527 365.279545,133.888138 365.669233,133.526105 L370.510211,129.057133 L358.964178,129.057133 C358.429863,129.057133 358,128.6406 358,128.122853 L358,126.877147 C358,126.3594 358.429863,125.942867 358.964178,125.942867 L370.510211,125.942867 L365.669233,121.473895 C365.275527,121.111862 365.267492,120.508473 365.653164,120.138654 Z" id="path-1"></path>
    </defs>
    <g id="Page-1" stroke="none" stroke-width="1" fill="none" fill-rule="evenodd">
        <g id="style-3" transform="translate(-2188.000000, -1105.000000)">
            <g id="Group-12-Copy-9" transform="translate(1830.000000, 986.000000)">
                <g id="Group-Copy">
                    <mask id="mask-2" fill="white">
                        <use xlink:href="#path-1"></use>
                    </mask>
                    <use id="arrow-right" fill="#7B7B7B" fill-rule="nonzero" xlink:href="#path-1"></use>
                </g>
            </g>
        </g>
    </g>
</svg>