<?xml version="1.0" encoding="UTF-8"?>
<svg width="15px" height="16px" viewBox="0 0 15 16" version="1.1" xmlns="http://www.w3.org/2000/svg" xmlns:xlink="http://www.w3.org/1999/xlink">
    <g id="Page-1" stroke="none" stroke-width="1" fill="none" fill-rule="evenodd">
        <g id="style-3" transform="translate(-7478.000000, -1620.000000)" fill="#BFBFBF" fill-rule="nonzero">
            <g id="Group-78" transform="translate(7197.000000, 1121.000000)">
                <g id="Group-68-Copy-5">
                    <g id="Group-12-Copy-23">
                        <g id="Group-Copy">
                            <g id="Group-12-Copy">
                                <path d="M296,502.212355 C296,501.409266 295.6875,500.606178 295.0625,499.926641 C294.4375,499.30888 293.5625,499 292.75,499 C291.9375,499 291.1875,499.30888 290.5625,499.864865 L290.4375,499.988417 L282.1875,508.019305 C281.375,508.760618 281,509.810811 281,510.799228 C281,511.849421 281.4375,512.96139 282.25,513.764479 C283.125,514.567568 284.1875,515 285.3125,515 C286.375,515 287.375,514.629344 288.1875,513.888031 L295.0625,507.15444 L295.5625,506.660232 L294.5,505.671815 L287.0625,512.899614 C286.5625,513.393822 285.9375,513.640927 285.25,513.640927 C284.5,513.640927 283.8125,513.393822 283.1875,512.837838 C282.5625,512.281853 282.3125,511.540541 282.3125,510.861004 C282.3125,510.181467 282.5625,509.563707 283.0625,509.069498 L291.3125,501.03861 L291.4375,500.915058 C291.75,500.606178 292.1875,500.482625 292.5625,500.482625 C293,500.482625 293.5,500.667954 293.875,501.03861 C294.25,501.409266 294.4375,501.841699 294.4375,502.274131 C294.4375,502.706564 294.3125,503.07722 294,503.3861 L288.1875,509.069498 L287.6875,509.563707 C287.5625,509.687259 287.4375,509.749035 287.25,509.749035 C287.0625,509.749035 286.875,509.687259 286.75,509.563707 C286.625,509.440154 286.5,509.254826 286.5,509.069498 C286.5,508.88417 286.5625,508.760618 286.6875,508.637066 L292.0625,503.3861 L291,502.397683 L285.625,507.648649 C285.1875,508.019305 285,508.57529 285,509.069498 C285,509.625483 285.25,510.181467 285.625,510.6139 C286,511.046332 286.625,511.23166 287.1875,511.23166 C287.6875,511.23166 288.25,511.046332 288.625,510.6139 L289.125,510.119691 L294.9375,504.436293 C295.6875,503.818533 296,503.015444 296,502.212355 L296,502.212355 Z" id="Shape"></path>
                            </g>
                        </g>
                    </g>
                </g>
            </g>
        </g>
    </g>
</svg>