<?xml version="1.0" encoding="UTF-8"?>
<svg width="22px" height="24px" viewBox="0 0 22 24" version="1.1" xmlns="http://www.w3.org/2000/svg" xmlns:xlink="http://www.w3.org/1999/xlink">
    <!-- Generator: Sketch 56.3 (81716) - https://sketch.com -->
    <title>calendar_rest@svg</title>
    <desc>Created with Sketch.</desc>
    <g id="Платежная-страница-v2.0" stroke="none" stroke-width="1" fill="none" fill-rule="evenodd">
        <g id="Artboard" transform="translate(-38.000000, -452.000000)" fill="#C7C7C7" fill-rule="nonzero">
            <path d="M54,454 L57,454 C58.6568542,454 60,455.343146 60,457 L60,473 C60,474.656854 58.6568542,476 57,476 L41,476 C39.3431458,476 38,474.656854 38,473 L38,457 C38,455.343146 39.3431458,454 41,454 L44,454 L44,453 C44,452.447715 44.4477153,452 45,452 C45.5522847,452 46,452.447715 46,453 L46,454 L52,454 L52,453 C52,452.447715 52.4477153,452 53,452 C53.5522847,452 54,452.447715 54,453 L54,454 Z M54,456 L54,458 C54,458.552285 53.5522847,459 53,459 C52.4477153,459 52,458.552285 52,458 L52,456 L46,456 L46,458 C46,458.552285 45.5522847,459 45,459 C44.4477153,459 44,458.552285 44,458 L44,456 L41,456 C40.4477153,456 40,456.447715 40,457 L40,473 C40,473.552285 40.4477153,474 41,474 L57,474 C57.5522847,474 58,473.552285 58,473 L58,457 C58,456.447715 57.5522847,456 57,456 L54,456 Z M42,461 L44,461 L44,463 L42,463 L42,461 Z M46,461 L48,461 L48,463 L46,463 L46,461 Z M50,461 L52,461 L52,463 L50,463 L50,461 Z M54,461 L56,461 L56,463 L54,463 L54,461 Z M42,465 L44,465 L44,467 L42,467 L42,465 Z M46,465 L48,465 L48,467 L46,467 L46,465 Z M50,465 L52,465 L52,467 L50,467 L50,465 Z M54,465 L56,465 L56,467 L54,467 L54,465 Z M42,469 L44,469 L44,471 L42,471 L42,469 Z M46,469 L48,469 L48,471 L46,471 L46,469 Z M50,469 L52,469 L52,471 L50,471 L50,469 Z M54,469 L56,469 L56,471 L54,471 L54,469 Z" id="calendar_rest"></path>
        </g>
    </g>
</svg>