<?xml version="1.0" encoding="UTF-8"?>
<svg width="22px" height="20px" viewBox="0 0 22 20" version="1.1" xmlns="http://www.w3.org/2000/svg" xmlns:xlink="http://www.w3.org/1999/xlink">
    <!-- Generator: Sketch 56.3 (81716) - https://sketch.com -->
    <title>card_rest@svg</title>
    <desc>Created with Sketch.</desc>
    <g id="Платежная-страница-v2.0" stroke="none" stroke-width="1" fill="none" fill-rule="evenodd">
        <g id="Artboard" transform="translate(-38.000000, -418.000000)" fill="#B5B5B5" fill-rule="nonzero">
            <path d="M41,418 L57,418 C58.6568542,418 60,419.343146 60,421 L60,424 L38,424 L38,421 C38,419.343146 39.3431458,418 41,418 Z M58,422 L58,421 C58,420.447715 57.5522847,420 57,420 L41,420 C40.4477153,420 40,420.447715 40,421 L40,422 L58,422 Z M38,426 L60,426 L60,435 C60,436.656854 58.6568542,438 57,438 L41,438 C39.3431458,438 38,436.656854 38,435 L38,426 Z M40,428 L40,435 C40,435.552285 40.4477153,436 41,436 L57,436 C57.5522847,436 58,435.552285 58,435 L58,428 L40,428 Z" id="card_rest"></path>
        </g>
    </g>
</svg>