<?xml version="1.0" encoding="UTF-8"?>
<svg width="286px" height="62px" viewBox="0 0 286 62" version="1.1" xmlns="http://www.w3.org/2000/svg" xmlns:xlink="http://www.w3.org/1999/xlink">
    <!-- Generator: Sketch 56.3 (81716) - https://sketch.com -->
    <title>cvc_tooltip@svg</title>
    <desc>Created with Sketch.</desc>
    <defs>
        <rect id="path-1" x="0" y="0.447276092" width="286" height="61"></rect>
    </defs>
    <g id="Платежная-страница-v2.0" stroke="none" stroke-width="1" fill="none" fill-rule="evenodd">
        <g id="Artboard" transform="translate(-319.000000, -423.000000)">
            <g id="cvc_tooltip" transform="translate(319.000000, 423.000000)">
                <g id="Group-15">
                    <mask id="mask-2" fill="white">
                        <use xlink:href="#path-1"></use>
                    </mask>
                    <use id="Mask" fill="#FFFFFF" xlink:href="#path-1"></use>
                    <g opacity="0.300000012" mask="url(#mask-2)" fill="#CFDEE6">
                        <g transform="translate(109.424611, 25.500000) rotate(35.000000) translate(-109.424611, -25.500000) translate(3.924611, -80.000000)">
                            <rect id="Rectangle" x="0.7899771" y="0.558806809" width="10" height="209"></rect>
                            <rect id="Rectangle-Copy-22" x="41.0142526" y="0.471281428" width="10" height="209"></rect>
                            <rect id="Rectangle-Copy-24" x="79.600224" y="1.53090892" width="10" height="209"></rect>
                            <rect id="Rectangle-Copy-26" x="119.8245" y="1.44338354" width="10" height="209"></rect>
                            <rect id="Rectangle-Copy-21" x="20.2057506" y="0.392256314" width="10" height="209"></rect>
                            <rect id="Rectangle-Copy-23" x="60.4300261" y="0.304730933" width="10" height="209"></rect>
                            <rect id="Rectangle-Copy-25" x="100.654302" y="0.217205553" width="10" height="209"></rect>
                            <rect id="Rectangle-Copy-27" x="140.878577" y="0.129680172" width="10" height="209"></rect>
                            <rect id="Rectangle-Copy-28" x="160.048775" y="1.35585816" width="10" height="209"></rect>
                            <rect id="Rectangle-Copy-29" x="179.464549" y="1.18930766" width="10" height="209"></rect>
                            <rect id="Rectangle-Copy-30" x="200.27305" y="1.26833278" width="10" height="209"></rect>
                        </g>
                    </g>
                </g>
                <rect id="Rectangle-Copy-31" fill="#FFFFFF" x="206" y="0.447276092" width="80" height="61"></rect>
                <path d="M206,0.447276092 L286,0.447276092 L286,61.4472761 L206,61.4472761 L206,0.447276092 Z M209,3.44727609 L209,58.4472761 L283,58.4472761 L283,3.44727609 L209,3.44727609 Z" id="Rectangle-Copy-20" fill="#F20F0F" fill-rule="nonzero"></path>
                <path d="M48.1829967,45.2785273 C42.576938,56.2198261 35.0054335,58.5020548 26.1856673,48.9973226 C25.2524854,47.9916673 25.5325607,47.1311574 27.0430159,46.1148611 C28.3852651,45.2117407 30.498472,44.3573678 33.5603799,43.3889058 C34.3897985,43.126566 38.7804798,41.8218971 39.7223855,41.5022458 C42.9187909,40.4174928 46.1704932,39.6773636 50.8131004,38.9140761 C50.0590623,41.1726541 49.1761757,43.340148 48.1829967,45.2785273 Z M53.9316855,38.4271298 C54.5771779,38.3307419 54.9471975,38.2763828 56.3090246,38.0771679 C60.282999,37.4958348 62.1749761,37.19693 64.388146,36.7714409 C64.5299543,36.7441778 64.6755448,36.7155495 64.9655196,36.6583367 C65.6218319,36.5293472 66.0125456,36.4600042 66.4271922,36.405287 C67.6751911,36.2405999 68.608473,36.3135754 69.3661901,36.6969114 C68.7143655,37.0888732 68.0430618,37.5308356 67.3579259,38.0173611 C65.4109688,39.399925 63.4485825,41.084986 62.0437648,42.5375531 C61.3913549,43.2121383 60.9049271,43.7913964 60.6432524,44.2110151 C60.473953,44.4825018 60.3827778,44.7021796 60.3876001,44.9226979 C60.3972593,45.3644011 60.7609629,45.5816338 61.1618067,45.5283672 C62.0298884,45.4130112 65.5170363,43.5616921 67.7853043,41.9020397 C69.2497152,40.8305556 70.2990408,39.8129991 70.8088984,38.8818937 C71.1993578,38.1688343 71.2693874,37.4960398 71.0044072,36.9206233 C72.0637782,36.3640806 73.0416943,35.9742427 73.8996071,35.781531 C75.6928105,35.3787264 76.8141321,35.8368847 77.3199191,37.2961833 C77.4090865,37.5534493 77.403512,37.8023533 77.3058097,38.0411093 C74.8067823,38.5036254 72.965001,38.9255848 71.7775548,39.2962998 C70.7331143,39.622369 70.226706,39.8739271 70.0963482,40.2714618 C69.9577417,40.6941515 70.2249874,40.9653838 70.5908116,41.0817187 C70.7755539,41.1404682 71.0186685,41.1709348 71.3171905,41.1792613 C72.548278,41.2135996 74.4355938,40.8866875 75.8329577,40.3364445 C76.7822789,39.9626282 77.511294,39.4951672 77.9447127,38.9406863 C79.809829,38.6026913 82.0280858,38.2424005 84.5988363,37.8646928 C87.1649826,37.4876616 89.6906113,37.4232691 93.3172601,37.5778737 C91.62242,38.3427131 90.6004038,39.1871028 90.5114683,39.9219013 C90.3998114,40.8444284 91.3192297,41.034518 92.4517735,40.6879114 C93.5066765,40.3650662 94.8728195,39.5900909 96.3905018,38.4023129 C96.7467844,38.1234768 96.7483637,37.7909076 96.5604487,37.4899331 C97.0823044,37.3437623 97.6366273,37.2057105 98.2195781,37.0799916 C101.741904,36.3203682 105.421311,35.9652622 110.394638,35.7971896 C110.955991,35.7782188 111.46146,35.763099 112.067989,35.7475063 C111.979467,35.8122154 111.902597,35.8799809 111.837233,35.9517208 C111.544864,36.272605 111.706518,36.5844733 111.951215,36.7489496 C112.018348,36.7940744 112.093899,36.8285918 112.190902,36.8642583 C112.333225,36.9165882 112.53804,36.9755875 112.809557,37.0438164 C113.306553,37.1687054 114.036226,37.326428 114.974684,37.5131435 C116.676018,37.8516403 119.038331,38.2801059 121.685445,38.7339208 C127.066865,39.6564983 131.742292,40.3768848 132.101947,40.3019793 C132.372289,40.2456753 132.5458,39.9808769 132.489496,39.7105355 C132.433192,39.4401941 132.168394,39.2666825 131.898053,39.3229865 C131.745247,39.3548114 126.609466,38.563494 121.854418,37.7483 C119.215299,37.2958559 116.860996,36.8688431 115.169819,36.5323671 C114.49212,36.3975323 113.926421,36.2783554 113.484599,36.1770501 C113.547438,36.1551859 113.612865,36.1332739 113.680715,36.1113964 C113.876622,36.0482294 114.082619,35.9877762 114.327793,35.9200703 C114.406498,35.8983354 114.775231,35.7985799 114.856773,35.7755243 C115.170193,35.6869069 115.206161,35.6745152 115.318872,35.560963 C115.527956,35.2204678 115.527956,35.2204678 115.252964,34.7887992 C115.072476,34.7001589 115.072476,34.7001589 115.001711,34.69345 C114.939913,34.6851841 114.869508,34.6835322 114.772392,34.6856185 L114.621974,34.6888481 C112.479751,34.734827 111.544854,34.7577475 110.360863,34.7977602 C105.333124,34.9676716 101.60016,35.3279465 98.0087652,36.1024652 C97.1232355,36.2934382 96.2964088,36.5108962 95.5393246,36.7468164 C95.4092696,36.7024352 95.2817781,36.6744218 95.1661699,36.6680337 C90.4755134,36.4088422 87.5054878,36.426897 84.4534718,36.8753146 C82.153941,37.2131734 80.1329605,37.5374665 78.3897312,37.8452606 C78.410827,37.5677265 78.3710678,37.275373 78.264776,36.9686997 C77.5731781,34.9732991 75.9278078,34.3010207 73.6804399,34.8058437 C72.6784892,35.0309104 71.5554372,35.486694 70.3506942,36.1352445 C70.2182944,36.0338216 70.0694907,35.9384381 69.9041301,35.8496931 C68.9143202,35.3184865 67.76893,35.2195608 66.2963654,35.4138818 C65.8553801,35.4720746 65.4482959,35.5443231 64.7726722,35.677108 C64.481897,35.7344766 64.3387392,35.7626266 64.1993502,35.7894246 C62.0055484,36.21119 60.123685,36.5084971 56.1642801,37.0876988 C54.8013458,37.2870757 54.4308677,37.3415022 53.7839985,37.4380956 C53.2600266,37.5163375 52.7522511,37.5936199 52.2593867,37.6702989 C54.6110468,29.9171672 55.4633258,21.4818941 54.1185959,17.3597378 C50.4690915,6.17248934 41.9222342,4.37658788 30.9626373,10.0701713 C22.459281,14.4877215 13.0762419,23.4598903 9.56114919,29.8980246 C9.42881968,30.1403952 9.51802562,30.4441497 9.76039623,30.5764792 C10.0027668,30.7088087 10.3065213,30.6196028 10.4388508,30.3772322 C13.8566068,24.1173768 23.0930905,15.285346 31.4236454,10.9575673 C41.8964404,5.51688061 49.7410782,7.16522876 53.1679033,17.6698727 C54.469187,21.6588482 53.5624487,30.1461853 51.1584812,37.8446333 C46.1921869,38.6458187 42.7755691,39.4100815 39.4010205,40.5552904 C38.480924,40.8675404 34.1046354,42.1679326 33.2588115,42.4354613 C30.1095192,43.4315623 27.9301117,44.3127003 26.4847742,45.2851827 C24.5254404,46.6035029 24.0254965,48.1395426 25.452641,49.6775229 C34.8061566,59.7574568 43.1814645,57.232943 49.0729748,45.7345307 C50.1617297,43.6096167 51.1204804,41.2199729 51.9255891,38.7348541 C52.5672859,38.6334612 53.2349648,38.5311673 53.9316855,38.4271298 Z M69.9317889,38.4016033 C69.5091459,39.1734368 68.5504833,40.1030752 67.1948072,41.0949999 C65.5464602,42.3010668 63.1716697,43.638069 61.8664195,44.2296868 C62.0990504,43.9434376 62.4025755,43.6049953 62.7625876,43.2327464 C64.1245254,41.8245168 66.040089,40.1796614 67.9369103,38.8326997 C68.6881862,38.2992072 69.4205369,37.8224682 70.1239054,37.4104192 C70.217205,37.6877663 70.1469244,38.0087214 69.9317889,38.4016033 Z M95.4943541,37.8303132 C94.1811551,38.8250388 93.0225178,39.4674564 92.1591291,39.7316901 C91.9241487,39.8036041 91.7279845,39.8410541 91.5841794,39.8495319 C91.9289088,39.3278489 93.3440731,38.5221137 95.4769749,37.8194131 C95.4827989,37.8230076 95.4885944,37.8266418 95.4943541,37.8303132 Z" id="Path-6" fill="#262626" fill-rule="nonzero"></path>
                <path d="M231.777344,39.4472761 L234.496094,26.4746198 C233.324213,27.3964995 231.675792,28.1347733 229.550781,28.6894636 L229.949219,26.7675886 C231.003912,26.3457115 232.044917,25.7949357 233.072266,25.1152448 C234.099615,24.4355539 234.871091,23.8418099 235.386719,23.3339948 C235.69922,23.0214933 235.996092,22.6425908 236.277344,22.1972761 L237.507812,22.1972761 L233.910156,39.4472761 L231.777344,39.4472761 Z M239.753906,39.4472761 C239.972657,38.4238335 240.275389,37.5664202 240.662109,36.8750105 C241.04883,36.1836008 241.562497,35.5273573 242.203125,34.9062605 C242.843753,34.2851636 244.078116,33.2441584 245.90625,31.7832136 C247.015631,30.9003967 247.773435,30.2480595 248.179688,29.8261823 C248.765628,29.2168043 249.191405,28.619154 249.457031,28.0332136 C249.63672,27.6347741 249.726562,27.2011847 249.726562,26.7324323 C249.726562,25.9433659 249.447268,25.2734507 248.888672,24.7226667 C248.330075,24.1718827 247.644535,23.8964948 246.832031,23.8964948 C246.02734,23.8964948 245.324222,24.1757889 244.722656,24.7343855 C244.121091,25.292982 243.691408,26.1894574 243.433594,27.4238386 L241.359375,27.1191511 C241.562501,25.595706 242.154292,24.3945461 243.134766,23.5156355 C244.115239,22.6367248 245.33593,22.1972761 246.796875,22.1972761 C247.773442,22.1972761 248.658199,22.4003991 249.451172,22.8066511 C250.244145,23.2129031 250.839842,23.7832099 251.238281,24.5175886 C251.636721,25.2519673 251.835938,26.0097722 251.835938,26.7910261 C251.835938,27.9316568 251.429692,29.0293021 250.617188,30.0839948 C250.117185,30.7402481 248.64845,32.0332039 246.210938,33.9629011 C245.164057,34.7910302 244.384768,35.4707109 243.873047,36.0019636 C243.361326,36.5332162 242.976564,37.0332112 242.71875,37.5019636 L250.40625,37.5019636 L249.996094,39.4472761 L239.753906,39.4472761 Z M252.007812,34.9472761 L254.070312,34.6894636 C254.226563,35.8925946 254.572263,36.7539141 255.107422,37.273448 C255.642581,37.7929818 256.343746,38.0527448 257.210938,38.0527448 C258.257818,38.0527448 259.162106,37.6777486 259.923828,36.9277448 C260.685551,36.1777411 261.066406,35.3183747 261.066406,34.3496198 C261.066406,33.5058656 260.781253,32.808607 260.210938,32.257823 C259.640622,31.707039 258.875005,31.4316511 257.914062,31.4316511 C257.804687,31.4316511 257.578127,31.4472759 257.234375,31.4785261 L257.597656,29.7089948 C257.800782,29.740245 257.996093,29.7558698 258.183594,29.7558698 C259.394537,29.7558698 260.326169,29.4609509 260.978516,28.8711042 C261.630863,28.2812575 261.957031,27.5566554 261.957031,26.6972761 C261.957031,25.9082096 261.689456,25.2441538 261.154297,24.7050886 C260.619138,24.1660234 259.964848,23.8964948 259.191406,23.8964948 C258.43359,23.8964948 257.751956,24.1718827 257.146484,24.7226667 C256.541013,25.2734507 256.152345,26.0527398 255.980469,27.0605573 L253.894531,26.6386823 C254.238283,25.2246128 254.898433,24.1308737 255.875,23.3574323 C256.851567,22.583991 258.007812,22.1972761 259.34375,22.1972761 C260.750007,22.1972761 261.888668,22.6230531 262.759766,23.4746198 C263.630864,24.3261866 264.066406,25.3730511 264.066406,26.6152448 C264.066406,27.5214994 263.83008,28.3125071 263.357422,28.9882917 C262.884763,29.6640763 262.175786,30.2246176 261.230469,30.6699323 C261.902347,31.0683718 262.404295,31.5488358 262.736328,32.1113386 C263.068361,32.6738414 263.234375,33.3183662 263.234375,34.0449323 C263.234375,35.5840025 262.658209,36.9179736 261.505859,38.0468855 C260.35351,39.1757974 258.976571,39.7402448 257.375,39.7402448 C255.820305,39.7402448 254.564458,39.3047023 253.607422,38.4336042 C252.650386,37.5625061 252.117188,36.4004084 252.007812,34.9472761 Z" id="123" fill="#404040" fill-rule="nonzero"></path>
            </g>
        </g>
    </g>
</svg>