<svg xmlns="http://www.w3.org/2000/svg" width="16" height="16" viewBox="0 0 16 16">
    <path fill="#272424" fill-rule="evenodd" d="M8 16A8 8 0 1 1 8 0a8 8 0 0 1 0 16zm-.839-7H8.68c.007-.25.045-.456.112-.618.067-.163.187-.321.36-.476l.611-.527c.259-.233.446-.461.563-.684a1.58 1.58 0 0 0 .175-.744c0-.624-.217-1.105-.65-1.444C9.416 4.17 8.805 4 8.016 4c-.793 0-1.408.183-1.847.55-.439.365-.662.877-.669 1.534h1.794c.007-.247.076-.442.207-.586a.662.662 0 0 1 .515-.217c.46 0 .69.248.69.744a.87.87 0 0 1-.204.559c-.137.169-.336.355-.598.559a1.789 1.789 0 0 0-.567.722C7.22 8.142 7.16 8.52 7.16 9zM7 11.5c0 .292.095.532.286.719.19.187.429.281.714.281a.978.978 0 0 0 .714-.281A.964.964 0 0 0 9 11.5a.964.964 0 0 0-.286-.719A.978.978 0 0 0 8 10.5a.978.978 0 0 0-.714.281A.964.964 0 0 0 7 11.5z"/>
</svg>
