<?xml version="1.0" encoding="utf-8"?>
<svg width="73px" height="65px" viewBox="0 0 73 65" version="1.1" xmlns:xlink="http://www.w3.org/1999/xlink" xmlns="http://www.w3.org/2000/svg">
  <desc>Created with Lunacy</desc>
  <g id="Group-21" transform="translate(0.5 0.5)">
    <path d="M59.3928 0L67.201 0C69.4096 0 70.2718 1.53163 69.0575 3.37643C61.1716 15.3568 56.0684 18.1573 47.5876 32C40.9872 42.7735 34.4016 48.5146 28.5594 55.2014C24.5645 59.7738 17.0679 64 10.9961 64L1.999 64C0.894983 64 0.451017 63.2267 1.04249 62.2945C8.4613 50.6018 21.0962 39.2314 28.8465 26.0352C33.7417 17.7 37.3339 13.7156 40.7454 9.60222C44.9075 4.58377 52.873 0 59.3928 0Z" id="Path-12" fill="#FFFFFF" stroke="none" />
    <path d="M59.3928 0L67.201 0C69.4096 0 70.2718 1.53163 69.0575 3.37643C61.1716 15.3568 56.0684 18.1573 47.5876 32C40.9872 42.7735 34.4016 48.5146 28.5594 55.2014C24.5645 59.7738 17.0679 64 10.9961 64L1.999 64C0.894983 64 0.451017 63.2267 1.04249 62.2945C8.4613 50.6018 21.0962 39.2314 28.8465 26.0352C33.7417 17.7 37.3339 13.7156 40.7454 9.60222C44.9075 4.58377 52.873 0 59.3928 0Z" transform="matrix(1 0 0 -1 0 64)" id="Path-12-Copy" fill="#FFFFFF" fill-opacity="0.8" stroke="none" />
  </g>
</svg>