<?xml version="1.0" encoding="UTF-8"?>
<svg width="32px" height="32px" viewBox="0 0 32 32" version="1.1" xmlns="http://www.w3.org/2000/svg" xmlns:xlink="http://www.w3.org/1999/xlink">
    <g id="Page-1" stroke="none" stroke-width="1" fill="none" fill-rule="evenodd">
        <g id="style-3" transform="translate(-6346.000000, -1625.000000)" fill="#E53935">
            <g id="Group-68-Copy-3" transform="translate(6314.000000, 1537.000000)">
                <g id="Group-60-Copy" transform="translate(16.000000, 76.000000)">
                    <g id="Group-12-Copy-21">
                        <g id="Group-Copy">
                            <g id="Group-58">
                                <g id="Group-54">
                                    <path d="M32,44 C40.836556,44 48,36.836556 48,28 C48,19.163444 40.836556,12 32,12 C23.163444,12 16,19.163444 16,28 C16,36.836556 23.163444,44 32,44 Z M32,41 C39.1797017,41 45,35.1797017 45,28 C45,20.8202983 39.1797017,15 32,15 C24.8202983,15 19,20.8202983 19,28 C19,35.1797017 24.8202983,41 32,41 Z M36.667,21 L32,25.667 L27.334,21 L25,23.334 L29.667,28 L25,32.668 L27.334,35 L32,30.333 L36.667,35 L39.001,32.668 L34.333,28 L39.001,23.334 L36.667,21 Z" id="Combined-Shape"></path>
                                </g>
                            </g>
                        </g>
                    </g>
                </g>
            </g>
        </g>
    </g>
</svg>