<?xml version="1.0" encoding="UTF-8"?>
<svg width="22px" height="23px" viewBox="0 0 22 23" version="1.1" xmlns="http://www.w3.org/2000/svg" xmlns:xlink="http://www.w3.org/1999/xlink">
    <!-- Generator: Sketch 56.3 (81716) - https://sketch.com -->
    <title>lock_active@svg</title>
    <desc>Created with Sketch.</desc>
    <g id="Платежная-страница-v2.0" stroke="none" stroke-width="1" fill="none" fill-rule="evenodd">
        <g id="Artboard" transform="translate(-78.000000, -574.000000)" fill="#404040">
            <path d="M81.9738571,581 C82.0284124,576.455929 84.4510742,574 88.9973639,574 C93.5435763,574 95.9677065,576.455739 96.0254083,581 L97,581 C98.6568542,581 100,582.343146 100,584 L100,594 C100,595.656854 98.6568542,597 97,597 L81,597 C79.3431458,597 78,595.656854 78,594 L78,584 C78,582.343146 79.3431458,581 81,581 L81.9738571,581 Z M83.9714608,581 L94.0277817,581 C93.9929802,577.548002 92.3951339,576 88.9973639,576 C85.5996744,576 84.0034036,577.547776 83.9714608,581 Z M89,593 C91.209139,593 93,591.209139 93,589 C93,586.790861 91.209139,585 89,585 C86.790861,585 85,586.790861 85,589 C85,591.209139 86.790861,593 89,593 Z M89,591 C87.8954305,591 87,590.104569 87,589 C87,587.895431 87.8954305,587 89,587 C90.1045695,587 91,587.895431 91,589 C91,590.104569 90.1045695,591 89,591 Z" id="lock_active"></path>
        </g>
    </g>
</svg>