<svg xmlns="http://www.w3.org/2000/svg" xmlns:xlink="http://www.w3.org/1999/xlink" width="32" height="26" viewBox="0 0 32 26">
    <defs>
        <path id="a" d="M16.003 0C7.17 0 .001 5.404.001 12.073c0 2.862 1.317 5.485 3.517 7.557-.483 1.353-1.228 1.898-2.061 2.502-.617.447-1.79 1.144-1.367 2.508.283.893 1.161 1.433 2.117 1.352 3.206-.267 6.178-1.114 8.723-2.467 1.595.4 3.3.621 5.068.621 8.84 0 16.002-5.398 16.002-12.073C32.006 5.403 24.843 0 16.003 0zm0 21.36c-1.806 0-3.634-.255-5.406-.813-1.795 1.103-4.373 2.67-7.485 3.135 1.778-1.393 3.156-3.576 3.4-5.131-2.116-1.51-3.844-3.767-3.844-6.478 0-4.115 4.795-9.287 13.335-9.287 8.54 0 13.335 5.172 13.335 9.287 0 4.121-4.795 9.287-13.335 9.287z"/>
    </defs>
    <g fill="#FFBB8B" fill-rule="evenodd">
        <use fill-rule="nonzero" xlink:href="#a"/>
        <text font-family="Roboto-Black, Roboto" font-size="12" font-weight="700">
            <tspan x="11" y="15">@</tspan>
        </text>
    </g>
</svg>
