<?xml version="1.0" encoding="utf-8"?>
<svg width="70px" height="20px" viewBox="0 0 70 20" version="1.1" xmlns:xlink="http://www.w3.org/1999/xlink" xmlns="http://www.w3.org/2000/svg">
  <desc>Created with Lunacy</desc>
  <defs>
    <linearGradient x1="0" y1="0" x2="1" y2="1" id="gradient_1">
      <stop offset="0" stop-color="#00A7E3" />
      <stop offset="1" stop-color="#007FC4" />
    </linearGradient>
    <path d="M0 0C0.842682 4.62197 4.85289 8.12469 9.6786 8.12469L9.6786 8.12469L20.453 8.12469C20.5402 7.68667 20.5872 7.23407 20.5872 6.77012L20.5872 6.77012C20.5872 3.03111 17.5815 0 13.8744 0L13.8744 0L0 0Z" transform="translate(49.22908 0.08641975)" id="path_1" />
    <clipPath id="mask_1">
      <use xlink:href="#path_1" />
    </clipPath>
  </defs>
  <g id="mir">
    <path d="M11.1245 2.09778L6.71428 11.7351L6.26576 11.7351L6.26576 0L0 0L0 19.8598L5.31879 19.8598C6.71428 19.8598 7.98295 19.0412 8.56881 17.762L12.98 8.12469L13.4273 8.12469L13.4273 19.8598L19.6931 19.8598L19.6931 0L14.3758 0C12.9786 0 11.7101 0.818519 11.1245 2.09778" transform="translate(27.74648 0.0862963)" id="Fill-4" fill="#20AA4D" stroke="none" />
    <path d="M15.3644 2.61062L12.7543 11.7365L12.3073 11.7365L9.6972 2.61062C9.25407 1.06469 7.85148 0 6.25719 0L0 0L0 19.861L6.26429 19.861L6.26429 8.12469L6.71281 8.12469L10.2929 19.861L14.7685 19.861L18.3485 8.12469L18.7958 8.12469L18.7958 19.861L25.0613 19.861L25.0613 0L18.8044 0C17.2101 0 15.8073 1.06469 15.3644 2.61062" transform="translate(0 0.08585186)" id="Fill-6" fill="#20AA4D" stroke="none" />
    <path d="M0 0L0 10.8333L6.25303 10.8333L6.25303 4.51407L12.9788 4.51407C15.9 4.51407 18.3786 2.62815 19.3016 0L0 0Z" transform="translate(50.1245 9.113827)" id="Fill-8" fill="#20AA4D" stroke="none" />
    <path d="M0 0C0.842682 4.62197 4.85289 8.12469 9.6786 8.12469L9.6786 8.12469L20.453 8.12469C20.5402 7.68667 20.5872 7.23407 20.5872 6.77012L20.5872 6.77012C20.5872 3.03111 17.5815 0 13.8744 0L13.8744 0L0 0Z" transform="translate(49.22908 0.08641975)" id="Clip-12" fill="url(#gradient_1)" stroke="none" />
  </g>
</svg>