<?xml version="1.0" encoding="UTF-8"?>
<svg width="16px" height="24px" viewBox="0 0 16 24" version="1.1" xmlns="http://www.w3.org/2000/svg" xmlns:xlink="http://www.w3.org/1999/xlink">
    <g id="Page-1" stroke="none" stroke-width="1" fill="none" fill-rule="evenodd">
        <g id="style-3" transform="translate(-263.000000, -1951.000000)" fill="#272424">
            <g id="Group-80-Copy" transform="translate(75.000000, 1355.000000)">
                <path d="M194,604 C194,605.104 194.896,606 196,606 C197.104,606 198,605.104 198,604 C198,602.896 197.104,602 196,602 C194.896,602 194,602.896 194,604 M196,596 C191.582,596 188,599.582 188,604 L188,612 C188,616.418 191.582,620 196,620 C200.418,620 204,616.418 204,612 L204,604 C204,599.582 200.418,596 196,596" id="Page-1" transform="translate(196.000000, 608.000000) scale(1, -1) translate(-196.000000, -608.000000) "></path>
            </g>
        </g>
    </g>
</svg>