<?xml version="1.0" encoding="UTF-8"?>
<svg width="16px" height="13px" viewBox="0 0 16 13" version="1.1" xmlns="http://www.w3.org/2000/svg" xmlns:xlink="http://www.w3.org/1999/xlink">
    <defs>
        <path d="M14.0015827,7 C9.58425694,7 6.00038885,9.70193221 6.00038885,13.0365403 C6.00038885,14.4673164 6.65882043,15.7791031 7.75898459,16.8151823 C7.51728186,17.4913909 7.14500409,17.7641961 6.72827524,18.0660231 C6.41989589,18.2894912 5.83369731,18.6377531 6.04483993,19.3197661 C6.18652774,19.7667023 6.62548212,20.0366053 7.1033312,19.9959747 C8.70634817,19.8624743 10.1926811,19.4387556 11.4650931,18.762547 C12.2624343,18.9627976 13.1153394,19.0730806 13.9988045,19.0730806 C18.4189085,19.0730806 21.9999984,16.3740505 21.9999984,13.0365403 C22.0027766,9.70193221 18.4216867,7 14.0015827,7 Z M14.0015827,17.6800328 C13.0986702,17.6800328 12.1846449,17.5523368 11.2984016,17.2737272 C10.4010455,17.8251419 9.11196424,18.6087313 7.55617655,18.8409059 C8.44519809,18.1443821 9.13418978,17.0531613 9.25643024,16.2753763 C8.19793897,15.5208088 7.33392116,14.3918597 7.33392116,13.0365403 C7.33392116,10.9788927 9.73150113,8.39304776 14.0015827,8.39304776 C18.2716643,8.39304776 20.6692443,10.9788927 20.6692443,13.0365403 C20.6692443,15.0970901 18.2716643,17.6800328 14.0015827,17.6800328 Z" id="path-1"></path>
    </defs>
    <g id="Page-1" stroke="none" stroke-width="1" fill="none" fill-rule="evenodd">
        <g id="style-3" transform="translate(-72.000000, -812.000000)">
            <g id="Group-12-Copy-3" transform="translate(50.000000, 379.000000)">
                <g id="Group" transform="translate(16.000000, 426.000000)">
                    <g id="Group-36-Copy">
                        <mask id="mask-2" fill="white">
                            <use xlink:href="#path-1"></use>
                        </mask>
                        <use id="comment" fill="#7B7B7B" fill-rule="nonzero" xlink:href="#path-1"></use>
                    </g>
                </g>
            </g>
        </g>
    </g>
</svg>