<?xml version="1.0" encoding="utf-8"?>
<svg width="333px" height="66px" viewBox="0 0 333 66" version="1.1" xmlns:xlink="http://www.w3.org/1999/xlink" xmlns="http://www.w3.org/2000/svg">
  <desc>Created with Lunacy</desc>
  <defs>
    <linearGradient x1="1" y1="0.5" x2="-2.220446E-16" y2="0.5" id="gradient_1">
      <stop offset="0" stop-color="#EF0E0E" />
      <stop offset="1" stop-color="#EF980E" />
    </linearGradient>
  </defs>
  <g id="Платежная-форма-не-н">
    <g fill="url(#gradient_1)" stroke="none" id="Платежная-форма">
      <path d="M38.548 8.05512L49.812 8.05512L49.812 27.7031L52.82 27.7031L52.82 5.30312L35.54 5.30312L35.54 27.7031L38.548 27.7031L38.548 8.05512ZM209.38 27.4311Q210.708 27.9591 212.34 27.9591L213.46 27.9591L213.46 34.1031L216.34 34.1031L216.34 27.9591L217.46 27.9591Q219.06 27.9591 220.388 27.4311Q221.716 26.9031 222.66 25.9111Q223.604 24.9191 224.132 23.5111Q224.66 22.1031 224.66 20.3111L224.66 19.0951Q224.66 17.3031 224.148 15.8791Q223.636 14.4551 222.692 13.4791Q221.748 12.5031 220.42 11.9751Q219.092 11.4471 217.46 11.4471L216.34 11.4471L216.34 5.30312L213.46 5.30312L213.46 11.4471L212.34 11.4471Q210.74 11.4471 209.412 11.9751Q208.084 12.5031 207.14 13.4951Q206.196 14.4871 205.668 15.9111Q205.14 17.3351 205.14 19.0951L205.14 20.3111Q205.14 22.1031 205.652 23.5271Q206.164 24.9511 207.108 25.9271Q208.052 26.9031 209.38 27.4311ZM79.22 27.9591Q76.724 27.9591 75.412 26.6951Q74.1 25.4311 74.1 23.2231Q74.1 22.0071 74.484 21.0311Q74.868 20.0551 75.716 19.3831Q76.564 18.7111 77.892 18.3591Q79.22 18.0071 81.14 18.0071L84.34 18.0071L84.34 16.8231Q84.34 15.4791 83.556 14.7431Q82.772 14.0071 81.14 14.0071Q79.508 14.0071 78.788 14.6151Q78.068 15.2231 77.94 16.1831L74.74 16.1831Q74.868 14.1351 76.42 12.7911Q77.972 11.4471 81.14 11.4471Q84.148 11.4471 85.684 12.8871Q87.22 14.3271 87.22 16.8231L87.22 27.7031L84.98 27.7031L84.628 25.0791Q83.764 26.4551 82.372 27.2071Q80.98 27.9591 79.22 27.9591ZM112.5 27.9591Q110.9 27.9591 109.572 27.4311Q108.244 26.9031 107.3 25.9111Q106.356 24.9191 105.828 23.5111Q105.3 22.1031 105.3 20.3111L105.3 19.0951Q105.3 17.3351 105.828 15.9271Q106.356 14.5191 107.316 13.5271Q108.276 12.5351 109.588 11.9911Q110.9 11.4471 112.5 11.4471Q114.1 11.4471 115.428 11.9751Q116.756 12.5031 117.7 13.4951Q118.644 14.4871 119.172 15.9111Q119.7 17.3351 119.7 19.0951L119.7 20.6311L108.308 20.6311Q108.372 22.9671 109.524 24.1511Q110.676 25.3351 112.5 25.3351Q114.388 25.3351 115.252 24.6631Q116.116 23.9911 116.596 22.7431L119.54 22.7431Q119.06 25.1111 117.396 26.5351Q115.732 27.9591 112.5 27.9591ZM165.332 26.6951Q166.644 27.9591 169.14 27.9591Q170.9 27.9591 172.292 27.2071Q173.684 26.4551 174.548 25.0791L174.9 27.7031L177.14 27.7031L177.14 16.8231Q177.14 14.3271 175.604 12.8871Q174.068 11.4471 171.06 11.4471Q167.892 11.4471 166.34 12.7911Q164.788 14.1351 164.66 16.1831L167.86 16.1831Q167.988 15.2231 168.708 14.6151Q169.428 14.0071 171.06 14.0071Q172.692 14.0071 173.476 14.7431Q174.26 15.4791 174.26 16.8231L174.26 18.0071L171.06 18.0071Q169.14 18.0071 167.812 18.3591Q166.484 18.7111 165.636 19.3831Q164.788 20.0551 164.404 21.0311Q164.02 22.0071 164.02 23.2231Q164.02 25.4311 165.332 26.6951ZM234.9 27.9591Q233.204 27.9591 231.844 27.4311Q230.484 26.9031 229.524 25.9271Q228.564 24.9511 228.052 23.5271Q227.54 22.1031 227.54 20.3111L227.54 19.0951Q227.54 17.3351 228.068 15.9111Q228.596 14.4871 229.556 13.4951Q230.516 12.5031 231.876 11.9751Q233.236 11.4471 234.9 11.4471Q236.564 11.4471 237.924 11.9751Q239.284 12.5031 240.244 13.4791Q241.204 14.4551 241.732 15.8791Q242.26 17.3031 242.26 19.0951L242.26 20.3111Q242.26 22.1031 241.732 23.5111Q241.204 24.9191 240.244 25.9111Q239.284 26.9031 237.924 27.4311Q236.564 27.9591 234.9 27.9591ZM248.98 25.8791Q250.676 27.9591 253.844 27.9591Q255.188 27.9591 256.356 27.4631Q257.524 26.9671 258.372 25.9911Q259.22 25.0151 259.7 23.5911Q260.18 22.1671 260.18 20.3111L260.18 19.0951Q260.18 17.2391 259.7 15.8151Q259.22 14.3911 258.388 13.4151Q257.556 12.4391 256.388 11.9431Q255.22 11.4471 253.876 11.4471Q252.148 11.4471 250.804 12.0871Q249.46 12.7271 248.628 14.0071L248.34 11.7031L246.1 11.7031L246.1 34.1031L248.98 34.1031L248.98 25.8791ZM285.972 26.6951Q287.284 27.9591 289.78 27.9591Q291.54 27.9591 292.932 27.2071Q294.324 26.4551 295.188 25.0791L295.54 27.7031L297.78 27.7031L297.78 16.8231Q297.78 14.3271 296.244 12.8871Q294.708 11.4471 291.7 11.4471Q288.532 11.4471 286.98 12.7911Q285.428 14.1351 285.3 16.1831L288.5 16.1831Q288.628 15.2231 289.348 14.6151Q290.068 14.0071 291.7 14.0071Q293.332 14.0071 294.116 14.7431Q294.9 15.4791 294.9 16.8231L294.9 18.0071L291.7 18.0071Q289.78 18.0071 288.452 18.3591Q287.124 18.7111 286.276 19.3831Q285.428 20.0551 285.044 21.0311Q284.66 22.0071 284.66 23.2231Q284.66 25.4311 285.972 26.6951ZM56.34 25.2071L55.86 25.2071L55.86 27.9591L56.34 27.9591Q57.588 27.9591 58.596 27.5431Q59.604 27.1271 60.308 26.1351Q61.012 25.1431 61.396 23.5431Q61.78 21.9431 61.78 19.5751L61.78 14.3271L67.54 14.3271L67.54 27.7031L70.42 27.7031L70.42 11.7031L58.9 11.7031L58.9 19.5751Q58.9 21.2391 58.692 22.3271Q58.484 23.4151 58.132 24.0551Q57.78 24.6951 57.316 24.9511Q56.852 25.2071 56.34 25.2071ZM103.22 11.7031L90.1 11.7031L90.1 14.3271L95.22 14.3271L95.22 27.7031L98.1 27.7031L98.1 14.3271L103.22 14.3271L103.22 11.7031ZM134.1 20.6951L136.34 20.6951L140.18 27.7031L143.7 27.7031L138.9 19.2871L143.06 11.7031L139.668 11.7031L136.308 18.0711L134.1 18.0711L134.1 11.7031L131.22 11.7031L131.22 18.0711L128.948 18.0711L125.684 11.7031L122.228 11.7031L126.42 19.4791L121.62 27.7031L125.076 27.7031L128.98 20.6951L131.22 20.6951L131.22 27.7031L134.1 27.7031L134.1 20.6951ZM157.46 20.8551L149.46 20.8551L149.46 27.7031L146.58 27.7031L146.58 11.7031L149.46 11.7031L149.46 18.2311L157.46 18.2311L157.46 11.7031L160.34 11.7031L160.34 27.7031L157.46 27.7031L157.46 20.8551ZM180.82 16.9511Q180.82 14.4231 182.388 13.0631Q183.956 11.7031 187.7 11.7031L193.3 11.7031L193.3 27.7031L190.42 27.7031L190.42 22.1351L187.012 22.1351Q186.676 22.1351 186.356 22.1031L183.38 27.7031L180.18 27.7031L183.636 21.5271Q182.1 20.8871 181.46 19.7351Q180.82 18.5831 180.82 16.9511ZM268.468 18.4231L266.9 14.9671L266.9 27.7031L264.02 27.7031L264.02 11.7031L268.244 11.7031L272.564 20.7911L276.884 11.7031L280.98 11.7031L280.98 27.7031L278.1 27.7031L278.1 14.9351L276.5 18.4231L273.94 23.8631L271.06 23.8631L268.468 18.4231ZM112.5 14.0711Q110.772 14.0711 109.668 15.0791Q108.564 16.0871 108.34 18.1351L116.628 18.1351Q116.436 16.0231 115.38 15.0471Q114.324 14.0711 112.5 14.0711ZM209.284 23.9751Q208.148 22.7431 208.148 20.3111L208.148 19.0951Q208.148 16.6311 209.284 15.4151Q210.42 14.1991 212.34 14.1991L213.46 14.1991L213.46 25.2071L212.34 25.2071Q210.42 25.2071 209.284 23.9751ZM216.34 25.2071L216.34 14.1991L217.46 14.1991Q219.38 14.1991 220.516 15.4311Q221.652 16.6631 221.652 19.0951L221.652 20.3111Q221.652 22.7751 220.516 23.9911Q219.38 25.2071 217.46 25.2071L216.34 25.2071ZM234.9 25.2071Q236.916 25.2071 238.084 23.9751Q239.252 22.7431 239.252 20.3111L239.252 19.0951Q239.252 16.6951 238.084 15.4471Q236.916 14.1991 234.9 14.1991Q232.884 14.1991 231.716 15.4311Q230.548 16.6631 230.548 19.0951L230.548 20.3111Q230.548 22.7111 231.716 23.9591Q232.884 25.2071 234.9 25.2071ZM256.084 24.0231Q254.996 25.2071 253.076 25.2071Q251.284 25.2071 250.132 23.9431Q248.98 22.6791 248.98 20.3111L248.98 18.8711Q249.044 16.5671 250.196 15.3831Q251.348 14.1991 253.076 14.1991Q254.996 14.1991 256.084 15.3991Q257.172 16.5991 257.172 19.0951L257.172 20.3111Q257.172 22.8391 256.084 24.0231ZM183.828 16.9511Q183.828 18.1991 184.644 18.8551Q185.46 19.5111 187.7 19.5111L190.42 19.5111L190.42 14.3271L187.7 14.3271Q185.46 14.3271 184.644 14.9831Q183.828 15.6391 183.828 16.9511ZM79.54 25.3991Q80.596 25.3991 81.476 25.0471Q82.356 24.6951 82.996 24.1031Q83.636 23.5111 83.988 22.7111Q84.34 21.9111 84.34 21.0151L84.34 20.4391L81.14 20.4391Q78.932 20.4391 78.02 21.1911Q77.108 21.9431 77.108 23.1591Q77.108 24.1831 77.748 24.7911Q78.388 25.3991 79.54 25.3991ZM171.396 25.0471Q170.516 25.3991 169.46 25.3991Q168.308 25.3991 167.668 24.7911Q167.028 24.1831 167.028 23.1591Q167.028 21.9431 167.94 21.1911Q168.852 20.4391 171.06 20.4391L174.26 20.4391L174.26 21.0151Q174.26 21.9111 173.908 22.7111Q173.556 23.5111 172.916 24.1031Q172.276 24.6951 171.396 25.0471ZM292.036 25.0471Q291.156 25.3991 290.1 25.3991Q288.948 25.3991 288.308 24.7911Q287.668 24.1831 287.668 23.1591Q287.668 21.9431 288.58 21.1911Q289.492 20.4391 291.7 20.4391L294.9 20.4391L294.9 21.0151Q294.9 21.9111 294.548 22.7111Q294.196 23.5111 293.556 24.1031Q292.916 24.6951 292.036 25.0471Z" />
    </g>
    <g fill="url(#gradient_1)" stroke="none" id="не-найдена">
      <path d="M167.684 41.548Q168.868 42.716 170.98 42.716Q173.092 42.716 174.276 41.548Q175.46 40.38 175.46 38.3L173.028 38.3Q173.028 39.548 172.484 40.14Q171.94 40.732 170.98 40.732Q170.052 40.732 169.524 40.14Q168.996 39.548 168.996 38.3L166.5 38.3Q166.5 40.38 167.684 41.548ZM109.86 60.956Q108.26 60.956 106.932 60.428Q105.604 59.9 104.66 58.908Q103.716 57.916 103.188 56.508Q102.66 55.1 102.66 53.308L102.66 52.092Q102.66 50.332 103.188 48.924Q103.716 47.516 104.676 46.524Q105.636 45.532 106.948 44.988Q108.26 44.444 109.86 44.444Q111.46 44.444 112.788 44.972Q114.116 45.5 115.06 46.492Q116.004 47.484 116.532 48.908Q117.06 50.332 117.06 52.092L117.06 53.628L105.668 53.628Q105.732 55.964 106.884 57.148Q108.036 58.332 109.86 58.332Q111.748 58.332 112.612 57.66Q113.476 56.988 113.956 55.74L116.9 55.74Q116.42 58.108 114.756 59.532Q113.092 60.956 109.86 60.956ZM151.46 60.956Q148.964 60.956 147.652 59.692Q146.34 58.428 146.34 56.22Q146.34 55.004 146.724 54.028Q147.108 53.052 147.956 52.38Q148.804 51.708 150.132 51.356Q151.46 51.004 153.38 51.004L156.58 51.004L156.58 49.82Q156.58 48.476 155.796 47.74Q155.012 47.004 153.38 47.004Q151.748 47.004 151.028 47.612Q150.308 48.22 150.18 49.18L146.98 49.18Q147.108 47.132 148.66 45.788Q150.212 44.444 153.38 44.444Q156.388 44.444 157.924 45.884Q159.46 47.324 159.46 49.82L159.46 60.7L157.22 60.7L156.868 58.076Q156.004 59.452 154.612 60.204Q153.22 60.956 151.46 60.956ZM203.572 60.428Q204.9 60.956 206.5 60.956Q209.732 60.956 211.396 59.532Q213.06 58.108 213.54 55.74L210.596 55.74Q210.116 56.988 209.252 57.66Q208.388 58.332 206.5 58.332Q204.676 58.332 203.524 57.148Q202.372 55.964 202.308 53.628L213.7 53.628L213.7 52.092Q213.7 50.332 213.172 48.908Q212.644 47.484 211.7 46.492Q210.756 45.5 209.428 44.972Q208.1 44.444 206.5 44.444Q204.9 44.444 203.588 44.988Q202.276 45.532 201.316 46.524Q200.356 47.516 199.828 48.924Q199.3 50.332 199.3 52.092L199.3 53.308Q199.3 55.1 199.828 56.508Q200.356 57.916 201.3 58.908Q202.244 59.9 203.572 60.428ZM236.292 59.692Q237.604 60.956 240.1 60.956Q241.86 60.956 243.252 60.204Q244.644 59.452 245.508 58.076L245.86 60.7L248.1 60.7L248.1 49.82Q248.1 47.324 246.564 45.884Q245.028 44.444 242.02 44.444Q238.852 44.444 237.3 45.788Q235.748 47.132 235.62 49.18L238.82 49.18Q238.948 48.22 239.668 47.612Q240.388 47.004 242.02 47.004Q243.652 47.004 244.436 47.74Q245.22 48.476 245.22 49.82L245.22 51.004L242.02 51.004Q240.1 51.004 238.772 51.356Q237.444 51.708 236.596 52.38Q235.748 53.052 235.364 54.028Q234.98 55.004 234.98 56.22Q234.98 58.428 236.292 59.692ZM95.94 53.852L87.94 53.852L87.94 60.7L85.06 60.7L85.06 44.7L87.94 44.7L87.94 51.228L95.94 51.228L95.94 44.7L98.82 44.7L98.82 60.7L95.94 60.7L95.94 53.852ZM131.78 53.852L139.78 53.852L139.78 60.7L142.66 60.7L142.66 44.7L139.78 44.7L139.78 51.228L131.78 51.228L131.78 44.7L128.9 44.7L128.9 60.7L131.78 60.7L131.78 53.852ZM173.22 51.42L174.98 48.124L174.98 60.7L177.86 60.7L177.86 44.7L174.148 44.7L168.74 53.98L166.98 57.276L166.98 44.7L164.1 44.7L164.1 60.7L167.812 60.7L173.22 51.42ZM194.5 60.7L183.46 60.7L183.46 64.86L180.58 64.86L180.58 58.076L182.308 58.076Q182.82 57.372 183.156 56.62Q183.492 55.868 183.684 54.876Q183.876 53.884 183.956 52.588Q184.036 51.292 184.036 49.5L184.036 44.7L195.3 44.7L195.3 58.076L197.38 58.076L197.38 64.86L194.5 64.86L194.5 60.7ZM228.42 53.852L220.42 53.852L220.42 60.7L217.54 60.7L217.54 44.7L220.42 44.7L220.42 51.228L228.42 51.228L228.42 44.7L231.3 44.7L231.3 60.7L228.42 60.7L228.42 53.852ZM109.86 47.068Q108.132 47.068 107.028 48.076Q105.924 49.084 105.7 51.132L113.988 51.132Q113.796 49.02 112.74 48.044Q111.684 47.068 109.86 47.068ZM203.668 48.076Q204.772 47.068 206.5 47.068Q208.324 47.068 209.38 48.044Q210.436 49.02 210.628 51.132L202.34 51.132Q202.564 49.084 203.668 48.076ZM186.852 49.5Q186.852 51.42 186.756 52.796Q186.66 54.172 186.468 55.164Q186.276 56.156 186.004 56.844Q185.732 57.532 185.412 58.076L192.42 58.076L192.42 47.324L186.852 47.324L186.852 49.5ZM151.78 58.396Q152.836 58.396 153.716 58.044Q154.596 57.692 155.236 57.1Q155.876 56.508 156.228 55.708Q156.58 54.908 156.58 54.012L156.58 53.436L153.38 53.436Q151.172 53.436 150.26 54.188Q149.348 54.94 149.348 56.156Q149.348 57.18 149.988 57.788Q150.628 58.396 151.78 58.396ZM242.356 58.044Q241.476 58.396 240.42 58.396Q239.268 58.396 238.628 57.788Q237.988 57.18 237.988 56.156Q237.988 54.94 238.9 54.188Q239.812 53.436 242.02 53.436L245.22 53.436L245.22 54.012Q245.22 54.908 244.868 55.708Q244.516 56.508 243.876 57.1Q243.236 57.692 242.356 58.044Z" />
    </g>
  </g>
</svg>