<?xml version="1.0" encoding="UTF-8"?>
<svg width="24px" height="23px" viewBox="0 0 24 23" version="1.1" xmlns="http://www.w3.org/2000/svg" xmlns:xlink="http://www.w3.org/1999/xlink">
    <!-- Generator: Sketch 56.3 (81716) - https://sketch.com -->
    <title>user_rest@svg</title>
    <desc>Created with Sketch.</desc>
    <g id="Платежная-страница-v2.0" stroke="none" stroke-width="1" fill="none" fill-rule="evenodd">
        <g id="Artboard" transform="translate(-37.000000, -490.000000)" fill="#C7C7C7" fill-rule="nonzero">
            <path d="M49,502 C45.6862915,502 43,499.313708 43,496 C43,492.686292 45.6862915,490 49,490 C52.3137085,490 55,492.686292 55,496 C55,499.313708 52.3137085,502 49,502 Z M49,500 C51.209139,500 53,498.209139 53,496 C53,493.790861 51.209139,492 49,492 C46.790861,492 45,493.790861 45,496 C45,498.209139 46.790861,500 49,500 Z M38.9419432,512.335755 C38.756511,512.855979 38.1844633,513.127382 37.664239,512.941949 C37.1440147,512.756517 36.8726121,512.18447 37.0580443,511.664245 C38.8702101,506.580271 42.9233946,504 48.9958513,504 C55.0679921,504 59.1236225,506.579884 60.9415902,511.663257 C61.1275684,512.183286 60.8567665,512.755618 60.3367371,512.941596 C59.8167078,513.127575 59.2443755,512.856773 59.0583973,512.336743 C57.5384828,508.086783 54.2580181,506 48.9958513,506 C43.7340003,506 40.4566131,508.086396 38.9419432,512.335755 Z" id="user_rest"></path>
        </g>
    </g>
</svg>