<?xml version="1.0" encoding="UTF-8"?>
<svg width="24px" height="23px" viewBox="0 0 24 23" version="1.1" xmlns="http://www.w3.org/2000/svg" xmlns:xlink="http://www.w3.org/1999/xlink">
    <!-- Generator: Sketch 56.3 (81716) - https://sketch.com -->
    <title>user_active@svg</title>
    <desc>Created with Sketch.</desc>
    <g id="Платежная-страница-v2.0" stroke="none" stroke-width="1" fill="none" fill-rule="evenodd">
        <g id="Artboard" transform="translate(-77.000000, -492.000000)" fill="#404040">
            <path d="M89,504 C85.6862915,504 83,501.313708 83,498 C83,494.686292 85.6862915,492 89,492 C92.3137085,492 95,494.686292 95,498 C95,501.313708 92.3137085,504 89,504 Z M77.7274541,512.096882 C79.781133,508.038878 83.5940491,506 88.9958513,506 C94.3969699,506 98.2116121,508.038284 100.269965,512.095204 C100.769623,513.080226 100.376246,514.283822 99.3912603,514.783572 C99.1108351,514.925851 98.8008118,515 98.4863574,515 L79.5120673,515 C78.4074374,515 77.511942,514.104621 77.511942,513 C77.511942,512.686223 77.5857685,512.376848 77.7274541,512.096882 Z" id="user_active"></path>
        </g>
    </g>
</svg>