<?xml version="1.0" encoding="UTF-8"?>
<svg width="20px" height="20px" viewBox="0 0 20 20" version="1.1" xmlns="http://www.w3.org/2000/svg" xmlns:xlink="http://www.w3.org/1999/xlink">
    <!-- Generator: Sketch 56.3 (81716) - https://sketch.com -->
    <title>tooltip@svg</title>
    <desc>Created with Sketch.</desc>
    <g id="Платежная-страница-v2.0" stroke="none" stroke-width="1" fill="none" fill-rule="evenodd">
        <g id="Artboard" transform="translate(-118.000000, -609.000000)" fill="#F20F0F">
            <path d="M128,629 C122.477153,629 118,624.522847 118,619 C118,613.477153 122.477153,609 128,609 C133.522847,609 138,613.477153 138,619 C138,624.522847 133.522847,629 128,629 Z M126.951699,620.25 L128.849257,620.25 C128.858103,619.938012 128.904547,619.68042 128.988588,619.477217 C129.07263,619.274014 129.223017,619.075945 129.439756,618.883005 L130.20276,618.224138 C130.525656,617.932675 130.760084,617.647374 130.906051,617.368227 C131.052018,617.089079 131.125,616.779148 131.125,616.438424 C131.125,615.658453 130.854081,615.057063 130.312235,614.634236 C129.770388,614.21141 129.006286,614 128.019904,614 C127.0291,614 126.259468,614.228856 125.710987,614.686576 C125.162506,615.144296 124.883846,615.783658 124.875,616.60468 L127.117569,616.60468 C127.126415,616.296796 127.212667,616.052546 127.376327,615.871921 C127.539987,615.691296 127.75451,615.600985 128.019904,615.600985 C128.594925,615.600985 128.882431,615.910916 128.882431,616.530788 C128.882431,616.785305 128.797285,617.018267 128.62699,617.22968 C128.456696,617.441093 128.207893,617.674055 127.880573,617.928571 C127.553254,618.183088 127.316614,618.483783 127.170648,618.830665 C127.024681,619.177547 126.951699,619.650654 126.951699,620.25 Z M126.75,623.375 C126.75,623.739893 126.869206,624.039447 127.10762,624.273669 C127.346035,624.507891 127.643492,624.625 128,624.625 C128.356508,624.625 128.653965,624.507891 128.89238,624.273669 C129.130794,624.039447 129.25,623.739893 129.25,623.375 C129.25,623.010107 129.130794,622.710553 128.89238,622.476331 C128.653965,622.242109 128.356508,622.125 128,622.125 C127.643492,622.125 127.346035,622.242109 127.10762,622.476331 C126.869206,622.710553 126.75,623.010107 126.75,623.375 Z" id="tooltip"></path>
        </g>
    </g>
</svg>