<?xml version="1.0" encoding="utf-8"?>
<svg width="64px" height="64px" viewBox="0 0 64 64" version="1.1" xmlns:xlink="http://www.w3.org/1999/xlink" xmlns="http://www.w3.org/2000/svg">
  <desc>Created with Lunacy</desc>
  <defs>
    <path d="M32 0L32 0Q32.8196 0 33.6338 0.037304Q34.4479 0.074608 35.2549 0.14914Q36.0619 0.223672 36.8601 0.33528Q37.6583 0.446887 38.446 0.595343Q39.2337 0.743799 40.0094 0.9288Q40.7852 1.1138 41.5472 1.33497Q42.3093 1.55614 43.0562 1.81303Q43.8031 2.06991 44.5333 2.36199Q45.2635 2.65407 45.9755 2.98074Q46.6875 3.30742 47.3799 3.66802Q48.0722 4.02863 48.7435 4.42243Q49.4148 4.81623 50.0637 5.24242Q50.7126 5.66861 51.3377 6.12633Q51.9628 6.58404 52.5629 7.07234Q53.163 7.56064 53.7369 8.07854Q54.3107 8.59643 54.8571 9.14286Q55.4036 9.68929 55.9215 10.2631Q56.4394 10.837 56.9277 11.4371Q57.416 12.0372 57.8737 12.6623Q58.3314 13.2874 58.7576 13.9363Q59.1838 14.5852 59.5776 15.2565Q59.9714 15.9278 60.332 16.6201Q60.6926 17.3125 61.0193 18.0245Q61.3459 18.7365 61.638 19.4667Q61.9301 20.1969 62.187 20.9438Q62.4439 21.6907 62.665 22.4528Q62.8862 23.2149 63.0712 23.9906Q63.2562 24.7663 63.4047 25.554Q63.5531 26.3417 63.6647 27.1399Q63.7763 27.9381 63.8509 28.7451Q63.9254 29.5521 63.9627 30.3662Q64 31.1804 64 32L64 32Q64 32.8196 63.9627 33.6338Q63.9254 34.4479 63.8509 35.2549Q63.7763 36.0619 63.6647 36.8601Q63.5531 37.6583 63.4047 38.446Q63.2562 39.2337 63.0712 40.0094Q62.8862 40.7852 62.665 41.5472Q62.4439 42.3093 62.187 43.0562Q61.9301 43.8031 61.638 44.5333Q61.3459 45.2635 61.0193 45.9755Q60.6926 46.6875 60.332 47.3799Q59.9714 48.0722 59.5776 48.7435Q59.1838 49.4148 58.7576 50.0637Q58.3314 50.7126 57.8737 51.3377Q57.416 51.9628 56.9277 52.5629Q56.4394 53.163 55.9215 53.7369Q55.4036 54.3107 54.8571 54.8571Q54.3107 55.4036 53.7369 55.9215Q53.163 56.4394 52.5629 56.9277Q51.9628 57.416 51.3377 57.8737Q50.7126 58.3314 50.0637 58.7576Q49.4148 59.1838 48.7435 59.5776Q48.0722 59.9714 47.3799 60.332Q46.6875 60.6926 45.9755 61.0193Q45.2635 61.3459 44.5333 61.638Q43.8031 61.9301 43.0562 62.187Q42.3093 62.4439 41.5472 62.665Q40.7852 62.8862 40.0094 63.0712Q39.2337 63.2562 38.446 63.4047Q37.6583 63.5531 36.8601 63.6647Q36.0619 63.7763 35.2549 63.8509Q34.4479 63.9254 33.6338 63.9627Q32.8196 64 32 64L32 64Q31.1804 64 30.3662 63.9627Q29.5521 63.9254 28.7451 63.8509Q27.9381 63.7763 27.1399 63.6647Q26.3418 63.5531 25.554 63.4047Q24.7663 63.2562 23.9906 63.0712Q23.2149 62.8862 22.4528 62.665Q21.6907 62.4439 20.9438 62.187Q20.1969 61.9301 19.4667 61.638Q18.7365 61.3459 18.0245 61.0193Q17.3125 60.6926 16.6201 60.332Q15.9278 59.9714 15.2565 59.5776Q14.5852 59.1838 13.9363 58.7576Q13.2874 58.3314 12.6623 57.8737Q12.0372 57.416 11.4371 56.9277Q10.837 56.4394 10.2631 55.9215Q9.68929 55.4036 9.14286 54.8571Q8.59643 54.3107 8.07854 53.7369Q7.56064 53.163 7.07234 52.5629Q6.58404 51.9628 6.12633 51.3377Q5.66861 50.7126 5.24242 50.0637Q4.81623 49.4148 4.42243 48.7435Q4.02863 48.0722 3.66802 47.3799Q3.30742 46.6875 2.98074 45.9755Q2.65407 45.2635 2.36199 44.5333Q2.06991 43.8031 1.81303 43.0562Q1.55614 42.3093 1.33497 41.5472Q1.1138 40.7852 0.9288 40.0094Q0.743799 39.2337 0.595343 38.446Q0.446887 37.6583 0.33528 36.8601Q0.223672 36.0619 0.14914 35.2549Q0.074608 34.4479 0.037304 33.6338Q0 32.8196 0 32L0 32Q0 31.1804 0.037304 30.3662Q0.074608 29.5521 0.14914 28.7451Q0.223672 27.9381 0.33528 27.1399Q0.446887 26.3418 0.595343 25.554Q0.743799 24.7663 0.9288 23.9906Q1.1138 23.2149 1.33497 22.4528Q1.55614 21.6907 1.81303 20.9438Q2.06991 20.1969 2.36199 19.4667Q2.65407 18.7365 2.98074 18.0245Q3.30742 17.3125 3.66802 16.6201Q4.02863 15.9278 4.42243 15.2565Q4.81623 14.5852 5.24242 13.9363Q5.66861 13.2874 6.12633 12.6623Q6.58404 12.0372 7.07234 11.4371Q7.56064 10.837 8.07854 10.2631Q8.59643 9.68929 9.14286 9.14286Q9.68929 8.59643 10.2631 8.07854Q10.837 7.56064 11.4371 7.07234Q12.0372 6.58404 12.6623 6.12633Q13.2874 5.66861 13.9363 5.24242Q14.5852 4.81623 15.2565 4.42243Q15.9278 4.02863 16.6201 3.66802Q17.3125 3.30742 18.0245 2.98074Q18.7365 2.65407 19.4667 2.36199Q20.1969 2.06991 20.9438 1.81303Q21.6907 1.55614 22.4528 1.33497Q23.2149 1.1138 23.9906 0.9288Q24.7663 0.743799 25.554 0.595343Q26.3417 0.446887 27.1399 0.33528Q27.9381 0.223672 28.7451 0.14914Q29.5521 0.074608 30.3662 0.037304Q31.1804 0 32 0Z" id="path_1" />
    <path d="M10.8686 23.5286L0.46861 13.0688C-0.156203 12.4404 -0.156203 11.4215 0.46861 10.7931L2.7313 8.51731C3.35611 7.88884 4.36924 7.88884 4.99405 8.51731L12 15.5635L27.0059 0.471304C27.6308 -0.157101 28.6439 -0.157101 29.2687 0.471304L31.5314 2.74707C32.1562 3.37547 32.1562 4.39436 31.5314 5.02283L13.1314 23.5287C12.5065 24.1571 11.4934 24.1571 10.8686 23.5286L10.8686 23.5286Z" transform="translate(16 20)" id="path_2" />
    <clipPath id="clip_1">
      <use xlink:href="#path_1" />
    </clipPath>
    <clipPath id="clip_2">
      <use xlink:href="#path_2" />
    </clipPath>
  </defs>
  <g id="Group-86">
    <g id="Rectangle-7">
      <use stroke="none" fill="#E8F5E9" xlink:href="#path_1" />
      <g clip-path="url(#clip_1)">
        <use xlink:href="#path_1" fill="none" stroke="#59C816" stroke-width="2" />
      </g>
    </g>
    <g id="check">
      <use stroke="none" fill="#59C816" xlink:href="#path_2" />
      <g clip-path="url(#clip_2)">
        <use xlink:href="#path_2" fill="none" stroke="#E8F5E9" stroke-width="2" />
      </g>
    </g>
  </g>
</svg>