<?xml version="1.0" encoding="utf-8"?>
<svg width="76px" height="65px" viewBox="0 0 76 65" version="1.1" xmlns:xlink="http://www.w3.org/1999/xlink" xmlns="http://www.w3.org/2000/svg">
  <desc>Created with Lunacy</desc>
  <g id="Group-30-Copy" transform="translate(0.5 0.5)">
    <path d="M3.999 0L10.7198 0C16.2984 0 23.4724 3.63989 27.4952 7.50487C29.2929 9.23197 31.2806 11.4926 33.6116 15.6398C39.1172 25.435 41.6 36.9687 41.6 36.9687C41.6 36.9687 37.1977 41.6 37.1977 41.6L24.799 41.6C22.5904 41.6 19.9068 40.0211 19.318 37.8924C18.0895 33.4508 19.9881 31.9763 15.1519 22.3038C9.89354 11.7871 6.51284 11.258 1.90888 3.513C0.780328 1.61452 1.79041 0 3.999 0Z" transform="translate(0 22.3999)" id="Path-11" fill="#FFFFFF" fill-opacity="0.8" stroke="none" />
    <path d="M38.5866 0L50.201 0C52.4096 0 53.2643 1.52699 52.1828 3.45269L23.9761 60.5295C22.9209 62.4697 20.1997 64 17.9911 64L1.999 64C0.894983 64 0.453417 63.2283 0.992386 62.2648L29.7133 5.26499C31.2495 2.32952 35.2734 0 38.5866 0Z" transform="translate(20.7998 0)" id="Path-12" fill="#FFFFFF" stroke="none" />
  </g>
</svg>