<?xml version="1.0" encoding="UTF-8"?>
<svg width="32px" height="30px" viewBox="0 0 32 30" version="1.1" xmlns="http://www.w3.org/2000/svg" xmlns:xlink="http://www.w3.org/1999/xlink">
    <g id="Symbols" stroke="none" stroke-width="1" fill="none" fill-rule="evenodd">
        <g id="warning-desktop" transform="translate(-16.000000, -21.000000)" fill="#F57F17">
            <g id="Group-54">
                <path d="M32.1607143,21 L48,51 L16,51 L32.1607143,21 Z M32.4199115,41 L31.5800885,41 C30.5311464,41 29.660423,40.1896066 29.5852333,39.1433628 L29.1540355,33.1433628 C29.0748584,32.0416348 29.9037998,31.084322 31.0055279,31.0051448 C31.0532386,31.0017161 31.1010569,31 31.1488907,31 L32.8511093,31 C33.9556788,31 34.8511093,31.8954305 34.8511093,33 C34.8511093,33.0478338 34.8493932,33.0956521 34.8459645,33.1433628 L34.4147667,39.1433628 C34.339577,40.1896066 33.4688536,41 32.4199115,41 Z M29,46 C29,45.124256 29.2860934,44.4053283 29.8582888,43.8431953 C30.4304841,43.2810623 31.1443807,43 32,43 C32.8556193,43 33.5695159,43.2810623 34.1417112,43.8431953 C34.7139066,44.4053283 35,45.124256 35,46 C35,46.875744 34.7139066,47.5946717 34.1417112,48.1568047 C33.5695159,48.7189377 32.8556193,49 32,49 C31.1443807,49 30.4304841,48.7189377 29.8582888,48.1568047 C29.2860934,47.5946717 29,46.875744 29,46 Z" id="Combined-Shape"></path>
            </g>
        </g>
    </g>
</svg>