<svg xmlns="http://www.w3.org/2000/svg" xmlns:xlink="http://www.w3.org/1999/xlink" width="140" height="140" viewBox="0 0 140 140">
    <defs>
        <linearGradient id="b" x1="51.192%" x2="51.192%" y1="34.034%" y2="0%">
            <stop offset="0%" stop-color="#9CDBF8"/>
            <stop offset="100%" stop-color="#6ECEF4"/>
        </linearGradient>
        <linearGradient id="c" x1="50%" x2="50%" y1="100%" y2="0%">
            <stop offset="0%" stop-color="#F5CFDB"/>
            <stop offset="100%" stop-color="#C5CEE8"/>
        </linearGradient>
        <ellipse id="a" cx="52" cy="52.181" rx="52" ry="52.181"/>
    </defs>
    <g fill="none" fill-rule="evenodd">
        <path fill="#FFF" d="M0 0h140v140H0z"/>
        <g transform="translate(18 24.849)">
            <mask id="d" fill="#fff">
                <use xlink:href="#a"/>
            </mask>
            <use fill="url(#b)" xlink:href="#a"/>
            <use fill="url(#c)" xlink:href="#a"/>
            <path fill="#CC5843" d="M52.544 89.881v-54c-7.287 0-14.044 2.699-17.28 8.609-4.363-1.046-3.91 1.011-3.91 8.636 0 14.912 6.278 36.755 21.19 36.755z" mask="url(#d)"/>
            <path fill="#CC5843" d="M73.544 89.881v-54c-7.287 0-14.044 2.699-17.28 8.609-4.363-1.046-3.91 1.011-3.91 8.636 0 14.912 6.278 36.755 21.19 36.755z" mask="url(#d)" transform="matrix(-1 0 0 1 125.885 0)"/>
            <path fill="#FED09D" d="M42.031 38.933v6.405l10.238 7.128 10.239-7.128v-6.405z" mask="url(#d)"/>
            <path fill="#CC5843" d="M43 49h18v56H43z" mask="url(#d)"/>
            <g mask="url(#d)">
                <path fill="#FF6E55" d="M8.322 79.986c1.131-11.427 2.774-19.728 5.297-22.142 1.683-1.61 11.189-5.79 28.519-12.54l9.574 3.976V105.522L9.26 101.89c-1.379-6.984-1.691-14.285-.938-21.904z"/>
                <path stroke="#CC5843" d="M26.833 74.392v24.403"/>
                <path fill="#FF6E55" d="M96.313 79.986c-1.131-11.427-2.774-19.728-5.297-22.142-1.683-1.61-11.189-5.79-28.519-12.54l-9.574 3.976V105.522l42.452-3.632c1.379-6.984 1.691-14.285.938-21.904z"/>
                <path stroke="#CC5843" d="M77.833 74.392v24.403"/>
            </g>
            <path fill="#CC5843" d="M41.533 45c3.621 1.67 7.185 2.505 10.69 2.505 3.507 0 6.92-.835 10.24-2.505l3.985 1.412c-4.772 5.916-9.513 8.873-14.224 8.873S42.772 52.328 38 46.412L41.533 45z" mask="url(#d)"/>
        </g>
        <path fill="#FFCE9C" stroke="#F1A76C" stroke-width=".541" d="M70.27 69.189c6.753 0 17.782-10.894 17.782-24.333 0-13.439-7.962-24.333-17.783-24.333-9.82 0-17.782 10.894-17.782 24.333 0 13.439 11.029 24.333 17.782 24.333z"/>
        <path fill="#FEC68A" d="M52.796 41.122c-1.643-.307-2.464.757-2.464 3.193 0 5.897 1.437 9.46 4.31 10.69l-1.846-13.883zM87.742 41.122c1.644-.307 2.465.757 2.465 3.193 0 5.897-1.437 9.46-4.31 10.69l1.845-13.883z"/>
        <path fill="#021D4F" d="M53.083 42.916c.947-6.733 2.496-11.198 4.647-13.395 8.58-4.995 5.927-.96 11.205 1.418 9.712 4.378 1.55-2.378 7.637-4.638 4.04-1.5 3.974 3.071 6.328 7.256 3.5 3.53 4.982 7.173 4.448 10.926 4.56-4.994 5.21-8.636 1.95-10.926 0-4.036-1.95-9.497 3.182-4.773 0-4.454-12.254-11.146-3.181-10.156-6.4-1.007-7.82-5.468-13.43-5.468-3.925-4.479-12.796-4.055-26.615 1.271 2.597 3.642 3.874 5.783 3.829 6.421-2.638 5.45-10.7 10.9-3.83 8.67 2.65-.86-.678 0 1.84 3.15-.622 3.423.041 6.837 1.99 10.244z"/>
        <path stroke="#F1A76C" stroke-width=".541" d="M68.387 50.257c.81 1.072 1.53 1.608 2.161 1.608.632 0 1.415-.536 2.349-1.608"/>
        <path fill="#FFF" stroke="#F1A76C" stroke-width=".5" d="M65.675 55.407c.066.222.758 1.164 1.503 1.887 1.106 1.072 2.268 1.724 3.313 1.724 1.045 0 2.207-.652 3.312-1.724.67-.65 1.298-1.477 1.465-1.799a2.431 2.431 0 0 0-.178-.031 11.78 11.78 0 0 0-1.123-.085c-.807-.032-1.768-.042-3.476-.042-.379 0-.703-.002-1.339-.007-1.498-.012-2.048-.01-2.61.02-.343.017-.6.045-.766.084-.068.015-.093.025-.102-.007zm-.001.02a.196.196 0 0 1-.004-.048c0 .007.001.017.005.028z"/>
        <g fill="#252627">
            <g transform="translate(74 36)">
                <circle cx="3" cy="6" r="2"/>
                <path fill-rule="nonzero" d="M1 2a1 1 0 1 1 0-2h6a1 1 0 1 1 0 2H1z"/>
            </g>
        </g>
        <g fill="#252627" transform="translate(58 36)">
            <circle cx="5" cy="6" r="2"/>
            <path fill-rule="nonzero" d="M1 2a1 1 0 1 1 0-2h6a1 1 0 1 1 0 2H1z"/>
        </g>
        <g transform="translate(62 75)">
            <path stroke="#FFBB8B" d="M2 1v10.597"/>
            <circle cx="2" cy="13" r="2" fill="#FFBB8B"/>
            <circle cx="2" cy="1" r="1" fill="#FFBB8B"/>
        </g>
        <g transform="translate(75 75)">
            <path stroke="#FFBB8B" d="M2 1v10.597"/>
            <circle cx="2" cy="13" r="2" fill="#FFBB8B"/>
            <circle cx="2" cy="1" r="1" fill="#FFBB8B"/>
        </g>
    </g>
</svg>
