<?xml version="1.0" encoding="UTF-8" standalone="no"?>
<svg
   xmlns:dc="http://purl.org/dc/elements/1.1/"
   xmlns:cc="http://creativecommons.org/ns#"
   xmlns:rdf="http://www.w3.org/1999/02/22-rdf-syntax-ns#"
   xmlns:svg="http://www.w3.org/2000/svg"
   xmlns="http://www.w3.org/2000/svg"
   xmlns:sodipodi="http://sodipodi.sourceforge.net/DTD/sodipodi-0.dtd"
   xmlns:inkscape="http://www.inkscape.org/namespaces/inkscape"
   width="59.963715"
   height="27.943354"
   viewBox="0 0 59.963715 27.943354"
   version="1.1"
   id="svg3699"
   sodipodi:docname="applepay.svg"
   inkscape:version="0.92.1 r15371">
  <metadata
     id="metadata3703">
    <rdf:RDF>
      <cc:Work
         rdf:about="">
        <dc:format>image/svg+xml</dc:format>
        <dc:type
           rdf:resource="http://purl.org/dc/dcmitype/StillImage" />
      </cc:Work>
    </rdf:RDF>
  </metadata>
  <sodipodi:namedview
     pagecolor="#ffffff"
     bordercolor="#666666"
     borderopacity="1"
     objecttolerance="10"
     gridtolerance="10"
     guidetolerance="10"
     inkscape:pageopacity="0"
     inkscape:pageshadow="2"
     inkscape:window-width="1920"
     inkscape:window-height="1017"
     id="namedview3701"
     showgrid="false"
     inkscape:zoom="13.451613"
     inkscape:cx="30"
     inkscape:cy="10.969733"
     inkscape:window-x="-8"
     inkscape:window-y="-8"
     inkscape:window-maximized="1"
     inkscape:current-layer="svg3699" />
  <!-- Generator: Sketch 50.2 (55047) - http://www.bohemiancoding.com/sketch -->
  <title
     id="title3680">Group 15</title>
  <desc
     id="desc3682">Created with Sketch.</desc>
  <defs
     id="defs3684" />
  <g
     id="Page-1"
     style="fill:none;fill-rule:evenodd;stroke:none;stroke-width:1"
     transform="translate(-12,-17)">
    <g
       id="style-3"
       transform="translate(-942,-839)">
      <g
         id="Group-12-Copy-5"
         transform="translate(926,379)">
        <g
           id="Group-Copy">
          <g
             id="Group-42"
             transform="translate(16,110)">
            <g
               id="Group-39"
               transform="translate(0,327)">
              <g
                 id="Group-15"
                 transform="translate(0,23)">
                <g
                   id="Group-28"
                   transform="translate(12,17)"
                   style="fill:#000607">
                  <path
                     d="m 17.925214,7.2033654 c -0.22827,0.2070102 -0.45952,0.4117424 -0.685193,0.6223593 -0.799038,0.7456543 -1.399423,1.6141289 -1.610865,2.6958783 -0.292885,1.498427 0.01894,2.872705 0.939423,4.105084 0.460192,0.61619 1.009615,1.127784 1.740385,1.421831 0.08519,0.03426 0.171827,0.06473 0.277019,0.104217 -0.09519,0.255417 -0.179327,0.507037 -0.281539,0.751254 -0.59548,1.424014 -1.369807,2.741153 -2.425769,3.884217 -0.196538,0.212705 -0.418557,0.405668 -0.645769,0.587146 -0.771731,0.616474 -1.636442,0.853857 -2.610577,0.573478 -0.486346,-0.13981 -0.967404,-0.29718 -1.451346,-0.444963 -0.498942,-0.152244 -1.003558,-0.2744 -1.5296155,-0.286739 C 8.9902136,21.201752 8.3871367,21.394525 7.7861752,21.613115 7.3291559,21.779406 6.869829,21.951582 6.3975213,22.062443 5.6544444,22.236708 4.9824252,22.01062 4.3655021,21.598782 3.7433867,21.183338 3.251656,20.63805 2.8255983,20.037616 1.7577136,18.53245 0.9442521,16.904369 0.4455021,15.129264 0.00194441,13.550349 -0.12247867,11.948654 0.12684826,10.326837 0.34694441,8.8962739 0.88713672,7.6055214 1.907329,6.5388637 2.9642521,5.4337654 4.2645406,4.9796908 5.7900213,5.1289925 c 0.759327,0.074319 1.4847116,0.2915797 2.2128847,0.5005831 0.3033653,0.087132 0.613173,0.1526237 0.9196153,0.2293152 0.4383654,0.1097221 0.87125,0.059892 1.2950957,-0.062834 0.597597,-0.1730305 1.188174,-0.3694101 1.785193,-0.5443389 0.887692,-0.2602577 1.788173,-0.3346712 2.703942,-0.1596475 1.185,0.2264678 2.121154,0.8562305 2.905192,1.7352407 0.09837,0.1101966 0.194616,0.2222915 0.291154,0.3341017 0.0087,0.010061 0.01279,0.024108 0.02212,0.041952"
                     id="Fill-1"
                     inkscape:connector-curvature="0" />
                  <path
                     d="m 13.47106,0 c 0.0126,0.25693559 0.04904,0.49915932 0.03221,0.73758644 C 13.41135,2.0388746 12.893367,3.1576407 11.98327,4.0999593 11.572502,4.5254644 11.119425,4.8990508 10.55856,5.1177356 10.081348,5.3036746 9.5741367,5.3440136 9.0678867,5.380461 9.0601944,5.3809356 9.051829,5.3724881 9.0437521,5.368122 9.1140406,2.4632407 10.59981,0.58410847 13.47106,0"
                     id="Fill-4"
                     inkscape:connector-curvature="0" />
                  <path
                     d="m 26.684791,12.426761 c 0.531442,0.138101 1.202788,0.193247 2.013846,0.193247 2.936827,0 4.726923,-1.408068 4.726923,-3.97581 0,-2.4571661 -1.762116,-3.6444611 -4.447116,-3.6444611 -1.062884,0 -1.874134,0.082861 -2.293653,0.1932475 z M 24.251425,3.4536624 c 1.174712,-0.1932475 2.713077,-0.3588746 4.670962,-0.3588746 2.405384,0 4.167596,0.552122 5.28625,1.5460746 1.035,0.8834712 1.650288,2.2363932 1.650288,3.8929491 0,1.6841765 -0.503365,3.0093835 -1.454423,3.9758105 -1.286634,1.352922 -3.384327,2.043051 -5.761827,2.043051 -0.727115,0 -1.398461,-0.02762 -1.957884,-0.165723 v 7.454645 h -2.433366 z"
                     id="Fill-6"
                     inkscape:connector-curvature="0" />
                  <path
                     d="m 44.275685,15.022009 c -2.685096,-0.05515 -5.733846,0.414116 -5.733846,3.009478 0,1.57379 1.062788,2.319255 2.321538,2.319255 1.762019,0 2.880865,-1.104434 3.272404,-2.236394 0.08394,-0.248393 0.139904,-0.524501 0.139904,-0.772989 z m 0.363558,6.819661 -0.19577,-1.684271 h -0.08394 c -0.755096,1.049193 -2.209519,1.987905 -4.139519,1.987905 -2.741058,0 -4.13952,-1.904949 -4.13952,-3.837708 0,-3.230346 2.908751,-4.997288 8.139231,-4.969668 V 13.06182 c 0,-1.104434 -0.307596,-3.0923393 -3.076731,-3.0923393 -1.258653,0 -2.573269,0.3865903 -3.524134,0.9939523 L 37.059435,9.362118 c 1.118846,-0.7178441 2.741057,-1.1872949 4.447115,-1.1872949 4.139616,0 5.146635,2.7886099 5.146635,5.4667389 v 4.997383 c 0,1.159485 0.05596,2.291634 0.223654,3.202725 z"
                     id="Fill-8"
                     inkscape:connector-curvature="0" />
                  <path
                     d="m 49.92256,8.4786088 2.964615,7.8962852 c 0.307692,0.883566 0.643366,1.932759 0.867212,2.733369 h 0.05586 c 0.251731,-0.80061 0.531539,-1.822183 0.866923,-2.78861 l 2.685289,-7.8410442 h 2.60125 l -3.692116,9.5252202 c -1.762115,4.583363 -2.964807,6.930142 -4.642981,8.365736 -1.202692,1.049288 -2.405192,1.463403 -3.020576,1.57379 L 47.99256,25.900304 c 0.615481,-0.193248 1.426442,-0.579933 2.153558,-1.1872 0.671346,-0.524597 1.510384,-1.463404 2.069903,-2.705844 0.111923,-0.248394 0.195673,-0.441736 0.195673,-0.579743 0,-0.138007 -0.05586,-0.331349 -0.167692,-0.635078 L 47.237367,8.4786088 Z"
                     id="Fill-10"
                     inkscape:connector-curvature="0" />
                </g>
              </g>
            </g>
          </g>
        </g>
      </g>
    </g>
  </g>
</svg>
