<?xml version="1.0" encoding="UTF-8"?>
<svg width="48px" height="45px" viewBox="0 0 48 45" version="1.1" xmlns="http://www.w3.org/2000/svg" xmlns:xlink="http://www.w3.org/1999/xlink">
    <g id="Page-1" stroke="none" stroke-width="1" fill="none" fill-rule="evenodd">
        <g id="style-3" transform="translate(-960.000000, -957.000000)">
            <g id="Group-12-Copy-5" transform="translate(926.000000, 379.000000)">
                <g id="Group-Copy">
                    <g id="Group-42" transform="translate(16.000000, 110.000000)">
                        <g id="Group-40" transform="translate(0.000000, 436.000000)">
                            <g id="Group-15-Copy" transform="translate(0.000000, 23.000000)">
                                <g id="Group-30" transform="translate(18.000000, 9.000000)">
                                    <g id="Group-34">
                                        <g id="Group-31" transform="translate(11.000000, 0.000000)">
                                            <path d="M26.5347341,17.119051 C24.735606,24.5045895 17.4262801,28.9979433 10.2095625,27.1572664 C2.99537052,25.3157279 -1.39679185,17.835851 0.403599033,10.4516049 C2.20146423,3.06563562 9.51079021,-1.42857976 16.7254031,0.412527933 C23.9425417,2.25363562 28.3334412,9.73437409 26.5347341,17.119051" id="Fill-1" fill="#FF9400"></path>
                                            <path d="M16.4882836,11.7939679 C16.0715459,13.5023987 13.499138,12.6343987 12.6652417,12.4215987 L13.4010573,9.40190639 C14.2349536,9.61470639 16.9222801,10.0118756 16.4882836,11.7939679 M16.031135,16.6663987 C15.5744074,18.5441218 12.4842345,17.5296602 11.4819593,17.2746449 L12.2939664,13.9452295 C13.2958205,14.2011064 16.508489,14.7081218 16.031135,16.6663987 M19.4079729,11.8211064 C19.6761162,9.98689101 18.3114056,9.00086024 16.444926,8.34307562 L17.0506689,5.8583987 L15.5727236,5.48147562 L14.9833976,7.90067562 C14.5948634,7.8015987 14.1958055,7.70812178 13.7996942,7.61550639 L14.3928088,5.18036793 L12.9161262,4.80344486 L12.3103833,7.28726024 C11.9887797,7.21230639 11.6730693,7.13821409 11.3666198,7.06024486 L11.3683036,7.05249101 L9.33007761,6.53169101 L8.93691299,8.14707562 C8.93691299,8.14707562 10.0334803,8.40424486 10.0099072,8.42018332 C10.608915,8.57310639 10.7170984,8.97846024 10.6989977,9.29981409 L10.0090653,12.1303987 C10.0507391,12.1411679 10.1041994,12.1571064 10.163132,12.1807987 C10.1134602,12.1683064 10.0608418,12.1545218 10.0069606,12.1411679 L9.04046598,16.1063987 C8.96722118,16.292491 8.78116255,16.5711987 8.36316205,16.4656602 C8.37747425,16.4876295 7.28890497,16.1912602 7.28890497,16.1912602 L6.55477317,17.9229525 L8.47850156,18.4140295 C8.83588568,18.5057833 9.18653464,18.6014141 9.53213223,18.6918756 L8.9200751,21.2049833 L10.3963367,21.5819064 L11.0020796,19.0950756 C11.405347,19.2070756 11.7964069,19.3104602 12.1798897,19.4082449 L11.5762515,21.8825833 L13.0541969,22.2595064 L13.6658331,19.7515679 C16.1856226,20.2396295 18.0811475,20.0427679 18.8788423,17.7105833 C19.5216286,15.8328602 18.8468503,14.7490449 17.5208669,14.0421525 C18.4865196,13.8138449 19.2139162,13.1638141 19.4079729,11.8211064" id="Fill-4" fill="#FFFFFF"></path>
                                        </g>
                                        <g id="Group-33" transform="translate(0.000000, 32.000000)" fill="#4C4C4C">
                                            <path d="M4.27008233,10.8063308 C4.63946344,10.8063308 4.98754162,10.7133308 5.3145123,10.5309308 C5.64226474,10.3481308 5.92545693,10.1013308 6.16252533,9.79393083 C6.39959373,9.48493083 6.58702044,9.13713083 6.7240237,8.74833083 C6.86083152,8.35993083 6.92982175,7.95453083 6.92982175,7.53293083 C6.92982175,7.01433083 6.84539178,6.61053083 6.67653185,6.31813083 C6.50786735,6.02713083 6.19594553,5.88073083 5.74272077,5.88073083 C5.59399113,5.88073083 5.40285106,5.90973083 5.16558722,5.96153083 C4.92734618,6.01653083 4.71431686,6.13073083 4.52356768,6.30253083 L3.47952859,10.7401308 C3.54226474,10.7517308 3.59816051,10.7623308 3.64565237,10.7725308 C3.69216702,10.7837308 3.74356768,10.7915308 3.79457745,10.7967308 C3.8489097,10.8029308 3.91086409,10.8061308 3.98571751,10.8061308 C4.06057093,10.8061308 4.15399113,10.8063308 4.27008233,10.8063308 M6.32728103,3.87233083 C6.83464259,3.87233083 7.27262305,3.96533083 7.64102696,4.14793083 C8.01099439,4.33233083 8.31627126,4.58073083 8.56115725,4.89313083 C8.80252533,5.20713083 8.98232989,5.57413083 9.09861654,5.99473083 C9.21392598,6.41653083 9.27177614,6.86993083 9.27177614,7.35513083 C9.27177614,8.10093083 9.1382908,8.80513083 8.86858396,9.46913083 C8.59907256,10.1341308 8.23340481,10.7109308 7.76825823,11.2031308 C7.30350253,11.6945308 6.75490318,12.0817308 6.1220693,12.3681308 C5.49021263,12.6543308 4.80324194,12.7975308 4.06565237,12.7975308 C3.97027777,12.7975308 3.80239504,12.7947308 3.56571751,12.7897308 C3.32884455,12.7849308 3.05659699,12.7599308 2.75151556,12.7177308 C2.44487061,12.6739308 2.12044064,12.6091308 1.77783478,12.5221308 C1.43542435,12.4369308 1.11021263,12.3177308 0.803958555,12.1661308 L3.54226474,0.390730826 L5.99503347,0.00173082586 L5.01470774,4.18033083 C5.22461002,4.08353083 5.43607582,4.00853083 5.64715074,3.95393083 C5.8584211,3.90033083 6.08513119,3.87233083 6.32728103,3.87233083" id="Fill-6"></path>
                                            <path d="M12.9553266,3.01493083 C12.6283559,3.01493083 12.3320693,2.91533083 12.068812,2.71573083 C11.8036002,2.51733083 11.6724602,2.21193083 11.6724602,1.80033083 C11.6724602,1.57393083 11.7172159,1.36153083 11.8063364,1.16113083 C11.896825,0.961130826 12.015066,0.788930826 12.1632094,0.642530826 C12.3111573,0.497330826 12.4825579,0.381330826 12.6772159,0.294130826 C12.8730465,0.207930826 13.0815807,0.164730826 13.3034048,0.164730826 C13.6301801,0.164730826 13.9250986,0.264330826 14.1891377,0.463930826 C14.4521996,0.664530826 14.5845123,0.969930826 14.5845123,1.37933083 C14.5845123,1.60653083 14.5397566,1.81973083 14.4498543,2.01973083 C14.3605384,2.21973083 14.2422973,2.39193083 14.094154,2.53833083 C13.9473788,2.68373083 13.7744146,2.79933083 13.5801475,2.88593083 C13.3841214,2.97353083 13.1765644,3.01493083 12.9553266,3.01493083 Z M11.8153266,12.5723308 L9.47278592,12.5723308 L11.4512224,4.05293083 L13.8097892,4.05293083 L11.8153266,12.5723308 Z" id="Fill-8"></path>
                                            <path d="M15.8628641,1.93035083 L18.3168055,1.54135083 L17.7142647,4.05255083 L20.341952,4.05255083 L19.8674244,6.02815083 L17.2553722,6.02815083 L16.5596068,9.00835083 C16.4955025,9.25635083 16.4593462,9.48835083 16.4489879,9.70395083 C16.4374569,9.92075083 16.4642322,10.1067508 16.5275546,10.2633508 C16.5906817,10.4203508 16.7038413,10.5415508 16.8680107,10.6265508 C17.0313983,10.7137508 17.2653397,10.7575508 17.5719846,10.7575508 C17.8246882,10.7575508 18.0711377,10.7329508 18.3091833,10.6841508 C18.5458608,10.6363508 18.78547,10.5695508 19.0282061,10.4819508 L19.2031247,12.3291508 C18.8869032,12.4479508 18.5441019,12.5501508 18.1743299,12.6361508 C17.8045579,12.7233508 17.366382,12.7651508 16.8603885,12.7651508 C16.1323755,12.7651508 15.568141,12.6545508 15.1663169,12.4345508 C14.7646882,12.2129508 14.4811051,11.9097508 14.311268,11.5263508 C14.1435807,11.1441508 14.0687273,10.7035508 14.0898348,10.2069508 C14.1113331,9.70955083 14.1846231,9.18615083 14.311268,8.63555083 L15.8628641,1.93035083 Z" id="Fill-10"></path>
                                            <path d="M20.2390726,9.17059083 C20.2390726,8.43659083 20.3551638,7.74479083 20.5869553,7.09679083 C20.8185514,6.44839083 21.152167,5.88139083 21.5848706,5.39499083 C22.0162061,4.91079083 22.5415481,4.52719083 23.1603103,4.24559083 C23.7757501,3.96559083 24.4652615,3.82439083 25.2247403,3.82439083 C25.7002452,3.82439083 26.1251312,3.87039083 26.498812,3.96259083 C26.8742517,4.05559083 27.2135351,4.17579083 27.5205709,4.32659083 L26.7128185,6.20659083 C26.5017436,6.11899083 26.2826556,6.04179083 26.0559455,5.97179083 C25.8294309,5.90039083 25.5524928,5.86599083 25.2253266,5.86599083 C24.4431768,5.86599083 23.8251963,6.14179083 23.3651312,6.69139083 C22.9064341,7.24179083 22.6758152,7.98259083 22.6758152,8.91139083 C22.6758152,9.46219083 22.7921019,9.90719083 23.025066,10.2477908 C23.2566621,10.5883908 23.685066,10.7579908 24.3065644,10.7579908 C24.6134048,10.7579908 24.909496,10.7249908 25.1932745,10.6611908 C25.4790074,10.5963908 25.7313201,10.5147908 25.9535351,10.4183908 L26.1286491,12.3455908 C25.8323625,12.4631908 25.5053918,12.5693908 25.1471507,12.6623908 C24.7877371,12.7521908 24.3603103,12.7989908 23.8644797,12.7989908 C23.2101475,12.7989908 22.6558804,12.7007908 22.2028511,12.5079908 C21.7494309,12.3119908 21.3747729,12.0515908 21.0794634,11.7221908 C20.7825905,11.3917908 20.5697566,11.0057908 20.4382257,10.5631908 C20.3064993,10.1205908 20.2390726,9.65519083 20.2390726,9.17059083" id="Fill-12"></path>
                                            <path d="M31.8167859,5.86601083 C31.4696849,5.86601083 31.1624537,5.96921083 30.8997827,6.17301083 C30.6357436,6.37921083 30.4143103,6.63861083 30.2356784,6.95081083 C30.0550921,7.26501083 29.9216068,7.60761083 29.8311182,7.97961083 C29.7414113,8.35261083 29.6970465,8.70541083 29.6970465,9.04041083 C29.6970465,9.58081083 29.7826491,10.0020108 29.9497501,10.3050108 C30.1193918,10.6062108 30.4250595,10.7578108 30.8681214,10.7578108 C31.2165905,10.7578108 31.5220628,10.6554108 31.7864928,10.4496108 C32.0487729,10.2450108 32.270597,9.98561083 32.4504016,9.67221083 C32.6298152,9.36001083 32.7650595,9.01641083 32.8553527,8.64361083 C32.9440823,8.27181083 32.9890335,7.91721083 32.9890335,7.58281083 C32.9890335,7.04361083 32.9042126,6.62161083 32.7351573,6.31901083 C32.5666882,6.01761083 32.2600432,5.86601083 31.8167859,5.86601083 M30.6462973,12.7982108 C30.0869488,12.7982108 29.6010856,12.7110108 29.1892941,12.5384108 C28.7782843,12.3662108 28.4384146,12.1236108 28.1692941,11.8094108 C27.8993918,11.4972108 27.6978934,11.1270108 27.5597175,10.7004108 C27.4215416,10.2740108 27.3550921,9.80161083 27.3550921,9.28441083 C27.3550921,8.63561083 27.4567208,7.98681083 27.6625188,7.33941083 C27.8677305,6.69121083 28.1716393,6.10861083 28.5734634,5.59081083 C28.9725514,5.07221083 29.465255,4.64821083 30.0445384,4.31761083 C30.6236263,3.98921083 31.2896849,3.82401083 32.0378283,3.82401083 C32.5866231,3.82401083 33.0697501,3.91141083 33.4876002,4.08401083 C33.9033006,4.25621083 34.245711,4.50041083 34.516395,4.81281083 C34.7843429,5.12681083 34.9877957,5.49541083 35.1244081,5.92261083 C35.2621931,6.34821083 35.3302061,6.82161083 35.3302061,7.33941083 C35.3302061,7.98621083 35.2297501,8.63521083 35.0304016,9.28401083 C34.831053,9.93001083 34.5347664,10.5140108 34.1438869,11.0328108 C33.7537892,11.5508108 33.266167,11.9746108 32.6802387,12.3038108 C32.0952875,12.6332108 31.4163299,12.7982108 30.6462973,12.7982108" id="Fill-14"></path>
                                            <path d="M39.0213397,3.01493083 C38.6945644,3.01493083 38.3982778,2.91533083 38.1358022,2.71573083 C37.8715677,2.51733083 37.739255,2.21193083 37.739255,1.80033083 C37.739255,1.57393083 37.7847924,1.36153083 37.8741084,1.16113083 C37.9634244,0.961130826 38.0822517,0.788930826 38.230395,0.642530826 C38.3777566,0.497330826 38.5507208,0.381330826 38.7449879,0.294130826 C38.9396459,0.207930826 39.1479846,0.164730826 39.369027,0.164730826 C39.6967794,0.164730826 39.9926752,0.264330826 40.2561279,0.463930826 C40.5197761,0.664530826 40.6526752,0.969930826 40.6526752,1.37933083 C40.6526752,1.60653083 40.6053788,1.81973083 40.5168445,2.01973083 C40.4283103,2.21973083 40.3092875,2.39193083 40.161926,2.53833083 C40.0133918,2.68373083 39.842382,2.79933083 39.6479195,2.88593083 C39.4515025,2.97353083 39.2439455,3.01493083 39.0213397,3.01493083 Z M37.8830986,12.5723308 L35.5387989,12.5723308 L37.51704,4.05293083 L39.8767794,4.05293083 L37.8830986,12.5723308 Z" id="Fill-16"></path>
                                            <path d="M41.5653006,4.44033083 C41.7429553,4.38713083 41.9417175,4.32313083 42.157483,4.25353083 C42.3744211,4.18393083 42.6165709,4.11933083 42.8870595,4.06093083 C43.1546165,4.00053083 43.4565709,3.95173083 43.7886231,3.91393083 C44.1202843,3.87533083 44.4990465,3.85653083 44.9190465,3.85653083 C46.1546165,3.85653083 47.0065384,4.22473083 47.4765709,4.95893083 C47.9464081,5.69313083 48.027711,6.69773083 47.7230204,7.97153083 L46.6451703,12.5715308 L44.2871898,12.5715308 L45.3316198,8.06813083 C45.3953331,7.78713083 45.4453657,7.51513083 45.4824993,7.24973083 C45.5196328,6.98633083 45.5176784,6.75413083 45.4738999,6.55353083 C45.4322713,6.35513083 45.3341605,6.19273083 45.1821084,6.06693083 C45.0275156,5.94313083 44.7939651,5.88093083 44.4771573,5.88093083 C44.1718804,5.88093083 43.8609358,5.91453083 43.5437371,5.97933083 L42.0083625,12.5709308 L39.6492094,12.5709308 L41.5653006,4.44033083 Z" id="Fill-18"></path>
                                        </g>
                                    </g>
                                </g>
                            </g>
                        </g>
                    </g>
                </g>
            </g>
        </g>
    </g>
</svg>