<?xml version="1.0" encoding="UTF-8"?>
<svg width="53px" height="40px" viewBox="0 0 53 40" version="1.1" xmlns="http://www.w3.org/2000/svg" xmlns:xlink="http://www.w3.org/1999/xlink">
    <defs>
        <polygon id="path-1" points="0.197155859 0.0289849246 47.918066 0.0289849246 47.918066 6.03015075 0.197155859 6.03015075"></polygon>
        <polygon id="path-3" points="0 39.8894472 52.9474141 39.8894472 52.9474141 -2.84217094e-14 0 -2.84217094e-14"></polygon>
    </defs>
    <g id="Page-1" stroke="none" stroke-width="1" fill="none" fill-rule="evenodd">
        <g id="style-3" transform="translate(-1050.000000, -523.000000)">
            <g id="Group-12-Copy-5" transform="translate(926.000000, 379.000000)">
                <g id="Group-Copy">
                    <g id="Group-42" transform="translate(16.000000, 110.000000)">
                        <g id="Group-6">
                            <g id="Group-11-Copy-13" transform="translate(92.000000, 23.000000)">
                                <g id="Group-10" transform="translate(16.000000, 11.000000)">
                                    <g id="Group">
                                        <g id="Group-3" transform="translate(2.484375, 33.859296)">
                                            <mask id="mask-2" fill="white">
                                                <use xlink:href="#path-1"></use>
                                            </mask>
                                            <g id="Clip-2"></g>
                                            <path d="M8.96865586,3.8239598 C8.96865586,3.07380905 9.46863633,2.4559196 10.2866168,2.4559196 C11.0592574,2.4559196 11.6045777,3.02958794 11.6045777,3.8239598 C11.6045777,4.57390955 11.0592574,5.19179899 10.2866168,5.19179899 C9.46863633,5.14757789 8.96865586,4.57390955 8.96865586,3.8239598 Z M12.513652,3.8239598 L12.513652,1.70576884 L11.5592379,1.70576884 L11.5592379,2.23541709 C11.2410309,1.83823116 10.7865973,1.61752764 10.1957301,1.61752764 C8.96865586,1.61752764 8.0142418,2.5441608 8.0142418,3.8239598 C8.0142418,5.10355779 8.96865586,6.03019095 10.1957301,6.03019095 C10.8319371,6.03019095 11.2865777,5.80948744 11.5592379,5.41230151 L11.5592379,5.94194975 L12.513652,5.94194975 L12.513652,3.8239598 Z M44.4184098,3.8239598 C44.4184098,3.07380905 44.9183902,2.4559196 45.7365777,2.4559196 C46.5090113,2.4559196 47.0545387,3.02958794 47.0545387,3.8239598 C47.0545387,4.57390955 46.5090113,5.19179899 45.7365777,5.19179899 C44.9183902,5.14757789 44.4184098,4.57390955 44.4184098,3.8239598 Z M47.918066,3.8239598 L47.918066,0.0289849246 L46.9634449,0.0289849246 L46.9634449,2.23541709 C46.6454449,1.83823116 46.1910113,1.61752764 45.6001441,1.61752764 C44.3730699,1.61752764 43.4184488,2.5441608 43.4184488,3.8239598 C43.4184488,5.10355779 44.3730699,6.03019095 45.6001441,6.03019095 C46.2363512,6.03019095 46.6907848,5.80948744 46.9634449,5.41230151 L46.9634449,5.94194975 L47.918066,5.94194975 L47.918066,3.8239598 Z M24.2392809,2.4118995 C24.830148,2.4118995 25.2392418,2.76466332 25.3301285,3.42657286 L23.0577535,3.42657286 C23.1486402,2.85310553 23.557527,2.4118995 24.2392809,2.4118995 Z M24.2392809,1.61752764 C22.9668668,1.61752764 22.0577926,2.5001407 22.0577926,3.8239598 C22.0577926,5.14757789 22.9668668,6.03019095 24.2846207,6.03019095 C24.9210348,6.03019095 25.5574488,5.85370854 26.0572223,5.45652261 L25.6027887,4.79461307 C25.2392418,5.05933668 24.7848082,5.2358191 24.3301676,5.2358191 C23.7395074,5.2358191 23.1486402,4.97109548 23.0122066,4.22114573 L26.2389957,4.22114573 L26.2389957,3.8679799 C26.2845426,2.5001407 25.4665621,1.61752764 24.2392809,1.61752764 Z M35.6469098,3.8239598 C35.6469098,3.07380905 36.1466832,2.4559196 36.9650777,2.4559196 C37.7375113,2.4559196 38.2830387,3.02958794 38.2830387,3.8239598 C38.2830387,4.57390955 37.7375113,5.19179899 36.9650777,5.19179899 C36.1466832,5.14757789 35.6469098,4.57390955 35.6469098,3.8239598 Z M39.146566,3.8239598 L39.146566,1.70576884 L38.1919449,1.70576884 L38.1919449,2.23541709 C37.8737379,1.83823116 37.4195113,1.61752764 36.8284371,1.61752764 C35.6015699,1.61752764 34.6469488,2.5441608 34.6469488,3.8239598 C34.6469488,5.10355779 35.6015699,6.03019095 36.8284371,6.03019095 C37.4648512,6.03019095 37.9192848,5.80948744 38.1919449,5.41230151 L38.1919449,5.94194975 L39.146566,5.94194975 L39.146566,3.8239598 Z M30.3295191,3.8239598 C30.3295191,5.10355779 31.2383863,6.03019095 32.647234,6.03019095 C33.283441,6.03019095 33.7380816,5.89772864 34.1925152,5.54476382 L33.7380816,4.79461307 C33.3745348,5.05933668 33.0109879,5.19179899 32.6016871,5.19179899 C31.8292535,5.19179899 31.2837262,4.66235176 31.2837262,3.8239598 C31.2837262,3.02958794 31.8292535,2.5001407 32.6016871,2.4559196 C33.0109879,2.4559196 33.3745348,2.58838191 33.7380816,2.85310553 L34.1925152,2.10295477 C33.7380816,1.74998995 33.283441,1.61752764 32.647234,1.61752764 C31.2383863,1.61752764 30.3295191,2.5441608 30.3295191,3.8239598 Z M42.5095816,1.61752764 C41.9642613,1.61752764 41.6007145,1.88245226 41.3733941,2.23541709 L41.3733941,1.70576884 L40.4189801,1.70576884 L40.4189801,5.94194975 L41.3733941,5.94194975 L41.3733941,3.55923618 C41.3733941,2.85310553 41.6916012,2.4559196 42.2822613,2.4559196 C42.4642418,2.4559196 42.6915621,2.5001407 42.8733355,2.5441608 L43.1459957,1.66174874 C42.9640152,1.61752764 42.6915621,1.61752764 42.5095816,1.61752764 Z M17.1492887,2.05893467 C16.6948551,1.74998995 16.058648,1.61752764 15.3768941,1.61752764 C14.2862535,1.61752764 13.5589527,2.14697487 13.5589527,2.98536683 C13.5589527,3.69149749 14.104273,4.08848241 15.0586871,4.22114573 L15.5131207,4.26496482 C16.0131012,4.35340704 16.2857613,4.48566834 16.2857613,4.70637186 C16.2857613,5.01531658 15.9222145,5.2358191 15.2860074,5.2358191 C14.6495934,5.2358191 14.1498199,5.01531658 13.8316129,4.79461307 L13.3771793,5.50074372 C13.8769527,5.85370854 14.5587066,6.03019095 15.2404605,6.03019095 C16.5130816,6.03019095 17.2403824,5.45652261 17.2403824,4.66235176 C17.2403824,3.912 16.6495152,3.51501508 15.740441,3.38275377 L15.2860074,3.33853266 C14.8769137,3.29431156 14.5587066,3.20607035 14.5587066,2.94134673 C14.5587066,2.63240201 14.8769137,2.4559196 15.3768941,2.4559196 C15.9222145,2.4559196 16.4677418,2.67662312 16.740402,2.80888442 L17.1492887,2.05893467 Z M29.374898,1.61752764 C28.8297848,1.61752764 28.4660309,1.88245226 28.2387105,2.23541709 L28.2387105,1.70576884 L27.2845035,1.70576884 L27.2845035,5.94194975 L28.2387105,5.94194975 L28.2387105,3.55923618 C28.2387105,2.85310553 28.5569176,2.4559196 29.1477848,2.4559196 C29.3295582,2.4559196 29.5566715,2.5001407 29.7384449,2.5441608 L30.0113121,1.66174874 C29.8295387,1.61752764 29.5566715,1.61752764 29.374898,1.61752764 Z M21.285152,1.70576884 L19.7398707,1.70576884 L19.7398707,0.426170854 L18.7854566,0.426170854 L18.7854566,1.70576884 L17.9219293,1.70576884 L17.9219293,2.5441608 L18.7854566,2.5441608 L18.7854566,4.48566834 C18.7854566,5.45652261 19.1945504,6.03019095 20.285398,6.03019095 C20.6942848,6.03019095 21.1489254,5.89772864 21.4669254,5.72124623 L21.1942652,4.92687437 C20.9216051,5.10355779 20.603398,5.14757789 20.3762848,5.14757789 C19.9216441,5.14757789 19.7398707,4.88305528 19.7398707,4.44164824 L19.7398707,2.5441608 L21.285152,2.5441608 L21.285152,1.70576884 Z M7.15071445,5.94194975 L7.15071445,3.29431156 C7.15071445,2.27943719 6.51450742,1.61752764 5.42365977,1.61752764 C4.87833945,1.61752764 4.28747227,1.79401005 3.87837852,2.36767839 C3.56017148,1.88245226 3.10573789,1.61752764 2.42398398,1.61752764 C1.96955039,1.61752764 1.5151168,1.74998995 1.15156992,2.23541709 L1.15156992,1.70576884 L0.197155859,1.70576884 L0.197155859,5.94194975 L1.15156992,5.94194975 L1.15156992,3.60325628 C1.15156992,2.85310553 1.56045664,2.5001407 2.1968707,2.5001407 C2.83307773,2.5001407 3.15128477,2.89732663 3.15128477,3.60325628 L3.15128477,5.94194975 L4.10569883,5.94194975 L4.10569883,3.60325628 C4.10569883,2.85310553 4.56013242,2.5001407 5.15099961,2.5001407 C5.78720664,2.5001407 6.10541367,2.89732663 6.10541367,3.60325628 L6.10541367,5.94194975 L7.15071445,5.94194975 Z" id="Fill-1" fill="#000000" mask="url(#mask-2)"></path>
                                        </g>
                                        <mask id="mask-4" fill="white">
                                            <use xlink:href="#path-3"></use>
                                        </mask>
                                        <g id="Clip-5"></g>
                                        <polygon id="Fill-4" fill="#FF5F00" mask="url(#mask-4)" points="19.3156016 28.3726633 33.6318125 28.3726633 33.6318125 3.39758794 19.3156016 3.39758794"></polygon>
                                        <path d="M20.2245723,15.8851055 C20.2245723,10.8107337 22.6787207,6.30982915 26.4510371,3.39766834 C23.6786816,1.27947739 20.1790254,-0.000120603015 16.3613691,-0.000120603015 C7.31720898,-0.000120603015 0.000103515625,7.104 0.000103515625,15.8851055 C0.000103515625,24.6660101 7.31720898,31.7703317 16.3613691,31.7703317 C20.1790254,31.7703317 23.6786816,30.4907337 26.4510371,28.3725427 C22.6787207,25.504603 20.2245723,20.9596784 20.2245723,15.8851055" id="Fill-6" fill="#FF0015" mask="url(#mask-4)"></path>
                                        <path d="M52.9474348,15.8851055 C52.9474348,24.6660101 45.6303293,31.7703317 36.5861691,31.7703317 C32.7683059,31.7703317 29.2688566,30.4907337 26.4965012,28.3725427 C30.3141574,25.4603819 32.722966,20.9596784 32.722966,15.8851055 C32.722966,10.8107337 30.2686105,6.30982915 26.4965012,3.39766834 C29.2688566,1.27947739 32.7683059,-0.000120603015 36.5861691,-0.000120603015 C45.6303293,-0.000120603015 52.9474348,7.14822111 52.9474348,15.8851055" id="Fill-7" fill="#FFA000" mask="url(#mask-4)"></path>
                                    </g>
                                </g>
                            </g>
                        </g>
                    </g>
                </g>
            </g>
        </g>
    </g>
</svg>