<?xml version="1.0" encoding="UTF-8"?>
<svg width="59px" height="17px" viewBox="0 0 59 17" version="1.1" xmlns="http://www.w3.org/2000/svg" xmlns:xlink="http://www.w3.org/1999/xlink">
    <defs>
        <linearGradient x1="0%" y1="0%" x2="100%" y2="100%" id="linearGradient-1">
            <stop stop-color="#00A7E3" offset="0%"></stop>
            <stop stop-color="#007FC4" offset="100%"></stop>
        </linearGradient>
        <path d="M41.4930849,0.0734567901 C42.2033452,4.0021358 45.583375,6.97944444 49.6507601,6.97944444 L58.7320624,6.97944444 C58.8055233,6.60712346 58.8451427,6.22241975 58.8451427,5.82806173 C58.8451427,2.64990123 56.3117712,0.0734567901 53.1872039,0.0734567901 L41.4930849,0.0734567901 Z" id="path-2"></path>
    </defs>
    <g id="Page-1" stroke="none" stroke-width="1" fill="none" fill-rule="evenodd">
        <g id="style-3" transform="translate(-1231.000000, -535.000000)">
            <g id="Group-12-Copy-5" transform="translate(926.000000, 379.000000)">
                <g id="Group-Copy">
                    <g id="Group-42" transform="translate(16.000000, 110.000000)">
                        <g id="Group-6">
                            <g id="Group-11-Copy-15" transform="translate(276.000000, 23.000000)">
                                <g id="Group-18" transform="translate(13.000000, 23.000000)">
                                    <path d="M32.7627032,1.85646296 L29.0454958,10.0481543 L28.6674607,10.0481543 L28.6674607,0.0733518519 L23.3863189,0.0733518519 L23.3863189,16.954142 L27.869295,16.954142 C29.0454958,16.954142 30.1148068,16.2584012 30.6086048,15.1710309 L34.3266376,6.97933951 L34.7036409,6.97933951 L34.7036409,16.954142 L39.9847828,16.954142 L39.9847828,0.0733518519 L35.5030448,0.0733518519 C34.3253995,0.0733518519 33.2562949,0.769092593 32.7627032,1.85646296" id="Fill-4" fill="#20AA4D"></path>
                                    <path d="M12.9499713,2.29199877 L10.7500631,10.0490358 L10.3732661,10.0490358 L8.17335779,2.29199877 C7.79986243,0.977961728 6.6176774,0.0729740741 5.27391952,0.0729740741 L0,0.0729740741 L0,16.9548136 L5.2799037,16.9548136 L5.2799037,6.97896173 L5.65793878,6.97896173 L8.67540984,16.9548136 L12.4477129,16.9548136 L15.465184,6.97896173 L15.8421873,6.97896173 L15.8421873,16.9548136 L21.1231228,16.9548136 L21.1231228,0.0729740741 L15.8494096,0.0729740741 C14.5056517,0.0729740741 13.3232603,0.977961728 12.9499713,2.29199877" id="Fill-6" fill="#20AA4D"></path>
                                    <path d="M42.2477932,7.74675309 L42.2477932,16.9550864 L47.5182047,16.9550864 L47.5182047,11.583716 L53.1870801,11.583716 C55.6492606,11.583716 57.7383584,9.98067901 58.5163017,7.74675309 L42.2477932,7.74675309 Z" id="Fill-8" fill="#20AA4D"></path>
                                    <mask id="mask-3" fill="white">
                                        <use xlink:href="#path-2"></use>
                                    </mask>
                                    <use id="Clip-12" fill="url(#linearGradient-1)" xlink:href="#path-2"></use>
                                </g>
                            </g>
                        </g>
                    </g>
                </g>
            </g>
        </g>
    </g>
</svg>