<?xml version="1.0" encoding="UTF-8"?>
<svg width="16px" height="16px" viewBox="0 0 16 16" version="1.1" xmlns="http://www.w3.org/2000/svg" xmlns:xlink="http://www.w3.org/1999/xlink">
    <g  stroke="none" stroke-width="1" fill="none" fill-rule="evenodd">
        <g id="Идентификация-№3" transform="translate(-639.000000, -543.000000)" fill="#272424" fill-rule="nonzero">
            <g id="Group-13" transform="translate(305.000000, 221.000000)">
                <g id="Group-12" transform="translate(0.000000, 125.000000)">
                    <g id="Group-11" transform="translate(320.000000, 0.000000)">
                        <g id="Group-18-Copy-9" transform="translate(0.000000, 185.000000)">
                            <g id="company" transform="translate(14.000000, 12.000000)">
                                <path d="M9,16 L6,16 L6,12 L3,12 L3,16 L0,16 L0,1 C-6.76353751e-17,0.44771525 0.44771525,1.01453063e-16 1,0 L8,0 C8.55228475,-1.01453063e-16 9,0.44771525 9,1 L9,6 L15,6 C15.5522847,6 16,6.44771525 16,7 L16,16 L9,16 Z M2,2 L2,4 L4,4 L4,2 L2,2 Z M5,2 L5,4 L7,4 L7,2 L5,2 Z M2,5 L2,7 L4,7 L4,5 L2,5 Z M5,5 L5,7 L7,7 L7,5 L5,5 Z M2,8 L2,10 L4,10 L4,8 L2,8 Z M5,8 L5,10 L7,10 L7,8 L5,8 Z M9,8 L9,10 L11,10 L11,8 L9,8 Z M12,8 L12,10 L14,10 L14,8 L12,8 Z M9,11 L9,13 L11,13 L11,11 L9,11 Z M12,11 L12,13 L14,13 L14,11 L12,11 Z" id="Combined-Shape"></path>
                            </g>
                        </g>
                    </g>
                </g>
            </g>
        </g>
    </g>
</svg>