<?xml version="1.0" encoding="UTF-8"?>
<svg width="73px" height="64px" viewBox="0 0 73 64" version="1.1" xmlns="http://www.w3.org/2000/svg" xmlns:xlink="http://www.w3.org/1999/xlink">
    <!-- Generator: Sketch 51.1 (57501) - http://www.bohemiancoding.com/sketch -->
    <g  stroke="none" stroke-width="1" fill="none" fill-rule="evenodd">
        <g  transform="translate(-482.000000, -198.000000)">
            <g id="Group-35" transform="translate(482.000000, 198.000000)">
                <path d="M36.5,64 C56.658,64 73,62.762 73,61.234 C73,59.707 56.658,58.469 36.5,58.469 C16.342,58.469 0,59.707 0,61.234 C0,62.762 16.342,64 36.5,64" id="Fill-1" fill="#DFE3E9"></path>
                <path d="M26.8042,11 C26.8042,6.589 31.1542,3 36.5002,3 C41.8462,3 46.1952,6.589 46.1952,11 C46.1952,11.018 46.1922,11.036 46.1922,11.054 L49.1922,11.054 C49.1922,11.036 49.1952,11.018 49.1952,11 C49.1952,4.925 43.5122,0 36.5002,0 C29.4882,0 23.8042,4.925 23.8042,11 C23.8042,11.018 23.8072,11.036 23.8072,11.054 L26.8072,11.054 C26.8072,11.036 26.8042,11.018 26.8042,11" id="Fill-3" fill="#4B3435"></path>
                <path d="M66.0254,12.6357 L49.0404,12.6357 L45.9904,12.6357 L27.0094,12.6357 L23.9604,12.6357 L6.9304,12.6357 C5.5794,13.8127 4.7224,15.5397 4.7224,17.4717 L4.7224,55.1777 C4.7224,57.1187 5.5874,58.8547 6.9494,60.0317 L66.0054,60.0317 C67.3684,58.8547 68.2334,57.1187 68.2334,55.1777 L68.2334,17.4717 C68.2334,15.5397 67.3764,13.8127 66.0254,12.6357" id="Fill-5" fill="#9C8A7A"></path>
                <path d="M46.1924,11.0542 L26.8074,11.0542 C26.8124,11.5962 26.8804,12.1242 27.0094,12.6362 L45.9904,12.6362 C46.1194,12.1242 46.1874,11.5962 46.1924,11.0542" id="Fill-7" fill="#B8A295"></path>
                <path d="M23.8076,11.0542 L11.1406,11.0542 C9.5276,11.0542 8.0576,11.6532 6.9306,12.6362 L23.9596,12.6362 C23.8706,12.1182 23.8106,11.5932 23.8076,11.0542" id="Fill-9" fill="#B8A295"></path>
                <path d="M66.0254,12.6357 C64.8984,11.6537 63.4284,11.0537 61.8154,11.0537 L49.1924,11.0537 C49.1894,11.5927 49.1294,12.1177 49.0404,12.6357 L66.0254,12.6357 Z" id="Fill-11" fill="#B8A295"></path>
                <path d="M45.9902,12.6357 L49.0402,12.6357 C49.1292,12.1177 49.1892,11.5927 49.1922,11.0537 L46.1922,11.0537 C46.1872,11.5957 46.1192,12.1247 45.9902,12.6357" id="Fill-13" fill="#B8A295"></path>
                <path d="M27.0098,12.6357 C26.8808,12.1247 26.8118,11.5957 26.8078,11.0537 L23.8078,11.0537 C23.8108,11.5927 23.8708,12.1177 23.9598,12.6357 L27.0098,12.6357 Z" id="Fill-15" fill="#B8A295"></path>
                <path d="M11.1401,61.5947 L61.8151,61.5947 C63.4191,61.5947 64.8811,61.0027 66.0061,60.0317 L6.9501,60.0317 C8.0751,61.0027 9.5371,61.5947 11.1401,61.5947" id="Fill-17" fill="#70564C"></path>
                <polygon id="Fill-19" fill="#68574D" points="68.2324 29.7954 40.3724 35.7384 40.9884 38.6304 68.2324 32.8424"></polygon>
                <polygon id="Fill-21" fill="#4B3435" points="41.0303 38.8267 40.9883 38.6307 39.7243 38.8997 40.3813 41.9877 68.2323 36.0707 68.2323 33.0237"></polygon>
                <polygon id="Fill-23" fill="#4B3435" points="68.2324 33.0234 68.2324 32.8424 40.9884 38.6304 41.0304 38.8264"></polygon>
                <polygon id="Fill-25" fill="#68574D" points="32.249 38.7627 32.894 35.7387 4.722 29.7287 4.722 32.9137"></polygon>
                <polygon id="Fill-27" fill="#4B3435" points="32.2354 38.8267 4.7214 32.9567 4.7214 36.1417 32.2364 41.9877 32.8924 38.8997 32.2494 38.7627"></polygon>
                <polygon id="Fill-29" fill="#4B3435" points="4.7217 32.957 32.2357 38.827 32.2487 38.763 4.7217 32.914"></polygon>
                <path d="M34.1069,31.605 L38.8929,31.605 C40.2009,31.605 41.2609,32.665 41.2609,33.973 L41.2609,42.978 C41.2609,43.833 40.7999,44.622 40.0549,45.041 C38.8699,45.708 37.6849,46.041 36.4999,46.041 C35.3149,46.041 34.1299,45.708 32.9449,45.041 C32.1999,44.622 31.7389,43.833 31.7389,42.978 L31.7389,33.973 C31.7389,32.665 32.7989,31.605 34.1069,31.605" id="Fill-31" fill="#FDE2A7"></path>
                <path d="M38.8931,31.605 L34.1071,31.605 C32.7991,31.605 31.7391,32.665 31.7391,33.973 L31.7391,42.978 C31.7391,43.833 32.2001,44.622 32.9451,45.041 C34.1301,45.708 35.3151,46.041 36.5001,46.041 C37.6851,46.041 38.8701,45.708 40.0551,45.041 C40.8001,44.622 41.2611,43.833 41.2611,42.978 L41.2611,33.973 C41.2611,32.665 40.2011,31.605 38.8931,31.605 M38.2611,34.605 L38.2611,42.596 C37.6471,42.896 37.0681,43.041 36.5001,43.041 C35.9321,43.041 35.3521,42.896 34.7391,42.596 L34.7391,34.605 L38.2611,34.605" id="Fill-33" fill="#68574D"></path>
            </g>
        </g>
    </g>
</svg>