<?xml version="1.0" encoding="UTF-8"?>
<svg width="16px" height="16px" viewBox="0 0 16 16" version="1.1" xmlns="http://www.w3.org/2000/svg" xmlns:xlink="http://www.w3.org/1999/xlink">
    <g  stroke="none" stroke-width="1" fill="none" fill-rule="evenodd">
        <g id="Идентификация-№3" transform="translate(-319.000000, -460.000000)">
            <g id="Group-13" transform="translate(305.000000, 221.000000)">
                <g id="Group-12" transform="translate(0.000000, 125.000000)">
                    <g id="Group-18-Copy-10" transform="translate(0.000000, 102.000000)">
                        <g id="organization" transform="translate(14.000000, 12.000000)">
                            <g id="Group-7" stroke-width="1"></g>
                            <path d="M0,14 L16,14 L16,16 L0,16 L0,14 Z M0,3 L8,0 L16,3 L16,5 L0,5 L0,3 Z M1,7 L3,7 L3,12 L1,12 L1,7 Z M5,7 L7,7 L7,12 L5,12 L5,7 Z M9,7 L11,7 L11,12 L9,12 L9,7 Z M13,7 L15,7 L15,12 L13,12 L13,7 Z" id="Combined-Shape" fill="#272424"></path>
                        </g>
                    </g>
                </g>
            </g>
        </g>
    </g>
</svg>