<?xml version="1.0" encoding="UTF-8"?>
<svg width="64px" height="64px" viewBox="0 0 64 64" version="1.1" xmlns="http://www.w3.org/2000/svg" xmlns:xlink="http://www.w3.org/1999/xlink">
    <g  stroke="none" stroke-width="1" fill="none" fill-rule="evenodd">
        <g  transform="translate(-588.000000, -207.000000)">
            <g id="Group-6-Copy" transform="translate(588.000000, 203.000000)">
                <g id="Group-8">
                    <g id="Group-4-Copy" transform="translate(0.000000, 4.000000)">
                        <path d="M47.248227,44.9707159 L47.248227,41.9390712 C51.5349655,39.5015578 54.1065998,38.1665884 54.9631298,37.9341628 C55.8196599,37.7017372 56.8602514,38.0565033 58.0849043,38.9984611 C55.4768018,40.1636803 53.5431529,41.0874719 52.2839576,41.7698358 C51.0247623,42.4521998 49.3461854,43.5191598 47.248227,44.9707159 Z" id="Path-51-Copy" fill="#D9AE84"></path>
                        <g id="Group-13">
                            <rect id="Rectangle-3" fill="#FFFFFF" fill-rule="nonzero" x="0" y="0" width="64" height="64"></rect>
                            <g id="Group-6" transform="translate(22.000000, 22.000000)">
                                <circle id="Oval-4" fill="#F2CB91" cx="10" cy="5" r="5"></circle>
                                <path d="M0,15 C3.33591153,12.5 6.67020248,11.25 10.0028729,11.25 C13.3355432,11.25 16.6679189,12.5 20,15 L20,20 L0,20 L0,15 Z" id="Rectangle-8" fill="#0288D1"></path>
                            </g>
                            <g id="Group-10" transform="translate(0.000000, 44.000000)">
                                <circle id="Oval-4-Copy" fill="#FEB64C" cx="10" cy="5" r="5"></circle>
                                <path d="M0,15 C3.33591153,12.5 6.67020248,11.25 10.0028729,11.25 C13.3355432,11.25 16.6679189,12.5 20,15 L20,20 L0,20 L0,15 Z" id="Rectangle-8-Copy" fill="#7B7B7B"></path>
                            </g>
                            <g id="Group-9">
                                <circle id="Oval-4-Copy-2" fill="#FEB64D" cx="10" cy="5" r="5"></circle>
                                <path d="M0,15 C3.33591153,12.5 6.67020248,11.25 10.0028729,11.25 C13.3355432,11.25 16.6679189,12.5 20,15 L20,20 L0,20 L0,15 Z" id="Rectangle-8-Copy-2" fill="#E53935"></path>
                            </g>
                            <g id="Group-12" transform="translate(44.000000, 44.000000)">
                                <circle id="Oval-4-Copy-4" fill="#C16D14" cx="10" cy="5" r="5"></circle>
                                <path d="M0,15 C3.33591153,12.5 6.67020248,11.25 10.0028729,11.25 C13.3355432,11.25 16.6679189,12.5 20,15 L20,20 L0,20 L0,15 Z" id="Rectangle-8-Copy-4" fill="#3C02D1"></path>
                            </g>
                            <g id="Group-11" transform="translate(44.000000, 0.000000)">
                                <circle id="Oval-4-Copy-3" fill="#E4842E" cx="10" cy="5" r="5"></circle>
                                <path d="M0,15 C3.33591153,12.5 6.67020248,11.25 10.0028729,11.25 C13.3355432,11.25 16.6679189,12.5 20,15 L20,20 L0,20 L0,15 Z" id="Rectangle-8-Copy-3" fill="#43A047"></path>
                            </g>
                        </g>
                    </g>
                </g>
            </g>
        </g>
    </g>
</svg>