<svg width="72" height="64" viewBox="0 0 72 64" fill="none" xmlns="http://www.w3.org/2000/svg">
    <rect width="72" height="64" fill="black" fill-opacity="0"/>
    <path fill-rule="evenodd" clip-rule="evenodd" d="M23.8866 33.8292C29.8403 33.8292 34.6667 29.0107 34.6667 23.0668C34.6667 17.1229 29.8403 12.3044 23.8866 12.3044C17.9329 12.3044 13.1064 17.1229 13.1064 23.0668C13.1064 29.0107 17.9329 33.8292 23.8866 33.8292Z" fill="#FFED72"/>
    <path fill-rule="evenodd" clip-rule="evenodd" d="M47.163 21.5247C53.1167 21.5247 57.9431 16.7063 57.9431 10.7624C57.9431 4.81848 53.1167 0 47.163 0C41.2092 0 36.3828 4.81848 36.3828 10.7624C36.3828 16.7063 41.2092 21.5247 47.163 21.5247Z" fill="#FFED72"/>
    <rect width="12.1277" height="12.1077" fill="black" fill-opacity="0" transform="translate(18.4961 16.3403)"/>
    <path fill-rule="evenodd" clip-rule="evenodd" d="M23.4833 24.554V28.448H20.7119V16.9709H25.2993C26.1783 16.9709 26.956 17.1325 27.6324 17.4557C28.3088 17.7789 28.8325 18.2387 29.2036 18.8352C29.5747 19.4316 29.7603 20.1082 29.7603 20.8649C29.7603 21.9843 29.3589 22.8789 28.5562 23.549C27.7535 24.219 26.6521 24.554 25.2519 24.554H23.4833ZM23.4834 22.4179H25.2994C25.8363 22.4179 26.2455 22.2839 26.5272 22.0159C26.8088 21.7478 26.9496 21.3695 26.9496 20.8808C26.9496 20.3447 26.8048 19.9165 26.5153 19.5959C26.2258 19.2753 25.831 19.1124 25.331 19.1072H23.4834V22.4179Z" fill="#EEB327"/>
    <rect x="18.6309" y="22.394" width="2.15603" height="2.15247" fill="#EEB327"/>
    <rect width="12.1277" height="12.1077" fill="black" fill-opacity="0" transform="translate(41.7734 4.03589)"/>
    <path fill-rule="evenodd" clip-rule="evenodd" d="M46.7606 12.2496V16.1436H43.9893V4.6665H48.5766C49.4557 4.6665 50.2334 4.8281 50.9098 5.15128C51.5862 5.47447 52.1099 5.93428 52.481 6.53074C52.8521 7.12719 53.0376 7.80377 53.0376 8.56051C53.0376 9.67984 52.6363 10.5745 51.8335 11.2445C51.0308 11.9146 49.9294 12.2496 48.5292 12.2496H46.7606ZM46.7607 10.1134H48.5767C49.1136 10.1134 49.5229 9.97942 49.8045 9.71141C50.0861 9.4434 50.2269 9.06504 50.2269 8.57632C50.2269 8.0403 50.0822 7.61202 49.7927 7.29146C49.5031 6.97089 49.1084 6.80799 48.6083 6.80273H46.7607V10.1134Z" fill="#EEB327"/>
    <rect x="41.9082" y="10.0896" width="2.15603" height="2.15247" fill="#EEB327"/>
    <rect width="21.5603" height="21.5247" fill="black" fill-opacity="0" transform="translate(36.3828 25.7576)"/>
    <path fill-rule="evenodd" clip-rule="evenodd" d="M47.163 47.2823C53.1167 47.2823 57.9431 42.4638 57.9431 36.5199C57.9431 30.576 53.1167 25.7576 47.163 25.7576C41.2092 25.7576 36.3828 30.576 36.3828 36.5199C36.3828 42.4638 41.2092 47.2823 47.163 47.2823Z" fill="#FFED72"/>
    <rect width="12.1277" height="12.1077" fill="black" fill-opacity="0" transform="translate(41.7725 29.7935)"/>
    <path fill-rule="evenodd" clip-rule="evenodd" d="M46.7596 38.0071V41.9011H43.9883V30.4241H48.5756C49.4547 30.4241 50.2324 30.5857 50.9088 30.9089C51.5852 31.232 52.1089 31.6919 52.48 32.2883C52.8511 32.8848 53.0367 33.5613 53.0367 34.3181C53.0367 35.4374 52.6353 36.3321 51.8326 37.0021C51.0298 37.6721 49.9284 38.0071 48.5283 38.0071H46.7596ZM46.7598 35.871H48.5758C49.1127 35.871 49.5219 35.737 49.8035 35.469C50.0851 35.201 50.2259 34.8226 50.2259 34.3339C50.2259 33.7979 50.0812 33.3696 49.7917 33.049C49.5022 32.7285 49.1074 32.5656 48.6073 32.5603H46.7598V35.871Z" fill="#EEB327"/>
    <rect x="41.9072" y="35.8472" width="2.15603" height="2.15247" fill="#EEB327"/>
    <path fill-rule="evenodd" clip-rule="evenodd" d="M3.12793 41.8645C3.15358 41.072 3.85565 40.4669 4.64642 40.5255C6.35835 40.6524 9.32253 40.7684 12.2217 40.387C16.6681 39.802 17.8915 38.5377 20.1542 38.1534C22.4169 37.7692 22.4169 37.7692 25.3727 38.1534C28.3285 38.5377 31.6624 40.387 31.6624 40.387C31.6624 40.387 44.8942 39.8358 48.6045 40.387C52.3148 40.9381 52.5865 42.7388 52.6826 43.5093C52.7403 43.9712 52.7852 48.6124 45.1544 48.6124C36.3975 48.6124 28.9046 48.5706 28.4547 49.5047C28.0048 50.4387 36.1706 51.629 43.3469 52.3651C50.5232 53.1011 61.6998 42.8679 63.9688 41.8467C66.2378 40.8256 68.0612 40.1001 69.9623 40.387C71.8635 40.6739 71.8635 42.1076 71.5839 42.996C71.3043 43.8843 66.7773 49.6501 58.9259 54.7338C51.0744 59.8176 45.729 63.1094 41.6859 63.7921C37.6429 64.4748 17.4846 56.5983 17.4846 56.5983H4.04061C3.28057 56.5983 2.67143 55.9691 2.69602 55.2095L3.12793 41.8645Z" fill="#FFCE9C"/>
    <rect x="0.672648" y="39.8831" width="9.43485" height="17.4888" rx="0.672648" fill="#21424A" stroke="#21424A" stroke-width="1.3453"/>
</svg>
