<?xml version="1.0" encoding="UTF-8"?>
<svg width="54px" height="65px" viewBox="0 0 54 65" version="1.1" xmlns="http://www.w3.org/2000/svg" xmlns:xlink="http://www.w3.org/1999/xlink">
    <!-- Generator: Sketch 51.1 (57501) - http://www.bohemiancoding.com/sketch -->
    <defs>
        <radialGradient cx="50%" cy="51.3223741%" fx="50%" fy="51.3223741%" r="134.141526%" gradientTransform="translate(0.500000,0.513224),scale(1.000000,0.852459),rotate(90.000000),scale(1.000000,0.164025),translate(-0.500000,-0.513224)" id="radialGradient-1">
            <stop stop-color="#D9D9D9" offset="0%"></stop>
            <stop stop-color="#D8D8D8" stop-opacity="0" offset="100%"></stop>
        </radialGradient>
        <path d="M28.0353641,62 C33.6374824,62 47.5208228,50.7546659 51.7906338,41.1793628 C55.2741047,33.3674735 53.5958838,8.2714561 53.5958838,7.19394879 C53.5958838,5.40750073 42.1520493,1 28.0353641,1 C13.9186789,1 2.47484438,5.40750073 2.47484438,7.19394879 C2.47484438,8.20459477 0.648761378,26.580284 4.15860855,41.1793628 C5.71911922,47.6702489 21.9049011,62 28.0353641,62 Z" id="path-2"></path>
        <path d="M28.0285633,56 C32.5533512,56 43.7668184,46.9668628 47.2155119,39.2752258 C50.0290846,33.0001017 48.6735985,12.8410057 48.6735985,11.9754671 C48.6735985,10.5404514 39.4305014,7 28.0285633,7 C16.6266252,7 7.38352815,10.5404514 7.38352815,11.9754671 C7.38352815,12.7872974 5.90861496,27.548097 8.74349152,39.2752258 C10.003904,44.4892163 23.0770355,56 28.0285633,56 Z" id="path-3"></path>
    </defs>
    <g  stroke="none" stroke-width="1" fill="none" fill-rule="evenodd">
        <g id="Создание-проекта-№2" transform="translate(-466.000000, -158.000000)">
            <g id="Group-54" transform="translate(440.000000, 143.000000)">
                <g id="Group-16">
                    <g id="Group-17" transform="translate(25.000000, 15.000000)">
                        <ellipse id="Oval-8" fill="#DFE4EA" cx="28" cy="62.5" rx="16" ry="2.5"></ellipse>
                        <path d="M28.0353641,62 C33.6374824,62 47.5208228,50.7546659 51.7906338,41.1793628 C55.2741047,33.3674735 53.5958838,8.2714561 53.5958838,7.19394879 C53.5958838,5.40750073 42.1520493,1 28.0353641,1 C13.9186789,1 2.47484438,5.40750073 2.47484438,7.19394879 C2.47484438,8.20459477 0.648761378,26.580284 4.15860855,41.1793628 C5.71911922,47.6702489 21.9049011,62 28.0353641,62 Z M28.0353641,63 C21.49264,63 4.86973933,48.4152669 3.18631304,41.4131179 C2.57722217,38.8796271 2.10386655,36.1441286 1.75477853,33.2337734 C0.887462765,26.002941 0.827018917,18.4605977 1.23892206,10.9484523 C1.31229697,9.61026645 1.47484438,7.23877842 1.47484438,7.19394879 C1.47484438,3.95696805 15.2866393,0 28.0353641,0 C40.7840888,0 54.5958838,3.95696805 54.5958838,7.19394879 C54.5958838,7.2464569 54.7345386,10.0970291 54.7971556,11.6751108 C54.9850788,16.4111718 55.0573315,20.9998481 54.9530709,25.3424762 C54.7721933,32.8763295 54.0835979,38.4926721 52.7039447,41.5866256 C48.4982937,51.0180464 34.4340361,63 28.0353641,63 Z" id="Oval-7-Copy-2" fill="#BFBFBF" fill-rule="nonzero"></path>
                        <g id="Oval-7-Copy-3">
                            <use fill="#FFFFFF" xlink:href="#path-2"></use>
                            <use fill="url(#radialGradient-1)" xlink:href="#path-2"></use>
                        </g>
                        <mask id="mask-4" fill="white">
                            <use xlink:href="#path-3"></use>
                        </mask>
                        <use id="Oval-7-Copy" fill="#4CAF50" xlink:href="#path-3"></use>
                        <path d="M45.657491,14.3922446 C45.6586927,14.3932736 45.6598926,14.3942982 45.6610908,14.3953183 C45.6594976,14.3939619 45.6501886,14.3878262 45.6336513,14.3775679 L45.657491,14.3922446 Z M41.5307255,12.796498 C37.6352059,11.6865616 32.8494997,11 28.0285633,11 C23.2076269,11 18.4219207,11.6865616 14.5264011,12.796498 C13.2109743,13.1712979 12.0861546,13.5730053 11.2662187,13.943664 C11.2342643,14.4445934 11.2035665,14.9314688 11.1856986,15.2555559 C10.8671101,21.0341119 10.9138566,26.8353865 11.5751025,32.3180852 C11.8356787,34.4786439 12.1862188,36.4933277 12.6315033,38.335351 C12.7615863,38.87347 13.4891455,40.0872646 14.690231,41.5578518 C15.9976009,43.1585716 17.7378484,44.9263397 19.6317673,46.578961 C23.2961642,49.7764899 27.0159379,52 28.0285633,52 C28.9897978,52 32.1925404,50.221493 35.4397873,47.4701392 C39.1300084,44.3434587 42.2245436,40.6296868 43.5656018,37.6387184 C44.3296246,35.934715 44.8327611,31.8534424 44.9634934,26.4379782 C45.0448638,23.0672861 44.9880205,19.4769714 44.839979,15.7663995 C44.821252,15.2970187 44.7896096,14.5992843 44.7589161,13.9292555 C43.9418215,13.5626107 42.8291259,13.1664466 41.5307255,12.796498 Z M11.3743206,12.2446541 C11.3803925,12.1569414 11.3835282,12.0672207 11.3835282,11.9754671 C11.3835282,12.0079933 11.3805579,12.0790129 11.3753178,12.1795267 L11.3743206,12.2446541 Z M28.0285633,56 C23.0770355,56 10.003904,44.4892163 8.74349152,39.2752258 C5.90861496,27.548097 7.38352815,12.7872974 7.38352815,11.9754671 C7.38352815,10.5404514 16.6266252,7 28.0285633,7 C39.4305014,7 48.6735985,10.5404514 48.6735985,11.9754671 C48.6735985,12.8410057 50.0290846,33.0001017 47.2155119,39.2752258 C43.7668184,46.9668628 32.5533512,56 28.0285633,56 Z" id="Oval-7-Copy-4" fill="#43A047" fill-rule="nonzero" mask="url(#mask-4)"></path>
                        <rect id="Rectangle-5" fill="#43A047" mask="url(#mask-4)" x="27" y="7" width="22" height="50"></rect>
                        <path d="M24.151465,40.6268406 L16.3514574,32.3461603 C15.8828475,31.8486725 15.8828475,31.0420526 16.3514574,30.5445151 L18.0484747,28.74287 C18.5170845,28.2453324 19.276929,28.2453324 19.7455388,28.74287 L24.9999971,34.3210826 L36.2544612,22.3731158 C36.723071,21.8756281 37.4829155,21.8756281 37.9515253,22.3731158 L39.6485426,24.174761 C40.1171525,24.6722487 40.1171525,25.4788686 39.6485426,25.9764061 L25.8485291,40.6268904 C25.3798724,41.1243782 24.6200748,41.1243782 24.151465,40.6268406 Z" id="check" fill="#368039" fill-rule="nonzero" style="mix-blend-mode: screen;" mask="url(#mask-4)"></path>
                    </g>
                </g>
            </g>
        </g>
    </g>
</svg>