<?xml version="1.0" encoding="UTF-8"?>
<svg width="16px" height="16px" viewBox="0 0 16 16" version="1.1" xmlns="http://www.w3.org/2000/svg" xmlns:xlink="http://www.w3.org/1999/xlink">
    <g  stroke="none" stroke-width="1" fill="none" fill-rule="evenodd">
        <g id="Профиль-№1" transform="translate(-319.000000, -463.000000)" fill="#272424">
            <g id="Group-18-Copy-2" transform="translate(305.000000, 451.000000)">
                <g id="skype" transform="translate(14.000000, 12.000000)">
                    <path d="M15.5399812,9.69848722 C15.8344309,10.2827334 16,10.9402423 16,11.6367009 C16,14.046021 14.0188147,16 11.5747883,16 C10.8174976,16 10.1063029,15.8117429 9.48259643,15.4815974 C9.02916275,15.5641338 8.5625588,15.6077204 8.08466604,15.6077204 C3.87017874,15.6077204 0.453433678,12.2394946 0.453433678,8.08300006 C0.453433678,7.56552484 0.507055503,7.05917811 0.607714017,6.57137889 C0.22201317,5.92221643 0,5.16918797 0,4.36422651 C0,1.95305164 1.98118532,0 4.4261524,0 C5.29068674,0 6.09783631,0.245754362 6.7798683,0.669564713 C7.20507996,0.597229467 7.6406397,0.559207094 8.08466604,0.559207094 C12.3000941,0.559207094 15.7158984,3.92836029 15.7158984,8.08300006 C15.7158984,8.63757028 15.6556914,9.1773025 15.5399812,9.69848722 Z M11.9990593,11.6793601 C12.3527752,11.1850693 12.533396,10.6202979 12.533396,10.0008115 C12.533396,9.48240886 12.4289746,9.03726888 12.2229539,8.67466528 C12.0169332,8.3148438 11.7281279,8.01437431 11.3631232,7.77974845 C11.0037629,7.54883209 10.565381,7.3522286 10.056444,7.19272011 C9.55503293,7.03413899 8.98777046,6.88668637 8.36970837,6.75685388 C7.88146754,6.64556889 7.52587018,6.55932302 7.31420508,6.50089839 C7.10724365,6.4452559 6.90028222,6.36550165 6.69990593,6.26627253 C6.50611477,6.16982554 6.35277516,6.05668579 6.24553151,5.92499855 C6.1420508,5.80258506 6.09219191,5.65884194 6.09219191,5.48820495 C6.09219191,5.20813772 6.24741298,4.9716571 6.565381,4.76670724 C6.89557855,4.55248363 7.34148636,4.44490813 7.88711195,4.44490813 C8.47695202,4.44490813 8.90498589,4.54135513 9.16180621,4.73424912 C9.4261524,4.93270736 9.65663217,5.21370196 9.8466604,5.56981395 C10.0112888,5.84802643 10.1599247,6.04277517 10.3029163,6.16797079 C10.4553151,6.30151278 10.6773283,6.37013853 10.9595484,6.37013853 C11.2699906,6.37013853 11.5343368,6.26163566 11.7431797,6.04648467 C11.9510818,5.83411581 12.056444,5.58928882 12.056444,5.32035008 C12.056444,5.04121022 11.9755409,4.75279662 11.8174976,4.46252826 C11.6613358,4.17504202 11.4111007,3.89961166 11.0752587,3.63994668 C10.7422389,3.38306381 10.3189087,3.17533183 9.81561618,3.02138758 C9.31514581,2.86744334 8.7158984,2.78954385 8.03480715,2.78954385 C7.18156162,2.78954385 6.4289746,2.90639309 5.79586077,3.13730945 C5.1533396,3.37008057 4.65475071,3.7132093 4.31420508,4.15185765 C3.96989652,4.59328812 3.79586077,5.10612647 3.79586077,5.67367994 C3.79586077,6.26998203 3.96237065,6.77725613 4.289746,7.18251898 C4.61241769,7.58036284 5.05362183,7.89845244 5.60112888,8.12751406 C6.13546566,8.35286617 6.80809031,8.55039703 7.60112888,8.71732452 C8.18344309,8.83788327 8.65380997,8.95380514 9.00094073,9.05952588 C9.33301976,9.16339187 9.60677328,9.31177187 9.81561618,9.50281111 C10.0131703,9.68643135 10.1100659,9.92012983 10.1100659,10.2159624 C10.1100659,10.5924767 9.92568203,10.9003652 9.54468485,11.1553933 C9.15616181,11.416913 8.63875823,11.550455 8.00752587,11.550455 C7.54938852,11.550455 7.17591722,11.483684 6.89934149,11.3557063 C6.62464722,11.2268011 6.40921919,11.0626558 6.25870179,10.8660523 C6.10348071,10.6648119 5.95672625,10.4070017 5.82126058,10.1009679 C5.69990593,9.82182809 5.54938852,9.60389497 5.37347131,9.45644236 C5.19002822,9.30342549 4.96331138,9.22645337 4.70178739,9.22645337 C4.38193791,9.22645337 4.11382879,9.32382774 3.90498589,9.51857648 C3.69426152,9.71425259 3.58701787,9.95351533 3.58701787,10.2280183 C3.58701787,10.6703762 3.75070555,11.127572 4.0752587,11.58755 C4.39604892,12.0456732 4.81843838,12.4147684 5.33113829,12.6874167 C6.04891816,13.0630035 6.96801505,13.2531154 8.0639699,13.2531154 C8.97742239,13.2531154 9.77892756,13.1130818 10.4477893,12.8385788 C11.1251176,12.5622211 11.6462841,12.1727236 11.9990593,11.6793601 Z" id="Skype"></path>
                </g>
            </g>
        </g>
    </g>
</svg>