<svg width="32" height="32" viewBox="0 0 32 32" fill="none" xmlns="http://www.w3.org/2000/svg">
<rect opacity="0.2" width="32" height="32" rx="2" fill="#0288D1"/>
<rect x="1" y="1" width="30" height="30" rx="1" stroke="#0288D1" stroke-width="2"/>
<path d="M17.5312 17.8662H9.52832V16.1797H17.5312C18.3118 16.1797 18.9528 16.0544 19.4541 15.8037C19.9554 15.5531 20.3242 15.1986 20.5605 14.7402C20.804 14.2819 20.9258 13.7412 20.9258 13.1182C20.9258 12.6097 20.8112 12.1227 20.582 11.6572C20.36 11.1917 19.9984 10.8086 19.4971 10.5078C19.0029 10.207 18.3477 10.0566 17.5312 10.0566H13.8145V24H11.752V8.35938H17.5312C18.7129 8.35938 19.7083 8.56348 20.5176 8.97168C21.3268 9.37272 21.9391 9.93132 22.3545 10.6475C22.777 11.3564 22.9883 12.1729 22.9883 13.0967C22.9883 14.0993 22.777 14.9587 22.3545 15.6748C21.9391 16.3838 21.3268 16.9281 20.5176 17.3076C19.7083 17.68 18.7129 17.8662 17.5312 17.8662ZM17.4023 19.3379V21.0352H9.52832V19.3379H17.4023Z" fill="#0288D1"/>
</svg>
