<svg xmlns="http://www.w3.org/2000/svg" xmlns:xlink="http://www.w3.org/1999/xlink" width="24" height="24" viewBox="0 0 24 24">
    <defs>
        <path id="a" d="M.147.085H23.03v23.098H.147z"/>
    </defs>
    <g fill="none" fill-rule="evenodd">
        <path fill="#FEB340" d="M22.943 11.635c0 6.203-4.981 11.232-11.127 11.232-6.147 0-11.13-5.029-11.13-11.232C.687 5.43 5.67.4 11.817.4c6.146 0 11.127 5.03 11.127 11.234"/>
        <path fill="#291900" d="M3.382 18.963c2.04 2.39 5.063 3.904 8.434 3.904 3.37 0 6.39-1.511 8.43-3.899-.706.1-2.954.335-8.424.335-5.623 0-7.798-.244-8.44-.34M22.666 14.138c.183-.804.277-1.643.277-2.503 0-.981-.123-1.932-.357-2.84-1.103-.025-4.568-.096-10.718-.096-6.215 0-9.741.071-10.822.099a11.363 11.363 0 0 0-.073 5.372c1.32.022 6.52.101 10.99.101 4.537 0 9.542-.107 10.703-.133M20.151 4.193C18.113 1.868 15.135.401 11.816.401 8.495.4 5.513 1.87 3.474 4.199c.751-.102 2.993-.326 8.323-.326 5.294 0 7.559.215 8.354.32"/>
        <g transform="translate(.226)">
            <mask id="b" fill="#fff">
                <use xlink:href="#a"/>
            </mask>
            <path fill="#291900" d="M11.59.085C5.27.085.148 5.255.148 11.635c0 6.378 5.123 11.548 11.444 11.548 6.318 0 11.439-5.17 11.439-11.548 0-6.38-5.121-11.55-11.44-11.55m11.124 11.55c0 6.202-4.98 11.23-11.124 11.23-6.145 0-11.126-5.028-11.126-11.23C.464 5.432 5.444.405 11.59.405c6.144 0 11.124 5.027 11.124 11.23" mask="url(#b)"/>
        </g>
    </g>
</svg>
