<svg xmlns="http://www.w3.org/2000/svg" xmlns:xlink="http://www.w3.org/1999/xlink" width="140" height="140" viewBox="0 0 140 140">
    <defs>
        <linearGradient id="b" x1="51.192%" x2="51.192%" y1="34.034%" y2="0%">
            <stop offset="0%" stop-color="#9CDBF8"/>
            <stop offset="100%" stop-color="#6ECEF4"/>
        </linearGradient>
        <ellipse id="a" cx="52" cy="52.181" rx="52" ry="52.181"/>
    </defs>
    <g fill="none" fill-rule="evenodd">
        <path fill="#FFF" d="M0 0h140v140H0z"/>
        <g transform="translate(18 24.849)">
            <mask id="c" fill="#fff">
                <use xlink:href="#a"/>
            </mask>
            <use fill="url(#b)" xlink:href="#a"/>
            <path fill="#FFF" d="M36.642 52.992h30.715v33.526H36.642z" mask="url(#c)"/>
            <path fill="#DA2021" d="M51.894 49.73l-3.198 5.673 3.198 4.946 3.198-4.946z" mask="url(#c)"/>
            <path fill="#DA2021" d="M50.588 56.863l-3.295 7.533v38.123h9.826V64.396l-3.975-7.533z" mask="url(#c)"/>
            <g mask="url(#c)">
                <path fill="#21424A" d="M8.322 79.986c1.131-11.427 2.774-19.728 5.297-22.142 1.42-1.358 8.32-4.578 20.701-9.66l-3.272 8.552 3.272 4.546-3.272 4.996 12.6 37.876L9.26 101.89c-1.379-6.984-1.691-14.285-.938-21.904z"/>
                <path fill="#BEC0C3" d="M52.433 50.71L47.96 58.4l-7.007-2.733v-9.704z"/>
                <path fill="#FFF" d="M52.433 49.629l-4.473 7.689-7.007-2.732V44.88z"/>
                <path fill="#225363" d="M33.448 48.363l7.625-3.465 12.094 60.934H44.17L31.057 66.295l3.21-5.024-3.21-4.48z"/>
            </g>
            <g mask="url(#c)">
                <path fill="#21424A" d="M95.678 79.986c-1.131-11.427-2.774-19.728-5.297-22.142-1.42-1.358-8.32-4.578-20.701-9.66l3.272 8.552-3.272 4.546 3.272 4.996-12.6 37.876 34.388-2.264c1.379-6.984 1.691-14.285.938-21.904z"/>
                <path fill="#BEC0C3" d="M51.567 50.71l4.473 7.69 7.007-2.733v-9.704z"/>
                <path fill="#FFF" d="M51.567 49.629l4.473 7.689 7.007-2.732V44.88z"/>
                <path fill="#225363" d="M70.552 48.363l-7.625-3.465-12.094 60.934h8.997l13.113-39.537-3.21-5.024 3.21-4.48z"/>
            </g>
        </g>
        <path fill="#FED09D" d="M60.031 63.782v6.405l9.81 7.113 10.667-7.367v-6.151z"/>
        <path fill="#FFCE9C" stroke="#F1A76C" stroke-width=".541" d="M70.27 69.189c6.753 0 17.782-10.894 17.782-24.333 0-13.439-7.962-24.333-17.783-24.333-9.82 0-17.782 10.894-17.782 24.333 0 13.439 11.029 24.333 17.782 24.333z"/>
        <path fill="#C6E8F7" fill-opacity=".5" stroke="#252627" stroke-width="1.105" d="M57.168 38.777v3.161a4.75 4.75 0 0 0 4.751 4.751 5.584 5.584 0 0 0 5.48-4.506l.455-2.316.005-.025a1.07 1.07 0 0 0-.873-1.236c-2.005-.345-3.696-.518-5.067-.518-1.582 0-3.165.23-4.75.69zM83.632 38.777v3.161a4.75 4.75 0 0 1-4.75 4.751 5.584 5.584 0 0 1-5.48-4.506l-.456-2.316-.005-.025a1.07 1.07 0 0 1 .873-1.236c2.006-.345 3.696-.518 5.067-.518 1.583 0 3.166.23 4.751.69z"/>
        <path stroke="#252627" stroke-width="1.081" d="M67.542 40.573c.803-.55 1.7-.824 2.693-.824.993 0 1.99.274 2.993.824M83.18 39.21h4.03M52.667 39.21h4.973"/>
        <path fill="#FEC68A" d="M52.796 41.122c-1.643-.307-2.464.757-2.464 3.193 0 5.897 1.437 9.46 4.31 10.69l-1.846-13.883zM87.742 41.122c1.644-.307 2.465.757 2.465 3.193 0 5.897-1.437 9.46-4.31 10.69l1.845-13.883z"/>
        <path fill="#8E4B42" d="M53.083 42.916c.947-6.733 2.496-11.198 4.647-13.395 8.58-4.995 13.492-4.995 5.209 1.418 3.09-.643 9.279-3.93 5.996 0-2.58 3.09 6.145-4.638 7.637-4.638 4.502 0 3.974 3.071 6.328 7.256 3.5 3.53 4.982 7.173 4.448 10.926 4.161-5.9 5.41-11.58 3.749-17.043-2.493-8.194-3.549-13.009-14.525-13.009-11.66-6.85-20.49-4.71-26.487 6.421 2.043-.638 3.043-.638 2.998 0-.288 4.086-3.83 4.132-3.83 10.087 0 3.97 1.277 7.962 3.83 11.977z"/>
        <path stroke="#F1A76C" stroke-width=".541" d="M69.605 45.397l-.952 5.86h3.79"/>
        <path fill="#F7F7F7" stroke="#F1A76C" stroke-width=".541" d="M65.694 55.545c.105 2.08 2.17 3.452 4.797 3.452 2.533 0 4.681-1.477 4.796-3.452a4.37 4.37 0 0 0-.476-.02c-.37 0-.372.001-1.867.062a57.818 57.818 0 0 1-2.453.062c-.725 0-1.425-.02-2.453-.062-1.495-.061-1.497-.061-1.867-.061-.21 0-.369.006-.477.02zm-.034.005a.992.992 0 0 0 .001-.001zm.03-.145a1.16 1.16 0 0 0 0-.017z"/>
        <path stroke="#FFF" stroke-width="1.081" d="M59.782 41.913l1.552-1.383M75.368 41.913l1.552-1.383"/>
    </g>
</svg>
