<?xml version="1.0" encoding="UTF-8"?>
<svg width="16px" height="16px" viewBox="0 0 16 16" version="1.1" xmlns="http://www.w3.org/2000/svg" xmlns:xlink="http://www.w3.org/1999/xlink">
    <g id="Page-1" stroke="none" stroke-width="1" fill="none" fill-rule="evenodd">
        <g id="style-3" transform="translate(-2313.000000, -665.000000)">
            <g id="Group-12-Copy-11" transform="translate(2282.000000, 379.000000)">
                <g id="Group-Copy">
                    <g id="Group-12-Copy">
                        <g id="Group-6-Copy" transform="translate(16.000000, 274.000000)">
                            <g id="calendar" transform="translate(15.000000, 12.000000)">
                                <g id="Group-8" stroke-width="1"></g>
                                <path d="M0,6 L16,6 L16,14 C16,15.1045695 15.1045695,16 14,16 L2,16 C0.8954305,16 1.3527075e-16,15.1045695 0,14 L0,6 Z" id="Rectangle" fill="#272424"></path>
                                <path d="M2,2 L14,2 C15.1045695,2 16,2.8954305 16,4 L16,5 L0,5 L0,4 C-1.3527075e-16,2.8954305 0.8954305,2 2,2 Z" id="Rectangle-2" fill="#272424"></path>
                                <rect id="Rectangle-10" fill="#272424" x="4" y="0" width="2" height="2"></rect>
                                <rect id="Rectangle-10-Copy" fill="#272424" x="10" y="0" width="2" height="2"></rect>
                            </g>
                        </g>
                    </g>
                </g>
            </g>
        </g>
    </g>
</svg>