<svg xmlns="http://www.w3.org/2000/svg" width="24" height="24" viewBox="0 0 24 24">
    <g fill="none" fill-rule="evenodd">
        <path fill="#32B45A" d="M9.703 10.253a1.39 1.39 0 1 1 1.392-1.39 1.39 1.39 0 0 1-1.392 1.39M11.973.142C5.453.142.167 5.419.167 11.93c0 5.79 4.184 10.603 9.698 11.596V13.162c0-.486.398-.884.885-.884h1.574a.084.084 0 0 0 .084-.084V.153c-.145-.006-.289-.011-.435-.011"/>
        <path fill="#3C4583" d="M20.315 17.982a1.243 1.243 0 1 1 0-2.486 1.243 1.243 0 0 1 0 2.486m-3.29 0a1.243 1.243 0 1 1 0-2.486 1.243 1.243 0 0 1 0 2.486m-3.29 0a1.243 1.243 0 1 1 0 0M13.81.285v12.467a.887.887 0 0 1-.885.884h-1.573a.084.084 0 0 0-.084.084v9.975c.233.013.468.022.705.022 6.52 0 11.806-5.277 11.806-11.787 0-5.887-4.32-10.764-9.969-11.645"/>
    </g>
</svg>
