<svg width="15" height="16" viewBox="0 0 15 16" fill="none" xmlns="http://www.w3.org/2000/svg">
    <rect width="15" height="16" fill="black" fill-opacity="0"/>
    <path fill-rule="evenodd" clip-rule="evenodd" d="M14.7415 9.78232C13.742 14.0026 9.68127 16.5703 5.67198 15.5184C1.66409 14.4661 -0.775995 10.1919 0.224222 5.97235C1.22304 1.75179 5.28377 -0.816331 9.29189 0.23573C13.3014 1.28779 15.7408 5.5625 14.7415 9.78232Z" fill="#FF9400"/>
    <path fill-rule="evenodd" clip-rule="evenodd" d="M9.16004 6.73945C8.92852 7.7157 7.49941 7.2197 7.03613 7.0981L7.44492 5.37256C7.9082 5.49416 9.40115 5.72111 9.16004 6.73945ZM8.90623 9.5237C8.65249 10.5967 6.93573 10.017 6.37891 9.87127L6.83002 7.96875C7.38661 8.11497 9.17142 8.40469 8.90623 9.5237ZM10.7823 6.75497C10.9312 5.70684 10.1731 5.1434 9.13613 4.76752L9.47265 3.3477L8.65157 3.13232L8.32417 4.51472C8.10832 4.4581 7.88662 4.40469 7.66656 4.35177L7.99607 2.96026L7.17569 2.74487L6.83916 4.1642C6.66049 4.12137 6.4851 4.07903 6.31485 4.03447L6.31579 4.03004L5.18344 3.73244L4.96501 4.65552C4.96501 4.65552 5.57422 4.80247 5.56112 4.81158C5.8939 4.89897 5.954 5.1306 5.94395 5.31423L5.56065 6.9317C5.5838 6.93786 5.6135 6.94697 5.64625 6.9605C5.61865 6.95337 5.58942 6.94549 5.55948 6.93786L5.02254 9.2037C4.98185 9.31004 4.87848 9.4693 4.64626 9.409C4.65421 9.42155 4.04945 9.2522 4.04945 9.2522L3.6416 10.2417L4.71034 10.5223C4.90889 10.5748 5.10369 10.6294 5.29569 10.6811L4.95566 12.1172L5.7758 12.3326L6.11233 10.9115C6.33636 10.9755 6.55362 11.0346 6.76667 11.0905L6.43131 12.5044L7.25239 12.7198L7.59219 11.2867C8.99207 11.5655 10.0451 11.4531 10.4883 10.1204C10.8454 9.0474 10.4705 8.42807 9.73388 8.02413C10.2703 7.89367 10.6745 7.52223 10.7823 6.75497Z" fill="white"/>
</svg>
