<?xml version="1.0" encoding="UTF-8"?>
<svg width="34px" height="20px" viewBox="0 0 20 12" version="1.1" xmlns="http://www.w3.org/2000/svg" xmlns:xlink="http://www.w3.org/1999/xlink">
    <g id="Page-1" stroke="none" stroke-width="1" fill="none" fill-rule="evenodd">
        <g id="style-3" transform="translate(-2934.000000, -1047.000000)">
            <g id="Group-54" transform="translate(2698.000000, 1033.000000)">
                <g id="Group" transform="translate(236.000000, 14.000000)">
                    <polygon id="Fill-4" fill="#FF5F00" points="7.28890625 10.6397487 12.69125 10.6397487 12.69125 1.27409548 7.28890625 1.27409548"></polygon>
                    <path d="M7.63191406,5.95691457 C7.63191406,4.05402513 8.55800781,2.36618593 9.98152344,1.27412563 C8.93535156,0.47980402 7.61472656,-4.52261307e-05 6.17410156,-4.52261307e-05 C2.76121094,-4.52261307e-05 3.90625e-05,2.664 3.90625e-05,5.95691457 C3.90625e-05,9.24975377 2.76121094,11.9138744 6.17410156,11.9138744 C7.61472656,11.9138744 8.93535156,11.4340251 9.98152344,10.6397035 C8.55800781,9.56422613 7.63191406,7.8598794 7.63191406,5.95691457" id="Fill-6" fill="#FF0015"></path>
                    <path d="M19.9801641,5.95691457 C19.9801641,9.24975377 17.2189922,11.9138744 13.8061016,11.9138744 C12.3653984,11.9138744 11.0448516,11.4340251 9.99867969,10.6397035 C11.4393047,9.54764322 12.3482891,7.8598794 12.3482891,5.95691457 C12.3482891,4.05402513 11.4221172,2.36618593 9.99867969,1.27412563 C11.0448516,0.47980402 12.3653984,-4.52261307e-05 13.8061016,-4.52261307e-05 C17.2189922,-4.52261307e-05 19.9801641,2.68058291 19.9801641,5.95691457" id="Fill-7" fill="#FFA000"></path>
                </g>
            </g>
        </g>
    </g>
</svg>