<svg width="16" height="16" viewBox="0 0 16 16" fill="none" xmlns="http://www.w3.org/2000/svg">
    <rect width="16" height="16" fill="black" fill-opacity="0"/>
    <path fill-rule="evenodd" clip-rule="evenodd" d="M16 3.85149C16 1.72394 14.2752 0 12.1481 0H6.70695C4.95179 0 3.45436 1.18305 3 2.81842H9.57691C12.1071 2.81842 13.1808 3.99557 13.1808 6.7576V13C14.8129 12.5453 16 11.0428 16 9.29407V3.85149Z" fill="#4163AC"/>
    <path fill-rule="evenodd" clip-rule="evenodd" d="M0 12.1486C0 14.2764 1.72416 16 3.85132 16H9.29246C11.0482 16 12.5456 14.817 13 13.1813H6.42309C3.89294 13.1813 2.81918 12.0045 2.81918 9.24226V3C1.18713 3.45496 0 4.95803 0 6.70644V12.1486Z" fill="#F46A40"/>
    <path fill-rule="evenodd" clip-rule="evenodd" d="M10.2404 7.77751H9.72559V6.52649H10.2404C10.8686 6.52649 11.0402 6.8294 11.0402 7.14961C11.0402 7.46923 10.8116 7.77751 10.2404 7.77751ZM9.72559 4.70337H10.1371C10.8343 4.70337 10.8686 5.13132 10.8686 5.26263C10.8686 5.4569 10.7662 5.8177 10.1718 5.8177H9.72559V4.70337ZM8.82282 6.88669V7.97716C8.60526 7.84644 8.35487 7.74348 8.09254 7.62919C7.80634 7.50325 7.49805 7.34299 7.49805 6.98219C7.49805 6.79896 7.61205 6.52649 8.16058 6.52649H8.52558H8.82282H9.17707L8.82282 6.88669ZM5.32494 9.67551H4.90234V8.20544H5.32494C5.85079 8.20544 6.09103 8.52476 6.09103 8.91392C6.09103 9.27531 5.87407 9.67551 5.32494 9.67551ZM11.0635 6.15466V6.13735C11.3718 6.04036 11.7833 5.78282 11.7833 5.10807C11.7833 4.34886 11.1662 4 10.2974 4H8.8228V5.81773H7.95494C6.78923 5.81773 6.54898 6.63543 6.54898 7.08069C6.54898 7.71396 6.91487 7.99508 7.58935 8.33141C8.0003 8.53673 8.49123 8.66266 8.49123 9.1315C8.49123 9.3783 8.26322 9.67553 7.77199 9.67553H6.85787C6.99485 9.44067 7.05126 9.18372 7.05126 8.9602C7.05126 8.66953 6.94889 7.50326 5.32537 7.50326H4V12H4.90278V10.0405L5.26837 10.4064H7.73797C8.89114 10.4064 9.43998 9.81251 9.43998 9.10374C9.43998 8.85276 9.39402 8.65102 9.31403 8.48629H10.2404C11.669 8.48629 12 7.77752 12 7.22274C12 6.65811 11.6347 6.24031 11.0635 6.15466Z" fill="#4163AC"/>
</svg>
