<?xml version="1.0" encoding="UTF-8"?>
<svg width="37px" height="12px" viewBox="0 0 37 12" version="1.1" xmlns="http://www.w3.org/2000/svg" xmlns:xlink="http://www.w3.org/1999/xlink">
    <g id="Page-1" stroke="none" stroke-width="1" fill="none" fill-rule="evenodd">
        <g id="style-3" transform="translate(-2917.000000, -1099.000000)">
            <g id="Group-54-Copy" transform="translate(2698.000000, 1085.000000)">
                <g id="Group-64" transform="translate(219.000000, 14.000000)">
                    <polygon id="Fill-2" fill="#005197" points="3.15525253 1.76976002 5.79609362 11.6360709 8.86167961 11.6360709 13.6311387 0.209500638 10.5218411 0.209500638 7.51723142 7.96774125 6.28252962 1.89653381"></polygon>
                    <polygon id="Fill-3" fill="#005197" points="14.7926744 0.167075779 12.9610754 11.6361035 15.8573133 11.6361035 17.7305345 0.167075779"></polygon>
                    <path d="M26.2485804,2.90790457 L26.6739301,0.506060963 C26.6739301,0.506060963 25.3962315,0 23.8637959,0 C22.3299307,0 19.0082881,0.969664407 19.0082881,3.7932527 C19.0082881,6.61858283 23.1392278,6.74503003 23.1392278,8.30398302 C23.1392278,9.86435127 19.4344076,9.69609974 18.3266619,8.68501204 L17.8582054,11.171934 C17.8582054,11.171934 19.5190267,11.8048232 21.0091803,11.8048232 C22.4999386,11.8048232 26.2069032,11.4677758 26.2069032,7.80004494 C26.2069032,4.59439341 22.0752487,5.22739147 22.0752487,3.28822595 C22.0752487,3.28822595 22.4999386,1.34889714 26.2485804,2.90790457" id="Fill-4" fill="#005197"></path>
                    <path d="M26.0347674,11.6360872 L29.2287391,11.6360872 L29.7832992,9.99151153 L33.7005193,9.99151153 L34.0268444,11.6214992 L36.7954663,11.6214992 L34.2550795,0.295085198 L31.6995172,0.295085198 C31.6995172,0.295085198 30.7625492,0.400575802 30.3371995,1.51758957 C29.9325785,2.5796263 26.0347674,11.6360872 26.0347674,11.6360872" id="Fill-6" fill="#005197"></path>
                    <polygon id="Fill-8" fill="#FEFEFE" points="33.2327281 7.6307102 30.634224 7.6307102 32.2534231 3.414352"></polygon>
                    <path d="M7.19366653,6.37918774 L6.28254062,1.8965447 C6.28254062,1.8965447 6.15915841,0.212886353 4.94738458,0.212886353 L0,0.212886353 L0,0.446729302 C0,0.446729302 4.8957554,1.25004733 7.19366653,6.37918774" id="Fill-10" fill="#005197"></path>
                </g>
            </g>
        </g>
    </g>
</svg>