<?xml version="1.0" encoding="UTF-8"?>
<svg width="16px" height="15px" viewBox="0 0 16 15" version="1.1" xmlns="http://www.w3.org/2000/svg" xmlns:xlink="http://www.w3.org/1999/xlink">
    <g  stroke="none" stroke-width="1" fill="none" fill-rule="evenodd">
        <g id="Настройка-уведомлений-об-ошибках-по-телеграм-№1" transform="translate(-687.000000, -336.000000)" fill="#272424">
            <g id="Group-70" transform="translate(657.000000, 184.000000)">
                <g id="secret" transform="translate(30.000000, 152.000000)">
                    <path d="M6.06456374,14.3812489 C5.85246008,14.7440209 5.6624534,14.9469975 5.494538,14.9901846 C5.3266226,15.0333718 5.04824071,14.9340428 4.659384,14.6921948 L2.16717841,12.9301679 C1.79599699,12.671045 1.60157155,12.4551125 1.58389625,12.2823639 C1.56622094,12.1096153 1.70762126,11.8591336 2.00810145,11.5309113 L4.89799943,8.55101285 L0.868049961,7.90320885 C0.426167328,7.83410941 0.156622965,7.72614315 0.0594087853,7.57930684 C-0.037805394,7.43247054 -0.0157115937,7.14312097 0.125690849,6.71124948 L1.08015256,3.8349997 C1.2038797,3.40312821 1.35411754,3.1526465 1.5308706,3.08354706 C1.70762365,3.01444762 1.99042429,3.07490872 2.37928101,3.26493218 L6.14410222,4.92331043 L5.53430724,1.06239857 C5.46360601,0.630527071 5.49453733,0.34549616 5.62710212,0.207297281 C5.75966691,0.0690984027 6.04688632,0 6.48876895,0 L9.59076953,0 C10.0326522,0 10.311034,0.0690984027 10.4259235,0.207297281 C10.540813,0.34549616 10.5629068,0.630527071 10.4922056,1.06239857 L9.96194908,4.92331043 L13.5942062,3.26493218 C13.9830629,3.07490872 14.2614448,3.01444762 14.4293602,3.08354706 C14.5972756,3.1526465 14.7519322,3.40312821 14.8933346,3.8349997 L15.8743092,6.71124948 C16.0157116,7.14312097 16.0378054,7.43247054 15.9405912,7.57930684 C15.843377,7.72614315 15.5738327,7.83410941 15.13195,7.90320885 L11.0754877,8.55101285 L13.9918985,11.5309113 C14.2923787,11.8591336 14.4337791,12.1096153 14.4161038,12.2823639 C14.3984284,12.4551125 14.204003,12.671045 13.8328216,12.9301679 L11.340616,14.6921948 C10.9517593,14.9340428 10.6777962,15.0333718 10.5187184,14.9901846 C10.3596407,14.9469975 10.1740527,14.7440209 9.96194908,14.3812489 L8,10.7276343 L6.06456374,14.3812489 Z" ></path>
                </g>
            </g>
        </g>
    </g>
</svg>